<?xml version="1.0" standalone="no"?>
<!DOCTYPE svg PUBLIC "-//W3C//DTD SVG 20010904//EN"
 "http://www.w3.org/TR/2001/REC-SVG-20010904/DTD/svg10.dtd">
<svg version="1.0" xmlns="http://www.w3.org/2000/svg"
 width="300.000000pt" height="417.000000pt" viewBox="0 0 300.000000 417.000000"
 preserveAspectRatio="xMidYMid meet">
<metadata>
Created by potrace 1.10, written by Peter Selinger 2001-2011
</metadata>
<g transform="translate(0.000000,417.000000) scale(0.100000,-0.100000)"
fill="#000000" stroke="none">
<path d="M23 4157 c-15 -8 -23 -21 -23 -37 0 -19 2 -22 10 -10 8 12 10 12 16
-3 9 -24 67 -22 120 3 66 33 65 50 -4 50 -31 0 -66 2 -77 4 -11 2 -30 -1 -42
-7z m55 -14 c2 -8 -6 -13 -22 -13 -25 0 -33 10 -19 24 10 10 36 3 41 -11z"/>
<path d="M470 4163 l-236 -3 -18 -30 c-33 -57 -159 -95 -201 -60 -13 10 -15 9
-15 -8 0 -46 90 -57 158 -19 23 12 59 39 82 60 l40 38 130 -2 c92 -1 130 -5
130 -13 0 -6 -16 -28 -36 -49 -33 -33 -42 -37 -88 -37 -50 0 -78 -12 -150 -64
-24 -17 -31 -18 -69 -6 -23 8 -77 14 -119 14 -68 1 -78 -1 -78 -16 0 -16 10
-18 73 -18 39 -1 90 -7 112 -15 57 -21 70 -19 110 16 44 39 97 58 145 52 34
-5 41 -1 97 55 34 35 72 63 89 67 58 13 94 27 94 36 0 5 -3 8 -7 7 -5 -2 -114
-4 -243 -5z"/>
<path d="M856 4162 c-78 -2 -93 -6 -118 -27 -16 -14 -40 -27 -54 -30 -13 -3
-35 -7 -49 -10 -14 -3 -52 -32 -84 -65 l-58 -60 -59 0 c-54 0 -65 -4 -113 -40
-58 -44 -85 -48 -150 -25 -51 18 -171 10 -171 -11 0 -10 16 -14 60 -14 34 0
89 -7 123 -16 55 -13 66 -13 97 0 19 8 47 25 60 38 15 13 41 24 60 26 97 8
111 13 168 68 39 38 70 58 100 66 23 6 62 23 85 39 46 30 87 41 93 24 2 -5
-16 -18 -41 -28 -60 -25 -86 -47 -141 -119 -78 -103 -135 -141 -226 -153 -57
-7 -120 -24 -128 -34 -13 -17 -89 -68 -123 -84 -21 -10 -72 -20 -113 -24 -52
-4 -74 -10 -74 -19 0 -53 204 -10 286 60 56 47 75 55 146 63 106 10 173 52
254 160 60 80 90 104 149 121 35 10 127 86 114 94 -2 2 -44 2 -93 0z"/>
<path d="M1428 4163 l-78 -4 35 -30 34 -31 51 28 c27 15 50 31 50 36 0 4 -3 7
-7 6 -5 -1 -43 -4 -85 -5z"/>
<path d="M1745 4160 l-170 -5 -70 -44 c-39 -24 -89 -59 -113 -77 -24 -18 -79
-45 -122 -59 -43 -14 -98 -40 -122 -58 l-43 -31 47 -7 c62 -9 126 -49 218
-135 85 -79 149 -110 252 -121 47 -5 70 -13 104 -39 100 -77 224 -113 342 -99
70 7 135 7 228 0 82 -7 128 9 177 65 l28 31 88 -6 c110 -9 146 2 216 65 29 26
61 50 72 53 10 3 42 11 71 17 34 8 52 17 52 27 0 12 -10 14 -52 8 -69 -9 -131
-37 -166 -73 -49 -53 -85 -65 -181 -59 -70 3 -93 1 -123 -15 -21 -10 -38 -22
-38 -26 0 -4 -16 -18 -35 -31 -32 -21 -41 -23 -112 -17 -116 10 -154 10 -195
-1 -25 -7 -66 -8 -124 -1 -92 10 -137 28 -231 91 -31 21 -70 37 -99 42 -118
17 -168 41 -258 123 -46 43 -97 85 -113 92 -28 15 -53 35 -53 43 0 3 15 10 33
17 96 36 130 54 219 114 138 92 146 96 231 96 40 0 77 -3 80 -7 13 -12 -26
-43 -55 -43 -39 0 -60 -12 -112 -65 -26 -25 -61 -49 -85 -56 -57 -17 -85 -49
-76 -88 12 -56 82 -99 207 -128 46 -10 83 -27 113 -50 25 -19 61 -41 81 -49
38 -16 138 -19 194 -6 26 6 46 3 78 -10 59 -26 162 -23 233 8 44 18 66 21 114
17 88 -8 132 8 200 72 33 30 74 62 92 70 18 9 35 20 38 25 3 6 29 10 56 10 28
0 70 5 95 11 37 10 44 15 44 35 0 28 0 28 -36 9 -43 -22 -90 -28 -123 -17 -26
9 -33 7 -57 -15 -15 -14 -42 -32 -59 -39 -18 -7 -40 -25 -49 -39 -10 -15 -38
-39 -64 -56 -42 -26 -54 -29 -133 -29 -64 0 -98 -5 -130 -19 -77 -34 -135 -36
-212 -7 -65 25 -69 25 -108 9 -78 -31 -153 -10 -267 72 -18 13 -59 29 -90 35
-88 18 -140 40 -168 73 -34 41 -28 61 21 68 54 7 77 21 121 74 32 40 41 45 77
45 33 0 48 7 84 41 33 30 50 39 66 35 12 -3 29 1 39 11 18 16 24 35 11 31 -5
-1 -85 -5 -178 -8z"/>
<path d="M2120 4161 c0 -2 11 -16 25 -33 33 -39 32 -80 -3 -120 -21 -22 -38
-31 -60 -31 -36 0 -72 27 -72 55 0 23 11 23 33 -2 32 -38 97 -12 97 40 0 46
-49 80 -117 80 -49 0 -59 -4 -89 -34 -28 -28 -34 -41 -34 -78 0 -60 36 -127
80 -150 68 -36 152 -13 184 51 20 38 53 61 89 61 43 0 87 49 87 97 0 21 -4 43
-8 50 -6 10 -212 24 -212 14z m176 -43 c30 -30 -23 -88 -81 -88 -17 0 -19 91
-3 101 19 12 67 4 84 -13z m-206 -38 c13 -24 -6 -31 -38 -14 -49 25 -90 -20
-62 -70 14 -27 60 -56 89 -56 12 0 21 -5 21 -11 0 -5 -4 -7 -10 -4 -5 3 -10 1
-10 -4 0 -6 -16 -11 -36 -11 -54 0 -104 55 -104 113 0 23 7 50 14 60 30 39
114 37 136 -3z"/>
<path d="M2810 4159 c0 -7 122 -108 161 -132 l29 -19 0 26 c0 14 -4 26 -8 26
-5 0 -28 13 -50 30 -45 32 -47 53 -6 67 18 6 2 8 -50 8 -42 0 -76 -3 -76 -6z"/>
<path d="M972 4148 c-21 -21 -14 -25 51 -30 64 -5 93 -19 181 -86 38 -28 40
-29 83 -16 55 17 103 45 103 60 0 7 -20 29 -44 48 l-43 36 -160 0 c-110 0
-163 -4 -171 -12z m319 -31 c46 -31 44 -50 -7 -61 -39 -8 -45 -6 -93 30 -57
43 -53 54 20 54 32 0 57 -7 80 -23z"/>
<path d="M2366 4116 c5 -36 2 -53 -15 -82 -20 -34 -21 -38 -6 -60 21 -33 60
-51 139 -65 37 -6 88 -22 112 -35 65 -35 113 -32 163 10 38 32 43 34 103 29
48 -3 71 0 97 14 48 25 49 38 4 66 -21 14 -76 57 -123 96 l-85 71 -67 0 c-36
0 -73 -3 -82 -6 -25 -10 -20 -68 9 -102 29 -35 63 -46 99 -32 33 12 33 38 0
50 -25 10 -29 30 -6 38 15 5 62 -43 62 -63 0 -28 -46 -65 -81 -65 -70 0 -140
85 -127 155 l5 25 -103 0 -104 0 6 -44z m141 26 c6 -4 17 -30 24 -57 9 -37 23
-61 56 -92 43 -42 62 -49 123 -44 30 2 90 63 90 91 0 28 9 25 63 -19 26 -22
53 -41 60 -44 9 -3 9 -7 0 -17 -7 -8 -36 -12 -76 -11 -57 1 -68 -2 -102 -29
-42 -33 -80 -38 -124 -16 -15 8 -68 25 -117 36 -49 12 -97 29 -106 38 -16 16
-16 21 0 87 16 64 19 70 47 76 43 9 49 10 62 1z m175 -8 c4 -3 -1 -18 -10 -34
-12 -21 -20 -26 -29 -18 -18 15 -16 35 5 47 20 12 27 13 34 5z"/>
<path d="M1816 4060 c-39 -36 -52 -42 -86 -42 -35 1 -44 -4 -63 -33 -26 -40
-92 -85 -124 -85 -62 0 2 -45 95 -66 94 -22 114 -31 173 -74 70 -53 135 -66
206 -44 51 16 55 16 111 -5 75 -27 144 -27 202 1 36 17 64 22 142 22 90 1 99
3 139 31 23 17 42 35 41 40 -2 16 -120 61 -197 75 -62 11 -75 18 -111 55 -41
43 -42 43 -87 33 -37 -7 -50 -17 -71 -49 -37 -55 -80 -79 -142 -79 -97 0 -168
81 -169 192 0 31 -4 60 -7 63 -4 4 -27 -12 -52 -35z m29 -82 c22 -100 109
-178 199 -178 53 0 117 33 163 84 25 27 50 46 63 46 12 0 40 -16 62 -35 28
-24 58 -38 97 -45 31 -6 72 -16 91 -21 99 -26 74 -53 -51 -56 -64 -2 -102 -9
-133 -23 -71 -32 -114 -35 -176 -10 -64 25 -93 27 -154 10 -63 -17 -105 -7
-184 47 -48 33 -85 50 -131 60 -36 7 -67 15 -69 18 -3 2 18 27 46 55 36 36 58
50 78 50 16 0 38 7 48 15 30 23 44 18 51 -17z"/>
<path d="M911 4076 c-9 -11 1 -14 54 -19 70 -7 146 -35 181 -68 19 -17 26 -19
44 -9 21 11 20 14 -36 51 -33 22 -75 44 -94 49 -51 14 -136 12 -149 -4z"/>
<path d="M800 4024 c-26 -11 -51 -37 -87 -92 -71 -106 -168 -169 -278 -179
-56 -5 -72 -12 -122 -50 -32 -24 -84 -53 -115 -64 -32 -12 -58 -25 -58 -28 0
-13 62 -71 76 -71 38 0 133 61 170 110 41 53 107 93 175 105 50 9 110 -9 163
-50 62 -47 92 -61 161 -75 120 -24 162 -53 202 -138 14 -29 42 -66 63 -82 33
-26 131 -76 183 -94 9 -3 17 -9 17 -14 0 -19 -43 -63 -80 -82 -22 -11 -63 -44
-92 -73 -46 -46 -62 -56 -122 -71 -89 -22 -132 -45 -181 -96 -45 -47 -83 -70
-116 -70 -14 0 -48 -26 -94 -74 -76 -78 -120 -100 -176 -89 -24 4 -41 -3 -90
-37 -59 -41 -159 -80 -208 -80 -46 0 -103 24 -147 63 l-44 39 0 -29 c0 -31 33
-63 80 -78 14 -4 31 -12 39 -18 7 -6 38 -11 68 -11 l55 0 -6 -29 c-3 -16 -6
-36 -6 -45 0 -13 -2 -13 -18 2 -10 9 -39 18 -63 21 -88 10 -118 15 -133 21
-11 4 -16 1 -16 -10 0 -23 59 -46 117 -46 44 0 93 -20 93 -38 0 -4 -21 -29
-45 -57 -25 -27 -52 -71 -61 -97 -8 -26 -32 -66 -53 -89 l-37 -42 47 -49 c38
-40 52 -48 83 -48 20 0 36 3 36 8 0 18 -53 83 -80 97 -27 14 -42 45 -22 45 4
0 33 23 65 50 44 38 67 50 91 50 22 0 48 12 79 36 26 20 47 40 47 44 0 4 -14
13 -30 20 -37 15 -60 56 -60 104 0 45 26 60 90 53 39 -5 53 -2 83 19 43 29 73
31 101 5 12 -10 36 -23 55 -30 68 -22 121 -60 121 -86 0 -28 -38 -61 -80 -70
-17 -4 -30 -11 -30 -16 0 -14 46 -29 86 -29 31 0 34 3 34 28 0 31 32 72 57 72
8 0 33 -10 55 -22 38 -22 39 -22 72 -4 38 20 55 15 95 -28 14 -14 35 -26 47
-26 45 0 93 -27 94 -52 0 -4 -18 -17 -40 -28 -28 -14 -47 -34 -64 -68 -31 -60
-49 -76 -80 -68 -22 5 -28 0 -53 -46 -37 -68 -79 -94 -128 -78 -95 31 -99 160
-6 160 52 0 83 -60 46 -90 -16 -13 -17 -11 -19 30 -1 31 -36 39 -60 15 -22
-22 -20 -32 9 -60 48 -49 104 -29 142 51 25 53 27 55 62 52 34 -3 37 0 58 42
13 25 36 57 53 71 l31 26 -38 6 c-25 4 -50 18 -68 37 -32 34 -44 36 -84 16
-26 -14 -32 -13 -75 10 -46 24 -49 25 -67 8 -24 -22 -24 -51 0 -91 21 -34 57
-51 73 -35 11 11 7 24 -14 54 -7 9 -10 20 -7 23 13 12 38 -8 48 -37 9 -25 8
-36 -4 -55 -16 -24 -53 -31 -72 -12 -8 8 -17 6 -34 -10 -13 -11 -31 -21 -41
-21 -15 0 -18 -8 -18 -47 0 -140 -83 -223 -146 -149 -13 14 -27 26 -32 26 -23
0 -105 -111 -86 -117 40 -14 79 -41 82 -58 2 -16 -10 -27 -55 -49 -52 -25 -56
-29 -36 -37 12 -4 32 -22 45 -39 12 -17 58 -52 101 -77 78 -47 86 -58 52 -77
-10 -6 -46 -28 -78 -49 -65 -40 -77 -43 -107 -25 -17 11 -24 8 -52 -19 -61
-58 -116 -63 -152 -11 -22 31 -20 59 7 99 30 44 72 52 88 15 10 -20 9 -30 -5
-51 -18 -27 -31 -31 -42 -14 -4 7 1 16 10 21 16 9 23 38 8 38 -4 0 -18 -7 -30
-16 -17 -12 -22 -24 -20 -46 6 -62 61 -62 128 -2 39 35 41 36 65 20 25 -16 28
-16 85 19 33 20 60 40 60 43 0 4 -25 22 -55 40 -30 18 -67 48 -81 67 -16 21
-35 35 -48 35 -26 0 -66 -38 -66 -62 0 -28 29 -29 46 -2 12 17 20 22 27 15 13
-13 -21 -64 -45 -69 -16 -3 -43 18 -50 38 -2 8 -18 7 -51 -1 -38 -11 -49 -19
-57 -44 -24 -68 -90 -115 -162 -115 -41 0 -48 -3 -48 -20 0 -15 7 -20 24 -20
37 0 40 -16 6 -30 -24 -10 -30 -19 -30 -42 l0 -30 30 26 c53 44 136 46 224 7
32 -15 73 -20 193 -24 175 -5 193 -12 215 -79 12 -37 19 -43 45 -46 27 -3 30
0 26 20 -3 15 7 40 27 71 19 27 29 54 26 63 -8 20 9 51 50 90 26 23 34 40 34
65 0 69 32 74 67 11 12 -20 24 -57 28 -81 4 -24 18 -59 31 -79 13 -19 24 -38
24 -43 0 -4 19 1 43 11 55 26 91 25 152 -4 57 -26 99 -70 127 -134 41 -92 130
-160 309 -237 l86 -37 59 38 c32 21 65 45 71 53 25 32 53 143 53 212 0 71 -13
92 -25 39 -7 -32 -40 -70 -61 -70 -7 0 -20 7 -28 16 -19 19 -22 78 -3 71 6 -2
12 -12 12 -22 0 -23 21 -31 40 -15 23 19 18 49 -11 60 -44 17 -65 11 -101 -27
-31 -34 -39 -38 -86 -38 -42 -1 -61 -7 -88 -28 -20 -15 -43 -27 -52 -27 -27 0
-20 -14 17 -34 19 -10 45 -34 58 -55 22 -33 26 -36 66 -33 30 3 53 -2 78 -17
63 -37 114 -20 114 39 0 27 -22 60 -39 60 -16 0 -20 -13 -10 -32 8 -15 8 -23
0 -31 -15 -15 -31 7 -31 44 0 57 58 68 91 17 25 -41 19 -92 -15 -127 -30 -30
-69 -30 -122 -2 -30 16 -49 20 -81 15 -41 -6 -43 -5 -64 30 -12 21 -48 55 -80
77 -75 51 -76 58 -8 73 14 3 45 19 70 36 33 22 55 30 92 30 40 0 53 5 81 33
25 25 30 37 23 49 -9 14 -14 13 -43 -4 -29 -17 -38 -18 -92 -7 l-60 13 -62
-37 c-64 -39 -113 -47 -153 -26 -12 7 -55 43 -95 80 -41 39 -81 69 -93 69 -63
0 -113 24 -184 91 -93 85 -130 110 -233 150 -105 41 -159 90 -114 106 9 3 54
23 99 44 73 35 90 49 148 118 66 79 97 101 139 101 13 0 35 9 49 20 25 20 112
136 123 164 7 17 -88 148 -142 195 -30 27 -42 31 -91 31 -44 0 -62 5 -79 21
-20 19 -27 20 -55 10 -43 -15 -43 -15 -79 15 -24 21 -37 25 -61 20 -57 -11
-129 40 -129 92 0 15 6 18 28 15 21 -3 39 6 80 41 46 39 59 46 94 44 35 -1 44
3 72 37 30 36 34 37 74 30 39 -6 46 -4 82 29 22 20 44 36 50 36 18 0 80 -62
86 -87 7 -26 8 -26 100 -8 21 5 40 2 55 -8 41 -26 68 -30 85 -13 22 22 35 20
85 -14 28 -19 57 -30 80 -30 48 0 74 -20 66 -52 -6 -22 -87 -106 -165 -171
l-33 -27 19 -52 19 -52 7 31 c8 34 29 56 95 99 26 17 62 57 92 101 87 128 159
182 242 183 51 0 92 -19 158 -72 71 -58 83 -64 148 -72 73 -9 102 -26 129 -74
12 -23 37 -53 54 -67 29 -24 37 -26 84 -20 l53 6 35 -49 c50 -69 103 -104 152
-100 33 3 39 0 42 -18 4 -30 -72 -100 -129 -119 -34 -12 -54 -26 -69 -50 -11
-18 -45 -50 -75 -71 -30 -20 -55 -40 -55 -43 0 -4 9 -12 20 -19 11 -6 28 -29
39 -50 11 -22 41 -52 71 -72 28 -19 75 -68 106 -108 48 -64 112 -122 147 -135
18 -7 -12 -57 -49 -82 -17 -12 -57 -27 -89 -34 -53 -12 -65 -20 -134 -91 -42
-42 -82 -79 -90 -82 -12 -3 -12 -10 0 -41 31 -85 97 -136 204 -156 33 -6 66
-18 75 -26 8 -9 26 -43 40 -78 25 -61 25 -62 95 -89 83 -33 109 -60 130 -132
9 -29 22 -61 30 -72 13 -17 14 -15 14 31 -1 88 -70 183 -148 202 -54 13 -110
73 -68 73 39 0 118 -33 137 -58 33 -41 80 -65 80 -39 0 24 -107 117 -135 117
-44 0 -91 26 -126 70 -22 27 -56 53 -96 72 -56 26 -123 85 -123 108 0 17 135
103 190 121 44 14 65 30 108 78 30 34 60 61 68 61 8 0 17 6 20 14 10 27 -17
56 -79 84 -56 26 -65 34 -91 87 -25 48 -44 68 -107 114 -79 57 -94 76 -84 103
7 19 48 38 79 38 13 0 46 18 72 40 57 47 96 60 182 60 67 0 122 20 122 45 0
17 -14 19 -40 5 -11 -6 -52 -13 -92 -16 -104 -7 -113 -10 -185 -59 -36 -25
-75 -45 -87 -45 -38 0 -79 -43 -80 -82 -1 -23 -5 -34 -13 -31 -15 6 -43 48
-43 64 0 23 105 120 155 143 28 13 72 46 99 74 l50 50 42 -29 c58 -39 94 -45
149 -24 37 14 45 21 45 42 l0 25 -34 -21 c-57 -35 -146 -19 -159 29 -3 13 -13
20 -30 20 -44 0 -123 109 -114 157 6 30 -17 43 -76 43 -46 0 -141 33 -167 57
-13 13 -12 17 10 33 14 11 37 28 51 39 14 11 31 38 37 60 14 44 44 71 80 71
35 0 80 27 96 58 8 16 22 34 30 41 11 9 16 31 16 71 0 52 -3 60 -27 75 -34 23
-101 29 -132 13 -34 -19 -30 -31 16 -48 52 -20 73 -38 73 -64 0 -35 -27 -63
-77 -82 -27 -10 -61 -28 -77 -41 -24 -20 -38 -23 -95 -22 -36 1 -83 -1 -104
-6 -34 -7 -41 -5 -70 23 -18 18 -48 35 -67 38 -74 14 -110 46 -110 97 0 32 16
44 80 63 l52 15 -93 95 c-51 52 -97 101 -102 110 -14 25 -1 41 40 47 21 2 57
12 79 20 32 13 50 14 78 6 31 -9 48 -6 101 13 l64 22 31 -22 c28 -21 34 -22
89 -11 33 6 77 10 99 7 l41 -3 -6 46 c-4 37 -2 47 12 52 23 9 53 -9 99 -60 32
-36 44 -43 70 -41 42 3 55 -7 78 -58 17 -39 22 -44 53 -44 18 0 41 -7 49 -16
15 -14 16 -12 16 20 0 28 -7 40 -37 65 -21 17 -60 38 -88 47 -77 25 -84 35
-50 81 33 43 53 60 109 88 40 21 64 62 65 113 1 18 -3 22 -16 18 -10 -3 -40
-10 -67 -17 -35 -9 -65 -27 -108 -65 -74 -66 -124 -80 -222 -63 l-68 11 -42
-41 c-68 -67 -158 -86 -251 -55 -44 16 -51 16 -101 0 -45 -14 -65 -15 -146 -5
-115 14 -179 37 -241 88 -47 39 -58 43 -146 57 l-44 6 17 -23 c12 -18 26 -24
56 -25 55 0 86 -20 120 -76 23 -36 36 -48 54 -48 29 0 50 -19 71 -63 8 -18 35
-45 60 -60 61 -39 88 -74 75 -97 -8 -16 -15 -17 -42 -9 -56 16 -88 12 -88 -11
0 -21 13 -36 68 -82 17 -14 42 -50 55 -80 13 -30 36 -62 51 -71 37 -25 33 -42
-20 -71 -56 -31 -69 -32 -112 -6 -25 15 -50 20 -109 20 -57 0 -81 4 -94 16
-17 15 -20 15 -43 0 -14 -9 -43 -16 -65 -16 -23 0 -55 -9 -73 -20 -18 -11 -42
-20 -53 -20 -11 0 -35 9 -53 20 -23 14 -50 20 -93 20 -55 0 -64 3 -92 32 -21
21 -45 34 -71 38 -50 7 -66 30 -46 68 13 22 29 30 85 44 60 14 75 23 105 58
32 37 39 40 82 40 42 0 50 -4 75 -35 26 -33 28 -34 51 -19 15 10 35 14 52 10
22 -4 32 0 44 19 20 31 20 35 -3 35 -25 0 -77 61 -86 100 -9 39 16 80 49 80
37 0 78 -38 74 -69 -2 -15 -10 -27 -21 -29 -14 -3 -17 1 -12 21 5 20 2 28 -15
37 -35 18 -54 5 -46 -32 7 -33 41 -78 60 -78 6 0 24 7 40 15 39 21 79 19 106
-5 28 -24 33 -24 76 -4 20 10 51 15 79 12 25 -2 45 0 45 4 0 3 -22 20 -50 37
-32 20 -56 45 -70 71 -15 30 -29 42 -51 47 -17 3 -38 17 -47 31 -42 62 -79 92
-116 92 -29 0 -38 -5 -51 -30 -19 -36 -19 -35 1 -54 25 -26 54 -20 54 10 0 33
24 27 28 -8 3 -26 -20 -58 -41 -58 -7 0 -27 9 -44 20 -30 18 -33 25 -33 66 0
29 -7 56 -19 73 -11 15 -23 39 -26 54 -10 38 -55 63 -55 31 0 -46 -56 -94
-100 -85 -57 11 -69 111 -13 111 18 0 16 -21 -4 -35 -15 -11 -15 -15 -4 -29
31 -37 94 -3 94 51 0 36 -46 76 -76 67 -35 -11 -75 -7 -99 10 -29 21 -62 20
-79 0 -10 -13 -25 -15 -66 -11 -29 3 -53 3 -53 0 0 -7 68 -92 111 -138 21 -22
42 -52 48 -67 8 -22 19 -29 51 -34 33 -5 44 -13 61 -44 25 -45 61 -65 89 -50
42 23 53 80 19 104 -29 20 -49 10 -46 -23 1 -14 -2 -27 -8 -29 -5 -1 -11 16
-13 38 -3 35 0 41 23 52 48 22 100 -40 88 -106 -7 -33 -50 -76 -77 -76 -33 0
-81 35 -96 69 -9 23 -19 31 -37 31 -36 0 -61 17 -79 53 -9 18 -33 50 -54 72
-59 62 -120 155 -113 172 5 12 17 14 61 10 42 -5 62 -2 90 13 33 18 37 18 71
3 46 -20 101 -28 101 -15 0 6 -33 32 -72 59 -73 48 -111 57 -182 42 -35 -7
-28 20 18 69 25 27 46 51 46 54 0 3 -26 17 -57 31 -46 20 -80 27 -163 31 -58
3 -112 3 -120 0z m218 -45 c53 -12 57 -22 27 -72 -21 -37 -24 -50 -15 -66 15
-29 46 -43 78 -37 15 3 33 2 40 -3 21 -13 -14 -25 -75 -25 -40 -1 -57 -6 -77
-25 -30 -28 -31 -36 -12 -73 8 -15 12 -29 9 -31 -2 -3 -45 6 -94 19 -63 17
-105 35 -142 62 -28 21 -64 43 -79 50 -35 15 -35 22 3 58 18 16 47 53 66 82
19 29 44 57 56 62 26 11 166 10 215 -1z m230 -312 c15 -7 21 -16 16 -26 -16
-38 -10 -71 17 -104 16 -19 26 -37 23 -40 -12 -12 -84 21 -84 38 0 6 -20 33
-45 58 -25 26 -45 52 -45 57 0 15 53 39 75 34 11 -3 30 -10 43 -17z m-919 -23
c-34 -36 -92 -65 -109 -54 -11 7 -6 13 20 24 19 8 50 26 69 40 42 31 53 25 20
-10z m2619 -26 c-3 -7 -22 -23 -44 -35 -45 -26 -114 -91 -114 -109 0 -6 -6
-17 -14 -23 -20 -17 -73 34 -56 54 7 8 19 15 28 15 12 0 95 59 112 81 21 26
95 40 88 17z m-1465 -88 c3 -11 2 -20 -3 -20 -14 0 -32 29 -25 40 9 14 21 5
28 -20z m1105 -28 c17 -11 -11 -78 -35 -86 -26 -8 -122 -11 -129 -4 -3 3 12
19 33 34 21 16 46 36 56 46 19 19 53 23 75 10z m-821 -138 c18 -5 73 -72 73
-89 0 -3 -10 -9 -22 -14 -16 -6 -34 -3 -58 10 -19 11 -44 19 -56 19 -17 0 -23
8 -27 37 -4 21 -1 49 5 64 l12 26 25 -24 c14 -13 36 -26 48 -29z m301 42 c35
-2 26 -14 -20 -27 -23 -6 -53 -19 -66 -30 -17 -13 -29 -16 -41 -10 -21 12 -46
41 -55 65 -6 18 -2 19 76 11 46 -4 93 -8 106 -9z m-551 -15 c-2 -10 -8 -25
-14 -33 -18 -21 -8 -103 16 -136 11 -17 21 -35 21 -40 0 -21 -29 -19 -63 5
-20 14 -55 28 -80 30 l-44 5 11 30 c7 19 26 37 49 50 21 10 52 39 69 63 36 50
39 53 35 26z m568 -233 l38 -41 -24 -19 c-13 -10 -33 -27 -44 -38 -25 -24 -35
-25 -35 -5 0 9 -19 36 -41 60 -40 44 -41 45 -16 45 13 0 35 9 48 20 13 10 27
19 30 20 4 0 24 -19 44 -42z m-800 11 c-3 -8 -14 -20 -25 -27 -29 -18 -27 11
3 31 25 17 30 16 22 -4z m-207 -174 c3 -34 2 -37 -12 -26 -22 18 -69 8 -110
-24 -53 -40 -82 -28 -45 19 23 29 68 55 114 67 44 10 50 6 53 -36z m110 -78
c18 -14 15 -24 -9 -30 -22 -6 -64 27 -54 42 6 10 44 3 63 -12z m956 -28 c22
-6 61 -26 87 -44 38 -26 56 -32 81 -28 48 7 130 10 155 5 19 -4 20 -7 11 -33
-5 -16 -24 -37 -42 -48 -65 -40 -68 -84 -10 -130 22 -17 24 -22 10 -27 -32
-12 -66 6 -98 55 -43 64 -81 89 -159 103 -46 7 -78 21 -111 45 -46 33 -62 63
-35 63 8 0 24 11 37 25 27 29 23 28 74 14z m-436 -15 c34 -9 27 -27 -30 -78
l-51 -46 -17 28 c-10 16 -32 35 -50 42 -29 12 -30 14 -13 24 10 6 41 16 68 22
65 15 66 15 93 8z m-1209 -190 c-6 -8 -17 -14 -25 -14 -7 0 -28 -9 -48 -20
-40 -24 -55 -12 -23 18 27 26 66 41 89 34 14 -3 16 -7 7 -18z m309 -135 c12 6
34 2 70 -13 51 -22 52 -23 29 -35 -20 -11 -29 -10 -55 3 -17 9 -42 16 -56 16
-13 0 -32 7 -40 16 -22 22 -20 25 10 14 15 -6 32 -6 42 -1z m1809 -1 c14 -21
35 -89 29 -95 -11 -11 -51 18 -78 57 -16 21 -28 41 -28 44 0 12 68 6 77 -6z
m-1607 -50 c0 -5 4 -7 9 -4 5 3 11 -1 15 -9 7 -20 -7 -19 -32 4 -25 21 -29 33
-7 25 8 -4 15 -10 15 -16z m-734 -63 c8 -13 13 -29 9 -34 -7 -12 -83 -36 -90
-29 -8 8 39 88 52 88 7 0 20 -11 29 -25z m705 -63 c31 -28 31 -28 15 -65 -8
-21 -21 -37 -28 -36 -26 3 -37 -1 -68 -27 -23 -20 -34 -24 -43 -15 -8 8 -3 19
21 42 26 26 32 39 32 74 0 39 7 52 32 54 4 1 22 -12 39 -27z m-218 -331 c36
-17 37 -18 19 -34 -9 -9 -52 -32 -94 -51 -89 -41 -114 -69 -98 -111 6 -16 18
-34 28 -42 23 -17 140 -73 155 -73 7 0 27 -9 45 -20 30 -18 33 -24 26 -48 -4
-15 -7 -35 -8 -45 0 -10 -17 -37 -38 -60 -31 -35 -46 -67 -53 -117 -2 -13 -38
-60 -47 -60 -5 0 -21 14 -35 31 -36 42 -56 48 -171 50 -55 1 -105 5 -112 9
-22 14 39 50 84 50 30 0 56 9 92 32 27 18 58 37 68 43 11 5 28 22 39 37 20 26
20 26 -1 55 -11 16 -44 42 -74 58 -59 32 -70 41 -86 71 -9 17 -6 24 19 46 37
33 37 56 -1 103 -34 42 -35 46 -19 62 9 9 21 7 48 -8 49 -26 71 -24 117 10 46
35 48 35 97 12z m1926 -183 c14 -38 1 -35 -26 7 -28 43 -29 49 -3 33 11 -7 24
-25 29 -40z m159 -147 c5 -16 -17 -41 -32 -35 -19 7 -8 52 12 50 9 -2 18 -8
20 -15z m-2368 -21 c3 -4 13 -11 22 -16 12 -6 14 -14 8 -24 -6 -10 -27 -15
-69 -15 l-59 0 31 36 c29 32 52 39 67 19z m-290 -153 c0 -20 -5 -23 -45 -22
-25 0 -45 2 -45 5 1 7 62 38 78 39 6 1 12 -9 12 -22z m2420 -12 c-62 -41 -83
-45 -49 -9 26 28 53 42 83 43 11 1 -3 -13 -34 -34z m-1517 -13 l47 -18 -51
-13 c-46 -12 -51 -12 -64 5 -8 11 -15 27 -15 37 0 20 2 20 83 -11z m1448 -187
c23 -20 39 -38 37 -41 -3 -2 -24 6 -49 19 -28 14 -51 35 -64 59 -20 37 -20 37
0 56 20 19 20 18 28 -19 5 -25 21 -49 48 -74z m-961 76 c0 -9 -89 -61 -104
-61 -21 0 -66 -40 -66 -58 -1 -14 -5 -12 -20 7 -30 35 -25 48 23 53 23 3 64
18 90 35 45 28 77 38 77 24z m180 -98 c0 -10 -7 -27 -15 -37 -8 -11 -15 -32
-15 -48 0 -27 -1 -28 -47 -21 -110 14 -125 101 -18 103 22 1 49 5 60 10 30 13
35 12 35 -7z"/>
<path d="M489 3701 c-20 -11 -60 -47 -89 -81 -36 -42 -72 -70 -114 -91 -78
-39 -96 -56 -96 -89 0 -38 29 -60 91 -67 58 -6 83 -22 105 -65 20 -39 58 -46
108 -19 109 57 129 209 31 226 -45 8 -95 -26 -95 -65 0 -17 5 -30 13 -31 6 -1
20 -2 29 -3 22 -1 24 -18 5 -30 -23 -15 -65 9 -73 40 -10 39 6 75 45 101 60
41 124 25 156 -38 9 -16 22 -29 31 -29 8 0 47 -16 87 -35 55 -27 85 -35 127
-35 83 -1 171 -47 157 -83 -3 -8 -23 -17 -44 -20 -56 -10 -100 -41 -131 -93
-58 -99 -106 -134 -182 -134 -43 0 -56 -10 -108 -79 -23 -30 -26 -31 -96 -30
-69 1 -77 -1 -141 -40 -87 -52 -168 -60 -211 -20 -11 11 -37 28 -57 38 l-37
19 0 -23 c0 -16 9 -27 28 -34 15 -6 43 -23 62 -37 52 -38 134 -30 227 22 59
33 75 37 127 36 68 -2 108 17 150 72 20 27 35 35 73 41 62 9 115 39 153 86 16
21 30 41 30 44 0 4 12 22 26 41 19 24 41 38 77 49 95 28 112 70 51 129 -37 36
-98 56 -169 56 -51 0 -174 61 -222 109 -37 38 -46 42 -92 43 -141 1 -213 -169
-95 -225 37 -18 60 -13 86 18 23 27 22 30 -8 58 -22 21 -23 25 -10 36 18 15
44 8 53 -15 8 -22 -16 -90 -41 -113 -41 -37 -63 -36 -101 6 -19 21 -35 41 -35
45 0 4 -26 10 -57 14 -101 12 -105 43 -10 90 56 29 137 100 137 121 0 8 5 11
10 8 6 -3 10 -2 10 3 0 13 71 50 108 57 39 6 87 -13 152 -60 42 -31 130 -71
130 -60 0 5 100 -23 127 -37 11 -6 33 -33 49 -61 37 -69 87 -122 145 -155 27
-15 48 -30 46 -33 -1 -3 -30 -32 -64 -63 -49 -45 -75 -61 -118 -72 -86 -23
-136 -49 -193 -102 -31 -29 -71 -54 -95 -62 -29 -8 -65 -34 -118 -86 -71 -69
-92 -80 -136 -75 -27 4 -94 -21 -122 -45 -31 -26 -114 -62 -163 -71 -38 -7
-92 13 -139 53 -66 55 -98 41 -36 -17 34 -32 121 -79 148 -79 39 0 159 47 208
82 45 31 63 38 102 38 66 0 88 10 145 70 78 84 83 87 124 94 30 5 55 21 102
65 73 68 89 77 154 91 77 16 119 39 157 84 20 24 56 53 81 64 24 12 47 26 50
31 3 5 -27 24 -67 43 -94 45 -141 87 -178 159 -16 32 -39 65 -52 74 -12 8 -67
26 -122 40 -55 14 -111 35 -125 45 -82 65 -102 74 -169 77 -51 3 -74 -1 -102
-16z"/>
<path d="M0 3594 c0 -15 22 -47 61 -88 33 -36 64 -80 70 -98 10 -39 44 -79 79
-96 25 -11 24 -11 -5 -5 -44 8 -88 45 -128 106 -38 57 -64 83 -73 74 -15 -15
97 -182 136 -202 40 -21 141 -37 174 -27 16 4 34 16 40 26 15 24 -25 56 -70
56 -74 0 -124 38 -124 95 0 19 -15 40 -55 77 -30 27 -58 60 -61 73 -3 13 -14
25 -25 28 -15 4 -19 0 -19 -19z"/>
<path d="M69 3591 c18 -33 109 -103 117 -90 4 7 -1 19 -12 28 -11 9 -30 31
-42 49 -16 21 -32 32 -48 32 -21 0 -23 -3 -15 -19z"/>
<path d="M2988 3558 c-4 -9 -29 -28 -57 -42 -48 -25 -95 -71 -86 -86 2 -4 19
-10 37 -14 18 -3 52 -20 76 -37 l42 -30 0 24 c0 19 -11 32 -46 52 l-45 27 27
23 c15 13 31 22 35 20 13 -9 30 24 27 52 -2 22 -5 24 -10 11z"/>
<path d="M2640 3434 c0 -3 5 -14 10 -24 6 -10 11 -37 12 -60 1 -34 6 -44 30
-56 32 -17 32 -18 16 -79 -11 -42 -11 -46 9 -60 29 -21 53 -77 51 -122 -2 -66
19 -89 77 -83 33 3 42 17 36 57 -5 32 -31 61 -31 34 0 -6 -7 -11 -15 -11 -18
0 -20 21 -3 38 17 17 43 15 59 -4 8 -9 16 -51 20 -92 5 -62 10 -79 29 -94 30
-24 60 -24 60 2 0 11 -7 20 -15 20 -19 0 -33 27 -35 70 -3 56 -1 60 26 60 19
0 25 5 22 17 -2 10 -12 19 -23 21 -56 8 -67 14 -79 44 -8 17 -11 39 -9 48 5
20 41 39 61 33 20 -7 14 -23 -13 -33 -29 -11 -31 -22 -9 -44 41 -42 80 -3 65
65 -11 49 -26 61 -62 55 -31 -6 -50 11 -72 67 -15 34 -19 37 -56 37 -35 0 -46
6 -87 50 -41 43 -74 63 -74 44z m191 -166 c6 -16 19 -32 27 -37 13 -8 14 -15
2 -57 -11 -38 -41 -84 -55 -84 -1 0 -16 22 -33 48 -25 40 -30 55 -25 85 3 20
1 49 -5 65 l-10 29 44 -10 c33 -8 46 -16 55 -39z"/>
<path d="M610 3392 c-28 -107 -139 -180 -211 -141 -16 8 -25 7 -38 -5 -10 -9
-32 -19 -49 -22 -31 -6 -32 -8 -32 -62 0 -30 -5 -72 -12 -93 -15 -52 -69 -114
-118 -135 -48 -21 -43 -34 14 -34 51 0 101 19 159 61 40 29 45 30 109 24 62
-6 68 -5 87 17 75 85 79 88 116 88 73 0 127 37 165 111 26 50 82 96 132 110
l43 11 -27 14 c-14 7 -62 18 -106 23 -61 6 -94 16 -135 40 -71 41 -84 40 -97
-7z m100 -36 c25 -13 62 -26 83 -30 20 -4 37 -9 37 -11 0 -2 -20 -36 -45 -74
-54 -83 -86 -111 -131 -111 -47 0 -83 -18 -129 -66 -38 -40 -42 -42 -104 -43
-48 0 -74 -7 -107 -25 -49 -27 -53 -22 -25 33 11 21 22 59 26 85 10 84 24 95
128 94 78 0 157 59 195 145 14 33 16 33 72 3z"/>
<path d="M0 3345 c0 -50 -1 -49 34 -34 l25 12 -22 33 c-12 19 -25 34 -29 34
-5 0 -8 -20 -8 -45z"/>
<path d="M2295 3344 c-27 -10 -57 -13 -91 -8 -35 4 -61 1 -88 -10 -21 -9 -47
-16 -57 -16 -11 0 -19 -3 -19 -6 0 -16 170 -174 187 -174 47 0 71 48 42 84
-25 32 -47 33 -51 4 -4 -30 -22 -26 -26 6 -4 29 30 56 60 48 33 -8 60 -61 54
-106 -4 -32 0 -46 20 -69 30 -36 32 -89 4 -117 -25 -25 -42 -25 -64 -1 -20 22
-18 72 2 79 9 3 12 -5 10 -24 -2 -24 1 -30 20 -32 19 -3 22 1 22 31 0 34 -24
67 -49 67 -7 0 -26 -9 -42 -21 -16 -11 -52 -28 -81 -37 -28 -9 -53 -22 -55
-29 -7 -21 35 -52 79 -59 27 -5 55 -19 80 -42 38 -34 40 -35 78 -22 25 8 57
10 91 6 44 -6 55 -4 74 14 12 11 48 31 81 43 48 19 59 27 59 46 0 17 -9 26
-35 35 -19 7 -55 26 -79 44 -65 47 -117 38 -109 -20 4 -27 37 -38 34 -12 -2
25 21 29 29 5 10 -33 -3 -61 -30 -61 -29 0 -65 43 -65 77 0 33 54 87 81 80 13
-4 25 2 36 19 26 40 93 74 146 74 53 0 59 10 22 34 -15 10 -25 26 -25 41 0 20
-6 25 -35 31 -19 3 -64 1 -100 -6 -59 -11 -65 -15 -65 -37 0 -37 -28 -82 -56
-89 -53 -13 -87 62 -44 101 18 16 20 16 26 2 3 -9 -1 -24 -10 -32 -20 -21 -20
-22 3 -35 27 -14 51 12 51 54 0 57 -35 69 -115 40z m289 -40 c24 -9 19 -31 -7
-38 -13 -3 -43 -21 -69 -41 -44 -35 -88 -52 -88 -36 0 5 7 14 16 22 9 7 22 30
31 50 11 28 22 39 41 42 47 7 60 7 76 1z m-408 -28 c-16 -24 -27 -28 -45 -17
-24 15 -5 42 29 39 27 -2 29 -4 16 -22z m234 -103 c-1 -13 -49 -45 -59 -39
-19 12 1 42 30 44 16 1 29 -1 29 -5z m160 -172 c0 -12 -80 -49 -85 -40 -3 5 4
22 16 38 19 26 25 28 45 19 13 -6 24 -14 24 -17z m-154 -42 c2 -5 18 -6 34 -2
19 3 30 1 30 -6 0 -12 -3 -13 -82 -15 -54 -1 -58 2 -36 30 9 12 45 8 54 -7z"/>
<path d="M27 3274 c-29 -16 -34 -53 -6 -45 8 2 25 5 39 7 18 3 15 0 -10 -10
-19 -7 -38 -11 -42 -9 -5 2 -8 -10 -8 -27 0 -30 1 -31 22 -16 12 9 39 16 60
16 61 0 86 -56 53 -120 -17 -33 -53 -43 -40 -12 24 57 28 71 22 86 -16 41
-117 -2 -117 -50 0 -15 2 -15 25 0 40 26 51 21 47 -23 -3 -31 0 -42 19 -54 21
-15 21 -17 4 -23 -10 -4 -32 0 -51 11 -19 10 -37 16 -40 12 -11 -11 16 -44 46
-57 90 -37 193 55 206 187 8 70 6 72 -83 92 -28 7 -59 21 -69 32 -20 23 -39
23 -77 3z m185 -96 c14 -23 8 -62 -17 -108 l-25 -45 6 60 c3 33 1 72 -5 87 -9
24 -8 26 11 23 12 -3 25 -10 30 -17z"/>
<path d="M1674 3212 c-6 -4 -14 -18 -17 -32 -3 -14 -16 -35 -27 -48 -15 -16
-17 -22 -6 -22 17 0 76 65 76 85 0 18 -13 26 -26 17z"/>
<path d="M1720 3189 c0 -26 -12 -44 -71 -101 -53 -51 -75 -66 -83 -58 -8 8 -6
15 8 25 24 18 14 45 -16 45 -31 -1 -56 -21 -69 -58 -13 -38 0 -65 44 -92 61
-38 147 -15 147 39 0 41 44 91 80 91 33 0 60 -23 60 -50 0 -22 -26 -50 -46
-50 -19 0 -18 20 4 36 14 10 15 15 4 26 -10 10 -18 10 -40 -2 -31 -18 -40 -57
-22 -91 11 -20 17 -21 77 -16 53 5 72 3 104 -13 44 -23 68 -25 103 -9 l25 12
-29 34 c-17 18 -30 43 -30 55 0 12 -24 44 -60 78 -35 34 -60 66 -60 78 0 18
-4 20 -36 15 -27 -4 -42 -1 -65 16 l-29 22 0 -32z m147 -106 c46 -45 99 -130
89 -140 -2 -2 -19 4 -39 12 -20 8 -46 15 -57 15 -14 0 -19 4 -14 12 13 20 5
80 -12 99 -10 11 -34 24 -55 29 -47 13 -44 39 3 32 21 -3 49 -23 85 -59z
m-307 -84 c0 -14 28 -10 55 7 24 15 25 15 25 -4 0 -11 -6 -22 -14 -25 -19 -8
-67 1 -83 15 -18 14 -16 29 2 22 8 -4 15 -10 15 -15z"/>
<path d="M2585 3196 c-16 -8 -40 -23 -52 -35 -42 -40 -22 -57 24 -21 17 13 41
20 69 20 40 0 44 2 44 25 0 21 -5 25 -27 25 -16 -1 -41 -7 -58 -14z"/>
<path d="M1322 3110 c-30 -31 -51 -43 -107 -58 -47 -13 -71 -24 -73 -36 -3
-12 4 -16 33 -16 28 0 44 -8 72 -36 33 -34 38 -35 80 -29 34 5 53 2 84 -14 40
-21 94 -28 103 -13 3 5 -6 19 -19 30 -14 12 -25 26 -25 32 0 6 -15 8 -39 4
-34 -5 -43 -3 -65 19 -30 30 -34 77 -10 101 21 22 51 20 64 -4 15 -29 2 -45
-20 -25 -15 13 -19 14 -29 1 -15 -18 0 -51 27 -58 36 -10 60 9 67 53 7 39 5
45 -19 66 -42 35 -80 30 -124 -17z m-4 -112 c10 -25 9 -26 -11 -23 -11 3 -30
14 -41 24 -20 20 -20 20 5 30 27 10 30 8 47 -31z"/>
<path d="M2726 2911 c-21 -40 -73 -81 -104 -82 -48 -1 -63 -14 -85 -69 -15
-38 -31 -59 -50 -68 -15 -7 -25 -17 -22 -22 9 -15 97 -40 140 -40 22 0 50 -7
63 -15 20 -15 24 -14 52 7 36 26 46 57 30 87 -13 24 -39 28 -45 6 -16 -51 -17
-51 -27 -28 -24 50 48 97 84 56 40 -45 24 -120 -32 -151 -53 -30 -49 -71 13
-139 27 -30 84 -31 120 -3 56 45 57 150 0 150 -31 0 -40 -25 -18 -50 16 -18
14 -40 -5 -40 -5 0 -17 11 -26 25 -14 21 -15 33 -6 68 6 23 14 59 17 80 4 26
20 52 49 82 37 39 48 45 84 45 23 0 42 5 42 10 0 6 -10 10 -23 10 -32 0 -67
27 -83 66 -13 30 -15 32 -42 22 -23 -9 -36 -8 -62 5 -44 22 -47 22 -64 -12z
m137 -43 c27 -14 20 -41 -22 -82 l-38 -37 -29 26 c-22 21 -35 25 -59 21 -45
-9 -78 -52 -72 -93 l6 -33 -55 0 -54 0 15 38 c27 63 43 81 82 88 24 5 50 21
77 49 39 40 43 42 86 37 25 -2 53 -9 63 -14z m-88 -327 c3 -10 14 -26 25 -36
26 -24 25 -35 -2 -35 -26 0 -69 55 -61 76 8 20 31 17 38 -5z"/>
<path d="M984 2880 c-31 -31 -52 -37 -90 -25 -17 5 -31 -3 -62 -34 -35 -35
-47 -41 -83 -41 -35 0 -49 -7 -85 -40 -24 -22 -50 -40 -59 -40 -8 0 -15 -3
-15 -8 0 -17 44 -33 85 -31 35 2 50 -2 69 -20 21 -20 31 -22 70 -17 38 6 50 3
75 -15 58 -43 111 0 90 75 -11 39 -37 48 -60 20 -10 -12 -10 -20 -1 -35 16
-24 15 -29 -3 -29 -25 0 -38 38 -24 72 13 32 42 48 72 40 21 -5 47 -52 47 -85
0 -20 11 -30 54 -51 58 -28 133 -103 182 -180 26 -41 33 -46 66 -46 29 0 68
10 96 25 1 1 -9 28 -23 59 -19 43 -30 56 -41 52 -8 -3 -28 1 -44 9 -74 38 -33
125 60 125 24 0 31 -4 28 -17 -2 -12 -14 -18 -37 -19 -43 -2 -70 -27 -51 -48
28 -35 64 -19 164 70 53 48 95 92 93 98 -2 6 -24 13 -48 16 -24 3 -59 15 -76
28 -33 24 -58 28 -68 12 -10 -16 -53 -12 -95 10 -50 26 -56 25 -85 -6 -29 -31
-32 -56 -9 -78 24 -24 45 -19 57 14 13 33 37 41 37 11 0 -28 -39 -71 -65 -71
-38 0 -67 31 -67 72 0 20 3 41 7 47 3 6 0 11 -7 11 -7 0 -20 -13 -29 -29 -19
-33 -67 -48 -98 -31 -25 13 -29 71 -6 90 22 18 31 4 15 -25 -24 -46 24 -59 65
-19 22 22 18 48 -11 83 -32 39 -51 39 -90 1z m-54 -77 c0 -3 -12 -14 -26 -25
-14 -11 -35 -41 -47 -67 -26 -54 -51 -62 -101 -32 -18 12 -41 21 -50 21 -13 0
-14 3 -4 19 7 12 28 21 60 25 36 5 59 16 85 40 25 23 43 31 60 28 12 -2 23 -7
23 -9z m508 -60 l44 -21 -29 -32 c-29 -32 -30 -33 -56 -15 -18 11 -40 16 -67
13 -37 -3 -41 -2 -36 17 3 11 6 26 6 33 0 6 10 12 23 12 12 0 28 4 36 9 17 11
25 9 79 -16z m-326 -41 c27 -37 75 -65 102 -58 28 7 31 -2 17 -39 -15 -39 33
-107 83 -116 10 -2 24 -12 30 -22 9 -14 7 -21 -7 -32 -26 -19 -36 -13 -87 57
-46 61 -146 158 -164 158 -12 0 -46 30 -46 42 0 8 34 26 52 27 4 1 13 -7 20
-17z"/>
<path d="M1795 2801 c-48 -22 -98 -73 -157 -161 -40 -58 -65 -82 -152 -143
-20 -14 -26 -26 -26 -56 0 -51 13 -65 105 -106 43 -20 96 -52 117 -70 63 -58
125 -59 192 -3 50 41 66 82 66 167 0 60 -3 74 -26 100 -49 59 -149 60 -179 1
-21 -41 -19 -96 5 -120 28 -28 55 -25 78 7 11 16 24 25 28 20 14 -14 -11 -61
-37 -71 -67 -23 -123 33 -116 117 5 61 32 98 84 116 36 13 45 12 89 -3 27 -10
72 -17 99 -17 42 2 61 -5 120 -40 42 -26 94 -48 133 -56 78 -16 114 -34 136
-68 21 -31 15 -55 -13 -55 -11 0 -46 -24 -78 -53 -79 -72 -102 -85 -189 -107
-81 -20 -114 -41 -114 -73 0 -32 54 -72 122 -91 70 -19 91 -33 132 -90 29 -39
93 -75 133 -76 27 0 131 -94 139 -126 7 -28 -11 -55 -32 -47 -29 11 -68 -9
-125 -64 -50 -48 -65 -56 -94 -55 -19 1 -35 -3 -35 -8 0 -5 -20 -21 -44 -35
-90 -52 -164 -14 -136 70 15 45 46 63 68 41 14 -14 13 -16 -10 -25 -27 -10
-44 -43 -33 -61 3 -5 24 -10 46 -10 31 0 47 7 77 34 32 30 37 40 37 80 0 36
-6 51 -27 73 -23 23 -38 28 -93 31 l-66 4 -59 -61 c-34 -34 -71 -63 -87 -66
-72 -16 -113 -60 -113 -121 0 -60 80 -104 191 -104 41 0 85 -18 128 -51 40
-32 81 -24 162 31 43 29 85 50 101 50 48 0 78 19 151 93 65 65 79 75 137 91
67 18 110 40 110 55 0 5 -18 23 -40 39 -22 16 -61 58 -88 92 -26 35 -73 84
-105 109 -32 25 -70 64 -84 86 -15 22 -35 46 -45 53 -31 22 -21 50 29 85 26
17 59 45 73 61 53 61 69 75 97 82 30 7 102 54 103 67 0 4 -11 7 -25 7 -15 0
-38 6 -54 14 -29 15 -92 80 -110 113 -8 17 -18 19 -64 15 -66 -5 -97 12 -132
73 -37 62 -55 75 -125 86 -74 12 -87 18 -160 75 -60 47 -116 74 -152 74 -13 0
-41 -9 -63 -19z m111 -31 c15 -6 55 -31 88 -57 69 -52 112 -72 165 -79 53 -6
72 -19 109 -74 l32 -50 -27 1 c-42 1 -120 30 -187 68 -48 28 -73 35 -121 38
-34 1 -74 7 -89 13 -72 27 -167 -7 -198 -70 -20 -40 -23 -131 -6 -163 17 -34
54 -65 86 -72 32 -7 82 9 82 25 0 6 4 9 9 6 10 -6 31 37 31 64 0 10 -10 26
-21 34 -19 13 -25 13 -50 0 -38 -19 -46 -18 -51 9 -10 51 51 88 101 63 64 -33
67 -160 5 -221 -38 -38 -90 -53 -124 -35 -12 6 -45 29 -73 51 -28 21 -63 41
-77 44 -14 3 -40 14 -58 25 -50 31 -44 60 25 112 32 25 82 79 117 127 64 88
139 151 181 151 13 0 36 -5 51 -10z m612 -360 c34 -34 62 -63 62 -65 0 -3 -13
-11 -30 -20 -16 -8 -57 -43 -92 -78 -35 -34 -78 -75 -96 -90 -44 -39 -42 -70
8 -131 22 -26 40 -55 40 -63 0 -8 5 -11 10 -8 6 3 10 2 10 -3 0 -5 24 -28 54
-51 30 -24 74 -68 97 -99 24 -31 56 -70 72 -86 l29 -31 -44 -11 c-80 -21 -102
-35 -169 -104 -63 -64 -108 -90 -157 -90 -8 0 -45 -21 -84 -46 -79 -51 -101
-52 -167 -12 -39 25 -42 26 -116 34 -104 12 -145 34 -145 77 0 29 21 48 82 75
26 11 69 43 96 71 27 28 57 52 66 52 9 1 25 1 36 1 42 0 50 -3 70 -24 24 -26
25 -50 4 -83 -23 -35 -42 -32 -36 4 3 23 -2 33 -22 46 -36 24 -68 13 -93 -32
-74 -131 64 -217 197 -123 14 10 28 18 33 18 37 2 71 20 114 62 36 35 64 52
95 59 47 11 78 41 78 75 0 51 -86 145 -152 166 -76 24 -114 48 -142 89 -29 41
-64 63 -145 87 -96 28 -93 62 6 89 83 22 126 45 178 95 22 21 54 45 70 53 17
8 39 24 49 36 19 21 17 42 -10 109 -4 8 7 12 38 12 40 0 49 -5 106 -60z"/>
<path d="M2900 2753 c-31 -28 -63 -100 -52 -117 5 -8 19 6 56 54 6 8 28 28 49
43 20 15 37 32 37 38 0 20 -60 8 -90 -18z"/>
<path d="M2925 2670 l-29 -30 18 -36 c16 -34 18 -35 35 -20 10 9 25 16 34 16
23 0 23 53 0 80 -22 26 -24 26 -58 -10z"/>
<path d="M456 2584 c-33 -23 -45 -25 -88 -20 -30 4 -55 3 -63 -4 -21 -18 -5
-60 34 -85 20 -12 44 -33 54 -45 15 -18 21 -19 33 -9 20 17 13 44 -11 44 -11
0 -20 7 -20 15 0 10 10 15 30 15 38 0 56 -41 36 -79 -24 -43 -9 -56 63 -56 75
0 112 -12 144 -46 25 -27 49 -30 75 -11 16 11 16 14 2 35 -12 17 -26 22 -58
22 -23 1 -55 7 -72 14 -21 9 -37 10 -52 3 -30 -13 -63 15 -63 53 0 34 46 82
74 78 28 -4 27 -32 -1 -36 -13 -2 -30 -13 -38 -25 -13 -19 -13 -23 0 -36 13
-13 19 -12 47 16 18 17 50 38 71 47 20 8 37 20 37 25 0 12 -72 55 -110 66 -14
4 -36 16 -49 26 -30 24 -29 24 -75 -7z m70 -36 c8 -12 -22 -38 -43 -38 -20 0
-28 30 -12 41 20 12 47 11 55 -3z"/>
<path d="M1014 2587 c42 -26 96 -80 147 -147 50 -66 71 -81 83 -61 9 14 -95
142 -149 183 -28 21 -61 38 -75 37 -23 0 -24 -1 -6 -12z"/>
<path d="M2954 2545 c-21 -32 -12 -55 21 -55 23 0 25 4 25 40 0 47 -20 54 -46
15z"/>
<path d="M1955 2528 c14 -45 17 -156 5 -193 -16 -47 -75 -114 -117 -132 -46
-19 -103 -16 -142 8 l-33 20 -22 -20 c-24 -22 -102 -41 -171 -41 -48 0 -101
-31 -143 -83 -52 -64 -108 -112 -147 -126 -46 -16 -115 -60 -115 -72 0 -5 11
-9 24 -9 16 0 48 -20 86 -52 107 -92 153 -108 157 -54 2 32 36 86 79 130 25
24 35 27 71 23 38 -4 45 -1 79 34 77 78 190 97 291 48 66 -32 149 -117 162
-167 11 -39 12 -41 46 -35 22 4 52 -1 81 -12 59 -22 84 -62 84 -132 0 -69 19
-70 80 -7 51 52 88 74 125 74 36 0 31 13 -19 57 -30 26 -65 45 -105 56 -52 15
-66 24 -116 80 -51 58 -62 66 -121 82 -72 19 -107 43 -129 85 -22 42 -19 58
18 95 24 24 48 36 92 45 80 16 122 39 196 105 34 30 65 55 70 55 5 0 9 4 9 10
0 15 -56 40 -117 51 -55 10 -83 23 -168 74 -22 14 -53 25 -69 25 -25 0 -27 -3
-21 -22z m133 -68 c72 -37 101 -47 145 -49 26 -1 21 -17 -20 -58 -48 -48 -83
-67 -153 -83 -30 -7 -68 -19 -84 -27 -15 -8 -26 -11 -24 -6 37 68 49 111 51
183 1 44 3 80 5 80 1 0 37 -18 80 -40z m-165 -252 c-12 -20 -16 -40 -17 -85
-1 -56 42 -110 110 -136 107 -41 125 -51 151 -86 40 -52 60 -66 130 -91 89
-31 91 -38 32 -89 -28 -24 -52 -41 -55 -38 -3 2 -7 15 -9 27 -12 65 -94 130
-163 130 -27 0 -36 7 -66 55 -42 64 -127 134 -194 158 -99 36 -217 14 -287
-53 -22 -20 -43 -29 -76 -32 -58 -6 -105 -42 -149 -115 -18 -29 -38 -53 -45
-53 -15 0 -125 90 -125 102 0 5 25 20 56 35 40 19 72 45 112 93 75 88 96 100
195 109 45 4 97 16 115 25 31 16 37 16 73 2 22 -9 50 -16 62 -16 37 0 113 29
133 51 19 22 29 25 17 7z"/>
<path d="M0 2482 c0 -19 38 -38 67 -33 20 3 26 -19 10 -37 -9 -9 -16 -19 -16
-22 0 -3 -3 -14 -7 -25 -21 -60 -34 -85 -43 -85 -6 0 -11 -15 -11 -32 l1 -33
34 37 c20 21 39 56 46 81 6 27 26 60 50 85 21 23 39 46 39 51 0 5 -30 11 -67
13 -38 2 -76 8 -85 12 -14 6 -18 4 -18 -12z"/>
<path d="M2890 2440 c-19 -21 -42 -40 -50 -43 -13 -5 -13 -7 0 -16 34 -25 64
-25 110 1 33 18 46 32 48 51 3 21 0 26 -12 21 -9 -3 -26 0 -39 8 -21 14 -24
12 -57 -22z"/>
<path d="M344 2359 c-45 -36 -93 -59 -126 -59 -13 -1 -42 -18 -66 -40 -39 -35
-41 -39 -22 -45 11 -3 35 -31 52 -62 42 -71 58 -82 94 -63 38 21 50 52 34 90
-15 37 -40 40 -40 5 0 -16 -6 -25 -16 -25 -14 0 -15 7 -11 37 8 45 19 57 45
49 30 -10 55 -54 55 -98 0 -41 -13 -62 -55 -88 -26 -15 -26 -18 -12 -38 8 -12
26 -22 38 -22 18 0 25 7 30 32 9 47 53 116 84 132 15 7 66 16 115 19 72 5 87
4 87 -8 0 -8 -8 -15 -18 -15 -22 0 -52 -30 -52 -52 0 -22 25 -40 52 -36 47 6
77 135 47 202 -16 35 -67 56 -133 56 -55 0 -56 -1 -76 -40 -26 -51 -65 -64
-92 -30 -20 25 -21 61 -1 67 6 3 13 -8 15 -23 4 -33 20 -41 42 -19 29 29 32
66 6 87 -29 24 -31 23 -76 -13z m266 -89 c36 -36 26 -46 -52 -48 -39 -2 -74
-5 -78 -7 -3 -2 -12 0 -20 5 -10 6 -8 14 11 38 21 27 31 31 72 31 34 1 52 -4
67 -19z m-396 -45 c-6 -24 -8 -25 -22 -11 -15 14 -14 17 3 30 25 18 28 15 19
-19z"/>
<path d="M1385 2373 c-16 -9 -57 -19 -90 -22 -65 -7 -57 0 -159 -143 -41 -58
-80 -88 -113 -88 -34 0 -80 -35 -143 -109 -55 -64 -74 -79 -149 -114 l-86 -40
30 -13 c17 -7 69 -29 116 -49 71 -30 102 -51 173 -116 94 -86 105 -92 179
-103 42 -6 58 -17 120 -75 112 -106 126 -110 223 -55 63 35 67 36 137 30 86
-8 106 2 113 58 2 21 9 47 15 58 10 18 5 26 -29 57 -22 20 -64 70 -94 111 -62
85 -120 140 -148 140 -25 0 -81 -50 -104 -93 -38 -69 5 -154 81 -164 35 -5 45
-2 67 20 43 43 29 109 -19 91 -8 -4 -22 -3 -31 0 -25 10 2 36 37 36 75 0 92
-97 29 -160 -14 -14 -33 -20 -66 -20 -57 0 -99 24 -119 67 -13 26 -22 33 -44
33 -32 0 -83 32 -155 96 -26 24 -56 44 -66 44 -98 0 -49 82 86 146 60 28 82
46 124 99 70 88 99 104 209 114 56 5 100 15 116 25 25 17 26 18 8 31 -10 8
-49 26 -86 41 -44 17 -76 36 -89 55 -25 33 -32 34 -73 12z m68 -57 c18 -13 50
-32 71 -42 33 -15 36 -19 20 -25 -10 -4 -41 -8 -68 -8 -58 -1 -135 -39 -170
-86 -47 -61 -96 -102 -160 -134 -70 -34 -122 -79 -137 -118 -7 -19 -4 -31 13
-53 12 -17 27 -30 33 -30 18 0 72 -34 111 -69 37 -34 116 -81 136 -81 5 0 19
-11 29 -25 33 -41 72 -63 125 -69 73 -10 121 26 158 119 2 6 25 -12 50 -40 44
-47 46 -53 40 -90 -3 -22 -8 -43 -10 -47 -3 -4 -42 -6 -87 -5 -77 2 -85 0
-133 -31 -75 -47 -92 -43 -176 36 -79 73 -102 87 -163 97 -57 10 -82 25 -155
97 -44 43 -92 77 -143 102 -42 21 -77 42 -77 47 0 5 17 17 38 28 35 18 56 38
149 144 21 23 48 40 75 47 61 17 123 66 163 130 60 97 70 104 154 114 24 3 46
8 49 11 11 11 35 4 65 -19z m41 -462 c25 -10 18 -28 -17 -44 -17 -8 -34 -23
-35 -33 -4 -19 28 -57 48 -57 19 0 10 -29 -11 -35 -35 -11 -74 25 -75 70 -1
30 6 44 33 71 37 38 35 36 57 28z"/>
<path d="M2980 2191 c-8 -5 -55 -12 -105 -16 -97 -8 -133 -21 -180 -66 -19
-18 -45 -30 -69 -33 -64 -8 -63 -20 6 -69 78 -56 103 -82 122 -128 18 -43 33
-56 100 -89 40 -20 56 -34 72 -69 32 -66 74 -93 74 -46 0 14 -4 25 -9 25 -4 0
-22 22 -38 48 -22 36 -44 55 -79 72 -60 29 -63 32 -98 95 -16 28 -48 65 -72
84 l-43 35 22 19 c12 10 32 27 44 37 40 34 66 42 165 50 55 4 102 10 104 13 3
3 4 14 2 26 -2 14 -7 18 -18 12z"/>
<path d="M0 2126 c0 -15 15 -37 40 -60 38 -35 47 -38 120 -51 20 -3 49 -20 70
-40 26 -26 50 -37 90 -45 30 -6 58 -14 62 -18 4 -4 -12 -27 -37 -51 -25 -24
-45 -46 -45 -51 0 -13 -29 -20 -99 -26 -105 -8 -206 -81 -199 -144 l3 -31 38
50 c46 63 81 81 163 86 78 5 91 12 151 76 26 28 68 61 92 74 l45 22 -69 21
c-39 12 -87 24 -107 27 -27 4 -45 16 -67 44 -28 35 -36 39 -91 45 -81 9 -84
11 -114 57 -30 44 -46 50 -46 15z"/>
<path d="M455 2140 c-31 -12 -63 -52 -79 -98 -14 -39 -14 -42 5 -52 15 -9 21
-7 26 7 15 43 68 106 98 119 19 7 36 18 40 24 7 12 -61 13 -90 0z"/>
<path d="M2966 2025 c-22 -34 -24 -137 -2 -170 24 -37 36 -31 24 13 -10 37 -6
131 7 165 11 26 -10 21 -29 -8z"/>
<path d="M1644 1979 c-23 -11 -53 -32 -67 -47 l-25 -27 32 -38 32 -38 38 16
c33 14 47 15 90 4 71 -16 152 -56 175 -85 l20 -25 30 27 c36 32 38 42 11 93
-57 112 -227 173 -336 120z m182 -38 c86 -41 146 -111 119 -140 -2 -2 -16 6
-32 17 -63 44 -135 67 -213 67 -76 0 -98 9 -78 32 18 22 84 48 128 52 8 0 43
-12 76 -28z"/>
<path d="M0 1946 c0 -18 22 -36 57 -45 52 -14 39 -61 -25 -88 -17 -7 -32 -19
-32 -26 0 -23 58 -7 91 24 24 22 30 35 27 61 -3 28 -11 37 -53 60 -57 32 -65
33 -65 14z"/>
<path d="M0 1865 c0 -26 7 -29 34 -19 23 9 20 19 -9 32 -23 11 -25 10 -25 -13z"/>
<path d="M1651 1812 c-10 -7 -10 -14 -2 -30 10 -19 13 -20 39 -6 15 7 34 14
42 14 28 0 137 -58 154 -81 12 -18 19 -20 27 -12 19 19 -14 58 -75 88 -58 28
-161 43 -185 27z"/>
<path d="M1702 1749 l-24 -9 24 -28 c44 -55 67 -66 103 -54 17 7 39 12 49 12
30 0 13 22 -40 51 -62 34 -83 40 -112 28z"/>
<path d="M146 1679 c-16 -27 -47 -47 -99 -63 -9 -3 -17 -10 -17 -16 0 -15 47
-12 79 5 34 17 81 70 81 91 0 25 -25 15 -44 -17z"/>
<path d="M2836 1585 c-46 -49 -76 -71 -117 -86 -53 -20 -159 -86 -159 -99 0
-15 48 -50 95 -70 31 -13 69 -41 100 -74 43 -46 57 -54 100 -61 40 -6 58 -15
94 -51 24 -24 45 -44 47 -44 12 0 1 55 -13 67 -14 10 -14 13 -3 11 8 -2 16 6
18 20 3 16 -2 22 -17 22 -28 0 -61 46 -61 86 0 30 -5 35 -45 53 -36 16 -45 25
-45 44 0 30 46 72 119 112 46 25 51 32 51 62 0 26 -5 35 -24 43 -13 5 -27 14
-31 19 -15 25 -50 8 -109 -54z m123 1 c9 -11 6 -18 -18 -35 -16 -12 -33 -21
-38 -21 -19 0 -86 -65 -99 -96 -17 -41 -5 -73 38 -98 16 -10 36 -33 44 -52 22
-52 19 -57 -28 -50 -34 6 -53 19 -101 66 -32 33 -67 60 -77 60 -10 0 -28 8
-40 18 l-22 18 32 27 c17 15 44 30 58 33 50 12 97 42 146 93 50 52 83 64 105
37z"/>
<path d="M896 1588 c-4 -21 -22 -49 -46 -73 -31 -30 -38 -44 -34 -62 5 -18 -2
-36 -25 -68 -35 -49 -38 -67 -15 -89 20 -20 29 -20 49 1 16 15 16 18 1 28 -19
15 -21 35 -3 35 42 0 50 -68 12 -97 l-24 -18 34 -47 c44 -60 79 -65 110 -15
12 18 43 43 75 59 49 26 61 28 118 22 68 -8 112 -33 112 -65 0 -25 -8 -24 -37
7 -60 65 -102 -13 -43 -80 81 -91 190 -3 149 121 -41 129 -169 200 -268 149
-27 -15 -31 -21 -31 -60 0 -33 -6 -49 -26 -70 -40 -39 -75 -33 -100 16 -16 31
-21 98 -10 117 14 22 76 9 76 -16 0 -11 -7 -13 -30 -8 -27 6 -30 4 -30 -19 0
-33 19 -73 38 -81 19 -7 53 25 53 51 1 52 -10 95 -31 125 -14 18 -27 56 -31
87 -4 30 -14 61 -22 69 -13 13 -15 10 -21 -19z m22 -113 c4 -16 -41 -64 -60
-65 -16 0 -7 47 13 69 23 25 42 23 47 -4z m306 -135 c29 -27 73 -90 62 -90 -3
0 -21 10 -39 23 -26 18 -51 24 -98 26 -74 3 -79 5 -79 35 0 51 101 54 154 6z
m-325 -114 c14 -15 18 -24 10 -22 -23 3 -39 16 -39 32 0 19 3 18 29 -10z m390
-69 c-13 -28 -54 -33 -77 -10 -16 15 -15 16 15 10 23 -4 37 -2 45 8 20 22 29
18 17 -8z"/>
<path d="M2941 1475 c-29 -19 -62 -42 -73 -52 -20 -18 -20 -18 18 -35 l38 -16
17 28 c10 15 27 31 38 35 16 5 21 15 21 41 0 19 -1 34 -2 33 -2 -1 -27 -16
-57 -34z"/>
<path d="M97 1441 c-34 -8 -97 -57 -97 -76 0 -17 16 -20 25 -5 3 6 25 19 48
29 51 23 105 20 172 -9 17 -7 93 -17 170 -21 174 -10 181 -12 193 -48 14 -40
47 -67 96 -80 35 -9 51 -21 85 -66 44 -58 74 -78 131 -89 19 -4 44 -14 55 -24
28 -23 79 -92 69 -92 -4 0 -3 -5 4 -12 19 -19 15 -26 -30 -47 -24 -10 -60 -36
-80 -56 -23 -22 -58 -42 -90 -51 -28 -9 -67 -24 -87 -35 -42 -22 -64 -24 -80
-6 -18 22 7 42 87 73 72 28 132 77 132 108 0 25 -39 63 -72 70 -18 3 -50 19
-72 34 -21 15 -56 34 -78 43 -57 22 -145 96 -153 127 -7 31 -54 84 -67 76 -4
-3 -8 -1 -8 4 0 5 -6 9 -12 10 -7 0 -22 3 -33 5 -11 2 -38 -2 -60 -10 -27 -10
-60 -12 -106 -7 -83 8 -128 -6 -169 -53 -41 -46 -53 -77 -52 -135 1 -26 -3
-50 -9 -53 -5 -4 -9 -48 -9 -99 0 -102 6 -114 77 -150 86 -43 173 11 173 107
0 81 -58 125 -108 82 -27 -23 -27 -24 -10 -53 15 -25 16 -31 3 -35 -8 -4 -23
2 -34 11 -20 16 -20 19 -5 62 19 56 25 62 64 66 26 3 39 -4 88 -55 31 -32 74
-68 95 -80 37 -23 62 -55 53 -69 -2 -4 -22 -16 -43 -27 -21 -11 -40 -22 -43
-25 -3 -3 -45 -30 -95 -59 -92 -55 -123 -63 -153 -40 -36 29 -62 40 -62 27 1
-27 70 -88 100 -88 9 0 66 30 126 66 60 37 133 77 162 90 45 21 52 27 52 53 0
36 -31 76 -79 101 -21 10 -58 43 -84 74 -52 59 -98 82 -147 71 -38 -8 -80 -84
-80 -145 0 -35 4 -43 33 -60 39 -24 70 -25 91 -4 23 23 21 65 -4 71 -21 6 -27
28 -10 38 17 11 60 -42 60 -73 0 -81 -91 -110 -163 -51 -32 26 -37 36 -37 72
1 23 8 60 17 82 9 22 15 61 14 88 -2 52 8 78 47 119 38 41 82 52 142 37 44
-11 57 -11 98 4 26 9 57 17 69 17 36 0 82 -47 89 -91 5 -27 13 -40 28 -45 11
-4 37 -21 57 -39 20 -18 59 -40 86 -49 28 -9 62 -30 77 -46 19 -22 35 -30 59
-30 18 0 42 -7 53 -15 18 -15 18 -16 -20 -50 -22 -20 -62 -42 -89 -50 -48 -14
-137 -60 -137 -71 0 -3 14 -23 32 -45 38 -47 55 -49 140 -11 34 16 79 32 99
36 22 4 49 21 75 47 52 54 69 62 133 69 60 6 74 20 38 39 -13 7 -40 41 -61 76
-45 77 -87 111 -150 120 -48 8 -60 19 -137 126 -11 16 -30 24 -65 28 -48 6
-50 7 -73 58 -14 29 -32 55 -41 58 -10 3 -82 7 -161 9 -114 3 -153 8 -189 23
-53 23 -114 33 -153 24z"/>
<path d="M2251 1370 c-41 -27 -81 -50 -88 -50 -9 0 -13 -18 -13 -65 l0 -65 26
10 c14 6 58 10 97 10 98 0 154 -28 243 -118 51 -51 80 -73 110 -81 56 -15 89
-43 124 -105 38 -64 39 -103 6 -112 -14 -3 -33 -3 -43 0 -10 3 -42 -6 -71 -19
-30 -14 -70 -25 -90 -25 -63 -1 -120 -19 -170 -54 -67 -48 -106 -66 -142 -66
-42 0 -80 39 -80 82 0 52 44 108 84 108 26 -1 66 -33 66 -54 0 -22 -13 -20
-35 4 -23 26 -37 25 -63 -3 -30 -32 -29 -72 3 -93 33 -21 54 -15 145 45 44 28
93 51 118 56 49 8 66 34 56 84 -10 50 -35 65 -96 57 -174 -20 -165 -21 -210 9
-56 37 -80 35 -133 -14 -54 -50 -76 -59 -178 -76 -88 -14 -100 -21 -72 -41 98
-69 110 -82 165 -179 73 -128 102 -146 251 -153 95 -4 101 -4 138 22 52 37
123 57 174 50 45 -6 63 3 208 104 56 39 66 42 124 42 77 0 95 6 95 32 0 11 -4
16 -11 12 -6 -3 -41 -6 -77 -6 -76 0 -120 -18 -193 -79 -59 -49 -88 -61 -175
-69 -51 -5 -90 -16 -145 -43 -73 -36 -75 -36 -154 -28 -119 13 -142 27 -200
128 -27 47 -64 100 -82 118 -37 36 -42 55 -15 55 41 1 120 38 170 81 38 34 53
35 93 12 36 -22 36 -30 2 -45 -55 -24 -83 -71 -83 -139 0 -53 50 -110 100
-114 39 -3 109 25 159 62 45 34 95 52 151 53 25 0 68 10 95 23 28 13 68 24 89
26 44 3 82 26 89 54 7 25 -11 84 -39 128 -13 21 -24 41 -24 43 0 12 91 -28
114 -49 14 -13 31 -44 37 -70 16 -64 99 -150 99 -102 0 8 -11 24 -25 37 -15
14 -34 52 -46 92 -22 74 -35 88 -108 109 -54 16 -108 67 -116 111 -10 54 -28
68 -110 89 -113 28 -178 82 -210 176 -19 55 -45 54 -134 -7z m109 -37 c0 -7
28 -42 63 -76 58 -58 70 -65 146 -87 83 -24 84 -25 102 -70 11 -25 23 -53 29
-62 8 -14 6 -15 -19 -8 -61 17 -102 44 -158 104 -75 80 -132 107 -241 115 -45
3 -82 9 -82 14 0 4 0 13 0 20 0 6 21 25 48 42 26 16 49 32 52 36 19 24 60 6
60 -28z m134 -469 c12 -32 5 -43 -36 -55 -24 -7 -55 -21 -70 -31 -21 -15 -29
-16 -37 -6 -6 7 -22 28 -37 46 -14 17 -32 32 -40 32 -8 0 -14 4 -14 8 0 4 15
6 33 4 17 -2 50 1 72 6 66 16 122 14 129 -4z m-217 -147 c-4 -14 -35 -18 -43
-5 -4 6 -1 14 6 18 16 10 42 1 37 -13z"/>
<path d="M2972 1387 c-34 -37 -26 -137 12 -137 9 0 13 22 13 80 1 44 0 80 -1
80 -1 0 -12 -10 -24 -23z"/>
<path d="M1948 1331 c5 -64 -16 -153 -49 -210 -11 -18 -17 -36 -15 -39 26 -25
116 175 116 258 0 36 -14 49 -51 50 -3 0 -3 -26 -1 -59z"/>
<path d="M2030 1349 c0 -38 -28 -136 -55 -192 -13 -28 -23 -53 -21 -54 5 -6
88 27 122 48 35 21 54 65 54 127 0 26 -5 34 -27 43 -16 6 -38 20 -50 31 l-23
21 0 -24z m53 -108 c-1 -35 -31 -77 -45 -63 -4 4 -3 24 3 43 6 19 13 40 15 47
8 26 29 5 27 -27z"/>
<path d="M338 1220 c-43 -14 -65 -17 -90 -9 -62 17 -94 11 -132 -25 -27 -25
-36 -42 -36 -66 0 -27 3 -31 17 -24 70 30 143 7 195 -61 18 -24 58 -60 90 -81
57 -38 88 -83 88 -128 0 -32 -37 -76 -63 -76 -12 0 -28 -4 -36 -9 -11 -7 -6
-14 21 -31 18 -13 49 -45 68 -71 19 -26 55 -61 80 -76 105 -65 173 -154 105
-137 -15 4 -61 -10 -126 -36 -60 -25 -122 -43 -147 -44 -31 -1 -49 -7 -60 -21
-45 -55 -105 -69 -163 -39 -33 17 -68 82 -69 127 0 29 31 67 55 67 26 0 75
-30 75 -45 0 -18 0 -18 -41 -1 -46 18 -59 11 -59 -31 0 -48 54 -103 100 -103
49 0 110 64 110 116 -1 71 -53 159 -112 190 -25 13 -32 13 -58 -1 -16 -8 -39
-15 -51 -15 -22 0 -98 -75 -99 -98 0 -15 49 8 70 33 17 20 75 45 105 45 36 0
72 -37 95 -96 20 -54 20 -58 4 -83 -31 -47 -75 -62 -105 -35 -14 13 -16 20 -8
30 6 7 16 11 23 8 7 -3 24 4 37 15 23 19 23 21 9 48 -33 60 -109 72 -152 24
-44 -50 -37 -120 20 -198 33 -44 112 -63 164 -39 19 9 46 27 58 38 13 12 44
25 69 30 50 9 53 9 96 27 59 24 145 51 163 51 10 0 29 11 41 24 21 22 22 26 8
52 -19 36 -83 97 -122 117 -29 15 -95 79 -95 93 0 4 -7 16 -17 26 -15 17 -15
20 6 42 53 56 32 167 -41 221 -22 17 -72 60 -110 97 -56 53 -81 69 -119 78
-87 21 -53 42 61 38 36 -1 86 2 111 6 45 8 46 8 58 -25 20 -55 26 -63 62 -86
19 -12 52 -36 75 -53 23 -16 45 -30 49 -30 5 0 28 -9 52 -21 45 -22 61 -59 26
-59 -26 0 -102 -53 -124 -86 -27 -40 -16 -77 40 -144 58 -70 63 -74 137 -110
46 -22 72 -44 103 -84 22 -31 41 -57 41 -59 0 -2 -23 -7 -51 -10 -54 -7 -111
-43 -196 -124 -47 -45 -77 -59 -147 -67 -27 -3 -89 -25 -138 -47 -107 -49
-152 -54 -180 -19 -59 75 -108 110 -155 110 -38 0 -26 -26 17 -39 23 -7 54
-27 73 -48 88 -99 84 -95 129 -88 23 4 82 27 131 51 55 26 105 44 126 44 77 1
109 16 189 91 94 89 108 96 194 104 42 4 76 13 90 24 l21 18 -54 29 c-38 21
-60 41 -77 70 -18 35 -34 47 -87 69 -45 19 -80 44 -113 79 -71 75 -86 100 -73
125 17 30 64 60 133 82 75 25 98 36 98 49 0 6 -16 10 -35 10 -27 0 -39 7 -56
30 -15 20 -39 34 -73 44 -33 10 -64 28 -86 51 -18 19 -42 35 -51 35 -38 0 -49
12 -49 50 0 41 -23 75 -55 83 -11 3 -46 -3 -77 -13z"/>
<path d="M1035 1211 c-16 -10 -41 -30 -54 -44 -35 -38 -5 -46 44 -13 21 14 48
26 61 26 20 0 44 25 44 44 0 14 -67 4 -95 -13z"/>
<path d="M1360 1162 c0 -37 76 -114 133 -135 68 -26 197 -58 208 -52 16 10 10
23 -13 31 -67 21 -247 117 -278 148 -42 43 -50 44 -50 8z"/>
<path d="M2182 1169 c-18 -5 -57 -25 -86 -44 -48 -31 -144 -61 -247 -79 -29
-5 -64 -31 -159 -119 -124 -114 -181 -157 -212 -157 -10 0 -18 -3 -18 -7 0
-15 96 -73 170 -104 55 -23 91 -47 135 -89 59 -57 132 -102 190 -116 18 -4 59
-38 105 -85 82 -85 115 -103 200 -114 87 -10 153 -32 199 -65 l42 -31 31 23
c21 14 51 23 89 26 l56 4 -29 57 c-15 31 -33 85 -39 121 -20 119 -14 110 -65
110 -51 0 -91 -15 -149 -54 -39 -27 -43 -28 -128 -21 -113 9 -176 27 -209 62
-15 16 -45 63 -68 106 -44 81 -64 104 -140 160 -82 60 -61 96 70 116 81 13
137 40 184 90 17 17 38 31 48 31 10 0 46 -14 79 -32 60 -30 63 -31 124 -20 93
18 149 15 176 -7 21 -17 24 -28 24 -85 0 -75 7 -80 65 -44 21 12 55 22 85 24
28 1 51 3 53 3 1 1 -6 18 -17 39 -25 49 -79 101 -111 108 -56 12 -80 28 -135
90 -31 35 -75 74 -98 86 -48 24 -162 34 -215 17z m194 -50 c23 -11 63 -44 88
-73 l45 -53 -105 -12 c-104 -12 -106 -12 -162 14 -77 35 -105 35 -150 -3 -56
-49 -123 -80 -183 -87 -67 -8 -112 -30 -133 -66 -24 -40 -9 -68 71 -132 47
-37 77 -71 97 -108 16 -30 42 -73 57 -96 l28 -42 -52 20 c-97 38 -119 52 -193
121 -41 37 -79 68 -85 68 -7 0 -46 17 -86 37 l-75 37 24 19 c12 11 66 59 120
108 146 136 145 135 273 159 36 7 97 31 150 60 82 44 96 49 159 49 51 1 81 -5
112 -20z m258 -190 c16 -8 35 -24 44 -36 13 -21 12 -23 -9 -31 -68 -26 -65
-27 -81 37 -17 66 -21 63 46 30z m-73 -499 c51 -185 51 -190 18 -190 -11 0
-31 -7 -45 -16 -23 -16 -27 -15 -87 15 -40 20 -97 38 -152 47 -49 9 -106 24
-125 34 -35 18 -116 98 -107 106 2 2 24 -3 48 -12 24 -8 88 -18 141 -21 100
-6 134 1 188 38 54 36 111 36 121 -1z"/>
<path d="M1048 1134 c-16 -8 -28 -17 -28 -19 0 -3 15 -25 33 -49 17 -25 41
-60 52 -78 11 -18 38 -42 59 -53 21 -11 39 -24 39 -30 1 -18 -66 -55 -100 -55
-49 0 -92 -22 -138 -69 -21 -22 -45 -41 -52 -41 -7 0 -13 -5 -13 -11 0 -14 63
-39 100 -39 33 0 40 15 11 25 -82 26 -17 94 76 79 26 -4 52 -1 77 10 58 24 79
20 119 -24 20 -21 56 -48 79 -58 46 -21 72 -45 82 -77 7 -27 4 -31 -89 -100
-44 -33 -82 -64 -84 -70 -2 -5 -20 -26 -40 -46 -49 -50 -106 -66 -177 -51 -47
10 -59 9 -97 -8 -23 -11 -61 -20 -85 -20 -59 0 -95 -21 -183 -106 l-75 -74
-78 -10 c-86 -11 -236 -73 -236 -98 0 -10 6 -11 23 -5 44 16 86 8 120 -24 17
-16 39 -28 48 -26 14 3 10 11 -17 41 -19 20 -34 40 -34 45 0 10 45 27 72 27
16 0 18 -4 12 -17 -23 -53 3 -103 55 -103 l25 0 -32 30 c-18 17 -30 35 -26 41
3 6 30 22 59 35 39 16 62 36 84 68 25 35 39 47 68 52 24 4 49 20 72 45 86 89
214 43 229 -82 8 -64 20 -69 87 -40 l46 20 -7 50 c-5 40 -2 59 15 94 28 57 58
72 143 72 57 0 67 2 61 15 -3 8 -8 34 -11 57 -3 37 0 46 32 78 25 24 36 45 36
65 0 16 5 32 11 36 18 11 55 -16 72 -52 11 -22 32 -41 65 -58 27 -14 61 -39
76 -57 19 -22 32 -30 47 -26 36 10 115 -21 146 -57 25 -27 35 -32 61 -28 42 6
55 -7 81 -78 21 -57 24 -60 62 -66 43 -7 89 -51 89 -85 0 -33 -38 -62 -73 -55
-26 5 -35 1 -59 -25 -22 -24 -34 -30 -51 -24 -52 17 -82 15 -107 -5 l-25 -20
90 1 c50 1 101 5 115 9 14 4 19 8 11 9 -25 2 -2 14 29 16 22 1 29 -2 28 -13
-5 -27 19 -24 54 6 54 48 112 73 200 85 58 8 83 16 83 26 0 23 -89 62 -177 77
-129 22 -156 35 -241 123 -53 55 -87 82 -110 86 -59 13 -145 67 -192 122 -25
29 -51 53 -57 53 -20 0 -193 87 -216 109 -33 32 -55 69 -47 81 3 5 19 10 35
10 37 0 47 16 16 24 -43 11 -145 96 -196 165 -29 39 -64 74 -85 84 -19 9 -41
30 -50 47 -18 34 -51 39 -97 14z m101 -69 c32 -26 96 -90 146 -146 22 -24 55
-57 73 -71 29 -25 32 -31 26 -62 -6 -35 -7 -35 -33 -22 -14 8 -42 30 -60 50
-21 22 -44 36 -59 36 -19 0 -23 4 -17 18 21 49 14 63 -47 100 -23 15 -48 43
-66 77 -41 75 -33 79 37 20z m552 -529 c32 -33 37 -49 14 -40 -8 4 -15 10 -15
14 0 5 -20 20 -44 34 -58 34 -66 47 -20 33 19 -6 49 -24 65 -41z m-355 -101
c-5 -13 -41 -13 -53 -1 -3 3 8 17 23 32 29 26 29 26 32 4 2 -12 1 -28 -2 -35z
m-191 -154 c-10 -90 -14 -101 -35 -101 -13 0 -22 9 -26 28 -10 41 -31 79 -60
106 l-26 24 76 -1 77 0 -6 -56z m1127 -102 c87 -17 87 -19 8 -49 -41 -15 -78
-25 -81 -22 -4 4 -10 24 -13 45 -8 43 -3 44 86 26z"/>
<path d="M1331 1091 c-7 -11 -23 -24 -36 -27 -14 -3 -25 -10 -25 -15 0 -4 35
-43 78 -87 72 -73 147 -122 188 -122 9 0 40 23 70 52 l55 52 -88 23 c-102 27
-160 59 -201 109 -29 35 -30 36 -41 15z m187 -146 c56 -17 62 -25 36 -46 -34
-28 -89 -3 -176 80 -58 55 -45 65 25 21 35 -22 87 -47 115 -55z"/>
<path d="M1180 775 c-16 -9 -55 -15 -105 -15 -72 -1 -78 -2 -61 -15 10 -8 23
-16 28 -17 4 -2 16 -26 26 -53 19 -52 34 -62 78 -51 34 9 33 46 -1 46 -28 0
-35 27 -10 36 24 10 65 -23 65 -52 0 -50 -84 -96 -117 -63 -9 9 -21 8 -46 -5
-45 -21 -62 -20 -114 5 -39 19 -80 57 -102 96 -8 15 -13 14 -55 -3 -25 -10
-46 -22 -46 -26 0 -3 21 -14 48 -24 68 -26 88 -41 116 -87 26 -45 72 -74 121
-79 26 -3 30 -7 28 -30 -1 -23 3 -27 30 -30 73 -7 142 20 171 65 9 13 6 20
-12 32 -29 21 -30 73 -2 103 25 27 41 28 71 3 18 -15 21 -22 13 -31 -9 -9 -17
-8 -33 1 -18 12 -23 11 -38 -4 -21 -21 -8 -50 23 -55 15 -2 106 62 163 114 9
9 -27 38 -74 58 -29 14 -62 38 -78 59 -30 40 -48 44 -87 22z m73 -61 c12 -14
39 -35 60 -45 20 -11 37 -24 37 -29 0 -20 -21 -20 -48 0 -16 12 -36 22 -45 24
-17 2 -57 47 -57 65 0 20 30 11 53 -15z m-82 -197 c16 -28 17 -33 3 -48 -8 -9
-29 -20 -46 -23 -26 -5 -37 -1 -63 24 -18 17 -48 35 -68 41 -37 10 -52 30 -19
25 9 -2 26 0 37 5 11 4 46 7 78 7 55 -1 60 -3 78 -31z"/>
<path d="M845 720 c-10 -16 61 -88 103 -107 42 -18 102 -2 102 27 0 15 -11 18
-65 22 -57 3 -69 8 -99 37 -23 22 -36 29 -41 21z"/>
<path d="M269 678 l-55 -31 51 -51 c56 -56 91 -134 83 -187 -4 -26 -2 -29 24
-29 16 0 70 16 119 35 50 19 97 35 104 35 36 0 20 24 -45 65 -45 29 -85 66
-111 101 -34 46 -90 94 -109 94 -3 0 -30 -14 -61 -32z m107 -45 c17 -16 43
-45 58 -65 16 -21 43 -47 62 -59 19 -11 34 -25 34 -30 0 -11 -59 -38 -108 -49
-32 -8 -32 -7 -43 36 -6 24 -15 47 -20 50 -5 3 -9 12 -9 20 0 9 -14 35 -31 59
-17 24 -28 48 -25 54 12 20 52 12 82 -16z"/>
<path d="M2849 629 c-12 -24 -1 -90 22 -128 10 -16 42 -49 71 -72 l53 -42 3
44 c3 37 -1 47 -23 67 -15 12 -30 20 -35 17 -5 -3 -12 0 -15 6 -8 12 30 56 57
65 12 3 18 15 18 33 0 27 -1 27 -70 27 -59 1 -73 -2 -81 -17z m71 -33 c0 -16
-24 -38 -33 -30 -8 9 11 44 23 44 6 0 10 -6 10 -14z"/>
<path d="M0 594 c0 -41 2 -45 16 -34 32 28 35 47 9 64 l-25 16 0 -46z"/>
<path d="M2801 617 c-29 -36 17 -183 75 -240 29 -30 62 -49 102 -61 40 -13 27
30 -20 63 -96 67 -127 113 -137 200 -5 48 -8 52 -20 38z"/>
<path d="M1480 574 c0 -16 -14 -42 -35 -66 -27 -29 -34 -45 -30 -61 11 -36 41
-72 63 -75 22 -3 52 31 52 61 0 17 -5 18 -35 13 -39 -8 -45 2 -16 28 38 34 90
-8 76 -62 -4 -15 -16 -37 -27 -49 l-21 -22 33 -40 c31 -40 53 -51 65 -32 3 5
30 15 60 21 45 9 59 9 84 -5 17 -8 31 -20 31 -26 0 -5 15 -16 34 -24 36 -15
46 -31 46 -74 0 -42 -22 -65 -53 -57 -33 8 -37 39 -6 34 12 -2 26 4 32 14 15
23 -9 50 -42 46 -19 -2 -27 -11 -33 -36 -6 -21 -17 -36 -34 -42 -19 -7 -25
-16 -22 -33 3 -19 8 -22 39 -19 25 2 41 -3 54 -18 19 -21 50 -26 60 -10 3 6
20 17 37 26 27 14 37 14 70 3 36 -12 40 -11 66 14 21 21 38 27 70 27 35 0 42
3 42 19 0 24 -36 51 -66 51 -34 0 -62 31 -81 90 -15 46 -22 55 -42 55 -33 0
-70 -49 -55 -73 18 -27 43 -26 55 2 15 32 29 33 29 3 0 -49 -61 -74 -93 -39
-18 20 -22 68 -8 91 12 19 -20 66 -59 86 -16 8 -47 15 -69 15 -36 0 -40 -3
-46 -30 -8 -37 -48 -70 -75 -63 -48 13 -65 81 -28 107 32 23 51 1 20 -22 -20
-15 -21 -20 -9 -36 18 -25 49 -17 66 18 12 25 11 31 -6 55 -11 14 -43 39 -72
54 -32 18 -61 44 -77 68 -28 45 -44 50 -44 13z m315 -210 c27 -7 48 -40 40
-65 -7 -22 -30 -25 -42 -6 -4 7 -21 21 -36 30 -23 15 -26 21 -16 33 12 15 23
17 54 8z m233 -207 c9 -11 7 -18 -11 -35 -20 -18 -30 -21 -75 -15 -29 3 -52
11 -52 17 0 22 19 40 47 44 15 2 32 7 37 12 10 10 36 -1 54 -23z"/>
<path d="M2730 565 c-19 -15 -52 -35 -73 -46 l-39 -20 7 -52 c11 -79 40 -164
70 -202 31 -41 63 -45 152 -19 33 10 76 14 104 12 45 -5 49 -3 49 16 0 17 -9
24 -42 33 -92 25 -171 129 -186 246 l-7 58 -35 -26z m25 -107 c19 -59 43 -96
94 -148 l35 -35 -40 -12 c-66 -20 -110 -16 -127 10 -19 30 -44 103 -52 154 -5
37 -3 43 22 62 15 11 33 21 39 21 7 0 19 -24 29 -52z"/>
<path d="M1243 326 c-25 -21 -28 -31 -28 -83 0 -65 23 -108 70 -133 23 -12 30
-12 53 1 37 20 51 64 29 86 -15 16 -18 16 -36 -1 -23 -21 -37 -6 -21 24 6 12
21 20 35 20 28 0 65 -32 65 -55 0 -8 13 -21 29 -30 33 -16 71 -72 80 -117 6
-28 9 -30 59 -32 59 -2 60 -1 38 81 -22 81 -60 154 -106 201 -53 54 -73 62
-165 62 -64 0 -78 -3 -102 -24z m213 -40 c43 -28 88 -97 116 -178 18 -53 20
-70 11 -79 -10 -10 -18 -1 -37 42 -14 30 -50 81 -80 113 -31 33 -56 63 -56 67
0 4 -14 12 -30 18 -41 14 -75 0 -100 -41 -16 -26 -20 -29 -26 -15 -12 32 5 86
29 92 75 16 129 10 173 -19z"/>
<path d="M858 259 c-31 -23 -35 -44 -13 -73 8 -11 15 -39 15 -63 0 -71 -63
-118 -104 -77 -22 21 -20 67 4 89 18 16 20 17 26 1 4 -11 0 -22 -11 -30 -22
-16 -12 -36 20 -36 48 0 53 94 6 119 -20 11 -81 -3 -81 -18 0 -4 -16 -26 -35
-48 -24 -28 -46 -43 -71 -48 l-36 -6 37 -35 c21 -19 41 -34 46 -34 11 0 12 23
1 36 -4 5 -5 8 -3 7 2 -2 10 5 18 15 12 16 14 16 32 -6 11 -12 21 -28 23 -34
3 -7 25 -12 55 -12 42 0 55 4 71 24 18 23 22 23 46 11 14 -8 23 -18 20 -23 -3
-5 46 -8 118 -7 99 1 130 5 161 20 l38 20 -7 -26 c-4 -16 -2 -25 5 -25 12 0
61 48 61 59 0 4 -14 15 -30 24 -29 18 -31 18 -58 -1 -49 -35 -99 -46 -147 -32
-32 9 -48 9 -64 0 -12 -6 -30 -8 -41 -5 -29 9 -60 54 -60 86 0 34 31 69 60 69
27 0 25 -23 -2 -35 -16 -7 -23 -19 -23 -39 0 -35 23 -51 58 -42 57 14 57 131
0 176 -34 27 -99 26 -135 -1z m72 -27 c0 -7 -33 -31 -42 -32 -13 0 -9 28 5 33
16 5 37 5 37 -1z"/>
<path d="M1623 242 c-44 -23 -31 -47 16 -31 18 6 50 9 72 5 31 -5 41 -3 46 10
3 9 0 20 -8 25 -23 14 -92 9 -126 -9z"/>
<path d="M2860 195 c-30 -8 -100 -14 -155 -15 -99 0 -171 -19 -189 -49 -14
-23 -83 -48 -142 -54 -59 -5 -154 -43 -170 -68 -10 -17 72 -5 111 15 17 9 39
16 50 16 48 0 139 32 176 62 39 31 44 32 167 39 70 4 147 12 172 19 24 6 61 9
82 6 30 -5 38 -3 38 9 0 16 -39 36 -68 34 -9 0 -42 -7 -72 -14z"/>
<path d="M0 180 c0 -12 17 -44 38 -73 21 -29 45 -64 54 -78 14 -21 24 -26 57
-26 31 0 41 4 41 16 0 24 -31 69 -87 129 -35 38 -56 52 -76 52 -21 0 -27 -5
-27 -20z"/>
<path d="M1641 180 c-17 -7 -21 -15 -16 -28 4 -9 11 -42 17 -72 6 -30 12 -61
14 -67 4 -15 134 -18 134 -4 0 17 -23 25 -61 22 -30 -1 -40 3 -50 20 -16 30 4
95 32 104 11 4 18 12 16 18 -5 15 -55 19 -86 7z"/>
<path d="M1155 119 c-25 -12 -52 -18 -73 -15 -23 4 -32 1 -29 -7 7 -21 98 -20
135 3 32 20 43 41 20 39 -7 0 -31 -9 -53 -20z"/>
<path d="M1424 102 c14 -16 31 -45 37 -65 12 -45 43 -53 33 -9 -12 51 -53 101
-83 102 -10 0 -5 -10 13 -28z"/>
<path d="M0 68 c1 -41 20 -68 49 -68 11 0 21 3 21 6 0 7 -62 94 -67 94 -2 0
-3 -15 -3 -32z"/>
<path d="M1354 82 c-12 -9 -29 -31 -37 -47 l-15 -30 69 0 c68 0 70 1 64 24 -8
32 -35 71 -49 71 -6 0 -21 -8 -32 -18z"/>
<path d="M2633 83 c-43 -22 -85 -65 -74 -76 6 -6 26 2 52 22 50 36 79 39 125
10 32 -19 35 -19 85 -5 60 18 117 20 139 6 23 -15 -5 -29 -44 -23 -17 2 -42 0
-56 -6 -20 -8 -8 -10 58 -10 l82 -1 0 31 c0 19 -4 28 -11 24 -6 -4 -16 1 -24
11 -11 16 -24 18 -72 15 -95 -6 -145 -4 -190 6 -33 8 -49 7 -70 -4z"/>
<path d="M238 62 c-30 -4 -31 -5 -22 -37 4 -16 13 -21 40 -21 33 0 35 2 29 25
-8 33 -14 37 -47 33z"/>
<path d="M327 23 c-17 -16 -3 -23 51 -23 52 1 55 2 38 15 -20 15 -77 20 -89 8z"/>
<path d="M2645 16 c-19 -14 -16 -15 35 -16 33 0 50 4 45 9 -19 19 -60 22 -80
7z"/>
</g>
</svg>
