<svg xmlns="http://www.w3.org/2000/svg" width="193" height="125" fill="none" viewBox="0 0 193 125">
  <path fill="#FF80B2" stroke="#000" d="M153.321 19.465C149.773 15.329 140.018 5.432 135.584 1c-.554 0-2.218 2.216-2.772 2.954-.554.739-10.531 4.801-11.085 4.801-.555 0-8.869.37-11.086 1.108-2.217.739-1.108 3.693-3.325 6.278-2.218 2.585-6.652 2.585-7.206 2.585-.554 0-8.868-2.585-10.531-2.585-1.33 0-5.728 3.2-7.76 4.801 1.847.862 6.097 2.733 8.314 3.324 2.771.738 3.88-.37 5.543-.739 1.33-.295 4.619.862 6.097 1.477 2.217.862 6.873 2.585 7.76 2.585 1.108 0 7.205.739 8.868 1.847 1.663 1.108 4.434 1.108 5.543.738 1.108-.369 3.88 1.108 3.88 1.478 0 .369-9.423 5.17-9.423 5.908 0 .739 7.206 6.279 7.206 7.756 0 1.477-42.125 10.34-44.342 10.71-2.217.369-2.772-1.847-3.88-3.324-1.109-1.477 1.108-3.324 1.663-4.063.554-.738-.555-2.954-.555-4.062s-3.325-.738-4.988-.738c-1.663 0-4.989 1.107-5.543 1.477-.554.369-2.771-2.955-3.326-3.324-.554-.37-7.76-2.585-10.53-2.954-2.218-.296-4.25-2.093-4.99-2.955-1.108.493-3.768 1.773-5.542 2.955-2.217 1.477-3.326-.37-4.434-1.477-1.109-1.108-9.423-2.216-11.086-2.216-1.662 0-8.868 2.215-11.085 2.215-2.217 0-5.543 1.847-7.76 4.063-2.217 2.216-1.108 10.34 1.109 11.448 2.217 1.108 7.76 14.772 8.868 17.357 1.109 2.585-1.662 15.88-2.217 16.988-.555 1.108-13.302 4.062-14.965 4.8-1.663.74-1.109 8.864.554 11.079 1.663 2.216 4.435 8.125 5.543 10.71 1.109 2.585-2.217 7.755-1.108 7.755 1.108 0 8.868.739 10.53 1.108 1.664.369 12.195 1.847 14.412 1.108 2.217-.739 28.268-4.062 31.04-4.062 2.77 0 9.976-.37 11.085-.739 1.108-.369.554-2.954-1.109-3.693-1.663-.738-2.771-5.539-2.771-6.647 0-1.108-.555-9.233 2.217-12.187 2.771-2.954 18.845-5.909 21.616-7.017 2.772-1.108 29.377.37 31.594 0 2.217-.369 7.76 1.847 8.868 2.955 1.109 1.108-2.217 2.585-2.217 5.54 0 2.954 9.423 1.846 10.531 1.476 1.109-.369.555-3.693-1.108-5.17-1.663-1.477-1.663-2.585-.554-3.693 1.108-1.108 17.182-2.954 19.953-2.954 2.772 0 11.086 2.954 17.183 2.954 6.097 0 12.748-1.108 13.302-2.954.555-1.847-.554-4.062-2.771-4.801-2.217-.739-15.52-8.124-17.737-9.602-2.217-1.477-1.662-3.323-1.108-5.54.554-2.215 2.217-6.277 3.325-7.754 1.109-1.478-1.108-3.693-2.217-5.54-1.108-1.846-4.434-9.97-6.651-12.187-2.217-2.215-6.651-7.016-5.543-11.448 1.109-4.431-1.108-6.278-5.542-11.448Z"/>
</svg>
