<svg xmlns="http://www.w3.org/2000/svg" width="224" height="107" fill="none" viewBox="0 0 224 107">
  <path fill="#B3FF80" stroke="#000" d="M153.888 13.393c.443-1.473 8.682-4.79 12.746-6.263v7.913c0 2.386 4.434 3.877 5.542 4.614 1.109.737 18.843 4.053 19.952 4.053 1.108 0 9.976 2.58 11.084 3.316.887.59 13.67 4.913 19.951 7v9.95c-3.14.122-9.532.367-9.975.367-.555 0-1.663-1.105-3.326-1.105-1.662 0-4.987 1.842-7.204 2.21-2.217.37-4.434-1.105-5.542-1.473-1.109-.368-1.109.737-1.109 1.105 0 .369-4.988 1.843-7.205 3.317-2.216 1.473-9.975 1.473-10.53 1.473-.554 0-3.879-2.21-3.879-2.579 0-.368-3.325 1.106-3.879.737-.555-.368-1.663-2.58-2.772-3.316-.886-.59-7.758 4.421-11.084 7-1.478.369-4.655 1.106-5.542 1.106-1.108 0 0-1.842 0-2.21 0-.37-1.108-.738 0-2.58 1.109-1.842.554-3.316 0-4.053-.443-.59-3.14-2.21-4.433-2.948-.185-.982-.887-2.947-2.217-2.947-1.663 0-1.109 4.421-1.109 4.79 0 .368-2.217 4.421-2.217 5.895 0 1.474-4.987 7-6.096 8.106-.887.884-1.108 4.79-1.108 6.632-.924.491-3.104 1.695-4.434 2.58-1.663 1.105-.554 7.368 1.663 8.842 2.216 1.474 3.325 3.316 3.879 4.422.443.884-2.032 2.579-3.325 3.316-.554.245-1.995.515-3.325-.369-1.331-.884-3.141.614-3.88 1.474-2.217 1.35-6.65 4.495-6.65 6.264 0 2.21-1.109 3.316-3.326 4.053-2.216.737-17.18 0-18.843-.369-1.662-.368-4.433.737-5.542 1.474-1.108.737 1.663 5.158 1.108 7.001-.554 1.842-3.325 1.842-4.433 2.21-1.109.369-23.277.369-25.494 0-1.773-.295-10.715.614-14.964 1.106-3.325.245-10.419.368-12.192-1.106-2.217-1.842-6.096-5.158-8.313-5.895-2.217-.737-9.976 0-14.41.737-4.433.737-7.759.737-9.976-.737-2.216-1.474 3.88-7 5.543-8.474 1.663-1.474 0-1.843-1.663-3.316-1.663-1.474-2.217-1.474-2.77-3.685-.555-2.21 3.879-6.632 4.433-8.106.554-1.474 1.662-2.21 4.434-3.316 2.77-1.105 3.325-1.842 4.433-3.316 1.109-1.474 8.313-1.842 12.193-2.21 3.88-.37 23.83-8.475 24.385-8.844.554-.368 6.096-3.316 7.205-4.053 1.108-.736 3.325-2.579 3.88-4.053.553-1.473-2.772-1.842-4.989-2.21-2.217-.369-3.88-4.053-3.88-5.159 0-1.105.555-3.684-1.107-5.526-1.663-1.843 0-3.685 0-5.896 0-2.21-4.988-2.579-7.205-4.421-2.217-1.842 0-4.79 0-7 0-2.211 2.771-3.317 4.434-4.422 1.662-1.106 1.108 2.579 2.77 4.421 1.663 1.843 7.205-.368 8.868-1.842 1.663-1.474-1.663-3.684-1.663-4.79 0-1.105 4.988-7 7.205-9.211 2.217-2.21 2.771 1.474 4.434 2.21 1.662.737 5.542-.736 7.759-2.21 2.217-1.474 9.421-2.58 13.855-1.842 4.434.736 35.469 14.37 37.132 15.843 1.663 1.474 13.301 5.527 18.843 4.053 5.542-1.474 3.325-5.895 3.88-7.738Z"/>
</svg>
