<svg xmlns="http://www.w3.org/2000/svg" width="216" height="200" fill="none" viewBox="0 0 216 200">
  <path fill="#DDAFE9" stroke="#000" d="M102.974 3.615c1.328.884 8.299-1.35 11.619-2.578 1.107-.399 3.874 2.578 4.98 2.946 1.107.369 3.874 1.474 4.98 1.842 1.107.368 3.32 4.42 3.874 5.157.553.736-1.66 9.945-1.66 11.05 0 1.105-2.767 3.314-4.427 5.893-1.66 2.578-1.107 4.052-1.107 4.42 0 .368 2.214 6.261 1.107 8.103-1.107 1.842-2.767 11.418-2.767 12.523 0 .884 1.107 2.088 1.66 2.579-6.455 2.21-19.366 6.777-19.366 7.366 0 .737 4.427 6.262 4.98 6.63.553.369.553 2.947.553 3.684 0 .736 1.66 12.891 2.213 14.365.554 1.473 8.854 13.26 8.854 13.996 0 .737 3.32 0 4.426-1.105 1.107-1.105 9.96-2.946 11.067-2.578 1.107.368 9.407 1.842 11.067 1.473 1.66-.368 2.766-3.683 3.873-5.156 1.106-1.474 0-10.314 0-11.05 0-.737.553-4.052 1.106-5.157.443-.884 4.243-4.052 6.087-5.525l4.427.737 30.986 4.788c4.427 1.228 13.501 3.904 14.387 4.788 1.106 1.105-1.107 4.789-2.767 5.525-1.66.737-2.213 2.947-1.66 4.789.553 1.841 5.533 3.683 7.193 4.42 1.66.736 2.214 2.946 3.32 4.788.886 1.473 2.583 7.244 3.32 9.945-1.844.982-5.865 3.02-7.193 3.315-1.66.368-2.767-2.21-3.32-2.21-.553 0-7.747-1.842-9.407-1.842-1.66 0-7.193 1.105-9.406 1.842-2.213.737-6.087 1.105-9.407 3.315-3.32 2.21-.553 9.577-1.106 10.313-.554.737 2.766 2.579 3.32 2.947.553.368 7.193 15.838 7.746 16.943.554 1.105-2.213 15.838-2.766 16.575-.554.737-7.194 2.947-8.854 2.947-1.66 0-6.086 1.841-7.193 2.946-1.107 1.105 1.66 9.209 2.213 9.945.554.737 5.534 10.314 5.534 11.419 0 .884-1.476 5.034-2.214 6.998-5.533.491-17.485 1.473-21.026 1.473-4.427 0-7.747-2.21-9.407-2.946-1.66-.737-16.046-1.474-22.133-2.579-6.087-1.105-13.833-.736-21.58-2.21-7.746-1.473-20.473-3.683-26.56-5.525-6.086-1.841-24.9-2.578-35.413-5.893-8.41-2.652-22.317-2.578-28.22-2.21v-2.578c0-1.474 3.874-4.42 5.534-6.262 1.66-1.842-5.533-5.893-3.32-9.576 2.213-3.684-2.767-11.05-2.213-15.47.553-4.42 3.873-5.894 5.533-6.999 1.66-1.105 2.767-2.946 1.66-4.42-1.107-1.473 3.873-15.47 6.087-20.626 2.213-5.157-3.32-20.627-4.427-23.205-1.107-2.579-14.94-5.894-16.6-6.262-1.66-.368 9.96-5.893 12.727-7.367 2.767-1.473 4.427-4.42 4.98-5.893.553-1.473-7.747-7.367-7.747-8.472 0-1.105 10.514-1.473 12.727-2.946 2.213-1.474 18.813-6.63 22.133-8.472 3.32-1.842 16.047-3.683 17.153-3.683 1.107 0 4.98-5.525 5.534-8.472.553-2.947 8.3-7.367 8.853-8.84.553-1.473-3.874-2.947-4.427-7.366-.554-4.42 10.513-6.262 12.173-5.894 1.66.369 6.64.369 7.193-1.105.554-1.473 3.32-10.313 4.98-12.155 1.66-1.841 3.874.737 5.534 1.842Z"/>
</svg>
