<svg xmlns="http://www.w3.org/2000/svg" width="270" height="126" fill="none" viewBox="0 0 270 126">
  <path fill="#C6E9AF" stroke="#000" d="M248.193 29.68c2.217-1.175 10.9-.49 14.965 0-.185.367-.555 1.247-.555 1.834 0 .734-1.108 2.569-3.325 4.77-2.217 2.202-1.663 4.404-1.663 4.77 0 .368 3.325 3.67 3.88 4.404.554.734 1.108 2.935 1.108 3.67 0 .733 4.434 2.935 4.988 3.302.555.367 2.217 1.467 1.663 2.201-.443.587-5.358.979-7.759 1.101-8.129.612-24.609 1.908-25.496 2.202-1.108.367-5.542 5.87-6.651 6.604-1.108.734-4.433 1.835-5.542 2.202-1.108.367-1.663 2.202-2.217 4.403-.554 2.202-2.771 9.174-3.325 9.54-.555.367-18.29 5.138-19.399 5.138-1.108 0-4.434 1.834-5.542 2.201-.887.294-5.173 7.706-7.206 11.375-.369.367-1.33 1.174-2.217 1.468-1.108.367-2.771 1.835-3.325 2.568-.443.588 3.88 4.159 6.097 5.871.923.123 2.993.367 3.879.367 1.109 0 1.663 1.101 1.663 1.468s-7.205 7.339-7.759 7.706c-.555.367-2.217.734-4.434 1.101-2.217.366-5.543-.367-6.651-.734-1.109-.367-7.205-.734-7.76-.734-.554 0-2.771-1.835-3.879-1.835-1.109 0-18.29 8.073-19.399 8.44-1.108.367-2.771-3.67-3.325-4.037-.555-.367-2.217-2.935-3.88-3.302-1.663-.367-6.651-3.302-7.205-4.036-.554-.734-8.868-3.303-9.977-3.303-1.108 0-7.759-1.101-8.867-1.101-1.109 0-3.326-1.1-4.989-1.834-1.662-.734-2.771 1.834-8.867 1.834-4.878 0-8.684.49-9.977.734H66.401c-2.217 0-4.988-1.834-7.205-1.467-2.217.367-9.422-1.835-11.64-2.569-2.216-.734-8.867-2.935-8.867-4.77 0-1.835-6.097-4.77-7.206-5.504-1.108-.734-3.88-.367-5.542.734-1.663 1.1-16.627 0-20.507 0C1.554 96.462 1 95.36 1 93.526c0-1.834 4.434-4.403 6.65-6.238 2.218-1.834 6.098-6.971 7.206-8.44 1.109-1.467 3.88-.733 5.542-1.467 1.663-.734 2.218-3.67 3.88-6.972 1.663-3.302-5.542-5.87-6.65-7.338-1.11-1.468 18.844-.734 21.06-.734 2.218 0 19.4 0 22.17-1.101 2.772-1.1-1.108-5.137 0-7.706 1.11-2.568 8.315-1.834 9.977-1.834 1.663 0 13.302.734 15.52 0 2.216-.734 2.216-3.67 2.216-4.77 0-1.101 6.097-5.138 7.205-6.238 1.109-1.101 3.88-.734 4.434 0 .555.734 3.326-.367 4.989-2.202 1.663-1.835-2.772-4.77-4.989-6.605-2.217-1.834-1.108-6.971-.554-7.705s3.88-3.303 5.543-2.569c1.662.734 9.422 1.1 11.084 2.569 1.663 1.467 1.109 2.935 1.109 4.036 0 1.1 3.88 2.201 5.542 3.302 1.663 1.101 7.76 2.202 10.531 2.202 2.771 0 10.531-.734 12.193-.734 1.663 0 10.531 1.468 13.302.734 2.772-.734 4.988 2.569 7.205 2.201 2.217-.366 5.543-1.467 8.868-2.201 3.326-.734 8.868-4.77 9.977-6.605 1.108-1.834 3.879-6.238 3.325-7.705-.554-1.468-7.205-1.468-11.639-1.101-4.434.367-11.639-1.468-16.073-2.569-4.434-1.1-9.977-5.87-11.085-6.972-1.109-1.1 4.988-1.1 6.651-1.467 1.662-.367 9.976-3.67 10.53-4.77.554-1.101 2.771.366 4.988 1.1 2.217.734 6.651-2.201 8.314-2.568 1.663-.367 3.325 1.1 4.434 1.1h8.868c1.108 0 0 6.239.554 7.706.554 1.468 3.88 1.468 5.543 3.303 1.662 1.834 0 4.403 2.217 6.238 2.217 1.834.554 6.604 1.108 7.705s16.627 5.871 18.844 5.871c2.217 0 9.977 1.468 13.302 1.468 3.326 0 10.531-3.303 13.302-4.77Z"/>
</svg>
