<svg xmlns="http://www.w3.org/2000/svg" width="182" height="137" fill="none" viewBox="0 0 182 137">
  <path fill="#F5D" stroke="#000" d="M159.126 43.485c0-.897-3.688-3.116-5.532-4.113-.185-.374-.665-1.197-1.107-1.496-.553-.374-6.638-1.496-8.297-1.496-1.66 0-4.979-1.496-7.192-2.618-2.212-1.122-2.765-2.618-2.765-3.74 0-1.121-4.426-4.861-5.532-5.983-1.106-1.122-14.935-4.488-16.042-4.488-1.106 0-9.956-1.121-11.616-1.87-1.66-.747-4.425-3.365-4.978-4.113-.553-.748-6.085-4.862-7.745-5.61-1.66-.748-4.978-2.991-6.637-2.991-1.66 0-7.745-2.618-10.51-3.74-2.766-1.122-4.426 2.618-6.085 3.74-1.66 1.122-8.85-1.87-11.617-2.618-2.765-.748-6.638 0-8.85.748-2.213.748-14.382 1.496-16.042.748-1.66-.748-9.404-2.618-12.168-2.618-2.765 0-12.724.374-14.936 1.122-2.213.748 3.872 4.862 6.638 5.236 2.766.373 4.425 2.991 5.531 4.861 1.107 1.87-.553 11.593-1.106 12.341-.553.748-4.425 5.236-5.532 7.105-1.106 1.87 2.767 7.48 1.107 11.593C6.453 47.6 4.794 54.705 5.347 56.2c.554 1.496 7.745 5.984 11.064 7.853 3.319 1.87 18.807 10.472 22.126 11.22 3.319.748 24.339 3.74 32.083 4.861 7.745 1.122 20.467 4.862 21.02 5.61.553.748-1.106 5.235-2.213 5.61-1.106.373-2.765 2.617-1.66 5.235 1.107 2.618 4.98 4.113 7.192 4.861 2.213.748 4.978 11.967 7.191 14.959 2.213 2.992 12.17 4.488 14.382 5.235 2.213.748 3.319 5.236 4.425 3.74 1.107-1.496 5.532-1.87 8.298-1.496 2.766.374 2.213 4.488 0 6.732-2.213 2.243 2.212 5.235 4.425 5.609 2.213.374 42.04-9.349 44.253-10.845 2.213-1.496-6.638-6.731-6.638-8.227 0-1.496 8.297-5.236 9.404-5.984 1.106-.748-2.766-1.869-4.979-1.495-2.212.373-3.319 0-4.425-1.122-1.106-1.122-7.191-1.496-9.404-1.496-2.212 0-8.297-3.366-11.616-4.114-3.319-.748-3.319.748-6.085.748s-15.488-5.983-17.701-7.105c-2.213-1.122-9.957-.748-12.169-2.618-2.213-1.87-1.66-4.488-2.213-5.984-.553-1.495 2.213-4.113 4.425-5.61 2.213-1.495 6.638-1.121 8.851-2.243 2.213-1.122 8.297 1.122 9.957-1.122 1.659-2.244 9.404-4.113 11.616-5.61 2.213-1.495 1.66-1.495 1.107-4.487-.554-2.992 3.872-9.35 5.531-11.967 1.66-2.618 2.766-4.487 2.766-6.731 0-2.244 2.766-5.61 2.766-6.732Z"/>
</svg>
