<svg xmlns="http://www.w3.org/2000/svg" width="292" height="209" fill="none" viewBox="0 0 292 209">
  <path fill="#5FBCD3" stroke="#000" d="M283.936 25.537c1.774.59 4.436 2.704 5.545 3.687-1.664-.369-2.772 4.056-3.327 4.425-.554.369-2.772 8.112-3.327 9.218-.555 1.106-4.991.737-7.764.737-2.772 0-9.427 2.213-11.09 3.319-1.664 1.106 1.663 6.637 2.772 7.006.888.295 1.479 2.09 1.664 2.95-2.588 2.212-7.875 6.71-8.318 7.005-.555.37-1.664 3.688-1.109 4.056.443.295-3.143 4.056-4.991 5.9-3.697.737-11.424 2.286-12.755 2.581-1.663.369-12.754 4.425-13.863 4.793-.887.296-9.982 3.81-14.418 5.531-3.327.615-10.204 1.918-11.091 2.213-1.109.368 5.546 5.53 6.1 5.9.555.368 1.664 2.212 1.664 2.95 0 .737-3.882 4.793-4.437 5.161-.554.369-12.754 7.006-13.309 7.375-.443.295 6.1 2.089 9.428 2.95 1.663.614 5.212 1.991 6.1 2.581 1.109.737 2.218 5.531 2.772 6.637.555 1.106 3.327 14.38 3.327 14.749 0 .369-2.218 8.481-2.772 8.849-.555.369-4.437 13.643-4.437 14.012 0 .369 1.11 2.212 1.11 2.581 0 .369-2.219 2.581-3.328 2.95-1.109.369-2.772 2.212-3.882 4.793-1.109 2.581 1.11 11.062 1.664 11.799.555.738 1.109 3.688 0 4.794-1.109 1.106-.554 3.687-.554 4.056 0 .369 3.881 5.162 3.881 5.9 0 .737-4.436 4.424-5.545 5.162-.887.59-.739 2.95-.555 4.056h-12.754c-1.664 0-9.427 2.581-12.754 2.212-3.328-.369-8.873-5.9-9.428-8.481-.554-2.581-7.763-8.48-9.981-9.587-2.219-1.106-27.173 0-28.837 0-1.663 0-4.436-1.106-6.654-1.106s-9.982 1.475-12.2 1.106c-2.218-.368-1.109-8.849-1.109-10.693 0-1.843-7.209-6.268-11.09-8.112-3.883-1.843-19.964-7.374-22.182-8.849-2.219-1.475-9.982-1.844-16.637-2.212-6.654-.369-20.518-6.269-22.181-6.637-1.664-.369-11.646-4.794-14.418-6.269-2.773-1.475-7.21-.737-8.873-.737-1.664 0-7.209.368-8.318-.738-1.109-1.106 2.219-16.592 4.437-19.911 2.218-3.318 8.318-4.425 11.645-4.793 3.327-.369 6.1-2.95 6.1-4.425 0-1.475 2.773-9.218 3.327-11.431.555-2.212-4.437-5.162-6.655-8.849-2.218-3.687 2.218-13.643 3.328-14.749 1.109-1.106 8.318-1.106 9.981-1.106 1.664 0 4.991 0 7.21-1.475 2.217-1.475 4.436 1.106 6.654 1.475 2.218.368 6.654.368 9.427 1.106 2.773.737 9.427 3.319 10.536 4.056 1.11.737 5.546 3.319 7.764 4.056 2.218.737 4.99 6.637 6.1 6.637 1.109 0 17.19-7.743 18.854-8.48 1.664-.738 4.436 1.843 5.546 1.843 1.109 0 6.654.737 9.427 1.475 2.772.737 6.654.369 7.763-.738 1.109-1.106 7.209-6.268 7.764-7.743.443-1.18-3.143-1.475-4.991-1.475-1.479-1.229-4.77-4.056-6.1-5.53-1.664-1.844 4.436-4.057 4.99-4.794.555-.737 6.1-8.48 7.209-11.062 1.109-2.581 22.737-6.268 24.955-7.743 2.218-1.475 3.882-10.693 4.436-12.906.555-2.212 6.1-2.212 7.209-3.687 1.109-1.475 2.773-3.318 5.546-5.9 2.772-2.58 32.717-2.95 33.826-3.687 1.11-.737-2.218-2.58-4.436-3.687-2.218-1.106-2.773-2.212-2.773-3.687 0-1.475-2.217-4.794-3.881-5.9-1.664-1.106 0-4.056 1.664-5.53 1.663-1.476 2.772-5.532 3.881-6.269 1.109-.737 13.864.737 17.746 1.475 3.881.737 6.1 3.318 6.1 4.793s6.1 2.95 7.763 4.056c1.664 1.107 6.1-1.843 8.318-1.843s11.091 1.843 13.864 2.212c2.772.369 6.1-2.212 7.763-2.212 1.664 0 .555 1.106 1.664 1.843 1.109.738 5.545 5.162 7.209 5.9 1.664.737 8.873 7.374 11.091 8.112Z"/>
</svg>
