<svg xmlns="http://www.w3.org/2000/svg" width="189" height="125" fill="none" viewBox="0 0 189 125">
  <path fill="#D4FF2A" stroke="#000" d="M1.488 72.13v-9.967l7.728-.738c3.865-.37 20.978-5.906 23.738-7.383 2.76-1.477 6.625-8.49 7.177-9.229.552-.738-1.656-10.705-2.76-11.813-1.104-1.107-3.865-2.953-3.865-3.322 0-.369 10.49-14.027 11.041-15.135.553-1.107-.552-12.55 0-13.29.553-.738 9.938.37 10.49.37.552 0 2.76.738 3.864 1.477 1.104.738 6.624 1.476 7.177 1.476.552 0 3.864.738 4.416 1.108.552.369 4.969 2.584 6.073 2.953 1.104.369 3.312 2.215 3.864 2.584.552.369 4.416 2.215 4.968 2.953.552.738 18.77 7.752 21.53 8.49 2.761.739 5.521-.738 7.177-1.476 1.325-.59 4.969-3.938 6.625-5.537.368.86 1.214 2.731 1.656 3.322.552.738 3.312 1.107 3.864 1.477.552.369 4.417 1.845 6.073 2.584 1.656.738 2.208.369 4.416.369 2.209 0 3.865.369 4.969.738 1.104.37 1.656 2.215 2.76 2.953 1.104.738 1.656 2.215 1.656 2.953 0 .739 3.865 2.954 4.969 3.323 1.104.369 4.968 1.107 6.072 1.476l3.313 1.108c1.104.369 2.208 2.215 2.76 3.322.552 1.107 2.208 3.322 2.76 5.168.552 1.846-1.656 2.953-2.208 5.906-.552 2.954 3.864 6.276 3.864 7.014 0 .739-2.76 5.168-3.312 7.014s1.104 2.584 7.177 6.645c6.072 4.06 9.385 8.121 9.937 8.49.552.37.552 1.477 0 2.215-.552.738-1.104 1.477-1.104 2.584 0 1.108 3.864 1.477 4.416 1.477.552 0 2.208.369 2.208.738 0 .37 0 1.846.552 2.953.552 1.108 0 4.799 0 5.168 0 .296-7.729 4.8-11.593 7.014-2.392 1.23-7.287 3.913-7.729 4.799-.552 1.107-1.104 3.691-1.104 4.799 0 1.107-2.208 5.168-2.208 5.906 0 .739-8.833 5.168-9.385 5.537-.552.37-2.208 1.477-3.864 1.477-1.656 0-7.177-4.799-7.729-5.537-.552-.738-2.76-1.846-3.864-2.215-1.104-.369-6.625-6.276-7.177-6.645-.552-.369 0-.738-1.104-1.107s-4.417 1.476-5.521 1.846c-1.104.369-2.76.369-3.864 0-1.104-.37-11.041-1.846-12.145-1.846-1.104 0-5.521 1.476-6.073 1.846-.552.369-1.656 0-4.968-1.477-3.313-1.477-4.969-2.215-4.969-2.953 0-.739-2.208-2.584-4.416-3.692-1.767-.886-15.826-2.092-22.634-2.584-2.76-.123-8.612-.295-9.937 0-1.656.369-7.177 2.584-9.385 3.692-1.767.886-5.52 1.353-7.177 1.476-3.496-.492-10.82-1.476-12.145-1.476-1.656 0-16.562-5.168-17.666-5.537-1.104-.37-1.104-1.477-.552-4.43.552-2.953-1.656-4.06-2.208-4.8-.552-.737-.552-2.583-.552-4.429s-4.968-2.953-6.072-4.43c-.884-1.181-.368-5.66 0-7.752Z"/>
</svg>
