<svg xmlns="http://www.w3.org/2000/svg" width="78" height="31" fill="none" viewBox="0 0 78 31">
  <path fill="#37C871" stroke="#000" d="M43.602 5.156C41.84 4.55 38.832 2.133 37.549 1c-.55.252-1.762.907-2.202 1.511-.55.756-3.302 1.889-4.953 2.267-1.65.378-5.503 2.266-6.603 3.4C22.69 9.31 21.039 9.31 20.489 9.31c-.55 0-4.953-1.133-6.054-.378-1.1.756-4.402 1.134-6.603 1.511-2.202.378-5.503 4.156-6.054 4.156-.55 0-1.1 2.644-.55 3.4.55.756 1.1 4.911 1.65 5.667.551.755 8.255 1.51 11.557 2.266 2.642.605 6.971 2.77 8.805 3.778 2.018-1.511 6.494-4.533 8.255-4.533 2.201 0 8.805 2.644 11.006 2.644 2.202 0 6.054-2.266 7.154-3.777 1.1-1.512 1.1-4.534 2.201-5.29 1.101-.755 8.805-1.133 11.007-1.133 2.201 0 8.254-3.777 9.905-4.533 1.651-.756 3.302-3.4 3.853-4.156.55-.755-2.202-.755-2.752-1.51-.55-.756-7.704-1.134-9.906-.379-2.2.756-9.355.378-10.456 0-1.1-.377-7.704-1.133-9.905-1.888Z"/>
</svg>
