<svg xmlns="http://www.w3.org/2000/svg" width="58" height="50" fill="none" viewBox="0 0 58 50">
  <path fill="#FF7F2A" stroke="#000" d="M1.01 9.32C.567 7.835 14.169 3.499 21.026 1.517l2.78 1.858C29.92 6.967 43.04 14.598 46.598 16.382c3.558 1.784 7.784 2.726 9.451 2.973-1.297 1.487-4.225 4.683-5.56 5.575-1.667 1.115-1.667 10.779-1.111 13.752.556 2.973-2.224 5.946-3.892 7.433-1.667 1.487-6.115-1.115-11.118-1.487-5.004-.371-13.343 3.345-15.011 4.089-1.668.743-8.895-11.15-10.007-14.867-1.112-3.716-3.336-13.75-2.78-15.98.556-2.23-5.003-6.69-5.56-8.548Z"/>
</svg>
