<svg xmlns="http://www.w3.org/2000/svg" width="75" height="36" fill="none" viewBox="0 0 75 36">
  <path fill="#0FF" stroke="#000" d="M10.994 9.241C10.1 8.644 18.073 3.52 22.17 1.032c1.677-.373 2.236 2.612 3.354 3.358 1.117.747 2.794-.373 3.353-.746.559-.373 3.912 1.866 4.47 2.985.56 1.12 2.236 1.866 2.795 2.612.559.747 7.265 3.732 8.383 4.478 1.118.746 13.972 2.985 14.53 2.985.56 0 8.384-.373 10.06-.373 1.677 0 3.912 1.12 4.471 1.493.56.373-.559 2.985-.559 3.358 0 .373-2.794 4.85-3.353 5.597-.559.746-5.588 4.105-6.147 4.851-.56.746-3.912 1.493-4.471 1.866-.56.373-6.148 1.12-7.266 1.492-1.117.373-2.794.373-2.794 0s-3.912-1.865-4.47-2.239c-.56-.373-3.354.747-4.472.373-1.117-.373-8.942-.746-10.06-.746-1.117 0-6.706.373-7.823.373-1.118 0-7.266.373-8.383 0-1.118-.373-6.707-1.492-7.266-1.865-.559-.373-3.912-2.24-5.03-3.359-.893-.895-.372-2.114 0-2.612.746-.248 2.348-.82 2.795-1.12.559-.372 5.589-4.104 6.148-4.85.559-.746-1.118-2.612-2.236-2.985-1.118-.373 3.912-3.732 4.471-4.851.559-1.12-.56-1.12-1.677-1.866Z"/>
</svg>
