<svg xmlns="http://www.w3.org/2000/svg" width="26" height="33" fill="none" viewBox="0 0 26 33">
  <path fill="#DDAFE9" stroke="#000" d="M1.92 20.49C.58 21.71.617 25.573.803 27.352c.08 1.144 10.054 2.288 11.172 2.67 1.117.38 1.117 2.287 1.675 2.287.559 0 2.234-.382 3.352-1.144 1.117-.763 5.585-4.956 6.144-5.337.558-.382-2.235-2.67-2.793-2.67-.559 0 3.351-3.812 4.468-4.574s0-1.525-1.117-2.287c-.893-.61 0-1.017.559-1.144-1.117.254-3.798.838-5.586 1.144-2.234.38.559-1.144-.558-2.288s1.117-2.668 1.117-4.193c0-1.525-1.676-3.432-3.91-4.575-2.234-1.144-1.117-3.05-2.793-4.194C10.857-.097 9.182 3.334 9.74 5.241c.559 1.906-2.234 5.337-2.234 7.243 0 1.906-3.91 6.481-5.586 8.006Z"/>
</svg>
