<svg xmlns="http://www.w3.org/2000/svg" width="348" height="79" fill="none" viewBox="0 0 348 79">
  <path fill="#A9BB32" d="M66.373 37.979 51.73 59.693a1 1 0 0 0 .83 1.559h23.014a1 1 0 0 0 .83-.443l14.59-21.713a1 1 0 0 0-.83-1.558h-22.96a1 1 0 0 0-.83.44Z"/>
  <path fill="#213B83" d="m28.588 36.976 24.605-.502a1 1 0 0 1 .857 1.547L27.864 78.007a1 1 0 0 1-.817.452l-25.13.503a1 1 0 0 1-.852-1.556L27.777 37.42a1 1 0 0 1 .811-.444Z"/>
  <path fill="#E22721" d="M72.778 5H50.87a1 1 0 0 0-.837 1.546l15.248 23.38a1 1 0 0 0 .816.454l23.935.498a1 1 0 0 0 .831-1.586L73.588 5.414a1 1 0 0 0-.81-.414Z"/>
  <path fill="#000" d="M108.761 31V7.727h9.614c1.742 0 3.246.341 4.511 1.023 1.273.674 2.254 1.617 2.944 2.83.689 1.204 1.034 2.606 1.034 4.204 0 1.606-.353 3.011-1.057 4.216-.697 1.197-1.693 2.125-2.989 2.784-1.295.66-2.833.989-4.613.989h-5.932V19.34h4.886c.849 0 1.557-.148 2.125-.443a3.044 3.044 0 0 0 1.307-1.239c.295-.538.443-1.163.443-1.875 0-.72-.148-1.34-.443-1.864a2.977 2.977 0 0 0-1.307-1.227c-.576-.288-1.284-.432-2.125-.432h-2.773V31h-5.625Zm20.875 0V7.727h16.228v4.569h-10.603v4.772h9.773v4.58h-9.773v4.784h10.603V31h-16.228Zm19.75 0V7.727H159c1.742 0 3.246.315 4.511.943 1.273.622 2.254 1.516 2.944 2.682.689 1.16 1.034 2.534 1.034 4.125 0 1.614-.353 2.985-1.057 4.114-.705 1.121-1.705 1.977-3 2.568-1.296.583-2.83.875-4.602.875h-6.08v-4.432h5.034c.849 0 1.557-.11 2.125-.33.576-.226 1.011-.567 1.307-1.022.295-.462.443-1.053.443-1.773s-.148-1.314-.443-1.784c-.296-.477-.731-.833-1.307-1.068-.576-.242-1.284-.364-2.125-.364h-2.773V31h-5.625Zm13.103-10.636L168.284 31h-6.136l-5.682-10.636h6.023Zm7.323-8.069V7.728h19.671v4.569h-7.057V31h-5.545V12.296h-7.069ZM194.358 31h-6.046l7.853-23.273h7.488L211.506 31h-6.046l-5.466-17.41h-.182L194.358 31Zm-.807-9.16h12.637v4.274h-12.637V21.84Zm20.46-14.113h6.966l5.909 14.41h.273l5.909-14.41h6.966V31h-5.477V16.704h-.193l-5.591 14.148h-3.5l-5.591-14.227h-.193V31h-5.478V7.727Zm35.157 0V31h-5.625V7.727h5.625Zm23.338 0V31h-4.773l-9.261-13.432h-.148V31h-5.625V7.727h4.841l9.159 13.41h.193V7.726h5.614ZM281.077 31h-6.046l7.853-23.273h7.488L298.224 31h-6.045l-5.466-17.41h-.182L281.077 31Zm-.807-9.16h12.636v4.274H280.27V21.84Z"/>
  <path fill="#E22721" d="M108.004 54V43.818h3.818c.783 0 1.439.146 1.969.438a2.9 2.9 0 0 1 1.208 1.203c.275.507.413 1.084.413 1.73 0 .653-.138 1.233-.413 1.74a2.947 2.947 0 0 1-1.218 1.198c-.537.288-1.198.433-1.983.433h-2.531v-1.517h2.282c.457 0 .832-.08 1.124-.238a1.51 1.51 0 0 0 .646-.657c.142-.278.214-.598.214-.96 0-.36-.072-.678-.214-.954a1.45 1.45 0 0 0-.651-.641c-.292-.156-.668-.234-1.129-.234h-1.69V54h-1.845Zm9.01 0V43.818h6.622v1.546h-4.778v2.765h4.435v1.546h-4.435v2.779h4.818V54h-6.662Zm8.056-8.636v-1.546h8.124v1.546h-3.147V54h-1.829v-8.636h-3.148ZM134.76 54V43.818h3.818c.782 0 1.439.136 1.969.408.534.272.936.653 1.208 1.143.275.487.413 1.056.413 1.706 0 .652-.139 1.22-.418 1.7-.275.477-.681.847-1.218 1.108-.537.259-1.196.388-1.979.388h-2.719v-1.53h2.471c.457 0 .832-.064 1.123-.19.292-.13.508-.316.647-.562.142-.248.214-.553.214-.914 0-.362-.072-.67-.214-.925a1.362 1.362 0 0 0-.652-.587c-.291-.136-.667-.204-1.128-.204h-1.69V54h-1.845Zm5.26-4.614L142.541 54h-2.059l-2.475-4.614h2.013ZM145.173 54h-1.969l3.585-10.182h2.277L152.655 54h-1.968l-2.72-8.094h-.079L145.173 54Zm.065-3.992h5.369v1.481h-5.369v-1.481Zm20.598-6.19V54h-1.64l-4.798-6.935h-.084V54h-1.845V43.818h1.651l4.792 6.94h.09v-6.94h1.834Zm3.855 0V54h-1.845V43.818h1.845ZM172.995 54h-1.968l3.584-10.182h2.277L180.478 54h-1.969l-2.72-8.094h-.079L172.995 54Zm.065-3.992h5.369v1.481h-5.369v-1.481Zm15.101-2.938a2.633 2.633 0 0 0-.343-.721 2.21 2.21 0 0 0-.517-.552 2.082 2.082 0 0 0-.686-.343 2.86 2.86 0 0 0-.845-.12c-.547 0-1.034.138-1.462.413-.427.275-.764.68-1.009 1.213-.242.53-.363 1.177-.363 1.94 0 .768.121 1.42.363 1.953.242.534.578.94 1.009 1.218.431.275.932.413 1.502.413.517 0 .964-.1 1.342-.299.381-.199.674-.48.88-.845.205-.368.308-.799.308-1.292l.418.064h-2.764V48.67h4.131v1.224c0 .871-.186 1.625-.557 2.262a3.8 3.8 0 0 1-1.531 1.471c-.65.341-1.395.512-2.237.512-.938 0-1.762-.21-2.471-.631-.706-.424-1.258-1.026-1.656-1.805-.394-.782-.591-1.71-.591-2.784 0-.822.116-1.556.348-2.202a4.759 4.759 0 0 1 .984-1.646 4.191 4.191 0 0 1 1.482-1.034 4.714 4.714 0 0 1 1.849-.358c.563 0 1.089.083 1.576.249.487.162.92.394 1.298.696.381.301.694.66.939 1.073.246.415.406.872.482 1.373h-1.879Zm4.741 6.93h-1.969l3.584-10.182h2.277L200.384 54h-1.969l-2.719-8.094h-.08L192.902 54Zm.064-3.992h5.37v1.481h-5.37v-1.481ZM205.198 54V43.818h3.897c.736 0 1.348.116 1.835.348.49.229.857.542 1.099.94.245.398.367.848.367 1.352 0 .414-.079.769-.238 1.064a2.01 2.01 0 0 1-.641.711 2.725 2.725 0 0 1-.9.393v.1c.361.019.707.13 1.039.332.334.2.608.48.82.845.212.365.318.806.318 1.323 0 .527-.127 1-.383 1.422-.255.417-.639.747-1.153.99-.514.241-1.16.362-1.939.362h-4.121Zm1.844-1.541h1.984c.669 0 1.151-.128 1.446-.383.299-.258.448-.59.448-.994a1.524 1.524 0 0 0-.86-1.392c-.275-.143-.603-.214-.985-.214h-2.033v2.983Zm0-4.31h1.825c.318 0 .605-.059.86-.175a1.45 1.45 0 0 0 .601-.502c.149-.218.224-.477.224-.775 0-.395-.139-.72-.418-.975-.275-.255-.684-.383-1.228-.383h-1.864v2.81ZM215.706 54h-1.968l3.584-10.182h2.277L223.189 54h-1.969l-2.72-8.094h-.079L215.706 54Zm.065-3.992h5.369v1.481h-5.369v-1.481Zm17.126-6.19V54h-1.641l-4.797-6.935h-.085V54h-1.844V43.818h1.65l4.793 6.94h.089v-6.94h1.835ZM238.357 54h-3.45V43.818h3.519c1.011 0 1.88.204 2.606.612a4.087 4.087 0 0 1 1.68 1.745c.391.759.587 1.667.587 2.724 0 1.06-.198 1.972-.592 2.734a4.088 4.088 0 0 1-1.695 1.755c-.736.408-1.621.612-2.655.612Zm-1.606-1.596h1.516c.71 0 1.301-.13 1.775-.388a2.477 2.477 0 0 0 1.069-1.168c.239-.52.358-1.17.358-1.949 0-.779-.119-1.425-.358-1.939a2.435 2.435 0 0 0-1.059-1.158c-.464-.259-1.041-.388-1.73-.388h-1.571v6.99Zm14.718-8.586h1.845v6.652c0 .73-.172 1.37-.517 1.924a3.497 3.497 0 0 1-1.442 1.298c-.62.308-1.344.462-2.172.462-.832 0-1.558-.154-2.178-.462a3.497 3.497 0 0 1-1.442-1.298c-.341-.553-.512-1.195-.512-1.924v-6.652h1.845v6.498c0 .424.092.802.278 1.134.189.331.454.591.795.78.342.186.746.279 1.214.279.467 0 .871-.093 1.213-.279a1.99 1.99 0 0 0 .795-.78 2.28 2.28 0 0 0 .278-1.134v-6.498Zm12.217 0V54h-1.641l-4.797-6.935h-.085V54h-1.844V43.818h1.65l4.793 6.94h.089v-6.94h1.835Zm8.831 3.252a2.662 2.662 0 0 0-.343-.721 2.229 2.229 0 0 0-.517-.552 2.091 2.091 0 0 0-.686-.343 2.871 2.871 0 0 0-.846-.12 2.64 2.64 0 0 0-1.461.413c-.428.275-.764.68-1.01 1.213-.241.53-.362 1.177-.362 1.94 0 .768.121 1.42.362 1.953.242.534.579.94 1.01 1.218.431.275.931.413 1.501.413.517 0 .965-.1 1.342-.299.382-.199.675-.48.88-.845.206-.368.309-.799.309-1.292l.417.064h-2.764V48.67h4.131v1.224c0 .871-.185 1.625-.556 2.262a3.809 3.809 0 0 1-1.532 1.471c-.649.341-1.395.512-2.237.512-.938 0-1.761-.21-2.471-.631-.706-.424-1.258-1.026-1.655-1.805-.395-.782-.592-1.71-.592-2.784 0-.822.116-1.556.348-2.202a4.76 4.76 0 0 1 .985-1.646c.42-.454.914-.799 1.481-1.034a4.717 4.717 0 0 1 1.849-.358c.564 0 1.089.083 1.576.249.488.162.92.394 1.298.696a3.785 3.785 0 0 1 1.422 2.446h-1.879Z"/>
</svg>
