<svg xmlns="http://www.w3.org/2000/svg" width="217" height="46" fill="none" viewBox="0 0 217 46">
  <path fill="#9F0" d="M40.545 20.44 32.05 33.035a1 1 0 0 0 .83 1.56h13.234a1 1 0 0 0 .83-.443l8.462-12.593a1 1 0 0 0-.83-1.558H41.374a1 1 0 0 0-.83.44Z"/>
  <path fill="#001482" d="m17.794 19.329 14.212-.29a1 1 0 0 1 .857 1.547L17.258 44.414a1 1 0 0 1-.816.452l-14.526.29a1 1 0 0 1-.851-1.555l15.917-23.828a1 1 0 0 1 .812-.444Z"/>
  <path fill="#FF0800" d="M44.422 0H31.846a1 1 0 0 0-.838 1.546l8.885 13.623a1 1 0 0 0 .817.454l13.753.286a1 1 0 0 0 .831-1.586L45.233.413a1 1 0 0 0-.81-.413Z"/>
  <path fill="#000" d="M69.57 22.097V7.552h6.01c1.088 0 2.028.213 2.819.639a4.476 4.476 0 0 1 1.84 1.768c.43.753.646 1.63.646 2.628 0 1.004-.22 1.882-.66 2.635-.436.748-1.059 1.328-1.869 1.74-.81.412-1.77.618-2.883.618h-3.708v-2.77h3.054c.53 0 .973-.092 1.328-.277a1.89 1.89 0 0 0 .817-.774c.185-.336.277-.727.277-1.172 0-.45-.092-.838-.277-1.165a1.86 1.86 0 0 0-.817-.767c-.36-.18-.802-.27-1.328-.27h-1.733v11.712h-3.515Zm13.048 0V7.552H92.76v2.855h-6.627v2.983h6.108v2.862h-6.108v2.99h6.627v2.855H82.618Zm12.343 0V7.552h6.009c1.089 0 2.029.196 2.82.59a4.244 4.244 0 0 1 1.839 1.675c.431.725.646 1.584.646 2.579 0 1.008-.22 1.865-.66 2.57-.44.701-1.065 1.236-1.875 1.606-.81.364-1.769.547-2.877.547h-3.8v-2.77h3.147c.53 0 .973-.069 1.328-.206.36-.142.632-.356.817-.64.185-.288.277-.658.277-1.107 0-.45-.092-.822-.277-1.116a1.669 1.669 0 0 0-.817-.667c-.36-.152-.802-.227-1.328-.227h-1.733v11.711h-3.516Zm8.189-6.648 3.623 6.648h-3.836l-3.55-6.648h3.763Zm4.578-5.042V7.552h12.294v2.855h-4.411v11.69h-3.466v-11.69h-4.417Zm15.341 11.69h-3.779l4.908-14.545h4.68l4.908 14.545h-3.778l-3.417-10.88h-.113l-3.409 10.88Zm-.505-5.724h7.898v2.67h-7.898v-2.67Zm12.788-8.821h4.354l3.693 9.005h.17l3.694-9.005h4.353v14.545h-3.423v-8.935h-.121l-3.494 8.843h-2.188l-3.494-8.892h-.121v8.984h-3.423V7.552Zm21.973 0v14.545h-3.516V7.552h3.516Zm14.586 0v14.545h-2.983l-5.788-8.395h-.093v8.395h-3.515V7.552h3.025l5.725 8.38h.12v-8.38h3.509Zm5.357 14.545h-3.778l4.907-14.545h4.681l4.907 14.545h-3.778l-3.416-10.88h-.114l-3.409 10.88Zm-.504-5.724h7.897v2.67h-7.897v-2.67ZM69.187 40.097v-7.273h2.728c.558 0 1.027.105 1.406.313.381.208.669.495.863.86.196.362.294.773.294 1.235 0 .467-.098.88-.294 1.243a2.105 2.105 0 0 1-.87.856c-.384.206-.856.309-1.417.309h-1.808v-1.083h1.63c.327 0 .595-.057.803-.17a1.08 1.08 0 0 0 .462-.47 1.49 1.49 0 0 0 .152-.685c0-.258-.05-.485-.152-.682a1.043 1.043 0 0 0-.466-.458c-.208-.111-.477-.167-.806-.167h-1.207v6.172h-1.318Zm6.56 0H74.34l2.56-7.273h1.627l2.564 7.273h-1.406l-1.943-5.781h-.057l-1.939 5.781Zm.045-2.851h3.836v1.058h-3.836v-1.058Zm5.058-3.317v-1.105h5.803v1.105h-2.248v6.168h-1.307V33.93H80.85Zm6.921 6.168v-7.273H90.5c.558 0 1.027.098 1.406.292.381.194.669.466.863.816.196.348.294.755.294 1.218 0 .467-.099.872-.298 1.215a1.97 1.97 0 0 1-.87.792c-.383.185-.855.277-1.413.277h-1.943V36.34h1.765c.327 0 .594-.045.803-.135a.955.955 0 0 0 .461-.401c.102-.178.153-.396.153-.654s-.05-.478-.153-.66a.97.97 0 0 0-.465-.42c-.208-.096-.477-.145-.806-.145H89.09v6.172h-1.32Zm3.757-3.295 1.8 3.295h-1.47l-1.768-3.295h1.438Zm3.681 3.295h-1.406l2.56-7.273h1.627l2.564 7.273h-1.407l-1.942-5.781h-.057l-1.939 5.781Zm.046-2.851h3.836v1.058h-3.836v-1.058Zm14.714-4.422v7.273h-1.172l-3.427-4.954h-.061v4.954h-1.317v-7.273h1.179l3.423 4.958h.064v-4.957h1.311Zm2.753 0v7.273h-1.318v-7.273h1.318Zm2.36 7.273h-1.406l2.56-7.273h1.627l2.564 7.273h-1.407l-1.942-5.781h-.057l-1.939 5.781Zm.046-2.851h3.836v1.058h-3.836v-1.058Zm10.787-2.1a1.882 1.882 0 0 0-.245-.514 1.594 1.594 0 0 0-.369-.394 1.494 1.494 0 0 0-.49-.245 2.048 2.048 0 0 0-.604-.085c-.391 0-.739.098-1.044.294-.306.197-.546.486-.721.867-.173.379-.259.84-.259 1.385 0 .549.086 1.014.259 1.395.173.382.413.672.721.87.308.197.665.295 1.072.295.37 0 .689-.07.959-.213.272-.142.482-.343.629-.604.146-.262.22-.57.22-.923l.298.046h-1.974v-1.03h2.951v.874c0 .623-.133 1.161-.398 1.616a2.71 2.71 0 0 1-1.094 1.05c-.464.245-.997.367-1.598.367-.67 0-1.258-.15-1.765-.451a3.12 3.12 0 0 1-1.182-1.29c-.282-.558-.423-1.221-.423-1.988 0-.587.083-1.112.249-1.573.168-.462.402-.854.703-1.176.3-.324.653-.57 1.058-.738a3.37 3.37 0 0 1 1.321-.256c.403 0 .778.06 1.126.178.348.116.657.281.927.497.272.215.496.47.671.767.175.296.29.622.344.98h-1.342Zm3.386 4.951h-1.406l2.56-7.273h1.626l2.564 7.273h-1.406l-1.942-5.781h-.057l-1.939 5.781Zm.046-2.851h3.835v1.058h-3.835v-1.058Zm8.737 2.851v-7.273h2.784c.525 0 .962.083 1.31.25.351.162.612.386.785.67.175.284.263.606.263.966 0 .296-.057.55-.171.76a1.425 1.425 0 0 1-.458.508c-.191.13-.406.224-.642.28v.071c.258.015.505.094.742.238.239.142.434.344.586.604.151.26.227.575.227.945 0 .376-.091.715-.274 1.015-.182.299-.456.534-.823.707-.367.173-.829.26-1.385.26h-2.944Zm1.317-1.1h1.417c.478 0 .823-.092 1.034-.274a.897.897 0 0 0 .319-.71 1.083 1.083 0 0 0-.614-.995 1.512 1.512 0 0 0-.703-.152h-1.453v2.13Zm0-3.08h1.304c.227 0 .432-.04.614-.124.182-.085.325-.205.43-.358a.963.963 0 0 0 .159-.554.902.902 0 0 0-.298-.696c-.196-.183-.489-.274-.877-.274h-1.332v2.006Zm6.189 4.18h-1.406l2.56-7.273h1.627l2.563 7.273h-1.406l-1.942-5.781h-.057l-1.939 5.781Zm.046-2.851h3.835v1.058h-3.835v-1.058Zm12.233-4.422v7.273h-1.172l-3.427-4.954h-.06v4.954h-1.318v-7.273h1.179l3.424 4.958h.064v-4.957h1.31Zm3.9 7.273h-2.465v-7.273h2.515c.722 0 1.342.146 1.86.437.521.29.921.705 1.201 1.247.279.542.419 1.19.419 1.946 0 .757-.141 1.408-.423 1.953a2.918 2.918 0 0 1-1.211 1.253c-.525.292-1.157.437-1.896.437Zm-1.147-1.14h1.083c.507 0 .929-.092 1.268-.277.338-.187.593-.465.763-.834.171-.372.256-.836.256-1.392 0-.557-.085-1.018-.256-1.385a1.74 1.74 0 0 0-.756-.828c-.332-.184-.743-.277-1.236-.277h-1.122v4.993Zm10.513-6.133h1.318v4.752c0 .52-.124.979-.37 1.374a2.495 2.495 0 0 1-1.03.927c-.442.22-.96.33-1.551.33-.595 0-1.113-.11-1.556-.33a2.495 2.495 0 0 1-1.03-.927c-.243-.395-.365-.853-.365-1.374v-4.752h1.317v4.642c0 .303.066.573.199.81.135.236.324.422.568.557.244.133.533.199.867.199.333 0 .622-.066.866-.199a1.41 1.41 0 0 0 .568-.557c.133-.237.199-.507.199-.81v-4.642Zm8.726 0v7.273h-1.172l-3.427-4.954h-.06v4.954h-1.317v-7.273h1.179l3.423 4.958h.064v-4.957h1.31Zm6.308 2.323a1.882 1.882 0 0 0-.245-.515 1.58 1.58 0 0 0-.37-.394 1.484 1.484 0 0 0-.49-.245 2.036 2.036 0 0 0-.603-.085c-.391 0-.739.098-1.044.294-.306.197-.546.486-.721.867-.173.379-.259.84-.259 1.385 0 .549.086 1.014.259 1.395.173.382.413.672.721.87.307.197.665.295 1.072.295.369 0 .689-.07.959-.213.272-.142.482-.343.629-.604.146-.262.22-.57.22-.923l.298.046h-1.974v-1.03h2.951v.874c0 .623-.133 1.161-.398 1.616a2.71 2.71 0 0 1-1.094 1.05c-.464.245-.997.367-1.598.367-.67 0-1.258-.15-1.765-.451a3.12 3.12 0 0 1-1.182-1.29c-.282-.558-.423-1.221-.423-1.988 0-.587.083-1.112.249-1.573.168-.462.402-.854.703-1.176.3-.324.653-.57 1.058-.738a3.37 3.37 0 0 1 1.321-.256c.402 0 .778.06 1.126.178.348.116.657.281.927.497.272.215.496.47.671.767.175.296.29.622.344.98h-1.342Z"/>
</svg>
