<svg xmlns="http://www.w3.org/2000/svg" width="217" height="46" fill="none" viewBox="0 0 217 46">
  <path fill="#FFFFFE" d="M41.045 20.44 32.55 33.035a1 1 0 0 0 .83 1.56h13.234a1 1 0 0 0 .83-.443l8.462-12.593a1 1 0 0 0-.83-1.558H41.874a1 1 0 0 0-.83.44Z"/>
  <path fill="#fff" d="m18.294 19.329 14.212-.29a1 1 0 0 1 .857 1.547L17.758 44.414a1 1 0 0 1-.816.452l-14.526.29a1 1 0 0 1-.851-1.555l15.917-23.828a1 1 0 0 1 .812-.444Z"/>
  <path fill="#FFFDFD" d="M44.922 0H32.346a1 1 0 0 0-.838 1.546l8.885 13.623a1 1 0 0 0 .817.454l13.753.286a1 1 0 0 0 .831-1.586L45.733.413a1 1 0 0 0-.81-.413Z"/>
  <path fill="#fff" d="M70.072 22.098V7.552h6.008c1.09 0 2.029.213 2.82.64a4.478 4.478 0 0 1 1.84 1.768c.43.753.645 1.629.645 2.628 0 1.004-.22 1.882-.66 2.635-.436.748-1.058 1.328-1.868 1.74-.81.412-1.77.618-2.883.618h-3.708v-2.77h3.054c.53 0 .973-.093 1.328-.277a1.9 1.9 0 0 0 .817-.774c.185-.337.277-.727.277-1.172 0-.45-.092-.838-.277-1.165a1.86 1.86 0 0 0-.817-.767c-.36-.18-.802-.27-1.328-.27h-1.733v11.712h-3.515Zm13.046 0V7.552H93.26v2.855h-6.626v2.983h6.108v2.863h-6.108v2.99h6.626v2.855H83.118Zm12.344 0V7.552h6.009c1.089 0 2.029.197 2.819.59a4.24 4.24 0 0 1 1.84 1.676c.431.724.646 1.584.646 2.578 0 1.008-.22 1.865-.66 2.571-.441.7-1.066 1.236-1.875 1.605-.81.365-1.769.547-2.877.547h-3.8v-2.77h3.147c.53 0 .973-.069 1.328-.206.36-.142.632-.355.817-.64.184-.288.277-.657.277-1.107 0-.45-.093-.822-.277-1.115a1.669 1.669 0 0 0-.817-.668c-.36-.151-.803-.227-1.328-.227h-1.733v11.712h-3.516Zm8.189-6.648 3.622 6.648h-3.835l-3.551-6.648h3.764Zm4.578-5.043V7.552h12.294v2.855h-4.411v11.69h-3.466v-11.69h-4.417Zm15.34 11.69h-3.778l4.908-14.545h4.68l4.908 14.546h-3.779l-3.416-10.881h-.113l-3.41 10.88Zm-.504-5.724h7.898v2.67h-7.898v-2.67Zm12.788-8.82h4.353l3.694 9.005h.17l3.693-9.006h4.354v14.546h-3.423v-8.935h-.121l-3.494 8.842h-2.188l-3.494-8.892h-.121v8.985h-3.423V7.552Zm21.972 0v14.545h-3.515V7.552h3.515Zm14.587 0v14.545h-2.983l-5.789-8.395h-.092v8.395h-3.516V7.552h3.026l5.724 8.38h.121v-8.38h3.509Zm5.357 14.545h-3.779l4.908-14.546h4.68l4.908 14.546h-3.778l-3.417-10.881h-.113l-3.409 10.88Zm-.505-5.725h7.898v2.67h-7.898v-2.67Z"/>
  <path fill="#FEFDFD" d="M69.688 40.098v-7.273h2.727c.559 0 1.028.104 1.407.312.38.209.668.495.862.86.197.362.295.774.295 1.236 0 .466-.098.88-.294 1.242a2.106 2.106 0 0 1-.87.856c-.384.206-.856.31-1.418.31H70.59v-1.084h1.63c.327 0 .594-.057.802-.17.209-.114.363-.27.462-.469a1.48 1.48 0 0 0 .153-.685c0-.258-.051-.486-.153-.682-.1-.197-.254-.35-.465-.458-.208-.112-.477-.167-.806-.167h-1.207v6.172h-1.318Zm6.559 0h-1.406l2.56-7.273h1.627l2.563 7.273h-1.406l-1.942-5.782h-.057l-1.939 5.782Zm.046-2.852h3.835v1.058h-3.835v-1.058Zm5.058-3.317v-1.104h5.802v1.104h-2.248v6.169H83.6v-6.169h-2.25Zm6.921 6.169v-7.273h2.727c.559 0 1.028.097 1.407.291.38.194.668.467.862.817.197.348.295.754.295 1.218 0 .466-.1.871-.298 1.214a1.974 1.974 0 0 1-.87.792c-.384.185-.855.277-1.413.277h-1.943v-1.093h1.765c.327 0 .594-.045.802-.135a.954.954 0 0 0 .462-.402c.102-.177.153-.395.153-.653s-.051-.478-.153-.66a.972.972 0 0 0-.465-.42c-.208-.097-.477-.145-.806-.145H89.59v6.172h-1.318Zm3.757-3.296 1.8 3.296h-1.47l-1.768-3.296h1.438Zm3.68 3.296h-1.405l2.56-7.273h1.626l2.564 7.273h-1.406l-1.942-5.782h-.057l-1.94 5.782Zm.047-2.852h3.835v1.058h-3.835v-1.058Zm14.713-4.421v7.273h-1.172l-3.426-4.954h-.061v4.954h-1.317v-7.273h1.179l3.423 4.957h.064v-4.957h1.31Zm2.753 0v7.273h-1.317v-7.273h1.317Zm2.361 7.273h-1.406l2.56-7.273h1.626l2.564 7.273h-1.406l-1.942-5.782h-.057l-1.939 5.782Zm.046-2.852h3.835v1.058h-3.835v-1.058Zm10.787-2.099a1.91 1.91 0 0 0-.245-.514 1.58 1.58 0 0 0-.37-.395 1.484 1.484 0 0 0-.49-.245 2.038 2.038 0 0 0-.603-.085c-.391 0-.739.098-1.044.295-.306.196-.546.485-.721.866-.173.379-.26.84-.26 1.385 0 .55.087 1.015.26 1.396.172.38.413.671.721.87a1.95 1.95 0 0 0 1.072.295c.369 0 .689-.072.959-.214.272-.142.482-.343.628-.603a1.86 1.86 0 0 0 .221-.923l.298.046h-1.975v-1.03h2.951v.873c0 .623-.132 1.162-.397 1.616-.266.455-.63.805-1.094 1.051-.464.244-.997.366-1.598.366-.67 0-1.258-.15-1.765-.45a3.129 3.129 0 0 1-1.183-1.29c-.281-.559-.422-1.222-.422-1.989 0-.587.083-1.111.248-1.573.169-.461.403-.853.704-1.175.3-.325.653-.57 1.058-.739.405-.17.845-.256 1.321-.256.402 0 .778.06 1.126.178.348.116.656.282.926.497a2.697 2.697 0 0 1 1.016 1.747h-1.342Zm3.386 4.95h-1.407l2.561-7.272h1.626l2.564 7.273h-1.406l-1.943-5.782h-.056l-1.939 5.782Zm.046-2.85h3.835v1.057h-3.835v-1.058Zm8.737 2.85v-7.272h2.784c.525 0 .962.083 1.31.248.35.164.612.388.785.672.175.284.263.606.263.966 0 .296-.057.549-.171.76a1.434 1.434 0 0 1-.458.507 1.94 1.94 0 0 1-.643.28v.072c.258.014.506.093.742.238.24.142.435.343.586.604.152.26.228.575.228.944 0 .377-.091.715-.274 1.016-.182.298-.457.534-.824.706-.367.173-.828.26-1.385.26h-2.943Zm1.317-1.1h1.417c.478 0 .823-.091 1.033-.274a.898.898 0 0 0 .32-.71 1.083 1.083 0 0 0-.614-.994 1.514 1.514 0 0 0-.704-.153h-1.452v2.13Zm0-3.079h1.303c.228 0 .432-.041.615-.124.182-.085.325-.205.429-.359a.956.956 0 0 0 .16-.554.902.902 0 0 0-.298-.696c-.197-.182-.489-.273-.877-.273h-1.332v2.006Zm6.189 4.18h-1.407l2.561-7.273h1.626l2.564 7.273h-1.406l-1.943-5.782h-.056l-1.939 5.782Zm.046-2.852h3.835v1.058h-3.835v-1.058Zm12.233-4.421v7.273h-1.172l-3.427-4.954h-.06v4.954h-1.318v-7.273h1.179l3.423 4.957h.064v-4.957h1.311Zm3.9 7.273h-2.465v-7.273h2.514c.722 0 1.343.145 1.861.437a2.92 2.92 0 0 1 1.201 1.246c.279.542.419 1.191.419 1.946 0 .758-.141 1.409-.423 1.953a2.919 2.919 0 0 1-1.211 1.254c-.526.291-1.158.437-1.896.437Zm-1.147-1.14h1.083c.506 0 .929-.093 1.268-.277a1.77 1.77 0 0 0 .763-.835c.17-.371.256-.835.256-1.392 0-.556-.086-1.018-.256-1.385a1.744 1.744 0 0 0-.756-.827c-.332-.185-.744-.277-1.236-.277h-1.122v4.993Zm10.513-6.133h1.317v4.751c0 .521-.123.98-.369 1.375a2.495 2.495 0 0 1-1.03.926c-.443.22-.96.33-1.552.33-.594 0-1.112-.11-1.555-.33a2.495 2.495 0 0 1-1.03-.926c-.244-.396-.366-.854-.366-1.375v-4.751h1.318v4.641c0 .303.066.573.199.81.135.237.324.422.568.557.244.133.533.2.866.2.334 0 .623-.067.867-.2a1.42 1.42 0 0 0 .568-.557c.133-.237.199-.507.199-.81v-4.641Zm8.726 0v7.273h-1.172l-3.427-4.954h-.06v4.954h-1.318v-7.273h1.179l3.424 4.957h.063v-4.957h1.311Zm6.308 2.322a1.91 1.91 0 0 0-.245-.514 1.58 1.58 0 0 0-.37-.395 1.484 1.484 0 0 0-.49-.245 2.04 2.04 0 0 0-.604-.085c-.39 0-.738.098-1.044.295-.305.196-.545.485-.72.866-.173.379-.26.84-.26 1.385 0 .55.087 1.015.26 1.396.172.38.413.671.72.87.308.196.666.295 1.073.295.369 0 .689-.072.959-.214.272-.142.481-.343.628-.603.147-.263.22-.57.22-.923l.299.046h-1.975v-1.03h2.951v.873c0 .623-.132 1.162-.397 1.616-.266.455-.63.805-1.094 1.051-.464.244-.997.366-1.598.366-.67 0-1.259-.15-1.765-.45a3.122 3.122 0 0 1-1.183-1.29c-.281-.559-.422-1.222-.422-1.989 0-.587.083-1.111.248-1.573.168-.461.403-.853.703-1.175a3 3 0 0 1 1.059-.739c.405-.17.845-.256 1.321-.256.402 0 .777.06 1.125.178.348.116.657.282.927.497.273.216.496.471.671.767.176.296.29.623.345.98h-1.342Z"/>
</svg>
