<svg xmlns="http://www.w3.org/2000/svg" width="834" height="534" fill="none" viewBox="0 0 834 534">
  <path fill="#C8B7B7" stroke="#000" d="M121.35 191.901h13.077v7.4c0 1.542 3.923 4.933 5.231 7.092 1.307 2.158 3.051 6.475 4.794 6.167 1.744-.308 4.359-.308 5.231-.925.872-.617 3.487-1.85 5.667 0 2.179 1.85 5.23 3.083 6.974 2.467 1.743-.617 6.102-5.242 8.282-5.242 2.179 0 3.923 5.55 5.666 5.242 1.395-.247 11.624-7.504 16.564-11.101 2.76-.925 8.456-2.96 9.153-3.7.872-.925 2.18-3.7 2.616-7.4.436-3.701 2.179-4.317 3.051-5.243.872-.925.436-3.083.872-5.55.436-2.467 4.359 0 5.666 1.234 1.308 1.233-.872 4.933-1.307 7.092-.436 2.158-1.308 4.317-.872 4.933.348.494 4.213 1.645 6.102 2.159.291.822 1.133 2.528 2.18 2.775 1.307.308 21.794 7.092 29.204 10.484 5.928 2.713 16.709 9.353 21.358 12.334.872 1.747 2.616 5.365 2.616 5.858 0 .617 2.179 6.784 3.051 8.018.872 1.233 12.641 6.475 14.82 6.783 2.179.309.872 2.775-.872 5.859-1.743 3.083-9.153 6.475-10.461 6.475-1.308 0-6.538.925-7.846 1.542-1.308.617-8.282 2.775-14.82 3.7-6.538.925-14.82-3.392-17.436-3.7-2.615-.308-5.666.925-6.974 1.542-1.307.616-6.538.925-8.282 1.233-1.394.247-9.88 14.082-13.948 20.968-1.743.72-5.579 2.282-6.974 2.775-1.744.617-7.41 3.392-17 3.084-9.589-.309-11.769-2.775-12.64-2.159-.872.617-11.333-2.158-13.077-2.467-1.743-.308-7.41-1.541-11.333-3.391-3.923-1.851-5.666-3.392-6.102-4.626-.436-1.233-2.616-1.85-3.487-2.466-.872-.617-2.18 0-2.616.616-.348.494-3.632.617-5.23.617l-3.052 1.233c-2.034.411-6.625 1.234-8.717 1.234-2.616 0-4.795.925-6.103 2.467-1.307 1.541-10.461 1.541-10.897.925-.348-.494-2.76-.823-3.923-.925-2.18-.103-6.712-.432-7.41-.926-.872-.616-1.743-5.858-2.615-6.167-.872-.308-4.795 3.392-5.23 4.626-.437 1.233-4.796 3.083-6.539 3.392-1.744.308-2.615 1.233-2.615 2.466 0 .987-3.197 1.645-4.795 1.85-.29.206-1.57-.123-4.359-3.083-3.487-3.7-16.127-11.101-18.743-11.409-2.615-.308-2.18-6.167-3.487-10.176-1.308-4.008-1.744-12.334 0-15.725 1.743-3.392-3.487-5.551-5.667-7.401-2.18-1.85-.435-15.417-2.179-18.501-1.743-3.083 1.744-3.083 4.359-3.392 2.615-.308 8.282-.925 9.59-1.541 1.307-.617 4.794-4.934 3.05-5.859-1.743-.925-6.102-10.176-7.845-12.334-1.744-2.159 4.794-5.859 7.845-7.092 3.052-1.234 3.488-2.159 6.103-3.7 2.615-1.542 3.487 1.541 4.794 4.933 1.308 3.392 4.795 3.084 7.41 4.626 2.616 1.541.436-3.701 3.052-4.626 2.615-.925 6.102-.308 10.897 0 4.795.309 5.666 4.626 8.718 5.859 3.05 1.233 18.743.308 20.486 0 1.744-.308 3.051-1.233 6.974-1.233Z"/>
  <path fill="#2AD4FF" stroke="#000" d="M184.555 193.44c1.744.987 5.086-.411 6.539-1.233-1.744 5.55 1.308 8.942 1.744 10.175.435 1.234-5.667 4.934-8.283 6.476-2.615 1.541-8.717 7.092-9.589 5.55-.872-1.542-2.615-4.625-4.359-5.55-1.743-.925-6.538 4.008-8.281 5.55-1.744 1.542-4.36-.925-7.411-3.084-3.05-2.158-3.922.309-4.794 0-.872-.308-3.923.617-6.103 1.542-2.179.925-2.615-3.083-3.923-5.55-1.307-2.467-6.102-6.784-6.102-8.634 0-1.85.436-5.242 0-6.475-.436-1.234 6.974 0 9.153-1.234 2.18-1.233 3.923-2.158 4.359-3.083.436-.925 5.667-4.009 8.718-4.626 3.051-.616 4.359 2.467 4.359 3.392 0 .925-1.308 3.392-2.616 4.317-1.307.925 1.744 1.234 5.231 1.234s5.667-1.851 9.154-2.159c3.487-.308 10.025 2.159 12.204 3.392Z"/>
  <path fill="#FCA" stroke="#000" d="M209.394 160.449c.698-.74 1.744-6.681 2.18-9.559 0 .309 1.743 0 2.615-.308.872-.309 3.923-1.85 5.231-2.159 1.307-.308 2.615.925 3.923 1.85 1.307.925 8.717 7.709 9.153 8.943.436 1.233-.436 2.775-.436 3.083 0 .308-.871 5.242-.436 6.167.436.925-2.179.925-2.615 1.542-.436.617-.436 1.542.436 2.158.872.617 2.179 2.467 3.051 4.934.872 2.467-2.615 8.942-3.051 10.175-.436 1.234-9.589 6.167-10.461 6.476-.698.246-1.163 2.158-1.308 3.083-1.598-.514-4.969-1.665-5.666-2.158-.872-.617.871-3.7.871-5.242 0-1.542 1.744-4.009 1.744-6.167 0-2.159-3.487-2.775-5.231-2.467-1.743.308-.871 4.009-1.307 5.242-.436 1.233-1.744 1.85-2.616 3.392-.871 1.542-1.743 7.092-2.179 8.634-.436 1.541-6.539 4.008-9.154 4.625s-3.487-7.709-3.051-9.867c.436-2.159 3.923-11.101 3.051-13.259-.871-2.159-2.615-2.467-1.307-3.701 1.307-1.233.436-1.85 1.307-3.391.872-1.542 5.231-1.542 6.974-1.542 1.744 0 .872-2.467.872-4.317s6.539-5.242 7.41-6.167Z"/>
  <path fill="#FFE680" stroke="#000" d="M281.329 254.806c2.092-.247 7.265-4.214 9.59-6.167 1.598 0 5.23.246 6.974 1.233 2.179 1.233 10.025 7.4 10.897 7.4.871 0-2.616 3.392-3.923 4.626-1.308 1.233-1.308 2.775-1.308 3.7 0 .74 12.495 5.242 18.743 7.4.872.206 2.79.864 3.487 1.85.872 1.234.872 1.851 0 3.392-.872 1.542-5.23 1.542-6.102 1.234-.872-.309-1.744-3.084-1.744-3.701 0-.616-3.923 1.542-3.923 2.467s-.871 4.317-.871 5.551c0 1.233 4.794 3.083 5.666 3.7.872.617.872 2.158 0 2.775s0 2.467.872 3.7c.872 1.234 0 2.159.872 5.242.871 3.084 3.487 3.392 5.23 3.7 1.744.309 1.744 1.234 0 4.009-1.743 2.775-22.23 9.867-23.102 11.1-.871 1.234-6.974.926-8.717 1.234-1.744.308-4.359 1.233-4.359 2.158 0 .925-5.231 2.775-5.667 3.392-.436.617-3.051 4.317-4.359 6.784-1.307 2.467 3.487 5.242 3.487 6.167 0 .925-3.051 4.625-5.23 6.475-1.744 1.48 2.76 2.262 5.23 2.467 3.633-.617 11.508-1.727 13.949-1.233 3.051.616 6.538 4.317 7.846 5.55 1.046.987 7.119.822 10.025.617 1.598 1.336 4.795 4.07 4.795 4.317 0 .308-2.615 6.783-3.051 7.4-.436.617-2.18.617-3.487.617-1.308 0-8.718 9.867-10.462 10.792-1.743.925-1.307 2.775-1.307 3.7 0 .925 17.435.925 18.307 1.234.872.308 2.615-1.542 4.359-1.234 1.743.308 5.666 2.775 6.538 4.317.872 1.542 4.359 3.7 5.231 4.009.871.308 10.025 2.466 10.897 2.466.872 0 1.743.309 4.359.925 2.092.494 11.333.617 15.691.617-.871 2.467-2.615 8.017-2.615 10.484 0 3.084 5.231 7.709 5.667 8.634.436.925-2.18 8.942-2.616 10.484-.348 1.233-2.179 2.364-3.051 2.775-1.743.411-5.928 1.48-8.718 2.467-3.487 1.233-2.615 4.625-4.358 7.4-1.395 2.22-1.163 8.942-.872 12.026-6.103-1.234-19.266-3.885-23.102-4.625-4.795-.925-29.204-.617-37.05-.925-7.846-.309-19.179-3.084-23.102-4.317-3.923-1.234-16.128-3.084-23.974-3.084s-26.589-1.542-34.871-2.467c-6.626-.74-36.179-1.13-50.127-1.233-.145-.308-.348-1.234 0-2.467.349-1.233-2.179-1.336-3.487-1.233-1.598-.823-4.359-2.837-2.615-4.317 2.179-1.85 9.589-3.7 13.948-6.784 4.359-3.083 8.282-2.158 10.025-1.85 1.744.308 2.18-1.233 6.974-1.85 4.795-.617 3.052-2.467 6.539-3.7 3.487-1.234 15.692-2.159 18.743-4.317 3.051-2.159 0-4.625 3.051-6.784 3.051-2.158-4.795-2.158-6.102-3.083-1.308-.925 6.538-4.934 8.718-7.092 2.179-2.159-4.795-14.493-5.667-18.193-.872-3.7-4.359-2.775-6.538-4.934-2.18-2.158-.436-3.083 0-7.4.349-3.454 1.598-6.167 2.179-7.092 1.599-3.084 5.841-9.374 10.026-9.867 5.23-.617 13.076 4.316 16.127 4.933 3.052.617 5.667-.925 7.846-2.775 2.18-1.85-3.923-5.242-6.102-7.092-2.179-1.85-2.179-4.625 0-6.784 2.179-2.158 6.974 1.542 8.282 2.159 1.307.616 1.743-1.542 0-3.701-1.744-2.158-4.359-4.008-4.359-6.167 0-2.158-1.744-4.625-3.923-6.167-2.179-1.541-1.308-4.316 0-6.475 1.308-2.158-5.667-2.467-9.59-5.242-3.922-2.775-10.461-17.576-11.332-19.426-.872-1.85 10.897-19.118 12.64-20.968 1.744-1.85 6.974 0 11.333-2.467 4.359-2.466 16.564 2.159 20.923 2.467 4.359.309 10.897-.308 14.384-2.467 3.487-2.158 8.718-2.158 11.333-2.466Z"/>
  <path fill="#87DECD" stroke="#000" d="M549.402 256.655c-1.744-.494-2.47-2.673-2.616-3.701.727-.719 2.354-2.281 3.051-2.775.872-.616 4.795-2.467 5.667-2.775.872-.308.436-2.467 0-5.242s1.308-2.775 2.179-3.083c.872-.309 7.846-.309 8.282-.617.436-.308 5.231-.617 6.103-.617.871 0 2.179-.616 2.615-.616.436 0 1.308 1.233 1.743 1.541.436.309.872 4.009 1.308 4.934.436.925 2.615 1.542 3.051 1.542.436 0 2.616.308 3.487.616.872.309 3.488.617 4.795.309 1.046-.247 1.598-.925 1.744-1.234l1.743-2.775c1.163-1.028 3.575-3.207 3.923-3.7.436-.617 2.18-.617 4.359 0 2.18.617 6.538.617 10.461.925 3.923.308 4.359 1.542 5.667 2.775 1.308 1.234.436 3.7.436 5.242 0 1.542.872 1.233 1.307 1.233.436 0 3.487-.925 4.359-.925.872 0 5.231.617 6.103.617.871 0 1.743.925 2.179 1.542.436.617 1.308 2.158 1.744 2.467.348.246 1.017 2.158 1.307 3.083.291.925 1.046 3.084 1.744 4.317.872 1.542 3.923 2.159 5.23 2.467 1.308.308 3.923 1.85 4.359 2.158.436.309-.436 4.009-.436 4.934 0 .925 3.052 3.083 3.488 3.392.435.308-.436 1.542-1.308 2.775-.872 1.233 0 3.392.436 3.7.348.247 4.213 2.364 6.102 3.392 1.162.617 3.574 1.912 3.923 2.158.436.309-.436 1.542-.872 1.851-.348.246.436.719.872.925l-.872.616c-.436.309-.871.309-1.743 1.234-.872.925-1.308 3.7 0 5.242 1.307 1.541 2.615 5.55 2.615 5.858 0 .309.872 12.643.872 13.259 0 .617-2.615 6.784-3.487 8.326-.872 1.542-2.616 9.559-3.051 11.409-.436 1.85 0 3.392 0 4.008 0 .617 2.179 5.551 2.179 5.859 0 .308-.436 1.85-.872 2.158-.348.247-1.307 1.953-1.743 2.776h-1.744c-.436 0-6.538-2.776-7.846-3.084-1.307-.308-3.487 3.084-3.923 3.392-.436.308-2.179 0-4.359-.617-2.179-.616-6.974-1.85-7.846-1.85-.871 0-4.794.925-5.666 1.234-.872.308-10.025.616-10.461.308-.436-.308-5.667-1.85-7.41-2.159-1.744-.308-8.282 0-10.898.309-2.092.246-3.196.719-3.487.925-1.598.411-5.056 1.357-6.102 1.85-1.308.617-3.051.308-3.923 0-.697-.247-4.359-3.392-6.102-4.934 2.179-1.336 6.974-4.317 8.717-5.55 2.18-1.542 2.616-7.092 3.052-8.942.435-1.85 13.076-8.326 14.82-9.867 1.743-1.542.436-5.859.436-6.784 0-.925-3.923-.617-5.231-1.85-1.308-1.234.872-1.542.872-3.7 0-2.159-12.205-10.484-13.513-11.409-1.307-.925 1.308-5.859 2.18-7.092.871-1.234-2.18-4.009-2.616-4.934-.436-.925-.436-2.467.436-3.392.872-.925 1.744-3.083.872-4.317-.872-1.233-1.744-3.083-3.051-4.933-1.308-1.85-5.231-1.85-6.974-2.467-1.744-.617-5.231-2.467-5.231-3.7 0-1.234-3.051-4.317-3.923-4.626-.872-.308-5.231.309-6.974-.616-1.744-.925-4.359-2.159-6.538-2.775Z"/>
  <path fill="#5FBCD3" stroke="#000" d="M571.194 343.609c1.395.493 3.487 2.261 4.359 3.084-1.308-.309-2.179 3.391-2.615 3.7-.436.308-2.18 6.783-2.615 7.708-.436.926-3.923.617-6.103.617-2.179 0-7.41 1.85-8.718 2.775-1.307.925 1.308 5.551 2.18 5.859.697.247 1.162 1.747 1.308 2.467-2.035 1.85-6.19 5.612-6.539 5.858-.436.309-1.307 3.084-.871 3.392.348.247-2.471 3.392-3.923 4.934-2.906.617-8.98 1.912-10.026 2.158-1.307.309-10.025 3.701-10.897 4.009-.697.247-7.846 3.186-11.333 4.625-2.615.514-8.02 1.604-8.718 1.85-.871.309 4.359 4.625 4.795 4.934.436.308 1.308 1.85 1.308 2.467 0 .616-3.052 4.008-3.487 4.317-.436.308-10.026 5.858-10.462 6.167-.348.246 4.795 1.747 7.41 2.466 1.308.514 4.098 1.665 4.795 2.159.872.617 1.744 4.625 2.18 5.55.435.925 2.615 12.026 2.615 12.334 0 .308-1.744 7.092-2.18 7.401-.435.308-3.487 11.408-3.487 11.717 0 .308.872 1.85.872 2.158 0 .309-1.743 2.159-2.615 2.467-.872.308-2.18 1.85-3.051 4.009-.872 2.158.871 9.25 1.307 9.867.436.617.872 3.083 0 4.008-.871.925-.436 3.084-.436 3.392 0 .309 3.052 4.317 3.052 4.934s-3.487 3.7-4.359 4.317c-.698.493-.581 2.467-.436 3.392h-10.025c-1.308 0-7.411 2.158-10.026 1.85-2.615-.309-6.974-4.934-7.41-7.092-.436-2.159-6.102-7.092-7.846-8.017-1.743-.925-21.358 0-22.666 0-1.308 0-3.487-.925-5.231-.925-1.743 0-7.845 1.233-9.589.925-1.744-.309-.872-7.401-.872-8.943 0-1.541-5.666-5.242-8.718-6.783-3.051-1.542-15.691-6.167-17.435-7.401-1.743-1.233-7.846-1.541-13.077-1.85-5.23-.308-16.127-5.242-17.435-5.55-1.308-.308-9.154-4.009-11.333-5.242-2.179-1.233-5.666-.617-6.974-.617-1.308 0-5.666.309-6.538-.616-.872-.926 1.743-13.876 3.487-16.651 1.744-2.776 6.538-3.701 9.154-4.009 2.615-.308 4.794-2.467 4.794-3.7 0-1.234 2.18-7.709 2.616-9.559.436-1.85-3.488-4.317-5.231-7.4-1.744-3.084 1.743-11.409 2.615-12.334.872-.925 6.538-.925 7.846-.925 1.308 0 3.923 0 5.666-1.234 1.744-1.233 3.487.925 5.231 1.234 1.744.308 5.231.308 7.41.925 2.18.616 7.41 2.775 8.282 3.391.872.617 4.359 2.776 6.102 3.392 1.744.617 3.923 5.551 4.795 5.551.872 0 13.513-6.476 14.82-7.092 1.308-.617 3.487 1.541 4.359 1.541.872 0 5.231.617 7.41 1.234 2.18.616 5.231.308 6.102-.617.872-.925 5.667-5.242 6.103-6.475.349-.987-2.47-1.234-3.923-1.234-1.163-1.028-3.749-3.392-4.795-4.625-1.308-1.542 3.487-3.392 3.923-4.009.436-.616 4.794-7.092 5.666-9.25.872-2.159 17.872-5.242 19.615-6.475 1.744-1.234 3.051-8.943 3.487-10.793.436-1.85 4.795-1.85 5.667-3.083.871-1.234 2.179-2.775 4.359-4.934 2.179-2.158 25.717-2.467 26.589-3.083.871-.617-1.744-2.159-3.487-3.084-1.744-.925-2.18-1.85-2.18-3.083 0-1.234-1.743-4.009-3.051-4.934-1.308-.925 0-3.392 1.308-4.625 1.307-1.233 2.179-4.625 3.051-5.242.872-.617 10.897.617 13.948 1.233 3.051.617 4.795 2.775 4.795 4.009 0 1.233 4.795 2.467 6.102 3.392 1.308.925 4.795-1.542 6.539-1.542 1.743 0 8.717 1.542 10.897 1.85 2.179.308 4.795-1.85 6.102-1.85 1.308 0 .436.925 1.308 1.542.872.616 4.359 4.317 5.666 4.933 1.308.617 6.975 6.167 8.718 6.784Z"/>
  <path fill="#F0F" stroke="#000" d="M708.065 273.614c.697.741 3.196 2.159 4.359 2.776.436.235-2.616.616-3.487.616-.872 0-1.744 1.542-2.18 2.159-.436.616-2.179 2.158-3.051 2.467-.872.308-1.744 3.7-2.615 4.625-.872.925-4.795.925-5.667.616-.872-.308-1.308-2.775-1.308-5.241 0-2.467.872-4.317 1.308-5.242.436-.925 7.41-4.317 8.282-4.626.872-.308 1.308-1.233 1.743-1.85.436-.616 1.744 2.775 2.616 3.7Z"/>
  <path fill="#FFD5D5" stroke="#000" d="M138.791 428.408h18.998c.34 0 .616-.276.616-.617v-.967a1.806 1.806 0 0 0-1.807-1.808h-.808c-.872 0-1.308-.308-1.743-.616-.542-.384-.766-1.159-1.308-1.542-.436-.309 0-1.542 0-2.159 0-.551.689-.753 1.182-1.001.627-.314 1.395-.681 1.869-.849a49.304 49.304 0 0 1 2.074-.643c.649-.19 1.28-.439 1.88-.75l5.636-2.924 1.743-.925 1.308-.925c1.062-.751 2.418-.925 3.719-.925h6.715a2.26 2.26 0 0 0 1.553-.617c.42-.396.975-.616 1.552-.616h.845c.872 0 2.615-.309 3.051-.617.436-.308 1.744-1.233 2.18-1.85.131-.186.349-.378.594-.556.716-.522 1.592-.752 2.462-.925 1.125-.224 2.367-.506 2.61-.678.436-.308 3.487-.308 4.359-.308.697 0 2.325-.205 3.051-.308l4.87-1.231a4.353 4.353 0 0 0 2.104-1.236l.411-.387c.572-.54.897-1.293.897-2.08v-2.282c0-.503.244-.974.654-1.264.41-.29.654-.761.654-1.263v-1.111a1.48 1.48 0 0 0-1.48-1.48h-2.705a.61.61 0 0 1-.353-1.107l.615-.435 1.743-1.233c.727-.412 2.18-1.357 2.18-1.85 0-.263.412-.479.907-.64.793-.256 1.545-.671 2.025-1.351.361-.511.555-1.12.555-1.745v-2.247c0-.503-.244-.974-.654-1.264a1.547 1.547 0 0 1-.654-1.263v-.124a6.887 6.887 0 0 0-.657-2.937l-.215-.455-1.307-2.775-1.021-2.408a3.595 3.595 0 0 1-.287-1.41c0-.532-.118-1.057-.344-1.538l-.528-1.12-.464-.985c-.553-1.173-1.364-2.282-2.587-2.715a5.878 5.878 0 0 0-1.743-.308h-1.382a1.233 1.233 0 0 1-1.234-1.234v-.2c0-.465.178-.913.498-1.252.244-.26.407-.585.469-.935l.242-1.37a4.79 4.79 0 0 0 .08-1.127c-.04-.666-.154-1.528-.417-1.899a3.809 3.809 0 0 1-.204-.319c-.215-.376-.306-.815-.45-1.223a3.82 3.82 0 0 1-.218-1.271v-.128a3.262 3.262 0 0 1 1.376-2.658l.234-.165c.377-.267.706-.596.972-.973l.905-1.28 1.442-2.04c.2-.283.35-.598.444-.931a3.054 3.054 0 0 1 1.174-1.661l.187-.132a3.716 3.716 0 0 0 1.084-1.199l.158-.28c.203-.359.449-.693.733-.994l1.054-1.118a3.841 3.841 0 0 1 2.789-1.204h.493c.879 0 1.746.215 2.523.628l.56.297 2.179 1.233 1.308.617 2.615.925 2.18.925.125.044a9.998 9.998 0 0 0 3.335.573h6.246c.473 0 .918-.23 1.191-.617l.694-.736c.118-.126.249-.239.389-.339l.41-.29a1.625 1.625 0 0 0 .176-2.508l-.797-.752-1.744-1.85-2.179-2.467-1.968-2.505a3.048 3.048 0 0 1-.358-.581l-.027-.057a2.754 2.754 0 0 1-.263-1.174v-.063a2.468 2.468 0 0 1 .777-1.8l.967-.912.037-.026a3.211 3.211 0 0 1 3.23-.284l.288.136c.245.116.479.252.7.409l.139.098c.266.189.513.403.737.641l.415.439c.08.085.146.182.196.288.213.452.702.705 1.194.618l.383-.068a1.61 1.61 0 0 0 .894-.482l.27-.287a.86.86 0 0 0 .076-1.089l-.713-1.01-2.18-2.467-.641-.907a2.294 2.294 0 0 0-.556-.556 2.326 2.326 0 0 1-.982-1.898v-2.27a3.857 3.857 0 0 0-1.212-2.809l-.184-.174a4.784 4.784 0 0 1-.623-.718l-.056-.079a5.478 5.478 0 0 0-1.304-1.305l-.722-.51a2.68 2.68 0 0 1-.977-1.292l-.022-.062a2.292 2.292 0 0 1 .413-2.245l.22-.26c.351-.413.544-.944.544-1.486 0-.255.043-.511.128-.751l.1-.283a1.516 1.516 0 0 0-.554-1.743l-.465-.329a3.682 3.682 0 0 0-1.125-.538l-1.137-.321a3.232 3.232 0 0 0-.885-.123 3.258 3.258 0 0 1-1.602-.422l-.813-.46c-.413-.234-.8-.51-1.156-.824l-1.209-1.069-1.386-1.471a10.011 10.011 0 0 1-1.929-2.954l-.608-1.434-.871-2.158-1.744-3.084-2.179-3.392-.872-1.233-1.129-2.129a2.319 2.319 0 0 0-2.82-1.1l-.41.145-2.615.925-2.616 1.234-1.946.688a8.2 8.2 0 0 0-1.287.586 8.094 8.094 0 0 1-3.35 1.025l-6.057.476h-6.278a8.185 8.185 0 0 1-2.222-.308 8.147 8.147 0 0 0-2.222-.309h-1.477a8.528 8.528 0 0 1-1.739-.167c-.603-.126-1.309-.292-1.754-.45-.872-.308-1.744-.616-2.615-.616h-1.308c-.577 0-1.15-.099-1.694-.291l-.706-.25a6.729 6.729 0 0 0-2.241-.384 5.58 5.58 0 0 1-1.168-.114c-.606-.13-1.346-.322-1.601-.503-.436-.308-1.308-.617-2.18-.617-.061 0-.12-.004-.177-.013-.909-.14-1.717-.912-2.636-.912a2.33 2.33 0 0 1-.471-.047l-2.818-.569-4.041-1.04a4.227 4.227 0 0 1-1.39-.644c-.443-.313-.947-.53-1.458-.714-.456-.164-.984-.397-1.393-.686l-1.743-1.233c-.436-.309-1.308-.925-1.308-1.542s-.872-.617-2.179-2.159c-.481-.566-.918-.807-1.279-.873-.55-.1-1.241.016-1.697-.307a1.126 1.126 0 0 0-1.088-.117l-1.02.433a3.1 3.1 0 0 1-1.216.248h-.076c-.396 0-.789.067-1.163.199l-.356.126a5.078 5.078 0 0 1-1.696.291c-.857 0-1.7.217-2.451.63l-1.043.574a9.709 9.709 0 0 1-3.707 1.154l-6.309.638a9.91 9.91 0 0 0-1.717.327l-1.336.378-3.051 1.233-.339.12c-.931.329-1.906.519-2.893.563l-5.097.225a4.268 4.268 0 0 1-.774-.037l-1.454-.206a.796.796 0 0 1-.538-.329.795.795 0 0 0-.65-.336h-7.493a2.559 2.559 0 0 1-1.476-.469l-.498-.352a1.38 1.38 0 0 1-.582-1.126c0-.14-.022-.279-.064-.413l-.718-2.287c-.06-.19-.09-.388-.09-.587v-.173c0-.652-.376-1.246-.966-1.524l-.067-.031a1.356 1.356 0 0 0-1.545.275l-4.787 4.869a10.006 10.006 0 0 1-4.229 2.558l-.61.185-2.465.581a1.894 1.894 0 0 0-1.459 1.843 1.893 1.893 0 0 1-1.893 1.893H69.68c-.625 0-1.168.43-1.312 1.039a1.347 1.347 0 0 1-1.002 1.002l-.497.117-12.742 4.789c-.8.301-1.56.703-2.258 1.197l-1.351.956a10.002 10.002 0 0 0-2.551 2.626l-1.29 1.939a6.966 6.966 0 0 0-1.166 3.857 6.96 6.96 0 0 1-1.277 4.019l-.257.364a8.363 8.363 0 0 1-2.711 2.452l-1.497.847a10.02 10.02 0 0 0-2.222 1.709l-.08.082a9.998 9.998 0 0 0-2.853 6.994v1.056a7.132 7.132 0 0 1-1.308 4.116l-.535.756A4.216 4.216 0 0 0 32 324.6v.066a4.022 4.022 0 0 0 5.361 3.79l6.843-2.42 6.724-2.141a10.009 10.009 0 0 1 4.075-.416l9.688 1.015 9.347 1.322a4.726 4.726 0 0 1 3.99 3.857l.984 5.563a10 10 0 0 1-.575 5.485l-.318.787a9.976 9.976 0 0 1-.86 1.66l-2.642 4.113a10 10 0 0 1-3.103 3.068l-13.361 8.372-4.204 2.181a4.327 4.327 0 0 0-2.24 4.738l1.134 5.348c.052.249.14.489.259.714l.026.049a2.676 2.676 0 0 1-2.364 3.929H36.337a8.098 8.098 0 0 0-8.046 7.187l-1.298 11.48a9.999 9.999 0 0 0 .335 3.918l.972 3.338a9.999 9.999 0 0 0 6.727 6.783l9.176 2.754 18.353 5.801a9.99 9.99 0 0 1 3.776 2.194l1.15 1.063a10 10 0 0 0 6.79 2.66h.534c.52 0 1.04.04 1.553.121l2.24.352a9.948 9.948 0 0 1 1.781.451l2.435.862c.7.247 1.426.416 2.164.503l8.313.98c.69.082 1.387.091 2.08.028l10.938-.999a10.018 10.018 0 0 1 3.036.187l3.112.678a10.01 10.01 0 0 0 2.127.229h11.101c.886 0 1.769.118 2.625.35l3.58.974c.53.145 1.072.245 1.62.3l5.28.534Z"/>
  <path fill="#71C837" stroke="#000" d="M185.844 316.103c.198-.341.408-.712.575-1.029.232-.439.641-.867 1.109-1.032.061-.022.123-.038.187-.05l1.648-.291 4.795-.308h3.487l1.137.161c.69.097 1.357.314 1.972.64l.098.052c.475.252.914.567 1.305.936l.719.677.871.925c.284.402.436.881.436 1.372v1.861a1.497 1.497 0 0 0 1.156 1.46l.351.082c.444.105.904.118 1.353.039l.387-.069a4.314 4.314 0 0 1 1.356-.023l1.072.152a1.233 1.233 0 0 1 .942 1.744l-.213.452a1.964 1.964 0 0 1-.94.94l-.669.316-.43.202a1.532 1.532 0 0 0-.878 1.385c0 .174-.029.347-.087.511l-.202.569c-.097.275-.25.526-.449.738l-.386.409a.672.672 0 0 0-.183.462.631.631 0 0 1-.292.541c-.325.2-.758.425-1.016.425h-1.843a4.868 4.868 0 0 1-2.276-.566 4.862 4.862 0 0 0-1.43-.493l-.471-.083a5.997 5.997 0 0 0-1.045-.092h-6.447l-4.338-.279a6.198 6.198 0 0 0-.914.011l-2.601.23a6.103 6.103 0 0 0-.849.137l-1.583.374a5.982 5.982 0 0 0-1.182.413l-.013.006a5.97 5.97 0 0 1-1.515.481l-.582.104a4.38 4.38 0 0 1-.749.065h-.429c-.61 0-1.199-.308-1.809-.308-.349 0-.436-.617-.436-.925v-.048c0-.575.149-1.14.432-1.641a3.5 3.5 0 0 1 1.203-1.242c.905-.566 2.023-1.32 2.288-1.694.255-.361 1.148-.634 1.893-.795a8.502 8.502 0 0 0 1.403-.406l2.067-.835c.202-.082.393-.186.571-.312.396-.28.723-.655.893-1.11.083-.223.147-.435.147-.551v-3.216c0-.518.144-1.026.404-1.474Z"/>
  <path fill="#93AC9D" stroke="#000" d="M779.113 336.21c.348-1.48-5.958-4.933-9.154-6.475-.436-.213-7.41 3.7-8.718 4.008-1.307.309-2.615 0-3.923-.925-1.307-.925.872-2.775 1.308-3.083.436-.308.872-2.159.872-3.084 0-.925-12.641-8.017-13.949-8.633-1.307-.617-1.307 1.233-2.179 1.85-.872.616-6.538 0-7.41-.309-.872-.308.872-2.158 1.307-3.392.436-1.233-1.743-2.775-2.615-3.391-.872-.617-7.846-.617-8.718-.617-.871 0-7.845 0-7.845-.308 0-.309-5.667-.309-6.539-.617-.872-.308-3.051-6.167-3.923-7.709-.872-1.542-3.923-1.85-5.666-2.158-1.744-.309-10.026-2.467-10.462-3.084-.435-.617-.871-4.625-.871-6.784 0-2.158-10.897-4.933-11.769-4.933-.872 0-6.103-.617-8.718-1.234-2.615-.616-6.102.309-7.846 1.234-1.743.925-3.923.925-5.666 1.233-1.744.309-2.18 2.775-2.616 4.009-.436 1.233 3.052 4.933 3.487 8.017.436 3.083.872 11.717.872 13.567 0 1.85-3.923 9.868-4.358 11.101-.436 1.233-2.616 10.792-2.18 12.334.436 1.542 1.744 4.934 2.18 6.475.435 1.542-2.18 4.009-2.18 4.626 0 .616 4.359 3.083 5.667 3.391 1.307.309 6.974 5.242 7.846 6.784.871 1.542 7.41 2.159 10.461 2.467 3.051.308 10.897 2.775 12.205 3.392 1.307.617 4.359 4.008 4.359 5.858 0 1.851 4.358 3.701 5.666 4.009 1.308.308 8.718 1.85 9.589 1.85.872 0-.436-3.7 0-4.625.436-.925 9.154-4.009 9.59-4.934.436-.925 11.769-1.85 15.692-.925s13.948 3.084 15.256 2.775c1.307-.308 6.102-6.783 6.974-8.017.872-1.233 5.23-1.541 6.974-1.233 1.744.308 9.589-1.542 10.461-2.775.872-1.234.872-4.626 1.308-7.709.436-3.084 4.795-10.176 5.231-12.026Z"/>
  <path fill="#59F" stroke="#000" d="M698.032 231.369c-.697-.987-.871-2.878-.871-3.7-.872-.309-5.668 0-6.54.308-.872.308-6.103 7.4-6.538 8.017-.436.617-4.359 1.85-5.231 1.542-.872-.308-4.359 1.542-5.231 1.85-.871.308-2.179-2.158-3.051-3.083-.872-.926-1.743-5.242-1.743-6.476 0-1.233-3.923-1.85-5.667-1.85-1.743 0-7.41 2.775-7.846 3.084-.436.308-4.359 1.85-5.666 1.85-1.308 0-3.487 2.158-3.923 2.466-.349.247-5.667 5.654-8.282 8.326-1.744 1.747-5.405 5.365-6.102 5.859-.872.616 1.307 2.466 1.743 3.391.349.74 1.308 3.392 1.744 4.626 0 1.028.872 3.33 4.359 4.317 3.487.986 5.521 2.055 6.102 2.466 0 1.337-.087 4.194-.436 4.934-.435.925 3.052 2.775 3.488 3.392.435.617-.872 2.158-1.308 3.083-.436.925-.436 2.159 0 3.084.436.925 9.153 4.933 10.025 5.55.872.617.001 1.542-.435 1.85-.436.309 1.307 1.234 1.743 1.542.436.308 3.923-.617 4.795-1.542.872-.925 4.795-.925 5.667-.925.871 0 6.102.925 10.025 1.234 3.923.308 10.897 4.008 11.333 4.317.436.308.436 6.783.872 7.4s9.589 3.392 10.897 3.392c1.308 0 3.487.925 4.359 1.233.872.309 4.359 7.709 4.794 8.326.349.493 2.18.616 3.052.616 1.017 0 3.138.062 3.487.309.436.308 15.692.616 16.563.616.872 0 2.18 1.851 2.616 2.467.436.617-.436 1.542-.436 2.159 0 .616-.872 1.85-.872 2.158 0 .308 3.487.308 5.231.617 1.743.308 3.051-.309 3.051-.617s.872-1.233 1.308-1.542c.435-.308 13.948 8.326 14.384 8.634.436.309-.872 2.467-.872 2.775 0 .309-1.744 2.159-2.179 2.775-.436.617 2.615 1.542 3.487 1.851.697.246 2.906-.72 3.923-1.234l3.923-2.467a16.295 16.295 0 0 0-2.18-1.85c-1.307-.925.872-3.083 1.308-3.7.436-.617.872-4.625.872-7.092 0-2.467 1.307-4.009 2.179-5.55.872-1.542 11.333-8.942 13.077-10.176 1.743-1.233 5.666-8.942 6.102-9.867.436-.925-2.179-5.859-2.179-7.092 0-1.234 1.307-5.242 0-7.092-1.308-1.85-6.539 1.85-7.846 2.775-1.308.925-1.308 5.242-1.744 6.167-.436.925-10.025 4.934-13.076 5.242-3.052.308-6.539-.925-7.846-.925-1.308 0-6.975-.308-8.282 0-1.308.308-4.359-2.467-5.231-3.084-.872-.616-.436-6.475-.872-7.4-.436-.925-10.897-.925-12.204-.925-1.308 0-4.795 2.158-6.103 3.392-1.308 1.233-9.589-5.859-10.461-6.476-.872-.616-3.051 0-4.359 0-1.308 0-2.179 2.467-3.051 3.084-.872.617-3.051 1.85-3.923 4.625-.872 2.775-4.359 2.467-6.102 2.467-1.744 0-1.744-4.934-1.308-8.325.436-3.392 8.282-6.476 9.59-7.093 1.307-.616.871-1.85.871-3.391 0-1.542-1.743-7.092-2.179-8.943-.436-1.85-1.308-8.942-.872-10.175.436-1.233-.436-2.775-1.307-4.009-.872-1.233.435-4.317 0-5.858-.436-1.542-1.308-2.775-1.308-4.009 0-1.233-.436-2.467-1.308-3.7Z"/>
  <path fill="#F5D" stroke="#000" d="M712.418 379.993c0-.74-2.906-2.569-4.359-3.392-.145-.308-.523-.986-.872-1.233-.436-.308-5.231-1.234-6.538-1.234-1.308 0-3.923-1.233-5.667-2.158-1.743-.925-2.179-2.158-2.179-3.083 0-.926-3.487-4.009-4.359-4.934-.872-.925-11.769-3.7-12.641-3.7-.872 0-7.846-.925-9.153-1.542-1.308-.617-3.488-2.775-3.923-3.392-.436-.617-4.795-4.008-6.103-4.625-1.307-.617-3.923-2.467-5.23-2.467-1.308 0-6.103-2.158-8.282-3.083-2.18-.925-3.487 2.158-4.795 3.083-1.308.925-6.974-1.542-9.154-2.158-2.179-.617-5.23 0-6.974.616-1.743.617-11.333 1.234-12.64.617-1.308-.617-7.411-2.158-9.589-2.158-2.179 0-10.026.308-11.769.925-1.744.616 3.051 4.008 5.231 4.317 2.179.308 3.486 2.466 4.358 4.008.872 1.542-.436 9.559-.872 10.176-.436.616-3.486 4.317-4.359 5.858-.872 1.542 2.18 6.167.873 9.559-1.308 3.392-2.616 9.251-2.18 10.484.436 1.234 6.103 4.934 8.718 6.475 2.615 1.542 14.82 8.634 17.435 9.251 2.616.617 19.179 3.083 25.282 4.009 6.102.925 16.127 4.008 16.563 4.625.436.616-.872 4.317-1.744 4.625-.871.308-2.179 2.159-1.307 4.317.872 2.158 3.923 3.392 5.666 4.009 1.744.616 3.923 9.867 5.667 12.334 1.743 2.466 9.589 3.7 11.333 4.316 1.744.617 2.615 4.317 3.487 3.084.872-1.233 4.359-1.542 6.538-1.233 2.18.308 1.744 3.7 0 5.55-1.743 1.85 1.744 4.317 3.487 4.625 1.744.308 33.128-7.709 34.871-8.942 1.744-1.233-5.23-5.55-5.23-6.784 0-1.233 6.538-4.317 7.41-4.933.871-.617-2.18-1.542-3.923-1.234-1.744.309-2.616 0-3.487-.925-.872-.925-5.667-1.233-7.41-1.233-1.744 0-6.539-2.775-9.154-3.392-2.616-.617-2.615.617-4.795.617-2.179 0-12.205-4.934-13.948-5.859-1.744-.925-7.846-.617-9.59-2.158-1.743-1.542-1.307-3.701-1.743-4.934-.436-1.234 1.744-3.392 3.487-4.625 1.744-1.234 5.231-.925 6.974-1.85 1.744-.926 6.539.925 7.846-.926 1.308-1.85 7.41-3.391 9.154-4.625 1.743-1.233 1.307-1.233.872-3.7-.436-2.467 3.051-7.709 4.358-9.867 1.308-2.159 2.18-3.7 2.18-5.55 0-1.851 2.179-4.626 2.179-5.551Z"/>
  <path fill="#37C871" stroke="#000" d="M708.933 406.822c-1.395-.494-3.778-2.467-4.795-3.392-.436.205-1.395.74-1.743 1.233-.436.617-2.616 1.542-3.923 1.85-1.308.309-4.359 1.85-5.231 2.775-.872.925-2.179.925-2.615.925-.436 0-3.923-.925-4.795-.308-.872.617-3.487.925-5.231 1.233-1.743.309-4.358 3.392-4.794 3.392-.436 0-.872 2.159-.436 2.775.436.617.872 4.009 1.308 4.626.435.616 6.538 1.233 9.153 1.85 2.092.493 5.521 2.261 6.974 3.083 1.599-1.233 5.144-3.7 6.539-3.7 1.743 0 6.974 2.159 8.717 2.159 1.744 0 4.795-1.851 5.667-3.084.872-1.233.872-3.7 1.743-4.317.872-.617 6.975-.925 8.718-.925 1.744 0 6.538-3.083 7.846-3.7 1.308-.617 2.615-2.775 3.051-3.392.436-.617-1.743-.617-2.179-1.233-.436-.617-6.103-.925-7.846-.309-1.744.617-7.41.309-8.282 0-.872-.308-6.102-.925-7.846-1.541Z"/>
  <path fill="#FF80B2" stroke="#000" d="M749.032 425.63c-2.79-3.453-10.461-11.717-13.948-15.417-.436 0-1.744 1.85-2.18 2.467-.436.616-8.282 4.008-8.718 4.008-.436 0-6.974.309-8.718.925-1.743.617-.871 3.084-2.615 5.242-1.743 2.159-5.231 2.159-5.666 2.159-.436 0-6.975-2.159-8.282-2.159-1.046 0-4.504 2.673-6.103 4.009 1.453.719 4.795 2.282 6.539 2.775 2.179.617 3.051-.308 4.358-.617 1.047-.246 3.633.72 4.795 1.234 1.744.719 5.405 2.158 6.103 2.158.871 0 5.666.617 6.974 1.542 1.307.925 3.487.925 4.359.617.871-.309 3.051.925 3.051 1.233 0 .308-7.41 4.317-7.41 4.934 0 .616 5.666 5.242 5.666 6.475 0 1.233-33.127 8.634-34.871 8.942-1.743.308-2.179-1.542-3.051-2.775-.872-1.233.872-2.775 1.308-3.392.436-.617-.436-2.467-.436-3.392 0-.925-2.615-.616-3.923-.616-1.308 0-3.923.925-4.359 1.233-.436.308-2.179-2.467-2.615-2.775-.436-.309-6.103-2.159-8.282-2.467-1.743-.247-3.342-1.747-3.923-2.467-.872.411-2.964 1.48-4.359 2.467-1.743 1.233-2.615-.308-3.487-1.233-.872-.925-7.41-1.851-8.718-1.851-1.307 0-6.974 1.851-8.717 1.851-1.744 0-4.359 1.541-6.103 3.391-1.743 1.851-.871 8.634.872 9.559 1.744.925 6.102 12.334 6.974 14.493.872 2.158-1.307 13.259-1.743 14.184-.437.925-10.461 3.392-11.769 4.008-1.307.617-.872 7.401.436 9.251 1.308 1.85 3.487 6.784 4.359 8.942.872 2.159-1.744 6.475-.872 6.475s6.974.617 8.282.925c1.308.309 9.59 1.542 11.333.926 1.744-.617 22.23-3.392 24.41-3.392 2.179 0 7.846-.309 8.717-.617.872-.308.436-2.467-.871-3.084-1.308-.616-2.18-4.625-2.18-5.55 0-.925-.436-7.709 1.744-10.175 2.179-2.467 14.82-4.934 16.999-5.859 2.18-.925 23.102.308 24.846 0 1.743-.308 6.102 1.542 6.974 2.467.872.925-1.744 2.158-1.744 4.625s7.41 1.542 8.282 1.233c.872-.308.436-3.083-.872-4.316-1.307-1.234-1.307-2.159-.436-3.084.872-.925 13.513-2.467 15.692-2.467 2.18 0 8.718 2.467 13.513 2.467 4.794 0 10.025-.925 10.461-2.467.436-1.542-.436-3.392-2.179-4.008-1.744-.617-12.205-6.784-13.949-8.017-1.743-1.234-1.307-2.776-.872-4.626.436-1.85 1.744-5.242 2.616-6.475.872-1.233-.872-3.084-1.744-4.625-.872-1.542-3.487-8.326-5.23-10.176-1.744-1.85-5.231-5.859-4.359-9.559.871-3.7-.872-5.242-4.359-9.559Z"/>
  <path fill="#FF7F2A" stroke="#000" d="M577.291 398.495c-.349-1.234 10.316-4.831 15.692-6.475l2.179 1.541c4.795 2.981 15.082 9.312 17.872 10.793 2.789 1.48 6.102 2.261 7.41 2.466-1.017 1.234-3.313 3.886-4.359 4.626-1.308.925-1.308 8.942-.872 11.409.436 2.466-1.744 4.933-3.051 6.167-1.308 1.233-4.795-.925-8.718-1.234-3.923-.308-10.461 2.775-11.769 3.392-1.307.617-6.974-9.25-7.846-12.334-.872-3.083-2.615-11.409-2.179-13.259.436-1.85-3.923-5.55-4.359-7.092Z"/>
  <path fill="#DDAFE9" stroke="#000" d="M578.599 348.851c1.046.74 6.538-1.13 9.154-2.158.871-.334 3.051 2.158 3.923 2.467.871.308 3.051 1.233 3.923 1.541.871.309 2.615 3.7 3.051 4.317.436.617-1.308 8.326-1.308 9.251 0 .925-2.179 2.775-3.487 4.933-1.308 2.159-.872 3.392-.872 3.7 0 .309 1.744 5.242.872 6.784-.872 1.542-2.179 9.559-2.179 10.484 0 .74.871 1.747 1.307 2.159-5.085 1.85-15.256 5.673-15.256 6.167 0 .616 3.487 5.242 3.923 5.55.436.308.436 2.467.436 3.083 0 .617 1.308 10.793 1.744 12.026.436 1.233 6.974 11.101 6.974 11.717 0 .617 2.615 0 3.487-.925.872-.925 7.846-2.467 8.718-2.158.871.308 7.41 1.542 8.717 1.233 1.308-.308 2.18-3.083 3.052-4.317.871-1.233 0-8.633 0-9.25 0-.617.435-3.392.871-4.317.349-.74 3.342-3.392 4.795-4.625l3.487.616 24.41 4.009c3.487 1.028 10.635 3.268 11.333 4.008.872.926-.872 4.009-2.18 4.626-1.307.616-1.743 2.467-1.307 4.008.436 1.542 4.359 3.084 5.666 3.7 1.308.617 1.744 2.467 2.616 4.009.697 1.233 2.034 6.064 2.615 8.325-1.453.823-4.62 2.529-5.667 2.776-1.307.308-2.179-1.85-2.615-1.85-.436 0-6.102-1.542-7.41-1.542-1.308 0-5.667.925-7.41 1.542-1.744.616-4.795.925-7.41 2.775-2.615 1.85-.436 8.017-.872 8.633-.436.617 2.18 2.159 2.615 2.467.436.309 5.667 13.259 6.103 14.184.436.925-1.744 13.259-2.18 13.876-.435.617-5.666 2.467-6.974 2.467-1.307 0-4.795 1.542-5.666 2.467-.872.925 1.307 7.709 1.743 8.325.436.617 4.359 8.634 4.359 9.559 0 .74-1.162 4.214-1.743 5.859-4.359.411-13.774 1.233-16.564 1.233-3.487 0-6.102-1.85-7.41-2.467-1.308-.616-12.641-1.233-17.436-2.158-4.794-.925-10.897-.617-16.999-1.85-6.102-1.234-16.128-3.084-20.923-4.625-4.794-1.542-19.614-2.159-27.896-4.934-6.626-2.22-17.581-2.159-22.23-1.85v-2.159c0-1.233 3.051-3.7 4.358-5.242 1.308-1.541-4.358-4.933-2.615-8.017 1.744-3.083-2.179-9.25-1.743-12.95.435-3.701 3.051-4.934 4.358-5.859 1.308-.925 2.18-2.467 1.308-3.7-.872-1.234 3.051-12.951 4.795-17.268 1.743-4.317-2.615-17.267-3.487-19.426-.872-2.158-11.769-4.934-13.076-5.242-1.308-.308 7.845-4.933 10.025-6.167 2.179-1.233 3.487-3.7 3.923-4.933.436-1.234-6.103-6.168-6.103-7.093 0-.925 8.282-1.233 10.026-2.466 1.743-1.234 14.82-5.551 17.435-7.092 2.616-1.542 12.641-3.084 13.513-3.084.871 0 3.923-4.625 4.359-7.092.435-2.467 6.538-6.167 6.974-7.4.436-1.234-3.052-2.467-3.488-6.167-.436-3.701 8.282-5.242 9.59-4.934 1.307.308 5.23.308 5.666-.925.436-1.233 2.616-8.634 3.923-10.176 1.308-1.541 3.051.617 4.359 1.542Z"/>
  <path fill="#80FF80" stroke="#000" d="M698.474 221.191c1.046 1.48-.436 4.728-1.307 6.167-1.163.206-3.748.617-4.795.617-1.307 0-2.179.925-2.615 1.234-.436.308-5.666 7.092-6.102 7.4-.436.308-4.359 1.233-4.795 1.233-.436 0-4.359 1.234-5.231 1.542-.871.308-.871 0-1.307 0-.436 0-3.487-6.475-3.923-8.325-.436-1.85-2.18-2.159-4.795-2.467-2.615-.308-8.282 3.083-9.59 3.7-1.307.617-4.794 1.233-5.666 1.542-.872.308-10.025 9.559-11.333 10.484-1.308.925-5.231 5.242-6.538 4.625-1.308-.617-4.359-.617-6.539-.925-2.179-.308-3.487.617-5.23.925-1.744.308-1.308-1.542-1.308-2.467s.436-2.775-.872-4.625c-1.307-1.85-6.538-2.467-8.282-2.467-1.743 0-5.666 0-8.717-.925s-3.487.925-6.103 3.392c-2.615 2.467-2.615 4.625-4.358 4.625-1.744 0-4.359 0-5.231-.617-.872-.616-4.795-.308-5.667-1.233-.871-.925-1.307-5.242-2.179-6.167-.872-.925-1.744-1.233-2.615-.617-.872.617-5.231 0-6.975.617-1.743.617-7.41 0-9.589.925-2.179.925-.872 5.859-.872 7.092 0 1.234-3.051 2.467-4.795 3.084-1.743.616-5.23 4.008-6.538 5.55-1.307 1.542-4.795 4.009-7.41 4.009s-16.999-6.167-18.307-7.401c-1.308-1.233-5.231-2.775-6.102-3.7-.872-.925-6.975-4.317-9.154-4.009-2.179.309-7.41-2.466-8.718-2.466-1.307 0-4.794-.617-6.974-.617-2.179 0 3.051-1.85 5.667-2.467 2.615-.617 5.666-2.775 6.538-3.7.872-.925.872-3.084 2.615-3.7 1.744-.617 1.744-2.467 4.359-7.092 2.616-4.626-6.974-6.784-7.846-7.709-.871-.925 1.308-2.467.872-8.326-.436-5.858 4.359-12.025 5.666-13.259 1.308-1.233 2.616-5.55 2.616-6.167 0-.616 1.743-9.25 0-12.025-1.744-2.775-.436-4.626.872-6.167 1.046-1.234 1.017-2.981.871-3.701 2.035.72 6.452 2.344 7.846 3.084 1.744.925 10.026 3.083 12.205 4.009 2.18.925 8.718 5.55 10.026 6.167 1.307.616 6.102 3.083 9.153 3.083s8.718 3.392 10.897 4.009c2.18.616 19.615-.309 20.923-.617 1.307-.308 5.23-3.084 6.538-3.392 1.308-.308 2.615-2.159 3.051-3.083.436-.925-2.615-2.467-4.359-4.009-1.743-1.542 1.744-1.233 3.051-2.467 1.308-1.233.436-2.775 0-3.7-.436-.925 3.051-.925 5.231-1.85 2.179-.925 3.051 0 4.795 0 1.743 0 3.487-1.234 5.23-1.85 1.395-.494 6.684 1.028 9.154 1.85 2.47-.617 8.194-1.85 11.333-1.85 3.923 0 3.051 3.083 4.359 4.625 1.307 1.542 1.307.925 5.666 0s6.539-.617 7.41 0c.872.617 8.282 4.317 8.282 5.242 0 .925-4.359 3.392-5.667 4.933-1.307 1.542.872 4.317 2.616 7.093 1.743 2.775 8.717 9.25 12.204 11.1 3.487 1.85 3.923 4.317 6.103 6.476 2.179 2.158 6.974 6.167 9.153 7.4 2.18 1.233 6.539 2.158 6.975 3.083.348.74 3.341 1.953 4.794 2.467 3.342.309 10.287 1.295 11.333 2.775Z"/>
  <path fill="#C6E9AF" stroke="#000" d="M495.339 323.259c1.744-.987 8.573-.411 11.769 0-.145.308-.436 1.048-.436 1.542 0 .616-.872 2.158-2.615 4.008-1.744 1.85-1.308 3.7-1.308 4.009 0 .308 2.615 3.083 3.051 3.7.436.617.872 2.467.872 3.083 0 .617 3.487 2.467 3.923 2.776.436.308 1.744 1.233 1.308 1.85-.349.493-4.214.822-6.103.925-6.393.514-19.353 1.603-20.051 1.85-.871.308-4.358 4.933-5.23 5.55-.872.617-3.487 1.542-4.359 1.85-.872.309-1.308 1.85-1.744 3.7-.435 1.851-2.179 7.709-2.615 8.018-.436.308-14.384 4.317-15.256 4.317-.872 0-3.487 1.541-4.359 1.85-.697.246-4.068 6.475-5.666 9.558-.291.309-1.046.987-1.744 1.234-.872.308-2.179 1.542-2.615 2.158-.349.494 3.051 3.495 4.795 4.934.726.103 2.353.308 3.051.308.872 0 1.307.925 1.307 1.234 0 .308-5.666 6.167-6.102 6.475-.436.308-1.743.617-3.487.925-1.744.308-4.359-.308-5.231-.617-.871-.308-5.666-.616-6.102-.616-.436 0-2.179-1.542-3.051-1.542-.872 0-14.384 6.784-15.256 7.092-.872.308-2.18-3.084-2.616-3.392-.435-.308-1.743-2.467-3.051-2.775-1.307-.308-5.23-2.775-5.666-3.392-.436-.617-6.974-2.775-7.846-2.775-.872 0-6.103-.925-6.974-.925-.872 0-2.616-.925-3.923-1.542-1.308-.617-2.18 1.542-6.974 1.542-3.836 0-6.829.411-7.846.617h-14.821c-1.743 0-3.923-1.542-5.666-1.234-1.744.309-7.41-1.542-9.154-2.158-1.743-.617-6.974-2.467-6.974-4.009 0-1.542-4.795-4.008-5.666-4.625-.872-.617-3.052-.308-4.359.617-1.308.925-13.077 0-16.128 0s-3.487-.925-3.487-2.467 3.487-3.7 5.231-5.242c1.743-1.542 4.794-5.859 5.666-7.092.872-1.234 3.051-.617 4.359-1.234 1.308-.616 1.744-3.083 3.051-5.858 1.308-2.775-4.359-4.934-5.23-6.167-.872-1.234 14.82-.617 16.563-.617 1.744 0 15.257 0 17.436-.925 2.179-.925-.872-4.317 0-6.475.872-2.159 6.538-1.542 7.846-1.542 1.308 0 10.461.617 12.205 0 1.743-.617 1.743-3.084 1.743-4.009 0-.925 4.795-4.317 5.667-5.242.872-.925 3.051-.616 3.487 0 .436.617 2.615-.308 3.923-1.85 1.308-1.541-2.179-4.008-3.923-5.55-1.743-1.542-.872-5.859-.436-6.475.436-.617 3.051-2.775 4.359-2.159 1.308.617 7.41.925 8.718 2.159 1.307 1.233.872 2.467.872 3.392 0 .924 3.051 1.85 4.358 2.775 1.308.925 6.103 1.85 8.282 1.85 2.18 0 8.282-.617 9.59-.617 1.307 0 8.281 1.234 10.461.617 2.18-.617 3.923 2.158 5.666 1.85 1.744-.308 4.359-1.233 6.975-1.85 2.615-.617 6.974-4.009 7.846-5.55.871-1.542 3.051-5.242 2.615-6.476-.436-1.233-5.667-1.233-9.154-.925-3.487.308-9.153-1.233-12.64-2.158-3.488-.925-7.847-4.934-8.718-5.859-.872-.925 3.922-.925 5.23-1.233 1.308-.309 7.846-3.084 8.282-4.009.436-.925 2.179.308 3.923.925 1.743.617 5.231-1.85 6.538-2.158 1.308-.309 2.616.925 3.487.925h6.974c.872 0 0 5.242.436 6.475.436 1.233 3.052 1.233 4.359 2.775 1.308 1.542 0 3.7 1.744 5.242 1.743 1.542.436 5.551.872 6.476.435.925 13.076 4.933 14.82 4.933 1.743 0 7.846 1.234 10.461 1.234s8.282-2.776 10.461-4.009Z"/>
  <path fill="#BCD35F" stroke="#000" d="M497.088 161.993c.697 1.727 8.427 3.598 12.205 4.317l1.307.617c-.145.616-.435 1.973-.435 2.466 0 .617-1.308 2.159-1.744 3.392-.436 1.234-.436 2.775.436 4.009.872 1.233.872 3.7.872 4.625 0 .925-.872 6.476-.872 7.092 0 .617-1.308 4.009-1.308 4.317 0 .308-3.487 5.242-5.23 7.709-1.744 2.467-1.744 7.4-1.744 8.017 0 .617 0 4.317-.436 4.934-.436.616-.436 1.85-.436 2.466 0 .617 3.487 1.542 3.923 1.85l3.487 2.467c.436.309.872 2.467.872 2.775 0 .309-3.051 6.784-3.487 7.092-.436.309-1.308 1.234-2.179 1.234-.872 0-1.308 2.775-1.744 3.392-.436.616-4.359 3.083-5.231 3.392-.697.246-5.811 1.952-8.281 2.775.145 2.98.348 9.374 0 11.1-.436 2.159-7.846 10.793-8.718 12.026-.872 1.233 2.615 2.467 3.487 4.009.872 1.541 1.744 8.942 1.308 9.558-.436.617-1.308 2.467-3.923 5.859-2.616 3.392-13.513 6.167-16.564 7.092-3.051.925-9.154 1.234-10.461.925-1.308-.308-15.692-5.242-18.307-6.475-2.093-.987-14.53-3.7-20.487-4.934-1.598-.514-4.882-1.973-5.231-3.7-.436-2.158 0-19.118 0-20.659 0-1.542-3.487-4.009-4.359-5.859-.871-1.85 3.052-4.934 2.616-6.784-.436-1.85-4.795-2.467-7.846-4.008-3.051-1.542-2.615-4.934-2.615-6.784 0-1.85 1.743-10.792-3.488-16.343-5.23-5.55-7.41-10.792-6.974-13.875.436-3.084 14.384-14.801 15.256-16.343.872-1.542-.872-8.942-.872-12.026 0-3.083 8.718-6.167 9.59-7.4.871-1.233 6.974-2.467 9.153-2.467 2.18 0 4.359 1.234 6.103 2.159 1.743.925 8.717-.925 8.717-2.159 0-1.233 5.231-1.85 7.41 0 2.18 1.85 6.975 1.234 8.282 1.234 1.308 0 2.18-1.542 3.051-3.083l.001-.001c.871-1.541 5.666-2.467 7.845-2.775 2.18-.308 10.026-2.467 11.769-3.084 1.744-.616 8.282-1.85 10.462-1.85 2.179 0 .436 1.85 2.179 3.084 1.744 1.233 3.487-.308 4.359-1.85.872-1.542 3.487-2.467 5.666-1.85 2.18.616 1.744 6.167 2.616 8.325Z"/>
  <path fill="#D4FF2A" stroke="#000" d="M452.628 300.132v-8.325l6.102-.617c3.051-.308 16.563-4.934 18.743-6.167 2.179-1.234 5.23-7.092 5.666-7.709.436-.617-1.307-8.942-2.179-9.867-.872-.925-3.051-2.467-3.051-2.775 0-.309 8.281-11.718 8.717-12.643.436-.925-.436-10.484 0-11.1.436-.617 7.846.308 8.282.308.436 0 2.18.617 3.051 1.234.872.616 5.231 1.233 5.667 1.233.436 0 3.051.617 3.487.925.436.308 3.923 2.158 4.795 2.467.871.308 2.615 1.85 3.051 2.158.436.309 3.487 1.85 3.923 2.467.436.617 14.82 6.475 16.999 7.092 2.18.617 4.359-.617 5.667-1.233 1.046-.494 3.923-3.289 5.231-4.626.29.72.958 2.282 1.307 2.776.436.616 2.615.925 3.051 1.233.436.308 3.487 1.542 4.795 2.158 1.308.617 1.744.309 3.487.309 1.744 0 3.051.308 3.923.617.872.308 1.308 1.85 2.18 2.466.871.617 1.307 1.85 1.307 2.467s3.051 2.467 3.923 2.775c.872.309 3.923.925 4.795 1.234l2.615.925c.872.308 1.744 1.85 2.18 2.775.436.925 1.743 2.775 2.179 4.317.436 1.542-1.308 2.467-1.743 4.933-.436 2.467 3.051 5.242 3.051 5.859s-2.18 4.317-2.616 5.859c-.435 1.541.872 2.158 5.667 5.55s7.41 6.784 7.846 7.092c.436.308.436 1.233 0 1.85s-.872 1.234-.872 2.159c0 .925 3.051 1.233 3.487 1.233.436 0 1.744.308 1.744.617 0 .308 0 1.541.436 2.467.436.925 0 4.008 0 4.316 0 .247-6.103 4.009-9.154 5.859-1.889 1.028-5.754 3.269-6.102 4.009-.436.925-.872 3.083-.872 4.008 0 .925-1.744 4.317-1.744 4.934 0 .616-6.974 4.317-7.41 4.625-.436.308-1.743 1.233-3.051 1.233s-5.666-4.008-6.102-4.625c-.436-.617-2.18-1.542-3.051-1.85-.872-.308-5.231-5.242-5.667-5.55-.436-.309 0-.617-.872-.925-.872-.309-3.487 1.233-4.359 1.541-.871.309-2.179.309-3.051 0-.872-.308-8.718-1.541-9.589-1.541-.872 0-4.359 1.233-4.795 1.541-.436.309-1.308 0-3.923-1.233s-3.923-1.85-3.923-2.467c0-.616-1.744-2.158-3.487-3.083-1.395-.74-12.495-1.748-17.871-2.159-2.18-.102-6.8-.246-7.846 0-1.308.309-5.667 2.159-7.41 3.084-1.395.74-4.359 1.13-5.667 1.233-2.76-.411-8.543-1.233-9.589-1.233-1.308 0-13.077-4.317-13.949-4.625-.871-.309-.871-1.234-.436-3.701.436-2.466-1.307-3.391-1.743-4.008-.436-.617-.436-2.159-.436-3.7 0-1.542-3.923-2.467-4.794-3.701-.698-.986-.291-4.728 0-6.475Z"/>
  <path fill="#DDAFE9" stroke="#000" d="M383.324 310.617c-1.046.987-1.017 4.112-.871 5.551.061.925 7.846 1.85 8.718 2.158.871.309.871 1.85 1.307 1.85.436 0 1.744-.308 2.616-.925.871-.616 4.359-4.008 4.794-4.317.436-.308-1.743-2.158-2.179-2.158-.436 0 2.615-3.084 3.487-3.7.872-.617 0-1.234-.872-1.85-.697-.494 0-.823.436-.925-.872.205-2.964.678-4.359.925-1.743.308.436-.925-.436-1.85-.871-.926.872-2.159.872-3.392 0-1.234-1.307-2.775-3.051-3.701-1.744-.925-.872-2.466-2.179-3.391-1.308-.925-2.616 1.85-2.18 3.391.436 1.542-1.743 4.317-1.743 5.859 0 1.542-3.052 5.242-4.36 6.475Z"/>
  <path fill="#B3FF80" stroke="#000" d="M398.142 274.54c.348-1.234 6.828-4.009 10.025-5.242v6.622c0 1.997 3.487 3.245 4.358 3.862.872.617 14.821 3.392 15.692 3.392.872 0 7.846 2.158 8.718 2.775.697.493 10.752 4.111 15.692 5.858v8.326c-2.47.103-7.497.308-7.846.308-.436 0-1.308-.925-2.615-.925-1.308 0-3.923 1.542-5.667 1.85-1.743.309-3.487-.925-4.359-1.233-.871-.308-.871.617-.871.925 0 .308-3.923 1.542-5.667 2.775-1.744 1.234-7.846 1.234-8.282 1.234-.436 0-3.051-1.851-3.051-2.159 0-.308-2.615.925-3.051.617-.436-.309-1.308-2.159-2.18-2.775-.697-.494-6.102 3.7-8.717 5.858-1.163.309-3.662.925-4.359.925-.872 0 0-1.541 0-1.85 0-.308-.872-.616 0-2.158.872-1.542.436-2.775 0-3.392-.349-.493-2.47-1.85-3.487-2.467-.146-.822-.698-2.467-1.744-2.467-1.307 0-.872 3.701-.872 4.009 0 .308-1.743 3.7-1.743 4.933 0 1.234-3.923 5.859-4.795 6.784-.697.74-.872 4.009-.872 5.55-.726.412-2.441 1.419-3.487 2.159-1.307.925-.436 6.167 1.308 7.4 1.743 1.234 2.615 2.775 3.051 3.701.349.74-1.598 2.158-2.615 2.775-.436.205-1.569.431-2.616-.309-1.046-.74-2.47.514-3.051 1.234-1.743 1.13-5.23 3.762-5.23 5.242 0 1.85-.872 2.775-2.616 3.392-1.743.616-13.512 0-14.82-.309-1.307-.308-3.487.617-4.359 1.234-.871.616 1.308 4.317.872 5.858-.436 1.542-2.615 1.542-3.487 1.85-.872.309-18.307.309-20.051 0-1.395-.246-8.427.514-11.769.925-2.615.206-8.194.309-9.589-.925-1.744-1.541-4.795-4.317-6.538-4.933-1.744-.617-7.846 0-11.333.616-3.487.617-6.103.617-7.846-.616-1.744-1.234 3.051-5.859 4.359-7.092 1.307-1.234 0-1.542-1.308-2.775-1.308-1.234-1.744-1.234-2.179-3.084-.436-1.85 3.051-5.55 3.487-6.784.436-1.233 1.307-1.85 3.487-2.775 2.179-.925 2.615-1.542 3.487-2.775.872-1.233 6.538-1.542 9.589-1.85 3.051-.308 18.743-7.092 19.179-7.4.436-.309 4.795-2.776 5.667-3.392.872-.617 2.615-2.159 3.051-3.392.436-1.234-2.179-1.542-3.923-1.85-1.744-.309-3.051-3.392-3.051-4.317 0-.925.436-3.084-.872-4.625-1.307-1.542 0-3.084 0-4.934s-3.923-2.158-5.666-3.7c-1.744-1.542 0-4.009 0-5.859 0-1.85 2.179-2.775 3.487-3.7 1.307-.925.872 2.158 2.179 3.7 1.308 1.542 5.667-.308 6.974-1.542 1.308-1.233-1.307-3.083-1.307-4.008 0-.925 3.923-5.859 5.666-7.709 1.744-1.85 2.18 1.233 3.487 1.85 1.308.617 4.359-.617 6.103-1.85 1.743-1.233 7.41-2.158 10.897-1.542 3.487.617 27.897 12.026 29.204 13.259 1.308 1.234 10.461 4.626 14.82 3.392 4.359-1.233 2.616-4.933 3.052-6.475Z"/>
  <path fill="#AFA" stroke="#000" d="M377.221 203.617c2.441-.247 6.829 1.131 8.718 1.85 0 .411.261 1.665 1.308 3.392 1.309 2.159 5.231 5.859 7.41 10.176 2.18 4.317.872 13.567 1.744 17.267.872 3.7 8.718 4.934 10.025 5.859 1.308.925-.872 4.008-2.179 6.475-1.046 1.974 2.47 5.139 4.359 6.476v14.184c-2.906 1.13-8.98 3.7-10.026 4.933-1.307 1.542 0 4.626-2.615 6.784-2.615 2.158-13.077-1.542-13.513-2.158-.435-.617-26.153-12.643-32.255-13.876-6.102-1.234-11.769 1.85-13.948 2.775-2.18.925-3.923-.617-4.359-2.158-.436-1.542-6.539 7.092-6.974 8.017-.436.925-16.129-5.242-17.436-5.859-1.307-.617-3.487-.925-4.359-2.775-.872-1.85 2.615-4.009 4.359-5.859 1.743-1.85 1.307-2.158 1.307-5.242 0-3.083-.436-12.334 0-17.576.436-5.242 6.103-7.4 6.974-7.4.872 0 3.923 1.233 5.667 0 1.743-1.234-2.616-3.392-3.052-5.242-.435-1.85 4.795-1.542 11.334 0 6.538 1.542 10.025 3.392 12.204 3.392 2.18 0 0-2.467 0-4.934s-5.23-6.475-5.23-8.634c0-2.158 2.179-5.858 3.051-8.017.872-2.158 4.795-.925 6.102 0 1.308.925 4.359 3.7 13.513 3.392 9.153-.308 14.82-4.934 17.871-5.242Z"/>
  <path fill="#FFB380" stroke="#000" d="M412.091 155.208c1.743.74 10.316 7.297 14.384 10.483 1.583 1.234-3.487 0-5.667-1.233-2.179-1.233-7.41.308-8.717.617-1.308.308-9.154 5.242-10.898 7.092-1.743 1.85.872 11.717 0 13.259-.871 1.542-12.64 12.951-14.384 14.184-1.395.987-1.162 4.522-.872 6.167-1.598-.411-5.23-1.357-6.974-1.85-2.179-.617-4.794.617-9.589 3.083-4.795 2.467-17 2.467-18.743 1.85-1.744-.616-7.41-4.316-9.59-4.316-2.179 0-2.179 6.475-3.487 7.708-1.308 1.234 3.923 8.017 4.359 8.942.436.926 1.308 4.626 1.308 5.551 0 .925-.872 1.542-6.975-.925-6.102-2.467-16.563-3.392-17.435-2.467-.872.925 3.051 3.7 3.487 4.934.436 1.233-3.051 1.541-5.666.925-2.616-.617-6.539 4.008-7.846 5.55-1.046 1.233-.436 15.931 0 23.126-2.616-1.747-8.195-5.55-9.59-6.784-1.743-1.541-7.846-2.466-8.718-2.466-.871 0 .872-1.234.872-3.701 0-2.466-7.41-3.391-13.076-7.4-5.667-4.008-3.487-9.25-6.103-12.642-2.615-3.392 1.744-3.084 4.359-5.551 2.615-2.466 7.41-.308 10.461-1.85 3.052-1.541-1.743-4.625 0-8.634 1.744-4.008 4.359-5.55 4.359-9.25s-2.615-5.242 0-7.092c2.616-1.85 1.308-7.4 3.923-10.176 2.616-2.775 4.359-3.083 6.103-5.858 1.743-2.775 7.41-4.317 4.794-7.092-2.615-2.775 6.103-4.934 7.846-6.784 1.744-1.85 0-3.7-1.743-7.4-1.744-3.701-4.359-13.876-6.103-15.11-1.743-1.233-23.973-8.325-27.46-10.175-3.486-1.85-17.426-6.781-20.919-8.016l-.004-.001c-3.487-1.234-6.538-8.634-6.538-11.718 0-3.083 2.179-6.783 4.359-5.242 2.179 1.542 11.769 4.009 16.127 5.242 4.359 1.234 12.641-2.158 17-4.008s19.179-3.084 25.281-2.775c6.103.308 18.743 5.242 22.23 7.708 3.488 2.467 7.846 7.709 9.59 10.793 1.743 3.083 18.743 21.893 20.922 23.743 2.18 1.85 6.539.308 9.154 2.466 2.615 2.159 8.718 4.009 13.513 4.009 4.794 0 6.974 1.233 8.717 3.084 1.744 1.85 11.769-.925 13.949 0Z"/>
  <path fill="#FAA" stroke="#000" d="M252.561 97.852c.697 1.233 5.521 6.27 7.846 8.634h-2.616c-.436 0-2.615-1.542-3.487-1.85-.872-.309-3.051 3.392-2.615 7.092.436 3.7 4.359 8.634 4.794 9.559.349.74 11.188 4.214 16.564 5.858 8.718 3.495 26.851 10.669 29.64 11.409 3.487.925 4.359 2.159 4.795 2.775.436.617 5.667 15.726 6.538 16.96.872 1.233 1.308 3.7 0 4.625-1.307.925-6.974 4.317-8.281 4.625-1.308.308.871 1.85 1.307 3.084.436 1.233-1.743 2.775-3.051 4.008-1.308 1.234-2.615 2.775-3.051 3.392-.436.617-4.359 2.775-5.231 4.009-.872 1.233-2.615 8.017-2.615 8.942 0 .925-2.18 2.158-2.615 3.083-.436.925 1.307 5.859 1.307 6.167 0 .309-1.307 4.934-3.487 6.784-2.179 1.85-.872 5.55-.872 6.167s1.308 3.083 0 4.317c-1.307 1.233-6.102.925-7.846.925-1.743 0-3.051 1.233-3.487 1.85-.348.493-3.051 1.85-4.359 2.467-1.162-.72-3.748-2.344-4.794-3.084-1.308-.925-15.256-8.942-20.487-11.409-5.231-2.466-24.845-8.325-27.025-8.942-2.179-.617-1.307-3.392-1.307-4.317 0-.925 6.974-4.933 9.589-6.167 2.615-1.233 4.795-8.325 4.795-10.175 0-1.85 0-4.009-3.051-6.476-3.052-2.466 1.307-2.466 1.743-3.7.436-1.233 0-6.167 1.308-8.017 1.307-1.85-6.974-8.017-10.026-10.792-3.051-2.775-9.153 1.85-10.461 1.85-1.307 0 .436-17.576 1.308-18.809.698-.987 3.778-1.439 5.231-1.542 1.162-.925 4.01-2.899 6.102-3.392 2.615-.617 2.615-4.625 3.051-6.475.436-1.851-6.102-3.084-9.153-5.859s.871-3.084 2.179-4.009c1.308-.925 3.051-4.317 3.923-6.783.872-2.467-3.923-5.55-6.102-6.784-2.18-1.234 10.025-3.7 14.384-3.392 4.359.308 3.923.925 5.667 1.85 1.743.925 13.076 0 13.948 1.542Z"/>
  <path fill="#B3FF80" stroke="#000" d="M148.816 232.296v-5.55c1.308-2.159 2.18 0 6.539 2.158 4.359 2.159 8.717 1.233 12.64 3.392 3.923 2.158 0 4.625 0 6.475 0 1.85-3.487 3.084-3.923 4.626-.435 1.541 1.744 5.55 3.923 6.783 2.18 1.234 3.052 2.775 4.359 5.242 1.308 2.467-.872 3.084-1.307 6.167-.436 3.084-6.975-.308-10.898-1.233s-4.794-4.009-6.538-7.401c-1.743-3.391-2.179-4.933-4.795-7.092-2.615-2.158-4.794-3.392-6.974-7.092-2.179-3.7 6.974-5.242 6.974-6.475Z"/>
  <path fill="#fff" fill-opacity=".2" d="M0 0h834v534H0z"/>
  <path fill="#B3FF80" stroke="#000" stroke-width="3" d="M519.056 157.105c1.088-4.056 21.3-13.181 31.27-17.237v21.775c0 6.566 10.875 10.671 13.595 12.699 2.719 2.028 46.225 11.153 48.944 11.153 2.719 0 24.472 7.098 27.191 9.125 2.175 1.623 33.536 13.519 48.944 19.265v27.376c-7.704.338-23.384 1.014-24.472 1.014-1.36 0-4.079-3.042-8.157-3.042-4.079 0-12.236 5.07-17.675 6.084-5.438 1.014-10.876-3.042-13.595-4.056-2.719-1.014-2.719 2.028-2.719 3.042 0 1.014-12.236 5.07-17.675 9.125-5.438 4.056-24.472 4.056-25.831 4.056-1.36 0-9.517-6.084-9.517-7.098 0-1.013-8.158 3.042-9.517 2.028-1.36-1.014-4.079-7.097-6.798-9.125-2.175-1.622-19.034 12.167-27.191 19.265-3.626 1.014-11.42 3.041-13.596 3.041-2.719 0 0-5.069 0-6.083 0-1.014-2.719-2.028 0-7.098 2.719-5.069 1.36-9.125 0-11.153-1.087-1.622-7.704-6.083-10.876-8.111-.453-2.704-2.175-8.112-5.438-8.112-4.079 0-2.72 12.167-2.72 13.181 0 1.014-5.438 12.167-5.438 16.223 0 4.056-12.236 19.265-14.955 22.307-2.175 2.433-2.719 13.181-2.719 18.25-2.266 1.352-7.614 4.664-10.877 7.098-4.078 3.042-1.359 20.278 4.079 24.334 5.438 4.056 8.157 9.125 9.517 12.167 1.088 2.434-4.985 7.098-8.157 9.125-1.36.676-4.895 1.42-8.158-1.013-3.263-2.434-7.704 1.689-9.517 4.055-5.438 3.718-16.314 12.37-16.314 17.237 0 6.084-2.719 9.125-8.158 11.153-5.438 2.028-42.146 0-46.225-1.014-4.078-1.014-10.876 2.028-13.595 4.056-2.719 2.028 4.078 14.195 2.719 19.265-1.36 5.069-8.157 5.069-10.877 6.083-2.719 1.014-57.101 1.014-62.539 0-4.351-.811-26.285 1.69-36.708 3.042-8.158.676-25.56 1.014-29.911-3.042-5.438-5.07-14.954-14.195-20.393-16.223-5.439-2.028-24.472 0-35.348 2.028-10.877 2.028-19.035 2.028-24.473-2.028-5.438-4.055 9.517-19.264 13.596-23.32 4.079-4.056 0-5.07-4.079-9.125-4.079-4.056-5.438-4.056-6.797-10.14-1.36-6.083 9.517-18.25 10.876-22.306 1.36-4.056 4.079-6.084 10.877-9.125 6.798-3.042 8.157-5.07 10.876-9.126 2.719-4.055 20.394-5.069 29.911-6.083 9.516-1.014 58.461-23.321 59.82-24.335 1.36-1.013 14.955-9.125 17.674-11.153 2.72-2.028 8.158-7.097 9.517-11.153 1.36-4.056-6.797-5.07-12.236-6.083-5.438-1.014-9.517-11.154-9.517-14.195 0-3.042 1.36-10.14-2.718-15.209-4.078-5.07 0-10.14 0-16.223 0-6.084-12.236-7.098-17.674-12.167-5.439-5.07 0-13.181 0-19.265 0-6.083 6.797-9.125 10.876-12.167s2.719 7.097 6.798 12.167c4.079 5.07 17.674-1.014 21.753-5.07 4.078-4.056-4.079-10.139-4.079-13.181 0-3.041 12.236-19.264 17.674-25.348 5.439-6.084 6.798 4.056 10.877 6.084 4.079 2.028 13.595-2.028 19.034-6.084 5.438-4.056 23.112-7.097 33.989-5.07 10.876 2.028 87.011 39.544 91.09 43.599 4.079 4.056 32.63 15.209 46.225 11.154 13.596-4.056 8.158-16.223 9.517-21.293Z"/>
  <path fill="#000" d="m289.951 351.796-12.342-12.342 1.862-1.862 5.894 5.894.15-.151-.717-11.071 2.345-2.344.578 10.534 11.782 1.79-2.242 2.242-9.504-1.525.217 3.134 3.839 3.839-1.862 1.862Zm14.023-13.614c-.586.587-1.225 1.009-1.916 1.266a3.797 3.797 0 0 1-2.085.169c-.691-.145-1.34-.521-1.947-1.127-.522-.523-.851-1.053-.988-1.591a3.136 3.136 0 0 1 .012-1.615 6.02 6.02 0 0 1 .699-1.591c.322-.523.675-1.029 1.061-1.519l1.193-1.507c.301-.389.482-.711.542-.964.061-.253-.018-.488-.235-.705l-.042-.042c-.526-.526-1.083-.786-1.669-.778-.583.005-1.165.298-1.748.88-.606.607-.95 1.22-1.03 1.838-.081.611-.024 1.145.168 1.603l-2.079 1.308c-.361-.763-.522-1.51-.482-2.242.04-.739.235-1.44.585-2.103a7.402 7.402 0 0 1 1.356-1.838c.369-.37.805-.717 1.307-1.043a4.89 4.89 0 0 1 1.64-.699c.594-.136 1.221-.108 1.88.085.655.189 1.32.62 1.995 1.295l6.147 6.147-1.76 1.76-1.266-1.265-.072.072c.117.349.171.753.163 1.211-.008.458-.121.944-.338 1.459-.217.514-.58 1.026-1.091 1.536Zm-1.054-1.838c.498-.498.825-1.022.982-1.573.161-.554.175-1.082.042-1.585a2.817 2.817 0 0 0-.747-1.313l-1.193-1.194c0 .129-.064.314-.193.555a8.25 8.25 0 0 1-.482.759c-.197.269-.39.531-.579.784-.193.249-.353.458-.482.626-.305.394-.55.788-.735 1.182a2.323 2.323 0 0 0-.235 1.139c.024.361.197.703.518 1.024.446.446.948.619 1.507.518.554-.104 1.087-.411 1.597-.922Zm7.962-5.479-12.342-12.342 1.802-1.802 4.586 4.586.109-.109a7.018 7.018 0 0 1-.217-1.121c-.057-.45-.004-.944.156-1.482.157-.543.523-1.101 1.097-1.675.747-.748 1.603-1.226 2.567-1.435.965-.209 1.969-.124 3.014.253 1.048.374 2.073 1.061 3.073 2.061 1.001 1.001 1.692 2.025 2.073 3.074.378 1.044.468 2.051.272 3.019-.201.964-.675 1.82-1.423 2.567-.562.563-1.117.929-1.663 1.097-.542.165-1.041.221-1.495.169a7.127 7.127 0 0 1-1.139-.211l-.15.151 1.44 1.44-1.76 1.76Zm-2.862-6.394c.651.651 1.316 1.127 1.995 1.428.679.301 1.335.412 1.97.331.631-.084 1.205-.385 1.724-.904.538-.538.845-1.131.922-1.777.072-.651-.046-1.316-.356-1.995-.305-.683-.767-1.334-1.386-1.953-.611-.61-1.251-1.066-1.922-1.368-.667-.305-1.324-.416-1.971-.331-.643.08-1.235.392-1.778.934-.522.522-.829 1.099-.922 1.73-.088.626.016 1.273.314 1.94.297.667.767 1.322 1.41 1.965Zm14.643-5.157c-.33.329-.73.496-1.2.5a1.65 1.65 0 0 1-1.211-.5 1.616 1.616 0 0 1-.488-1.2c0-.474.165-.876.494-1.205a1.64 1.64 0 0 1 1.205-.494c.47-.004.87.159 1.2.488.221.221.367.48.44.777.072.29.072.579 0 .868a1.634 1.634 0 0 1-.44.766Zm7.941-8.171-12.342-12.342 4.52-4.52c.875-.876 1.745-1.456 2.609-1.742.86-.289 1.677-.331 2.453-.126.771.201 1.462.607 2.073 1.217.514.514.854 1.043 1.018 1.585a3.3 3.3 0 0 1 .085 1.603 4.731 4.731 0 0 1-.579 1.495l.121.12c.43-.389.962-.657 1.597-.801.635-.153 1.304-.135 2.007.054.703.189 1.374.603 2.012 1.241.631.631 1.049 1.346 1.254 2.146.205.791.147 1.641-.175 2.549-.325.904-.966 1.834-1.922 2.79l-4.731 4.731Zm.265-3.459 2.688-2.688c.892-.892 1.358-1.703 1.398-2.435a2.359 2.359 0 0 0-.717-1.874 2.87 2.87 0 0 0-1.368-.777 2.977 2.977 0 0 0-1.621.066c-.555.169-1.081.502-1.579 1l-2.754 2.755 3.953 3.953Zm-5.406-5.406 2.495-2.495c.418-.418.713-.874.886-1.368a2.79 2.79 0 0 0 .127-1.476c-.093-.494-.338-.94-.735-1.338-.511-.51-1.117-.759-1.82-.747-.704.012-1.425.387-2.164 1.127l-2.543 2.543 3.754 3.754Zm18.999-4.583c-.587.587-1.226 1.008-1.917 1.266a3.787 3.787 0 0 1-2.085.168c-.691-.144-1.34-.52-1.946-1.127-.523-.522-.852-1.052-.989-1.591a3.158 3.158 0 0 1 .012-1.615 6.02 6.02 0 0 1 .7-1.591c.321-.522.674-1.028 1.06-1.518l1.193-1.507c.302-.39.483-.711.543-.964.06-.253-.018-.488-.235-.705l-.042-.042c-.527-.527-1.083-.786-1.67-.778-.582.004-1.165.297-1.747.88-.607.607-.951 1.219-1.031 1.838-.08.611-.024 1.145.169 1.603l-2.079 1.308c-.362-.764-.523-1.511-.482-2.242.04-.739.235-1.44.584-2.103a7.433 7.433 0 0 1 1.356-1.838c.37-.37.806-.717 1.308-1.043a4.876 4.876 0 0 1 1.639-.699c.595-.137 1.221-.108 1.88.084.655.189 1.32.621 1.995 1.296l6.147 6.147-1.76 1.76-1.265-1.266-.073.073c.117.349.171.753.163 1.211-.008.458-.12.944-.337 1.458-.217.515-.581 1.027-1.091 1.537Zm-1.055-1.838c.498-.498.826-1.023.983-1.573.16-.554.174-1.083.042-1.585a2.835 2.835 0 0 0-.748-1.314l-1.193-1.193c0 .129-.064.313-.193.555a8.041 8.041 0 0 1-.482.759c-.197.269-.389.53-.578.783a74.4 74.4 0 0 0-.482.627 6.33 6.33 0 0 0-.736 1.181c-.18.39-.259.77-.235 1.139.024.362.197.703.519 1.025.446.446.948.618 1.506.518.555-.104 1.087-.412 1.597-.922Zm4.124-12.633 5.496 5.496-1.802 1.802-9.257-9.257 1.73-1.729 1.507 1.506.114-.114a3.75 3.75 0 0 1-.181-2.182c.161-.755.589-1.48 1.284-2.175.631-.631 1.316-1.051 2.055-1.26.735-.213 1.493-.191 2.272.067.779.257 1.551.767 2.314 1.53l5.888 5.888-1.802 1.802-5.671-5.671c-.671-.671-1.37-1.02-2.097-1.049-.731-.032-1.402.258-2.013.868-.418.418-.699.88-.844 1.386-.14.503-.13 1.023.031 1.561.16.531.486 1.041.976 1.531Zm17.483-6.129c-.748.747-1.605 1.223-2.574 1.428-.968.197-1.974.107-3.019-.271-1.044-.386-2.067-1.079-3.067-2.079-1.001-1-1.69-2.023-2.067-3.067-.374-1.049-.456-2.056-.248-3.02.209-.964.685-1.818 1.429-2.561.574-.575 1.133-.94 1.675-1.097.542-.165 1.037-.217 1.483-.157.45.057.825.127 1.127.211l.108-.108-4.586-4.586 1.802-1.802 12.342 12.342-1.76 1.76-1.44-1.44-.151.15c.089.306.157.687.205 1.145.052.454-.004.952-.169 1.495-.164.542-.528 1.095-1.09 1.657Zm-1.139-1.934c.518-.519.819-1.093.904-1.724.084-.639-.026-1.296-.332-1.971-.301-.679-.777-1.344-1.428-1.994-.643-.643-1.298-1.113-1.965-1.411-.667-.297-1.314-.401-1.94-.313-.627.088-1.204.396-1.73.922-.542.542-.854 1.135-.934 1.778-.08.643.03 1.3.331 1.97.306.667.764 1.306 1.375 1.917.618.619 1.267 1.083 1.946 1.392.679.309 1.344.428 1.995.356.651-.081 1.243-.388 1.778-.922Zm10.141-15.107-5.418-5.418 1.808-1.808 9.257 9.257-1.772 1.771-1.603-1.603-.097.097c.282.707.352 1.46.211 2.26-.14.791-.558 1.534-1.253 2.229-.595.595-1.252.991-1.971 1.188-.719.189-1.468.154-2.248-.103-.775-.261-1.545-.773-2.308-1.536l-5.888-5.888 1.802-1.802 5.671 5.671c.631.63 1.308.958 2.031.982.723.024 1.364-.243 1.922-.802a3.12 3.12 0 0 0 .754-1.259 3 3 0 0 0 .072-1.603c-.117-.567-.44-1.111-.97-1.633Zm4.373-7.689 5.497 5.497-1.802 1.801-9.257-9.256 1.73-1.73 1.506 1.507.115-.115a3.74 3.74 0 0 1-.181-2.181c.161-.756.589-1.481 1.284-2.176.63-.631 1.315-1.05 2.055-1.259.735-.213 1.492-.191 2.272.066.779.257 1.55.767 2.314 1.531l5.888 5.888-1.802 1.801-5.671-5.67c-.671-.671-1.37-1.021-2.097-1.049-.732-.032-1.403.257-2.013.868-.418.418-.699.88-.844 1.386a2.753 2.753 0 0 0 .03 1.561c.161.53.486 1.04.976 1.53Zm21.382-3.061c-.735.735-1.464 1.272-2.187 1.609-.719.333-1.404.508-2.055.524a4.544 4.544 0 0 1-1.79-.295l.91-2.188c.285.069.617.111.994.127.386.016.806-.062 1.26-.235.458-.177.936-.514 1.434-1.013.683-.683 1.081-1.414 1.193-2.193.117-.776-.186-1.525-.91-2.248l-1.82-1.82-.114.114c.088.306.15.681.187 1.127.04.442-.028.929-.205 1.459s-.549 1.079-1.115 1.645c-.731.731-1.561 1.219-2.489 1.464-.928.238-1.898.191-2.911-.138-1.012-.338-2.011-.998-2.995-1.983-.984-.984-1.661-1.995-2.031-3.031-.366-1.041-.442-2.041-.229-3.001.209-.965.685-1.818 1.428-2.562.575-.574 1.135-.942 1.682-1.102.542-.165 1.038-.219 1.488-.163.454.052.832.12 1.133.205l.133-.133-1.501-1.5 1.766-1.766 9.462 9.461c.795.796 1.263 1.634 1.404 2.513.14.88.018 1.758-.368 2.634-.382.872-.966 1.701-1.754 2.489Zm-5.315-5.279c.518-.519.836-1.077.952-1.676.117-.606.04-1.229-.229-1.868-.269-.647-.723-1.289-1.362-1.928-.623-.623-1.263-1.079-1.922-1.368-.659-.29-1.3-.388-1.923-.296-.626.089-1.203.396-1.729.922-.543.543-.854 1.135-.934 1.778-.085.639.02 1.29.313 1.953.297.659.741 1.283 1.332 1.874.607.607 1.231 1.047 1.874 1.32.643.273 1.274.357 1.892.253.623-.108 1.202-.43 1.736-.964Zm12.88-9.614-12.342-12.342 4.52-4.52c.876-.876 1.745-1.456 2.609-1.742.86-.289 1.678-.331 2.453-.126.771.201 1.462.606 2.073 1.217.514.514.854 1.043 1.019 1.585.16.538.188 1.073.084 1.603a4.731 4.731 0 0 1-.579 1.495l.121.12c.43-.39.962-.657 1.597-.801.635-.153 1.304-.135 2.007.054.703.189 1.374.603 2.013 1.241.63.631 1.048 1.346 1.253 2.146.205.791.147 1.641-.175 2.549-.325.904-.966 1.834-1.922 2.79l-4.731 4.731Zm.265-3.459 2.688-2.688c.892-.892 1.358-1.703 1.398-2.435a2.359 2.359 0 0 0-.717-1.874 2.87 2.87 0 0 0-1.368-.777 2.977 2.977 0 0 0-1.621.066c-.554.169-1.081.502-1.579 1l-2.754 2.754 3.953 3.954Zm-5.405-5.406 2.494-2.495c.418-.418.714-.874.886-1.368a2.79 2.79 0 0 0 .127-1.476c-.092-.495-.338-.941-.735-1.338-.511-.511-1.117-.76-1.82-.748-.703.012-1.425.388-2.164 1.127l-2.543 2.544 3.755 3.754Zm18.998-4.583c-.587.586-1.225 1.008-1.916 1.265a3.782 3.782 0 0 1-2.086.169c-.691-.144-1.339-.52-1.946-1.127-.522-.522-.852-1.052-.988-1.591a3.136 3.136 0 0 1 .012-1.615 5.97 5.97 0 0 1 .699-1.591c.321-.522.675-1.028 1.06-1.518l1.194-1.507c.301-.39.482-.711.542-.964.06-.253-.018-.488-.235-.705l-.042-.043c-.527-.526-1.083-.785-1.67-.777-.582.004-1.165.297-1.747.88-.607.606-.95 1.219-1.031 1.838-.08.611-.024 1.145.169 1.603l-2.079 1.308c-.362-.764-.523-1.511-.482-2.242.04-.739.235-1.44.584-2.103a7.433 7.433 0 0 1 1.356-1.838c.37-.37.806-.718 1.308-1.043a4.845 4.845 0 0 1 1.639-.699c.595-.137 1.222-.109 1.88.084.655.189 1.32.621 1.995 1.296l6.147 6.147-1.76 1.76-1.265-1.266-.072.072c.116.35.17.754.162 1.212-.008.458-.12.944-.337 1.458-.217.514-.581 1.027-1.091 1.537Zm-1.055-1.838c.499-.498.826-1.023.983-1.573.16-.555.174-1.083.042-1.585a2.842 2.842 0 0 0-.747-1.314l-1.194-1.193c0 .129-.064.313-.193.554a8.047 8.047 0 0 1-.482.76c-.196.269-.389.53-.578.783a74.4 74.4 0 0 0-.482.627 6.298 6.298 0 0 0-.736 1.181c-.18.39-.259.769-.235 1.139.025.362.197.703.519 1.025.446.446.948.618 1.506.518.555-.105 1.087-.412 1.597-.922Zm7.818-5.335-9.256-9.257 1.741-1.741 1.471 1.47.096-.096a3.165 3.165 0 0 1-.283-2.067c.14-.72.482-1.35 1.024-1.893a11.002 11.002 0 0 1 .808-.723l1.723 1.724a4.512 4.512 0 0 0-.452.319 5.307 5.307 0 0 0-.596.512c-.426.426-.715.896-.868 1.41a2.843 2.843 0 0 0-.042 1.525c.12.506.382.96.783 1.362l5.653 5.653-1.802 1.802Zm9.329-8.919c-.586.586-1.225 1.008-1.916 1.265-.695.253-1.39.31-2.085.169-.691-.145-1.34-.52-1.947-1.127-.522-.522-.852-1.053-.988-1.591a3.136 3.136 0 0 1 .012-1.615 5.97 5.97 0 0 1 .699-1.591c.321-.522.675-1.029 1.061-1.519l1.193-1.506c.301-.39.482-.711.542-.965.06-.253-.018-.488-.235-.705l-.042-.042c-.526-.526-1.083-.785-1.669-.777-.583.004-1.166.297-1.748.88-.607.606-.95 1.219-1.031 1.838-.08.61-.024 1.145.169 1.603l-2.079 1.307c-.362-.763-.522-1.51-.482-2.241.04-.74.235-1.441.584-2.104a7.452 7.452 0 0 1 1.356-1.838c.37-.369.806-.717 1.308-1.042a4.845 4.845 0 0 1 1.639-.699c.595-.137 1.222-.109 1.881.084.654.189 1.319.621 1.994 1.296l6.147 6.147-1.759 1.759-1.266-1.265-.072.072c.116.35.171.754.162 1.212-.008.458-.12.944-.337 1.458-.217.514-.581 1.026-1.091 1.537Zm-1.054-1.838c.498-.499.825-1.023.982-1.573.161-.555.175-1.083.042-1.585a2.842 2.842 0 0 0-.747-1.314l-1.193-1.193c0 .128-.065.313-.193.554-.129.233-.29.486-.482.76-.197.269-.39.53-.579.783a74.4 74.4 0 0 0-.482.627 6.31 6.31 0 0 0-.735 1.181c-.181.39-.259.769-.235 1.139.024.362.197.703.518 1.024.446.446.948.619 1.507.519.554-.105 1.086-.412 1.597-.922Zm2.882-18.913 1.446 1.446-5.056 5.057-1.446-1.447 5.056-5.056Zm-5.918 1.483 1.802-1.802 8.756 8.756c.35.35.665.561.946.633.278.068.531.052.76-.048.229-.109.442-.261.638-.458a2.99 2.99 0 0 0 .35-.41l.205-.301 1.814 1.163a4.27 4.27 0 0 1-.326.566 4.992 4.992 0 0 1-.65.796 4.5 4.5 0 0 1-1.579 1.072 3.213 3.213 0 0 1-1.814.175c-.623-.116-1.214-.454-1.772-1.012l-9.13-9.13Z"/>
</svg>
