<svg xmlns="http://www.w3.org/2000/svg" width="835" height="534" fill="none" viewBox="0 0 835 534">
  <path fill="#C8B7B7" stroke="#000" d="M121.851 191.901h13.076v7.4c0 1.542 3.923 4.933 5.231 7.092 1.308 2.158 3.051 6.475 4.795 6.167 1.743-.308 4.358-.308 5.23-.925.872-.617 3.487-1.85 5.667 0 2.179 1.85 5.23 3.083 6.974 2.467 1.743-.617 6.102-5.242 8.282-5.242 2.179 0 3.923 5.55 5.666 5.242 1.395-.247 11.624-7.504 16.564-11.101 2.761-.925 8.456-2.96 9.154-3.7.871-.925 2.179-3.7 2.615-7.4.436-3.701 2.179-4.317 3.051-5.243.872-.925.436-3.083.872-5.55.436-2.467 4.359 0 5.666 1.234 1.308 1.233-.871 4.933-1.307 7.092-.436 2.158-1.308 4.317-.872 4.933.349.494 4.213 1.645 6.102 2.159.291.822 1.134 2.528 2.18 2.775 1.307.308 21.794 7.092 29.204 10.484 5.928 2.713 16.709 9.353 21.358 12.334.872 1.747 2.616 5.365 2.616 5.858 0 .617 2.179 6.784 3.051 8.018.872 1.233 12.641 6.475 14.82 6.783 2.179.309.872 2.775-.872 5.859-1.743 3.083-9.153 6.475-10.461 6.475-1.308 0-6.538.925-7.846 1.542-1.308.617-8.282 2.775-14.82 3.7-6.538.925-14.82-3.392-17.435-3.7-2.616-.308-5.667.925-6.975 1.542-1.307.616-6.538.925-8.281 1.233-1.395.247-9.881 14.082-13.949 20.968-1.743.72-5.579 2.282-6.974 2.775-1.743.617-7.41 3.392-16.999 3.084-9.59-.309-11.769-2.775-12.641-2.159-.872.617-11.333-2.158-13.077-2.467-1.743-.308-7.41-1.541-11.333-3.391-3.923-1.851-5.666-3.392-6.102-4.626-.436-1.233-2.615-1.85-3.487-2.466-.872-.617-2.18 0-2.616.616-.348.494-3.632.617-5.23.617l-3.051 1.233c-2.035.411-6.626 1.234-8.718 1.234-2.615 0-4.795.925-6.103 2.467-1.307 1.541-10.461 1.541-10.897.925-.348-.494-2.76-.823-3.923-.925-2.179-.103-6.712-.432-7.41-.926-.871-.616-1.743-5.858-2.615-6.167-.872-.308-4.795 3.392-5.23 4.626-.436 1.233-4.795 3.083-6.539 3.392-1.743.308-2.615 1.233-2.615 2.466 0 .987-3.197 1.645-4.795 1.85-.29.206-1.57-.123-4.359-3.083-3.487-3.7-16.127-11.101-18.743-11.409-2.615-.308-2.18-6.167-3.487-10.176-1.308-4.008-1.743-12.334 0-15.725 1.744-3.392-3.487-5.551-5.666-7.401-2.18-1.85-.436-15.417-2.18-18.501-1.743-3.083 1.744-3.083 4.36-3.392 2.614-.308 8.281-.925 9.589-1.541 1.307-.617 4.794-4.934 3.05-5.859-1.743-.925-6.102-10.176-7.845-12.334-1.744-2.159 4.794-5.859 7.846-7.092 3.05-1.234 3.487-2.159 6.102-3.7 2.615-1.542 3.487 1.541 4.795 4.933 1.307 3.392 4.794 3.084 7.41 4.626 2.615 1.541.436-3.701 3.05-4.626 2.616-.925 6.103-.308 10.898 0 4.795.309 5.667 4.626 8.718 5.859 3.051 1.233 18.743.308 20.486 0 1.744-.308 3.052-1.233 6.975-1.233Z"/>
  <path fill="#2AD4FF" stroke="#000" d="M185.055 193.44c1.744.987 5.086-.411 6.539-1.233-1.744 5.55 1.308 8.942 1.743 10.175.436 1.234-5.666 4.934-8.282 6.476-2.615 1.541-8.717 7.092-9.589 5.55-.872-1.542-2.616-4.625-4.359-5.55-1.743-.925-6.538 4.008-8.282 5.55-1.743 1.542-4.359-.925-7.41-3.084-3.051-2.158-3.923.309-4.794 0-.872-.308-3.923.617-6.103 1.542-2.179.925-2.615-3.083-3.923-5.55-1.307-2.467-6.102-6.784-6.102-8.634 0-1.85.435-5.242 0-6.475-.436-1.234 6.974 0 9.153-1.234 2.18-1.233 3.923-2.158 4.359-3.083.436-.925 5.667-4.009 8.718-4.626 3.051-.616 4.359 2.467 4.359 3.392 0 .925-1.308 3.392-2.616 4.317-1.307.925 1.744 1.234 5.231 1.234s5.666-1.851 9.153-2.159c3.488-.308 10.026 2.159 12.205 3.392Z"/>
  <path fill="#FCA" stroke="#000" d="M209.894 160.449c.698-.74 1.744-6.681 2.18-9.559 0 .309 1.743 0 2.615-.308.872-.309 3.923-1.85 5.231-2.159 1.307-.308 2.615.925 3.923 1.85 1.307.925 8.718 7.709 9.153 8.943.436 1.233-.435 2.775-.435 3.083 0 .308-.872 5.242-.436 6.167.436.925-2.18.925-2.616 1.542-.436.617-.436 1.542.436 2.158.872.617 2.18 2.467 3.051 4.934.872 2.467-2.615 8.942-3.051 10.175-.436 1.234-9.589 6.167-10.461 6.476-.697.246-1.162 2.158-1.308 3.083-1.598-.514-4.969-1.665-5.666-2.158-.872-.617.872-3.7.872-5.242 0-1.542 1.743-4.009 1.743-6.167 0-2.159-3.487-2.775-5.231-2.467-1.743.308-.871 4.009-1.307 5.242-.436 1.233-1.744 1.85-2.616 3.392-.871 1.542-1.743 7.092-2.179 8.634-.436 1.541-6.539 4.008-9.154 4.625s-3.487-7.709-3.051-9.867c.436-2.159 3.923-11.101 3.051-13.259-.871-2.159-2.615-2.467-1.307-3.701 1.307-1.233.436-1.85 1.307-3.391.872-1.542 5.231-1.542 6.975-1.542 1.743 0 .871-2.467.871-4.317s6.539-5.242 7.41-6.167Z"/>
  <path fill="#FFE680" stroke="#000" d="M281.829 254.806c2.092-.247 7.265-4.214 9.59-6.167 1.598 0 5.23.246 6.974 1.233 2.179 1.233 10.025 7.4 10.897 7.4.871 0-2.616 3.392-3.923 4.626-1.308 1.233-1.308 2.775-1.308 3.7 0 .74 12.495 5.242 18.743 7.4.872.206 2.79.864 3.487 1.85.872 1.234.872 1.851 0 3.392-.872 1.542-5.23 1.542-6.102 1.234-.872-.309-1.744-3.084-1.744-3.701 0-.616-3.923 1.542-3.923 2.467s-.871 4.317-.871 5.551c0 1.233 4.794 3.083 5.666 3.7.872.617.872 2.158 0 2.775s0 2.467.872 3.7c.872 1.234 0 2.159.872 5.242.871 3.084 3.487 3.392 5.23 3.7 1.744.309 1.744 1.234 0 4.009-1.743 2.775-22.23 9.867-23.102 11.1-.871 1.234-6.974.926-8.717 1.234-1.744.308-4.359 1.233-4.359 2.158 0 .925-5.231 2.775-5.667 3.392-.436.617-3.051 4.317-4.359 6.784-1.307 2.467 3.487 5.242 3.487 6.167 0 .925-3.051 4.625-5.23 6.475-1.744 1.48 2.76 2.262 5.23 2.467 3.633-.617 11.508-1.727 13.949-1.233 3.051.616 6.538 4.317 7.846 5.55 1.046.987 7.119.822 10.025.617 1.598 1.336 4.795 4.07 4.795 4.317 0 .308-2.615 6.783-3.051 7.4-.436.617-2.18.617-3.487.617-1.308 0-8.718 9.867-10.462 10.792-1.743.925-1.307 2.775-1.307 3.7 0 .925 17.435.925 18.307 1.234.872.308 2.615-1.542 4.359-1.234 1.743.308 5.666 2.775 6.538 4.317.872 1.542 4.359 3.7 5.231 4.009.871.308 10.025 2.466 10.897 2.466.872 0 1.743.309 4.359.925 2.092.494 11.333.617 15.691.617-.871 2.467-2.615 8.017-2.615 10.484 0 3.084 5.231 7.709 5.667 8.634.436.925-2.18 8.942-2.616 10.484-.348 1.233-2.179 2.364-3.051 2.775-1.743.411-5.928 1.48-8.718 2.467-3.487 1.233-2.615 4.625-4.358 7.4-1.395 2.22-1.163 8.942-.872 12.026-6.103-1.234-19.266-3.885-23.102-4.625-4.795-.925-29.204-.617-37.05-.925-7.846-.309-19.179-3.084-23.102-4.317-3.923-1.234-16.128-3.084-23.974-3.084s-26.589-1.542-34.871-2.467c-6.626-.74-36.179-1.13-50.127-1.233-.145-.308-.348-1.234 0-2.467.349-1.233-2.179-1.336-3.487-1.233-1.598-.823-4.359-2.837-2.615-4.317 2.179-1.85 9.589-3.7 13.948-6.784 4.359-3.083 8.282-2.158 10.025-1.85 1.744.308 2.18-1.233 6.974-1.85 4.795-.617 3.052-2.467 6.539-3.7 3.487-1.234 15.692-2.159 18.743-4.317 3.051-2.159 0-4.625 3.051-6.784 3.051-2.158-4.795-2.158-6.102-3.083-1.308-.925 6.538-4.934 8.718-7.092 2.179-2.159-4.795-14.493-5.667-18.193-.872-3.7-4.359-2.775-6.538-4.934-2.18-2.158-.436-3.083 0-7.4.349-3.454 1.598-6.167 2.179-7.092 1.599-3.084 5.841-9.374 10.026-9.867 5.23-.617 13.076 4.316 16.127 4.933 3.052.617 5.667-.925 7.846-2.775 2.18-1.85-3.923-5.242-6.102-7.092-2.179-1.85-2.179-4.625 0-6.784 2.179-2.158 6.974 1.542 8.282 2.159 1.307.616 1.743-1.542 0-3.701-1.744-2.158-4.359-4.008-4.359-6.167 0-2.158-1.744-4.625-3.923-6.167-2.179-1.541-1.308-4.316 0-6.475 1.308-2.158-5.667-2.467-9.59-5.242-3.922-2.775-10.461-17.576-11.332-19.426-.872-1.85 10.897-19.118 12.64-20.968 1.744-1.85 6.974 0 11.333-2.467 4.359-2.466 16.564 2.159 20.923 2.467 4.359.309 10.897-.308 14.384-2.467 3.487-2.158 8.718-2.158 11.333-2.466Z"/>
  <path fill="#87DECD" stroke="#000" d="M549.901 256.655c-1.743-.494-2.47-2.673-2.615-3.701.727-.719 2.354-2.281 3.051-2.775.872-.616 4.795-2.467 5.667-2.775.872-.308.436-2.467 0-5.242s1.308-2.775 2.179-3.083c.872-.309 7.846-.309 8.282-.617.436-.308 5.231-.617 6.103-.617.871 0 2.179-.616 2.615-.616.436 0 1.307 1.233 1.743 1.541.436.309.872 4.009 1.308 4.934.436.925 2.615 1.542 3.051 1.542.436 0 2.616.308 3.487.616.872.309 3.487.617 4.795.309 1.046-.247 1.598-.925 1.744-1.234l1.743-2.775c1.162-1.028 3.574-3.207 3.923-3.7.436-.617 2.18-.617 4.359 0s6.538.617 10.461.925c3.923.308 4.359 1.542 5.667 2.775 1.307 1.234.436 3.7.436 5.242 0 1.542.871 1.233 1.307 1.233.436 0 3.487-.925 4.359-.925.872 0 5.231.617 6.103.617.871 0 1.743.925 2.179 1.542.436.617 1.308 2.158 1.743 2.467.349.246 1.018 2.158 1.308 3.083.291.925 1.046 3.084 1.744 4.317.871 1.542 3.923 2.159 5.23 2.467 1.308.308 3.923 1.85 4.359 2.158.436.309-.436 4.009-.436 4.934 0 .925 3.051 3.083 3.487 3.392.436.308-.436 1.542-1.307 2.775-.872 1.233 0 3.392.436 3.7.348.247 4.213 2.364 6.102 3.392 1.162.617 3.574 1.912 3.923 2.158.436.309-.436 1.542-.872 1.851-.349.246.436.719.872.925l-.872.616c-.436.309-.872.309-1.743 1.234-.872.925-1.308 3.7 0 5.242 1.307 1.541 2.615 5.55 2.615 5.858 0 .309.872 12.643.872 13.259 0 .617-2.616 6.784-3.487 8.326-.872 1.542-2.616 9.559-3.052 11.409-.435 1.85 0 3.392 0 4.008 0 .617 2.18 5.551 2.18 5.859 0 .308-.436 1.85-.872 2.158-.349.247-1.308 1.953-1.743 2.776h-1.744c-.436 0-6.538-2.776-7.846-3.084-1.308-.308-3.487 3.084-3.923 3.392-.436.308-2.179 0-4.359-.617-2.179-.616-6.974-1.85-7.846-1.85-.871 0-4.794.925-5.666 1.234-.872.308-10.026.616-10.461.308-.436-.308-5.667-1.85-7.411-2.159-1.743-.308-8.281 0-10.897.309-2.092.246-3.196.719-3.487.925-1.598.411-5.056 1.357-6.102 1.85-1.308.617-3.051.308-3.923 0-.698-.247-4.359-3.392-6.102-4.934 2.179-1.336 6.974-4.317 8.717-5.55 2.18-1.542 2.616-7.092 3.051-8.942.436-1.85 13.077-8.326 14.821-9.867 1.743-1.542.435-5.859.435-6.784 0-.925-3.923-.617-5.23-1.85-1.308-1.234.872-1.542.872-3.7 0-2.159-12.205-10.484-13.513-11.409-1.308-.925 1.308-5.859 2.18-7.092.871-1.234-2.18-4.009-2.616-4.934-.436-.925-.436-2.467.436-3.392.872-.925 1.744-3.083.872-4.317-.872-1.233-1.744-3.083-3.051-4.933-1.308-1.85-5.231-1.85-6.974-2.467-1.744-.617-5.231-2.467-5.231-3.7 0-1.234-3.051-4.317-3.923-4.626-.872-.308-5.231.309-6.974-.616-1.744-.925-4.359-2.159-6.539-2.775Z"/>
  <path fill="#5FBCD3" stroke="#000" d="M571.694 343.609c1.395.493 3.487 2.261 4.359 3.084-1.308-.309-2.179 3.391-2.615 3.7-.436.308-2.18 6.783-2.615 7.708-.436.926-3.923.617-6.103.617-2.179 0-7.41 1.85-8.718 2.775-1.307.925 1.308 5.551 2.18 5.859.697.247 1.162 1.747 1.308 2.467-2.035 1.85-6.19 5.612-6.539 5.858-.436.309-1.307 3.084-.871 3.392.348.247-2.471 3.392-3.923 4.934-2.906.617-8.98 1.912-10.026 2.158-1.307.309-10.025 3.701-10.897 4.009-.697.247-7.846 3.186-11.333 4.625-2.615.514-8.02 1.604-8.718 1.85-.871.309 4.359 4.625 4.795 4.934.436.308 1.308 1.85 1.308 2.467 0 .616-3.052 4.008-3.487 4.317-.436.308-10.026 5.858-10.462 6.167-.348.246 4.795 1.747 7.41 2.466 1.308.514 4.098 1.665 4.795 2.159.872.617 1.744 4.625 2.18 5.55.435.925 2.615 12.026 2.615 12.334 0 .308-1.744 7.092-2.18 7.401-.435.308-3.487 11.408-3.487 11.717 0 .308.872 1.85.872 2.158 0 .309-1.743 2.159-2.615 2.467-.872.308-2.18 1.85-3.051 4.009-.872 2.158.871 9.25 1.307 9.867.436.617.872 3.083 0 4.008-.871.925-.436 3.084-.436 3.392 0 .309 3.052 4.317 3.052 4.934s-3.487 3.7-4.359 4.317c-.698.493-.581 2.467-.436 3.392h-10.025c-1.308 0-7.411 2.158-10.026 1.85-2.615-.309-6.974-4.934-7.41-7.092-.436-2.159-6.102-7.092-7.846-8.017-1.743-.925-21.358 0-22.666 0-1.308 0-3.487-.925-5.231-.925-1.743 0-7.845 1.233-9.589.925-1.744-.309-.872-7.401-.872-8.943 0-1.541-5.666-5.242-8.718-6.783-3.051-1.542-15.691-6.167-17.435-7.401-1.743-1.233-7.846-1.541-13.077-1.85-5.23-.308-16.127-5.242-17.435-5.55-1.308-.308-9.154-4.009-11.333-5.242-2.179-1.233-5.666-.617-6.974-.617-1.308 0-5.666.309-6.538-.616-.872-.926 1.743-13.876 3.487-16.651 1.744-2.776 6.538-3.701 9.154-4.009 2.615-.308 4.794-2.467 4.794-3.7 0-1.234 2.18-7.709 2.616-9.559.436-1.85-3.488-4.317-5.231-7.4-1.744-3.084 1.743-11.409 2.615-12.334.872-.925 6.538-.925 7.846-.925 1.308 0 3.923 0 5.666-1.234 1.744-1.233 3.487.925 5.231 1.234 1.744.308 5.231.308 7.41.925 2.18.616 7.41 2.775 8.282 3.391.872.617 4.359 2.776 6.102 3.392 1.744.617 3.923 5.551 4.795 5.551.872 0 13.513-6.476 14.82-7.092 1.308-.617 3.487 1.541 4.359 1.541.872 0 5.231.617 7.41 1.234 2.18.616 5.231.308 6.102-.617.872-.925 5.667-5.242 6.103-6.475.349-.987-2.47-1.234-3.923-1.234-1.163-1.028-3.749-3.392-4.795-4.625-1.308-1.542 3.487-3.392 3.923-4.009.436-.616 4.794-7.092 5.666-9.25.872-2.159 17.872-5.242 19.615-6.475 1.744-1.234 3.051-8.943 3.487-10.793.436-1.85 4.795-1.85 5.667-3.083.871-1.234 2.179-2.775 4.359-4.934 2.179-2.158 25.717-2.467 26.589-3.083.871-.617-1.744-2.159-3.487-3.084-1.744-.925-2.18-1.85-2.18-3.083 0-1.234-1.743-4.009-3.051-4.934-1.308-.925 0-3.392 1.308-4.625 1.307-1.233 2.179-4.625 3.051-5.242.872-.617 10.897.617 13.948 1.233 3.051.617 4.795 2.775 4.795 4.009 0 1.233 4.795 2.467 6.102 3.392 1.308.925 4.795-1.542 6.539-1.542 1.743 0 8.717 1.542 10.897 1.85 2.179.308 4.795-1.85 6.102-1.85 1.308 0 .436.925 1.308 1.542.872.616 4.359 4.317 5.666 4.933 1.308.617 6.975 6.167 8.718 6.784Z"/>
  <path fill="#F0F" stroke="#000" d="M708.565 273.614c.697.741 3.196 2.159 4.359 2.776.436.235-2.616.616-3.487.616-.872 0-1.744 1.542-2.18 2.159-.436.616-2.179 2.158-3.051 2.467-.872.308-1.744 3.7-2.615 4.625-.872.925-4.795.925-5.667.616-.872-.308-1.308-2.775-1.308-5.241 0-2.467.872-4.317 1.308-5.242.436-.925 7.41-4.317 8.282-4.626.872-.308 1.308-1.233 1.743-1.85.436-.616 1.744 2.775 2.616 3.7Z"/>
  <path fill="#FFD5D5" stroke="#000" d="M139.291 428.408h18.998c.34 0 .617-.276.617-.617v-.967a1.806 1.806 0 0 0-1.808-1.808h-.808c-.872 0-1.307-.308-1.743-.616-.542-.384-.766-1.159-1.308-1.542-.436-.309 0-1.542 0-2.159 0-.551.689-.753 1.182-1.001.627-.314 1.395-.681 1.869-.849a49.304 49.304 0 0 1 2.074-.643c.649-.19 1.28-.439 1.881-.75l5.635-2.924 1.743-.925 1.308-.925c1.062-.751 2.418-.925 3.719-.925h6.715a2.26 2.26 0 0 0 1.553-.617c.42-.396.975-.616 1.552-.616h.845c.872 0 2.615-.309 3.051-.617.436-.308 1.744-1.233 2.18-1.85.131-.186.35-.378.594-.556.717-.522 1.592-.752 2.462-.925 1.125-.224 2.368-.506 2.61-.678.436-.308 3.487-.308 4.359-.308.698 0 2.325-.205 3.051-.308l4.87-1.231a4.353 4.353 0 0 0 2.104-1.236l.411-.387c.573-.54.897-1.293.897-2.08v-2.282c0-.503.244-.974.654-1.264.41-.29.654-.761.654-1.263v-1.111a1.48 1.48 0 0 0-1.48-1.48h-2.705a.61.61 0 0 1-.352-1.107l.614-.435 1.743-1.233c.727-.412 2.18-1.357 2.18-1.85 0-.263.412-.479.907-.64.793-.256 1.545-.671 2.025-1.351.361-.511.555-1.12.555-1.745v-2.247c0-.503-.244-.974-.654-1.264a1.547 1.547 0 0 1-.654-1.263v-.124a6.887 6.887 0 0 0-.657-2.937l-.215-.455-1.307-2.775-1.021-2.408a3.612 3.612 0 0 1-.287-1.41c0-.532-.117-1.057-.344-1.538l-.528-1.12-.464-.985c-.553-1.173-1.364-2.282-2.587-2.715a5.878 5.878 0 0 0-1.743-.308h-1.382a1.234 1.234 0 0 1-1.234-1.234v-.2c0-.465.178-.913.498-1.252.244-.26.407-.585.469-.935l.242-1.37a4.79 4.79 0 0 0 .08-1.127c-.04-.666-.154-1.528-.417-1.899a3.809 3.809 0 0 1-.204-.319c-.215-.376-.305-.815-.45-1.223a3.82 3.82 0 0 1-.218-1.271v-.128a3.262 3.262 0 0 1 1.376-2.658l.234-.165c.377-.267.706-.596.973-.973l.904-1.28 1.442-2.04c.2-.283.35-.598.444-.931a3.051 3.051 0 0 1 1.175-1.661l.186-.132a3.694 3.694 0 0 0 1.084-1.199l.158-.28c.203-.359.449-.693.733-.994l1.054-1.118a3.836 3.836 0 0 1 2.789-1.204h.493c.88 0 1.746.215 2.523.628l.56.297 2.18 1.233 1.307.617 2.615.925 2.18.925.125.044a9.998 9.998 0 0 0 3.335.573h6.246c.474 0 .918-.23 1.191-.617l.694-.736a2.57 2.57 0 0 1 .39-.339l.409-.29a1.626 1.626 0 0 0 .177-2.508l-.798-.752-1.744-1.85-2.179-2.467-1.967-2.505a3.052 3.052 0 0 1-.359-.581l-.027-.057a2.753 2.753 0 0 1-.262-1.174v-.063a2.467 2.467 0 0 1 .776-1.8l.967-.912.037-.026a3.211 3.211 0 0 1 3.23-.284l.288.136c.245.116.479.252.7.409l.139.098c.267.189.514.403.737.641l.415.439c.08.085.146.182.196.288.213.452.702.705 1.194.618l.383-.068a1.61 1.61 0 0 0 .894-.482l.27-.287a.86.86 0 0 0 .077-1.089l-.714-1.01-2.179-2.467-.642-.907a2.294 2.294 0 0 0-.556-.556 2.326 2.326 0 0 1-.982-1.898v-2.27a3.86 3.86 0 0 0-1.212-2.809l-.184-.174a4.784 4.784 0 0 1-.623-.718l-.056-.079a5.46 5.46 0 0 0-1.304-1.305l-.722-.51a2.686 2.686 0 0 1-.977-1.292l-.022-.062a2.304 2.304 0 0 1 .413-2.245l.22-.26c.352-.413.544-.944.544-1.486 0-.255.044-.511.129-.751l.099-.283a1.512 1.512 0 0 0-.554-1.743l-.465-.329a3.682 3.682 0 0 0-1.125-.538l-1.137-.321a3.232 3.232 0 0 0-.885-.123 3.258 3.258 0 0 1-1.602-.422l-.813-.46a6.81 6.81 0 0 1-1.155-.824l-1.21-1.069-1.386-1.471a10.011 10.011 0 0 1-1.929-2.954l-.607-1.434-.872-2.158-1.744-3.084-2.179-3.392-.872-1.233-1.128-2.129a2.319 2.319 0 0 0-2.821-1.1l-.41.145-2.615.925-2.615 1.234-1.947.688a8.242 8.242 0 0 0-1.287.586 8.094 8.094 0 0 1-3.35 1.025l-6.057.476h-6.278a8.185 8.185 0 0 1-2.222-.308 8.147 8.147 0 0 0-2.222-.309h-1.477a8.528 8.528 0 0 1-1.739-.167c-.603-.126-1.309-.292-1.754-.45-.872-.308-1.744-.616-2.615-.616h-1.308c-.577 0-1.15-.099-1.694-.291l-.705-.25a6.739 6.739 0 0 0-2.242-.384c-.392 0-.784-.032-1.168-.114-.606-.13-1.345-.322-1.601-.503-.436-.308-1.308-.617-2.179-.617-.061 0-.121-.004-.178-.013-.909-.14-1.717-.912-2.636-.912a2.33 2.33 0 0 1-.471-.047l-2.818-.569-4.04-1.04a4.208 4.208 0 0 1-1.39-.644c-.444-.313-.948-.53-1.459-.714-.455-.164-.984-.397-1.393-.686l-1.743-1.233c-.436-.309-1.308-.925-1.308-1.542s-.872-.617-2.179-2.159c-.481-.566-.918-.807-1.279-.873-.55-.1-1.241.016-1.697-.307a1.126 1.126 0 0 0-1.088-.117l-1.02.433a3.1 3.1 0 0 1-1.216.248h-.076c-.396 0-.789.067-1.163.199l-.356.126a5.078 5.078 0 0 1-1.696.291c-.857 0-1.7.217-2.451.63l-1.043.574a9.709 9.709 0 0 1-3.707 1.154l-6.309.638a9.91 9.91 0 0 0-1.717.327l-1.335.378-3.052 1.233-.339.12c-.931.329-1.906.519-2.893.563l-5.097.225a4.253 4.253 0 0 1-.773-.037l-1.455-.206a.796.796 0 0 1-.538-.329.795.795 0 0 0-.65-.336h-7.493a2.559 2.559 0 0 1-1.476-.469l-.497-.352a1.38 1.38 0 0 1-.583-1.126c0-.14-.021-.279-.063-.413l-.719-2.287c-.06-.19-.09-.388-.09-.587v-.173c0-.652-.376-1.246-.966-1.524l-.067-.031a1.356 1.356 0 0 0-1.545.275l-4.787 4.869a10.006 10.006 0 0 1-4.229 2.558l-.61.185-2.465.581a1.894 1.894 0 0 0-1.459 1.843 1.893 1.893 0 0 1-1.893 1.893H70.18c-.625 0-1.168.43-1.312 1.039a1.347 1.347 0 0 1-1.002 1.002l-.496.117-12.743 4.789a10 10 0 0 0-2.257 1.197l-1.352.956a10.004 10.004 0 0 0-2.55 2.626l-1.291 1.939a6.966 6.966 0 0 0-1.166 3.857 6.96 6.96 0 0 1-1.277 4.019l-.257.364a8.363 8.363 0 0 1-2.711 2.452l-1.497.847a10.02 10.02 0 0 0-2.222 1.709l-.08.082a9.997 9.997 0 0 0-2.853 6.994v1.056a7.132 7.132 0 0 1-1.308 4.116l-.534.756a4.215 4.215 0 0 0-.773 2.433v.066a4.022 4.022 0 0 0 5.361 3.79l6.843-2.42 6.724-2.141a10.009 10.009 0 0 1 4.076-.416l9.687 1.015 9.347 1.322a4.727 4.727 0 0 1 3.991 3.857l.983 5.563a9.998 9.998 0 0 1-.575 5.485l-.318.787a9.984 9.984 0 0 1-.859 1.66l-2.642 4.113a9.999 9.999 0 0 1-3.104 3.068l-13.361 8.372-4.204 2.181a4.327 4.327 0 0 0-2.24 4.738l1.134 5.348c.052.249.14.489.259.714l.026.049a2.676 2.676 0 0 1-2.364 3.929H36.837a8.098 8.098 0 0 0-8.045 7.187l-1.299 11.48a10 10 0 0 0 .335 3.918l.972 3.338a9.999 9.999 0 0 0 6.727 6.783l9.176 2.754 18.353 5.801a9.992 9.992 0 0 1 3.776 2.194l1.15 1.063a10 10 0 0 0 6.79 2.66h.534c.52 0 1.04.04 1.553.121l2.24.352a9.944 9.944 0 0 1 1.781.451l2.435.862c.7.247 1.426.416 2.164.503l8.313.98c.69.082 1.387.091 2.08.028l10.938-.999a10.018 10.018 0 0 1 3.036.187l3.112.678a10.01 10.01 0 0 0 2.127.229h11.101c.886 0 1.769.118 2.625.35l3.58.974a9.896 9.896 0 0 0 1.62.3l5.28.534Z"/>
  <path fill="#71C837" stroke="#000" d="M186.344 316.103c.198-.341.408-.712.575-1.029.232-.439.641-.867 1.109-1.032.061-.022.123-.038.187-.05l1.648-.291 4.795-.308h3.487l1.137.161c.69.097 1.357.314 1.972.64l.098.052c.475.252.914.567 1.305.936l.719.677.871.925c.284.402.436.881.436 1.372v1.861a1.497 1.497 0 0 0 1.156 1.46l.351.082c.444.105.904.118 1.353.039l.387-.069a4.314 4.314 0 0 1 1.356-.023l1.072.152a1.233 1.233 0 0 1 .942 1.744l-.213.452a1.964 1.964 0 0 1-.94.94l-.669.316-.43.202a1.532 1.532 0 0 0-.878 1.385c0 .174-.029.347-.087.511l-.202.569c-.097.275-.25.526-.449.738l-.386.409a.672.672 0 0 0-.183.462.631.631 0 0 1-.292.541c-.325.2-.758.425-1.016.425h-1.843a4.868 4.868 0 0 1-2.276-.566 4.862 4.862 0 0 0-1.43-.493l-.471-.083a5.997 5.997 0 0 0-1.045-.092h-6.447l-4.338-.279a6.198 6.198 0 0 0-.914.011l-2.601.23a6.103 6.103 0 0 0-.849.137l-1.583.374a5.982 5.982 0 0 0-1.182.413l-.013.006a5.97 5.97 0 0 1-1.515.481l-.582.104a4.38 4.38 0 0 1-.749.065h-.429c-.61 0-1.199-.308-1.809-.308-.349 0-.436-.617-.436-.925v-.048c0-.575.149-1.14.432-1.641a3.5 3.5 0 0 1 1.203-1.242c.905-.566 2.023-1.32 2.288-1.694.255-.361 1.148-.634 1.893-.795a8.502 8.502 0 0 0 1.403-.406l2.067-.835c.202-.082.393-.186.571-.312.396-.28.723-.655.893-1.11.083-.223.147-.435.147-.551v-3.216c0-.518.144-1.026.404-1.474Z"/>
  <path fill="#93AC9D" stroke="#000" d="M779.613 336.21c.348-1.48-5.958-4.933-9.154-6.475-.436-.213-7.41 3.7-8.718 4.008-1.307.309-2.615 0-3.923-.925-1.307-.925.872-2.775 1.308-3.083.436-.308.872-2.159.872-3.084 0-.925-12.641-8.017-13.949-8.633-1.307-.617-1.307 1.233-2.179 1.85-.872.616-6.538 0-7.41-.309-.872-.308.872-2.158 1.307-3.392.436-1.233-1.743-2.775-2.615-3.391-.872-.617-7.846-.617-8.718-.617-.871 0-7.845 0-7.845-.308 0-.309-5.667-.309-6.539-.617-.872-.308-3.051-6.167-3.923-7.709-.872-1.542-3.923-1.85-5.666-2.158-1.744-.309-10.026-2.467-10.462-3.084-.435-.617-.871-4.625-.871-6.784 0-2.158-10.897-4.933-11.769-4.933-.872 0-6.103-.617-8.718-1.234-2.615-.616-6.102.309-7.846 1.234-1.743.925-3.923.925-5.666 1.233-1.744.309-2.18 2.775-2.616 4.009-.436 1.233 3.052 4.933 3.487 8.017.436 3.083.872 11.717.872 13.567 0 1.85-3.923 9.868-4.358 11.101-.436 1.233-2.616 10.792-2.18 12.334.436 1.542 1.744 4.934 2.18 6.475.435 1.542-2.18 4.009-2.18 4.626 0 .616 4.359 3.083 5.667 3.391 1.307.309 6.974 5.242 7.846 6.784.871 1.542 7.41 2.159 10.461 2.467 3.051.308 10.897 2.775 12.205 3.392 1.307.617 4.359 4.008 4.359 5.858 0 1.851 4.358 3.701 5.666 4.009 1.308.308 8.718 1.85 9.589 1.85.872 0-.436-3.7 0-4.625.436-.925 9.154-4.009 9.59-4.934.436-.925 11.769-1.85 15.692-.925s13.948 3.084 15.256 2.775c1.307-.308 6.102-6.783 6.974-8.017.872-1.233 5.23-1.541 6.974-1.233 1.744.308 9.589-1.542 10.461-2.775.872-1.234.872-4.626 1.308-7.709.436-3.084 4.795-10.176 5.231-12.026Z"/>
  <path fill="#59F" stroke="#000" d="M698.532 231.369c-.697-.987-.871-2.878-.871-3.7-.872-.309-5.668 0-6.54.308-.872.308-6.103 7.4-6.538 8.017-.436.617-4.359 1.85-5.231 1.542-.872-.308-4.359 1.542-5.231 1.85-.871.308-2.179-2.158-3.051-3.083-.872-.926-1.743-5.242-1.743-6.476 0-1.233-3.923-1.85-5.667-1.85-1.743 0-7.41 2.775-7.846 3.084-.436.308-4.359 1.85-5.666 1.85-1.308 0-3.487 2.158-3.923 2.466-.349.247-5.667 5.654-8.282 8.326-1.744 1.747-5.405 5.365-6.102 5.859-.872.616 1.307 2.466 1.743 3.391.349.74 1.308 3.392 1.744 4.626 0 1.028.872 3.33 4.359 4.317 3.487.986 5.521 2.055 6.102 2.466 0 1.337-.087 4.194-.436 4.934-.435.925 3.052 2.775 3.488 3.392.435.617-.872 2.158-1.308 3.083-.436.925-.436 2.159 0 3.084.436.925 9.153 4.933 10.025 5.55.872.617.001 1.542-.435 1.85-.436.309 1.307 1.234 1.743 1.542.436.308 3.923-.617 4.795-1.542.872-.925 4.795-.925 5.667-.925.871 0 6.102.925 10.025 1.234 3.923.308 10.897 4.008 11.333 4.317.436.308.436 6.783.872 7.4s9.589 3.392 10.897 3.392c1.308 0 3.487.925 4.359 1.233.872.309 4.359 7.709 4.794 8.326.349.493 2.18.616 3.052.616 1.017 0 3.138.062 3.487.309.436.308 15.692.616 16.563.616.872 0 2.18 1.851 2.616 2.467.436.617-.436 1.542-.436 2.159 0 .616-.872 1.85-.872 2.158 0 .308 3.487.308 5.231.617 1.743.308 3.051-.309 3.051-.617s.872-1.233 1.308-1.542c.435-.308 13.948 8.326 14.384 8.634.436.309-.872 2.467-.872 2.775 0 .309-1.744 2.159-2.179 2.775-.436.617 2.615 1.542 3.487 1.851.697.246 2.906-.72 3.923-1.234l3.923-2.467a16.295 16.295 0 0 0-2.18-1.85c-1.307-.925.872-3.083 1.308-3.7.436-.617.872-4.625.872-7.092 0-2.467 1.307-4.009 2.179-5.55.872-1.542 11.333-8.942 13.077-10.176 1.743-1.233 5.666-8.942 6.102-9.867.436-.925-2.179-5.859-2.179-7.092 0-1.234 1.307-5.242 0-7.092-1.308-1.85-6.539 1.85-7.846 2.775-1.308.925-1.308 5.242-1.744 6.167-.436.925-10.025 4.934-13.076 5.242-3.052.308-6.539-.925-7.846-.925-1.308 0-6.975-.308-8.282 0-1.308.308-4.359-2.467-5.231-3.084-.872-.616-.436-6.475-.872-7.4-.436-.925-10.897-.925-12.204-.925-1.308 0-4.795 2.158-6.103 3.392-1.308 1.233-9.589-5.859-10.461-6.476-.872-.616-3.051 0-4.359 0-1.308 0-2.179 2.467-3.051 3.084-.872.617-3.051 1.85-3.923 4.625-.872 2.775-4.359 2.467-6.102 2.467-1.744 0-1.744-4.934-1.308-8.325.436-3.392 8.282-6.476 9.59-7.093 1.307-.616.871-1.85.871-3.391 0-1.542-1.743-7.092-2.179-8.943-.436-1.85-1.308-8.942-.872-10.175.436-1.233-.436-2.775-1.307-4.009-.872-1.233.435-4.317 0-5.858-.436-1.542-1.308-2.775-1.308-4.009 0-1.233-.436-2.467-1.308-3.7Z"/>
  <path fill="#F5D" stroke="#000" d="M712.918 379.993c0-.74-2.906-2.569-4.359-3.392-.145-.308-.523-.986-.872-1.233-.436-.308-5.231-1.234-6.538-1.234-1.308 0-3.923-1.233-5.667-2.158-1.743-.925-2.179-2.158-2.179-3.083 0-.926-3.487-4.009-4.359-4.934-.872-.925-11.769-3.7-12.641-3.7-.872 0-7.846-.925-9.153-1.542-1.308-.617-3.488-2.775-3.923-3.392-.436-.617-4.795-4.008-6.103-4.625-1.307-.617-3.923-2.467-5.23-2.467-1.308 0-6.103-2.158-8.282-3.083-2.18-.925-3.487 2.158-4.795 3.083-1.308.925-6.974-1.542-9.154-2.158-2.179-.617-5.23 0-6.974.616-1.743.617-11.333 1.234-12.64.617-1.308-.617-7.411-2.158-9.589-2.158-2.179 0-10.026.308-11.769.925-1.744.616 3.051 4.008 5.231 4.317 2.179.308 3.486 2.466 4.358 4.008.872 1.542-.436 9.559-.872 10.176-.436.616-3.486 4.317-4.359 5.858-.872 1.542 2.18 6.167.873 9.559-1.308 3.392-2.616 9.251-2.18 10.484.436 1.234 6.103 4.934 8.718 6.475 2.615 1.542 14.82 8.634 17.435 9.251 2.616.617 19.179 3.083 25.282 4.009 6.102.925 16.127 4.008 16.563 4.625.436.616-.872 4.317-1.744 4.625-.871.308-2.179 2.159-1.307 4.317.872 2.158 3.923 3.392 5.666 4.009 1.744.616 3.923 9.867 5.667 12.334 1.743 2.466 9.589 3.7 11.333 4.316 1.744.617 2.615 4.317 3.487 3.084.872-1.233 4.359-1.542 6.538-1.233 2.18.308 1.744 3.7 0 5.55-1.743 1.85 1.744 4.317 3.487 4.625 1.744.308 33.128-7.709 34.871-8.942 1.744-1.233-5.23-5.55-5.23-6.784 0-1.233 6.538-4.317 7.41-4.933.871-.617-2.18-1.542-3.923-1.234-1.744.309-2.616 0-3.487-.925-.872-.925-5.667-1.233-7.41-1.233-1.744 0-6.539-2.775-9.154-3.392-2.616-.617-2.615.617-4.795.617-2.179 0-12.205-4.934-13.948-5.859-1.744-.925-7.846-.617-9.59-2.158-1.743-1.542-1.307-3.701-1.743-4.934-.436-1.234 1.744-3.392 3.487-4.625 1.744-1.234 5.231-.925 6.974-1.85 1.744-.926 6.539.925 7.846-.926 1.308-1.85 7.41-3.391 9.154-4.625 1.743-1.233 1.307-1.233.872-3.7-.436-2.467 3.051-7.709 4.358-9.867 1.308-2.159 2.18-3.7 2.18-5.55 0-1.851 2.179-4.626 2.179-5.551Z"/>
  <path fill="#37C871" stroke="#000" d="M709.433 406.822c-1.395-.494-3.777-2.467-4.795-3.392-.435.205-1.394.74-1.743 1.233-.436.617-2.615 1.542-3.923 1.85-1.308.309-4.359 1.85-5.231 2.775-.872.925-2.179.925-2.615.925-.436 0-3.923-.925-4.795-.308-.871.617-3.487.925-5.23 1.233-1.744.309-4.359 3.392-4.795 3.392-.436 0-.872 2.159-.436 2.775.436.617.872 4.009 1.308 4.626.436.616 6.538 1.233 9.153 1.85 2.093.493 5.521 2.261 6.974 3.083 1.599-1.233 5.144-3.7 6.539-3.7 1.743 0 6.974 2.159 8.717 2.159 1.744 0 4.795-1.851 5.667-3.084.872-1.233.872-3.7 1.743-4.317.872-.617 6.975-.925 8.718-.925 1.744 0 6.538-3.083 7.846-3.7 1.308-.617 2.615-2.775 3.051-3.392.436-.617-1.743-.617-2.179-1.233-.436-.617-6.102-.925-7.846-.309-1.744.617-7.41.309-8.282 0-.872-.308-6.102-.925-7.846-1.541Z"/>
  <path fill="#FF80B2" stroke="#000" d="M749.532 425.63c-2.79-3.453-10.461-11.717-13.948-15.417-.436 0-1.744 1.85-2.18 2.467-.436.616-8.282 4.008-8.718 4.008-.436 0-6.974.309-8.718.925-1.743.617-.871 3.084-2.615 5.242-1.743 2.159-5.231 2.159-5.666 2.159-.436 0-6.975-2.159-8.282-2.159-1.046 0-4.504 2.673-6.103 4.009 1.453.719 4.795 2.282 6.539 2.775 2.179.617 3.051-.308 4.358-.617 1.047-.246 3.633.72 4.795 1.234 1.744.719 5.405 2.158 6.103 2.158.871 0 5.666.617 6.974 1.542 1.307.925 3.487.925 4.359.617.871-.309 3.051.925 3.051 1.233 0 .308-7.41 4.317-7.41 4.934 0 .616 5.666 5.242 5.666 6.475 0 1.233-33.127 8.634-34.871 8.942-1.743.308-2.179-1.542-3.051-2.775-.872-1.233.872-2.775 1.308-3.392.436-.617-.436-2.467-.436-3.392 0-.925-2.615-.616-3.923-.616-1.308 0-3.923.925-4.359 1.233-.436.308-2.179-2.467-2.615-2.775-.436-.309-6.103-2.159-8.282-2.467-1.743-.247-3.342-1.747-3.923-2.467-.872.411-2.964 1.48-4.359 2.467-1.743 1.233-2.615-.308-3.487-1.233-.872-.925-7.41-1.851-8.718-1.851-1.307 0-6.974 1.851-8.717 1.851-1.744 0-4.359 1.541-6.103 3.391-1.743 1.851-.871 8.634.872 9.559 1.744.925 6.102 12.334 6.974 14.493.872 2.158-1.307 13.259-1.743 14.184-.437.925-10.461 3.392-11.769 4.008-1.307.617-.872 7.401.436 9.251 1.308 1.85 3.487 6.784 4.359 8.942.872 2.159-1.744 6.475-.872 6.475s6.974.617 8.282.925c1.308.309 9.59 1.542 11.333.926 1.744-.617 22.23-3.392 24.41-3.392 2.179 0 7.846-.309 8.717-.617.872-.308.436-2.467-.871-3.084-1.308-.616-2.18-4.625-2.18-5.55 0-.925-.436-7.709 1.744-10.175 2.179-2.467 14.82-4.934 16.999-5.859 2.18-.925 23.102.308 24.846 0 1.743-.308 6.102 1.542 6.974 2.467.872.925-1.744 2.158-1.744 4.625s7.41 1.542 8.282 1.233c.872-.308.436-3.083-.872-4.316-1.307-1.234-1.307-2.159-.436-3.084.872-.925 13.513-2.467 15.692-2.467 2.18 0 8.718 2.467 13.513 2.467 4.794 0 10.025-.925 10.461-2.467.436-1.542-.436-3.392-2.179-4.008-1.744-.617-12.205-6.784-13.949-8.017-1.743-1.234-1.307-2.776-.872-4.626.436-1.85 1.744-5.242 2.616-6.475.872-1.233-.872-3.084-1.744-4.625-.872-1.542-3.487-8.326-5.23-10.176-1.744-1.85-5.231-5.859-4.359-9.559.871-3.7-.872-5.242-4.359-9.559Z"/>
  <path fill="#FF7F2A" stroke="#000" d="M577.791 398.495c-.349-1.234 10.316-4.831 15.692-6.475l2.179 1.541c4.795 2.981 15.082 9.312 17.872 10.793 2.789 1.48 6.102 2.261 7.41 2.466-1.017 1.234-3.313 3.886-4.359 4.626-1.308.925-1.308 8.942-.872 11.409.436 2.466-1.744 4.933-3.051 6.167-1.308 1.233-4.795-.925-8.718-1.234-3.923-.308-10.461 2.775-11.769 3.392-1.307.617-6.974-9.25-7.846-12.334-.872-3.083-2.615-11.409-2.179-13.259.436-1.85-3.923-5.55-4.359-7.092Z"/>
  <path fill="#DDAFE9" stroke="#000" d="M579.099 348.851c1.046.74 6.538-1.13 9.154-2.158.871-.334 3.051 2.158 3.923 2.467.871.308 3.051 1.233 3.923 1.541.871.309 2.615 3.7 3.051 4.317.436.617-1.308 8.326-1.308 9.251 0 .925-2.179 2.775-3.487 4.933-1.308 2.159-.872 3.392-.872 3.7 0 .309 1.744 5.242.872 6.784-.872 1.542-2.179 9.559-2.179 10.484 0 .74.871 1.747 1.307 2.159-5.085 1.85-15.256 5.673-15.256 6.167 0 .616 3.487 5.242 3.923 5.55.436.308.436 2.467.436 3.083 0 .617 1.308 10.793 1.744 12.026.436 1.233 6.974 11.101 6.974 11.717 0 .617 2.615 0 3.487-.925.872-.925 7.846-2.467 8.718-2.158.871.308 7.41 1.542 8.717 1.233 1.308-.308 2.18-3.083 3.052-4.317.871-1.233 0-8.633 0-9.25 0-.617.435-3.392.871-4.317.349-.74 3.342-3.392 4.795-4.625l3.487.616 24.41 4.009c3.487 1.028 10.635 3.268 11.333 4.008.872.926-.872 4.009-2.18 4.626-1.307.616-1.743 2.467-1.307 4.008.436 1.542 4.359 3.084 5.666 3.7 1.308.617 1.744 2.467 2.616 4.009.697 1.233 2.034 6.064 2.615 8.325-1.453.823-4.62 2.529-5.667 2.776-1.307.308-2.179-1.85-2.615-1.85-.436 0-6.102-1.542-7.41-1.542-1.308 0-5.667.925-7.41 1.542-1.744.616-4.795.925-7.41 2.775-2.615 1.85-.436 8.017-.872 8.633-.436.617 2.18 2.159 2.615 2.467.436.309 5.667 13.259 6.103 14.184.436.925-1.744 13.259-2.18 13.876-.435.617-5.666 2.467-6.974 2.467-1.307 0-4.795 1.542-5.666 2.467-.872.925 1.307 7.709 1.743 8.325.436.617 4.359 8.634 4.359 9.559 0 .74-1.162 4.214-1.743 5.859-4.359.411-13.774 1.233-16.564 1.233-3.487 0-6.102-1.85-7.41-2.467-1.308-.616-12.641-1.233-17.436-2.158-4.794-.925-10.897-.617-16.999-1.85-6.102-1.234-16.128-3.084-20.923-4.625-4.794-1.542-19.614-2.159-27.896-4.934-6.626-2.22-17.581-2.159-22.23-1.85v-2.159c0-1.233 3.051-3.7 4.358-5.242 1.308-1.541-4.358-4.933-2.615-8.017 1.744-3.083-2.179-9.25-1.743-12.95.435-3.701 3.051-4.934 4.358-5.859 1.308-.925 2.18-2.467 1.308-3.7-.872-1.234 3.051-12.951 4.795-17.268 1.743-4.317-2.615-17.267-3.487-19.426-.872-2.158-11.769-4.934-13.076-5.242-1.308-.308 7.845-4.933 10.025-6.167 2.179-1.233 3.487-3.7 3.923-4.933.436-1.234-6.103-6.168-6.103-7.093 0-.925 8.282-1.233 10.026-2.466 1.743-1.234 14.82-5.551 17.435-7.092 2.616-1.542 12.641-3.084 13.513-3.084.871 0 3.923-4.625 4.359-7.092.435-2.467 6.538-6.167 6.974-7.4.436-1.234-3.052-2.467-3.488-6.167-.436-3.701 8.282-5.242 9.59-4.934 1.307.308 5.23.308 5.666-.925.436-1.233 2.616-8.634 3.923-10.176 1.308-1.541 3.051.617 4.359 1.542Z"/>
  <path fill="#80FF80" stroke="#000" d="M698.974 221.191c1.046 1.48-.436 4.728-1.307 6.167-1.163.206-3.748.617-4.795.617-1.307 0-2.179.925-2.615 1.234-.436.308-5.666 7.092-6.102 7.4-.436.308-4.359 1.233-4.795 1.233-.436 0-4.359 1.234-5.231 1.542-.871.308-.871 0-1.307 0-.436 0-3.487-6.475-3.923-8.325-.436-1.85-2.18-2.159-4.795-2.467-2.615-.308-8.282 3.083-9.59 3.7-1.307.617-4.794 1.233-5.666 1.542-.872.308-10.025 9.559-11.333 10.484-1.308.925-5.231 5.242-6.538 4.625-1.308-.617-4.359-.617-6.539-.925-2.179-.308-3.487.617-5.23.925-1.744.308-1.308-1.542-1.308-2.467s.436-2.775-.872-4.625c-1.307-1.85-6.538-2.467-8.282-2.467-1.743 0-5.666 0-8.717-.925s-3.487.925-6.103 3.392c-2.615 2.467-2.615 4.625-4.358 4.625-1.744 0-4.359 0-5.231-.617-.872-.616-4.795-.308-5.667-1.233-.871-.925-1.307-5.242-2.179-6.167-.872-.925-1.744-1.233-2.615-.617-.872.617-5.231 0-6.975.617-1.743.617-7.41 0-9.589.925-2.179.925-.872 5.859-.872 7.092 0 1.234-3.051 2.467-4.795 3.084-1.743.616-5.23 4.008-6.538 5.55-1.307 1.542-4.795 4.009-7.41 4.009s-16.999-6.167-18.307-7.401c-1.308-1.233-5.231-2.775-6.102-3.7-.872-.925-6.975-4.317-9.154-4.009-2.179.309-7.41-2.466-8.718-2.466-1.307 0-4.794-.617-6.974-.617-2.179 0 3.051-1.85 5.667-2.467 2.615-.617 5.666-2.775 6.538-3.7.872-.925.872-3.084 2.615-3.7 1.744-.617 1.744-2.467 4.359-7.092 2.616-4.626-6.974-6.784-7.846-7.709-.871-.925 1.308-2.467.872-8.326-.436-5.858 4.359-12.025 5.666-13.259 1.308-1.233 2.616-5.55 2.616-6.167 0-.616 1.743-9.25 0-12.025-1.744-2.775-.436-4.626.872-6.167 1.046-1.234 1.017-2.981.871-3.701 2.035.72 6.452 2.344 7.846 3.084 1.744.925 10.026 3.083 12.205 4.009 2.18.925 8.718 5.55 10.026 6.167 1.307.616 6.102 3.083 9.153 3.083s8.718 3.392 10.897 4.009c2.18.616 19.615-.309 20.923-.617 1.307-.308 5.23-3.084 6.538-3.392 1.308-.308 2.615-2.159 3.051-3.083.436-.925-2.615-2.467-4.359-4.009-1.743-1.542 1.744-1.233 3.051-2.467 1.308-1.233.436-2.775 0-3.7-.436-.925 3.051-.925 5.231-1.85 2.179-.925 3.051 0 4.795 0 1.743 0 3.487-1.234 5.23-1.85 1.395-.494 6.684 1.028 9.154 1.85 2.47-.617 8.194-1.85 11.333-1.85 3.923 0 3.051 3.083 4.359 4.625 1.307 1.542 1.307.925 5.666 0s6.539-.617 7.41 0c.872.617 8.282 4.317 8.282 5.242 0 .925-4.359 3.392-5.667 4.933-1.307 1.542.872 4.317 2.616 7.093 1.743 2.775 8.717 9.25 12.204 11.1 3.487 1.85 3.923 4.317 6.103 6.476 2.179 2.158 6.974 6.167 9.153 7.4 2.18 1.233 6.539 2.158 6.975 3.083.348.74 3.341 1.953 4.794 2.467 3.342.309 10.287 1.295 11.333 2.775Z"/>
  <path fill="#C6E9AF" stroke="#000" d="M495.839 323.259c1.744-.987 8.573-.411 11.769 0-.145.308-.436 1.048-.436 1.542 0 .616-.872 2.158-2.615 4.008-1.744 1.85-1.308 3.7-1.308 4.009 0 .308 2.615 3.083 3.051 3.7.436.617.872 2.467.872 3.083 0 .617 3.487 2.467 3.923 2.776.436.308 1.744 1.233 1.308 1.85-.349.493-4.214.822-6.103.925-6.393.514-19.353 1.603-20.05 1.85-.872.308-4.359 4.933-5.231 5.55-.872.617-3.487 1.542-4.359 1.85-.872.309-1.308 1.85-1.743 3.7-.436 1.851-2.18 7.709-2.616 8.018-.436.308-14.384 4.317-15.256 4.317-.872 0-3.487 1.541-4.359 1.85-.697.246-4.068 6.475-5.666 9.558-.291.309-1.046.987-1.744 1.234-.871.308-2.179 1.542-2.615 2.158-.349.494 3.051 3.495 4.795 4.934.726.103 2.354.308 3.051.308.872 0 1.308.925 1.308 1.234 0 .308-5.667 6.167-6.103 6.475-.436.308-1.743.617-3.487.925-1.743.308-4.359-.308-5.23-.617-.872-.308-5.667-.616-6.103-.616-.436 0-2.179-1.542-3.051-1.542-.872 0-14.384 6.784-15.256 7.092-.872.308-2.18-3.084-2.615-3.392-.436-.308-1.744-2.467-3.052-2.775-1.307-.308-5.23-2.775-5.666-3.392-.436-.617-6.974-2.775-7.846-2.775-.872 0-6.102-.925-6.974-.925-.872 0-2.616-.925-3.923-1.542-1.308-.617-2.18 1.542-6.974 1.542-3.836 0-6.829.411-7.846.617h-14.82c-1.744 0-3.923-1.542-5.667-1.234-1.743.309-7.41-1.542-9.154-2.158-1.743-.617-6.974-2.467-6.974-4.009 0-1.542-4.794-4.008-5.666-4.625-.872-.617-3.051-.308-4.359.617-1.308.925-13.077 0-16.128 0s-3.487-.925-3.487-2.467 3.487-3.7 5.231-5.242c1.743-1.542 4.794-5.859 5.666-7.092.872-1.234 3.051-.617 4.359-1.234 1.308-.616 1.744-3.083 3.051-5.858 1.308-2.775-4.358-4.934-5.23-6.167-.872-1.234 14.82-.617 16.563-.617 1.744 0 15.257 0 17.436-.925 2.18-.925-.872-4.317 0-6.475.872-2.159 6.538-1.542 7.846-1.542 1.308 0 10.461.617 12.205 0 1.743-.617 1.743-3.084 1.743-4.009 0-.925 4.795-4.317 5.667-5.242.872-.925 3.051-.616 3.487 0 .436.617 2.615-.308 3.923-1.85 1.308-1.541-2.179-4.008-3.923-5.55-1.743-1.542-.872-5.859-.436-6.475.436-.617 3.051-2.775 4.359-2.159 1.308.617 7.41.925 8.718 2.159 1.308 1.233.872 2.467.872 3.392 0 .924 3.051 1.85 4.358 2.775 1.308.925 6.103 1.85 8.282 1.85 2.18 0 8.282-.617 9.59-.617 1.307 0 8.281 1.234 10.461.617 2.18-.617 3.923 2.158 5.667 1.85 1.743-.308 4.358-1.233 6.974-1.85 2.615-.617 6.974-4.009 7.846-5.55.871-1.542 3.051-5.242 2.615-6.476-.436-1.233-5.667-1.233-9.154-.925-3.487.308-9.153-1.233-12.64-2.158-3.487-.925-7.847-4.934-8.718-5.859-.872-.925 3.923-.925 5.23-1.233 1.308-.309 7.846-3.084 8.282-4.009.436-.925 2.18.308 3.923.925 1.744.617 5.231-1.85 6.538-2.158 1.308-.309 2.616.925 3.487.925h6.975c.871 0 0 5.242.435 6.475.436 1.233 3.052 1.233 4.359 2.775 1.308 1.542 0 3.7 1.744 5.242 1.743 1.542.436 5.551.872 6.476.436.925 13.076 4.933 14.82 4.933 1.743 0 7.846 1.234 10.461 1.234s8.282-2.776 10.461-4.009Z"/>
  <path fill="#BCD35F" stroke="#000" d="M497.588 161.993c.697 1.727 8.427 3.598 12.205 4.317l1.307.617c-.145.616-.435 1.973-.435 2.466 0 .617-1.308 2.159-1.744 3.392-.436 1.234-.436 2.775.436 4.009.872 1.233.872 3.7.872 4.625 0 .925-.872 6.476-.872 7.092 0 .617-1.308 4.009-1.308 4.317 0 .308-3.487 5.242-5.23 7.709-1.744 2.467-1.744 7.4-1.744 8.017 0 .617 0 4.317-.436 4.934-.436.616-.436 1.85-.436 2.466 0 .617 3.487 1.542 3.923 1.85l3.487 2.467c.436.309.872 2.467.872 2.775 0 .309-3.051 6.784-3.487 7.092-.436.309-1.308 1.234-2.179 1.234-.872 0-1.308 2.775-1.744 3.392-.436.616-4.359 3.083-5.231 3.392-.697.246-5.811 1.952-8.281 2.775.145 2.98.348 9.374 0 11.1-.436 2.159-7.846 10.793-8.718 12.026-.872 1.233 2.615 2.467 3.487 4.009.872 1.541 1.744 8.942 1.308 9.558-.436.617-1.308 2.467-3.923 5.859-2.616 3.392-13.513 6.167-16.564 7.092-3.051.925-9.154 1.234-10.461.925-1.308-.308-15.692-5.242-18.307-6.475-2.093-.987-14.53-3.7-20.487-4.934-1.598-.514-4.882-1.973-5.231-3.7-.436-2.158 0-19.118 0-20.659 0-1.542-3.487-4.009-4.359-5.859-.871-1.85 3.052-4.934 2.616-6.784-.436-1.85-4.795-2.467-7.846-4.008-3.051-1.542-2.615-4.934-2.615-6.784 0-1.85 1.743-10.792-3.488-16.343-5.23-5.55-7.41-10.792-6.974-13.875.436-3.084 14.384-14.801 15.256-16.343.872-1.542-.872-8.942-.872-12.026 0-3.083 8.718-6.167 9.59-7.4.871-1.233 6.974-2.467 9.153-2.467 2.18 0 4.359 1.234 6.103 2.159 1.743.925 8.717-.925 8.717-2.159 0-1.233 5.231-1.85 7.41 0 2.18 1.85 6.975 1.234 8.282 1.234 1.308 0 2.18-1.542 3.051-3.083l.001-.001c.871-1.541 5.666-2.467 7.845-2.775 2.18-.308 10.026-2.467 11.769-3.084 1.744-.616 8.282-1.85 10.462-1.85 2.179 0 .436 1.85 2.179 3.084 1.744 1.233 3.487-.308 4.359-1.85.872-1.542 3.487-2.467 5.666-1.85 2.18.616 1.744 6.167 2.616 8.325Z"/>
  <path fill="#D4FF2A" stroke="#000" d="M453.128 300.132v-8.325l6.102-.617c3.051-.308 16.563-4.934 18.743-6.167 2.179-1.234 5.23-7.092 5.666-7.709.436-.617-1.307-8.942-2.179-9.867-.872-.925-3.051-2.467-3.051-2.775 0-.309 8.281-11.718 8.717-12.643.436-.925-.436-10.484 0-11.1.436-.617 7.846.308 8.282.308.436 0 2.18.617 3.051 1.234.872.616 5.231 1.233 5.667 1.233.436 0 3.051.617 3.487.925.436.308 3.923 2.158 4.795 2.467.871.308 2.615 1.85 3.051 2.158.436.309 3.487 1.85 3.923 2.467.436.617 14.82 6.475 16.999 7.092 2.18.617 4.359-.617 5.667-1.233 1.046-.494 3.923-3.289 5.231-4.626.29.72.958 2.282 1.307 2.776.436.616 2.615.925 3.051 1.233.436.308 3.487 1.542 4.795 2.158 1.308.617 1.744.309 3.487.309 1.744 0 3.051.308 3.923.617.872.308 1.308 1.85 2.18 2.466.871.617 1.307 1.85 1.307 2.467s3.051 2.467 3.923 2.775c.872.309 3.923.925 4.795 1.234l2.615.925c.872.308 1.744 1.85 2.18 2.775.436.925 1.743 2.775 2.179 4.317.436 1.542-1.308 2.467-1.743 4.933-.436 2.467 3.051 5.242 3.051 5.859s-2.18 4.317-2.616 5.859c-.435 1.541.872 2.158 5.667 5.55s7.41 6.784 7.846 7.092c.436.308.436 1.233 0 1.85s-.872 1.234-.872 2.159c0 .925 3.051 1.233 3.487 1.233.436 0 1.744.308 1.744.617 0 .308 0 1.541.436 2.467.436.925 0 4.008 0 4.316 0 .247-6.103 4.009-9.154 5.859-1.889 1.028-5.754 3.269-6.102 4.009-.436.925-.872 3.083-.872 4.008 0 .925-1.744 4.317-1.744 4.934 0 .616-6.974 4.317-7.41 4.625-.436.308-1.743 1.233-3.051 1.233s-5.666-4.008-6.102-4.625c-.436-.617-2.18-1.542-3.051-1.85-.872-.308-5.231-5.242-5.667-5.55-.436-.309 0-.617-.872-.925-.872-.309-3.487 1.233-4.359 1.541-.871.309-2.179.309-3.051 0-.872-.308-8.718-1.541-9.589-1.541-.872 0-4.359 1.233-4.795 1.541-.436.309-1.308 0-3.923-1.233s-3.923-1.85-3.923-2.467c0-.616-1.744-2.158-3.487-3.083-1.395-.74-12.495-1.748-17.871-2.159-2.18-.102-6.8-.246-7.846 0-1.308.309-5.667 2.159-7.41 3.084-1.395.74-4.359 1.13-5.667 1.233-2.76-.411-8.543-1.233-9.589-1.233-1.308 0-13.077-4.317-13.949-4.625-.871-.309-.871-1.234-.436-3.701.436-2.466-1.307-3.391-1.743-4.008-.436-.617-.436-2.159-.436-3.7 0-1.542-3.923-2.467-4.794-3.701-.698-.986-.291-4.728 0-6.475Z"/>
  <path fill="#DDAFE9" stroke="#000" d="M383.824 310.617c-1.046.987-1.017 4.112-.871 5.551.061.925 7.846 1.85 8.718 2.158.871.309.871 1.85 1.307 1.85.436 0 1.744-.308 2.616-.925.871-.616 4.359-4.008 4.794-4.317.436-.308-1.743-2.158-2.179-2.158-.436 0 2.615-3.084 3.487-3.7.872-.617 0-1.234-.872-1.85-.697-.494 0-.823.436-.925-.872.205-2.964.678-4.359.925-1.743.308.436-.925-.436-1.85-.871-.926.872-2.159.872-3.392 0-1.234-1.307-2.775-3.051-3.701-1.744-.925-.872-2.466-2.179-3.391-1.308-.925-2.616 1.85-2.18 3.391.436 1.542-1.743 4.317-1.743 5.859 0 1.542-3.052 5.242-4.36 6.475Z"/>
  <path fill="#B3FF80" stroke="#000" d="M398.642 274.54c.348-1.234 6.828-4.009 10.025-5.242v6.622c0 1.997 3.487 3.245 4.358 3.862.872.617 14.821 3.392 15.692 3.392.872 0 7.846 2.158 8.718 2.775.697.493 10.752 4.111 15.692 5.858v8.326c-2.47.103-7.497.308-7.846.308-.436 0-1.308-.925-2.615-.925-1.308 0-3.923 1.542-5.667 1.85-1.743.309-3.487-.925-4.359-1.233-.871-.308-.871.617-.871.925 0 .308-3.923 1.542-5.667 2.775-1.744 1.234-7.846 1.234-8.282 1.234-.436 0-3.051-1.851-3.051-2.159 0-.308-2.615.925-3.051.617-.436-.309-1.308-2.159-2.18-2.775-.697-.494-6.102 3.7-8.717 5.858-1.163.309-3.662.925-4.359.925-.872 0 0-1.541 0-1.85 0-.308-.872-.616 0-2.158.872-1.542.436-2.775 0-3.392-.349-.493-2.47-1.85-3.487-2.467-.146-.822-.698-2.467-1.744-2.467-1.307 0-.872 3.701-.872 4.009 0 .308-1.743 3.7-1.743 4.933 0 1.234-3.923 5.859-4.795 6.784-.697.74-.872 4.009-.872 5.55-.726.412-2.441 1.419-3.487 2.159-1.307.925-.436 6.167 1.308 7.4 1.743 1.234 2.615 2.775 3.051 3.701.349.74-1.598 2.158-2.615 2.775-.436.205-1.569.431-2.616-.309-1.046-.74-2.47.514-3.051 1.234-1.743 1.13-5.23 3.762-5.23 5.242 0 1.85-.872 2.775-2.616 3.392-1.743.616-13.512 0-14.82-.309-1.307-.308-3.487.617-4.359 1.234-.871.616 1.308 4.317.872 5.858-.436 1.542-2.615 1.542-3.487 1.85-.872.309-18.307.309-20.051 0-1.395-.246-8.427.514-11.769.925-2.615.206-8.194.309-9.589-.925-1.744-1.541-4.795-4.317-6.538-4.933-1.744-.617-7.846 0-11.333.616-3.487.617-6.103.617-7.846-.616-1.744-1.234 3.051-5.859 4.359-7.092 1.307-1.234 0-1.542-1.308-2.775-1.308-1.234-1.744-1.234-2.179-3.084-.436-1.85 3.051-5.55 3.487-6.784.436-1.233 1.307-1.85 3.487-2.775 2.179-.925 2.615-1.542 3.487-2.775.872-1.233 6.538-1.542 9.589-1.85 3.051-.308 18.743-7.092 19.179-7.4.436-.309 4.795-2.776 5.667-3.392.872-.617 2.615-2.159 3.051-3.392.436-1.234-2.179-1.542-3.923-1.85-1.744-.309-3.051-3.392-3.051-4.317 0-.925.436-3.084-.872-4.625-1.307-1.542 0-3.084 0-4.934s-3.923-2.158-5.666-3.7c-1.744-1.542 0-4.009 0-5.859 0-1.85 2.179-2.775 3.487-3.7 1.307-.925.872 2.158 2.179 3.7 1.308 1.542 5.667-.308 6.974-1.542 1.308-1.233-1.307-3.083-1.307-4.008 0-.925 3.923-5.859 5.666-7.709 1.744-1.85 2.18 1.233 3.487 1.85 1.308.617 4.359-.617 6.103-1.85 1.743-1.233 7.41-2.158 10.897-1.542 3.487.617 27.897 12.026 29.204 13.259 1.308 1.234 10.461 4.626 14.82 3.392 4.359-1.233 2.616-4.933 3.052-6.475Z"/>
  <path fill="#AFA" stroke="#000" d="M377.721 203.617c2.441-.247 6.829 1.131 8.718 1.85 0 .411.261 1.665 1.308 3.392 1.309 2.159 5.231 5.859 7.41 10.176 2.18 4.317.872 13.567 1.744 17.267.872 3.7 8.718 4.934 10.025 5.859 1.308.925-.872 4.008-2.179 6.475-1.046 1.974 2.47 5.139 4.359 6.476v14.184c-2.906 1.13-8.98 3.7-10.026 4.933-1.307 1.542 0 4.626-2.615 6.784-2.615 2.158-13.077-1.542-13.513-2.158-.435-.617-26.153-12.643-32.255-13.876-6.102-1.234-11.769 1.85-13.948 2.775-2.18.925-3.923-.617-4.359-2.158-.436-1.542-6.539 7.092-6.974 8.017-.436.925-16.129-5.242-17.436-5.859-1.307-.617-3.487-.925-4.359-2.775-.872-1.85 2.615-4.009 4.359-5.859 1.743-1.85 1.307-2.158 1.307-5.242 0-3.083-.436-12.334 0-17.576.436-5.242 6.103-7.4 6.974-7.4.872 0 3.923 1.233 5.667 0 1.743-1.234-2.616-3.392-3.052-5.242-.435-1.85 4.795-1.542 11.334 0 6.538 1.542 10.025 3.392 12.204 3.392 2.18 0 0-2.467 0-4.934s-5.23-6.475-5.23-8.634c0-2.158 2.179-5.858 3.051-8.017.872-2.158 4.795-.925 6.102 0 1.308.925 4.359 3.7 13.513 3.392 9.153-.308 14.82-4.934 17.871-5.242Z"/>
  <path fill="#FFB380" stroke="#000" d="M412.591 155.208c1.743.74 10.316 7.297 14.384 10.483 1.583 1.234-3.487 0-5.667-1.233-2.179-1.233-7.41.308-8.717.617-1.308.308-9.154 5.242-10.898 7.092-1.743 1.85.872 11.717 0 13.259-.871 1.542-12.64 12.951-14.384 14.184-1.395.987-1.162 4.522-.872 6.167-1.598-.411-5.23-1.357-6.974-1.85-2.179-.617-4.794.617-9.589 3.083-4.795 2.467-17 2.467-18.743 1.85-1.744-.616-7.41-4.316-9.59-4.316-2.179 0-2.179 6.475-3.487 7.708-1.308 1.234 3.923 8.017 4.359 8.942.436.926 1.308 4.626 1.308 5.551 0 .925-.872 1.542-6.975-.925-6.102-2.467-16.563-3.392-17.435-2.467-.872.925 3.051 3.7 3.487 4.934.436 1.233-3.051 1.541-5.666.925-2.616-.617-6.539 4.008-7.846 5.55-1.046 1.233-.436 15.931 0 23.126-2.616-1.747-8.195-5.55-9.59-6.784-1.743-1.541-7.846-2.466-8.718-2.466-.871 0 .872-1.234.872-3.701 0-2.466-7.41-3.391-13.076-7.4-5.667-4.008-3.487-9.25-6.103-12.642-2.615-3.392 1.744-3.084 4.359-5.551 2.615-2.466 7.41-.308 10.461-1.85 3.052-1.541-1.743-4.625 0-8.634 1.744-4.008 4.359-5.55 4.359-9.25s-2.615-5.242 0-7.092c2.616-1.85 1.308-7.4 3.923-10.176 2.616-2.775 4.359-3.083 6.103-5.858 1.743-2.775 7.41-4.317 4.794-7.092-2.615-2.775 6.103-4.934 7.846-6.784 1.744-1.85 0-3.7-1.743-7.4-1.744-3.701-4.359-13.876-6.103-15.11-1.743-1.233-23.973-8.325-27.46-10.175-3.486-1.85-17.426-6.781-20.919-8.016l-.004-.001c-3.487-1.234-6.538-8.634-6.538-11.718 0-3.083 2.179-6.783 4.359-5.242 2.179 1.542 11.769 4.009 16.127 5.242 4.359 1.234 12.641-2.158 17-4.008s19.179-3.084 25.281-2.775c6.103.308 18.743 5.242 22.23 7.708 3.488 2.467 7.846 7.709 9.59 10.793 1.743 3.083 18.743 21.893 20.922 23.743 2.18 1.85 6.539.308 9.154 2.466 2.615 2.159 8.718 4.009 13.513 4.009 4.794 0 6.974 1.233 8.717 3.084 1.744 1.85 11.769-.925 13.949 0Z"/>
  <path fill="#FAA" stroke="#000" d="M253.061 97.852c.697 1.233 5.521 6.27 7.846 8.634h-2.616c-.436 0-2.615-1.542-3.487-1.85-.872-.309-3.051 3.392-2.615 7.092.436 3.7 4.359 8.634 4.794 9.559.349.74 11.188 4.214 16.564 5.858 8.718 3.495 26.851 10.669 29.64 11.409 3.487.925 4.359 2.159 4.795 2.775.436.617 5.667 15.726 6.538 16.96.872 1.233 1.308 3.7 0 4.625-1.307.925-6.974 4.317-8.281 4.625-1.308.308.871 1.85 1.307 3.084.436 1.233-1.743 2.775-3.051 4.008-1.308 1.234-2.615 2.775-3.051 3.392-.436.617-4.359 2.775-5.231 4.009-.872 1.233-2.615 8.017-2.615 8.942 0 .925-2.18 2.158-2.615 3.083-.436.925 1.307 5.859 1.307 6.167 0 .309-1.307 4.934-3.487 6.784-2.179 1.85-.872 5.55-.872 6.167s1.308 3.083 0 4.317c-1.307 1.233-6.102.925-7.846.925-1.743 0-3.051 1.233-3.487 1.85-.348.493-3.051 1.85-4.359 2.467-1.162-.72-3.748-2.344-4.794-3.084-1.308-.925-15.256-8.942-20.487-11.409-5.231-2.466-24.845-8.325-27.025-8.942-2.179-.617-1.307-3.392-1.307-4.317 0-.925 6.974-4.933 9.589-6.167 2.615-1.233 4.795-8.325 4.795-10.175 0-1.85 0-4.009-3.051-6.476-3.052-2.466 1.307-2.466 1.743-3.7.436-1.233 0-6.167 1.308-8.017 1.307-1.85-6.974-8.017-10.026-10.792-3.051-2.775-9.153 1.85-10.461 1.85-1.307 0 .436-17.576 1.308-18.809.698-.987 3.778-1.439 5.231-1.542 1.162-.925 4.01-2.899 6.102-3.392 2.615-.617 2.615-4.625 3.051-6.475.436-1.851-6.102-3.084-9.153-5.859s.871-3.084 2.179-4.009c1.308-.925 3.051-4.317 3.923-6.783.872-2.467-3.923-5.55-6.102-6.784-2.18-1.234 10.025-3.7 14.384-3.392 4.359.308 3.923.925 5.667 1.85 1.743.925 13.076 0 13.948 1.542Z"/>
  <path fill="#B3FF80" stroke="#000" d="M149.316 232.296v-5.55c1.308-2.159 2.18 0 6.539 2.158 4.359 2.159 8.717 1.233 12.64 3.392 3.923 2.158 0 4.625 0 6.475 0 1.85-3.487 3.084-3.923 4.626-.435 1.541 1.744 5.55 3.923 6.783 2.18 1.234 3.052 2.775 4.359 5.242 1.308 2.467-.872 3.084-1.307 6.167-.436 3.084-6.975-.308-10.898-1.233s-4.794-4.009-6.538-7.401c-1.743-3.391-2.179-4.933-4.795-7.092-2.615-2.158-4.794-3.392-6.974-7.092-2.179-3.7 6.974-5.242 6.974-6.475Z"/>
  <path fill="#fff" fill-opacity=".2" d="M.5 0h834v534H.5z"/>
  <path fill="#000" d="M311.763 298v-11.636h1.755v5.556h.143l4.88-5.556h2.21l-4.693 5.238 4.71 6.398h-2.113l-3.762-5.199-1.375 1.58V298h-1.755Zm13.524.176c-.818 0-1.532-.187-2.142-.562a3.8 3.8 0 0 1-1.421-1.574c-.337-.674-.505-1.462-.505-2.364 0-.905.168-1.697.505-2.375a3.79 3.79 0 0 1 1.421-1.579c.61-.375 1.324-.563 2.142-.563.818 0 1.532.188 2.142.563.61.375 1.083.901 1.42 1.579.338.678.506 1.47.506 2.375 0 .902-.168 1.69-.506 2.364a3.792 3.792 0 0 1-1.42 1.574c-.61.375-1.324.562-2.142.562Zm.006-1.426c.53 0 .969-.14 1.318-.42.348-.281.606-.654.773-1.12.17-.466.255-.979.255-1.54 0-.556-.085-1.068-.255-1.534a2.507 2.507 0 0 0-.773-1.13c-.349-.284-.788-.426-1.318-.426-.534 0-.978.142-1.33.426a2.54 2.54 0 0 0-.778 1.13 4.52 4.52 0 0 0-.25 1.534c0 .561.083 1.074.25 1.54.17.466.43.839.778 1.12.352.28.796.42 1.33.42Zm10.032-7.477v1.363h-4.767v-1.363h4.767Zm-3.488-2.091h1.699v8.256c0 .329.049.577.147.744a.776.776 0 0 0 .381.335c.159.057.331.085.517.085.136 0 .256-.009.358-.028.102-.019.182-.034.239-.046l.306 1.404a2.718 2.718 0 0 1-.42.113 3.314 3.314 0 0 1-.682.069 2.994 2.994 0 0 1-1.25-.239 2.14 2.14 0 0 1-.937-.773c-.239-.348-.358-.786-.358-1.312v-8.608Zm7.907 11.011a3.557 3.557 0 0 1-1.5-.307 2.52 2.52 0 0 1-1.062-.903c-.258-.394-.387-.877-.387-1.449 0-.492.095-.898.285-1.216.189-.318.445-.57.767-.756a4.029 4.029 0 0 1 1.079-.42 10.62 10.62 0 0 1 1.216-.216l1.273-.148c.326-.041.562-.108.71-.198.148-.091.222-.239.222-.444v-.039c0-.497-.141-.881-.421-1.154-.276-.273-.689-.409-1.238-.409-.572 0-1.023.127-1.353.381-.326.25-.551.528-.676.835l-1.597-.364c.19-.53.466-.958.83-1.284.367-.329.79-.568 1.267-.716a4.96 4.96 0 0 1 1.506-.227c.348 0 .718.042 1.108.125.394.08.761.227 1.102.443.345.216.627.525.847.926.219.398.329.915.329 1.552V298h-1.659v-1.193h-.068c-.11.22-.275.435-.494.648-.22.212-.502.388-.847.528s-.758.21-1.239.21Zm.37-1.363c.469 0 .871-.093 1.204-.279.337-.185.593-.428.767-.727.178-.303.267-.627.267-.972v-1.125c-.06.061-.178.118-.352.171-.17.049-.366.093-.585.13-.22.034-.434.067-.642.097l-.523.068a4.24 4.24 0 0 0-.903.21 1.555 1.555 0 0 0-.648.427c-.159.181-.239.424-.239.727 0 .42.156.738.466.954.311.212.707.319 1.188.319Zm10.571 1.17v-11.636h4.261c.826 0 1.509.136 2.051.409.542.269.947.634 1.216 1.096.269.459.403.976.403 1.551 0 .485-.089.894-.267 1.228a2.203 2.203 0 0 1-.715.795 3.166 3.166 0 0 1-.978.432v.114c.387.019.764.144 1.131.375.371.227.678.551.92.971.243.421.364.932.364 1.534 0 .595-.14 1.129-.42 1.603-.277.469-.705.842-1.285 1.119-.579.273-1.32.409-2.221.409h-4.46Zm1.755-1.506h2.534c.841 0 1.444-.163 1.807-.488.364-.326.546-.733.546-1.222 0-.367-.093-.704-.279-1.011a1.982 1.982 0 0 0-.795-.733c-.341-.182-.746-.273-1.216-.273h-2.597v3.727Zm0-5.096h2.353c.394 0 .748-.076 1.062-.228.318-.151.57-.363.756-.636.189-.276.284-.602.284-.977 0-.481-.169-.885-.506-1.21-.337-.326-.854-.489-1.551-.489h-2.398v3.54Zm11.117 6.795a3.557 3.557 0 0 1-1.5-.307 2.528 2.528 0 0 1-1.063-.903c-.257-.394-.386-.877-.386-1.449 0-.492.095-.898.284-1.216.189-.318.445-.57.767-.756a4.035 4.035 0 0 1 1.08-.42c.397-.095.803-.167 1.216-.216l1.272-.148c.326-.041.563-.108.711-.198.147-.091.221-.239.221-.444v-.039c0-.497-.14-.881-.42-1.154-.277-.273-.69-.409-1.239-.409-.572 0-1.023.127-1.352.381-.326.25-.551.528-.676.835l-1.597-.364c.189-.53.466-.958.83-1.284a3.367 3.367 0 0 1 1.267-.716 4.959 4.959 0 0 1 1.505-.227c.349 0 .718.042 1.108.125.394.08.762.227 1.103.443.344.216.626.525.846.926.22.398.33.915.33 1.552V298h-1.659v-1.193h-.069c-.109.22-.274.435-.494.648-.22.212-.502.388-.847.528-.344.14-.757.21-1.238.21Zm.369-1.363c.47 0 .871-.093 1.205-.279.337-.185.592-.428.767-.727.178-.303.267-.627.267-.972v-1.125c-.061.061-.178.118-.353.171-.17.049-.365.093-.585.13-.219.034-.433.067-.642.097l-.523.068a4.27 4.27 0 0 0-.903.21 1.555 1.555 0 0 0-.648.427c-.159.181-.238.424-.238.727 0 .42.155.738.466.954.31.212.706.319 1.187.319Zm7.899-4.012V298h-1.699v-8.727h1.631v1.42h.108c.201-.462.515-.833.943-1.113.432-.281.976-.421 1.631-.421.595 0 1.115.125 1.562.375.447.246.794.614 1.04 1.102.246.489.37 1.093.37 1.813V298h-1.699v-5.347c0-.632-.165-1.126-.495-1.483-.329-.359-.782-.539-1.358-.539-.394 0-.744.085-1.051.255a1.844 1.844 0 0 0-.721.75c-.175.326-.262.72-.262 1.182Zm11.131 5.352c-.705 0-1.333-.179-1.886-.539-.55-.364-.981-.881-1.296-1.551-.31-.675-.466-1.483-.466-2.427 0-.943.157-1.75.472-2.42.318-.671.754-1.184 1.307-1.54a3.398 3.398 0 0 1 1.88-.534c.542 0 .978.091 1.307.273.333.178.591.386.773.625.185.238.329.449.432.631h.102v-4.324h1.699V298h-1.659v-1.358h-.142c-.103.186-.25.398-.443.636a2.46 2.46 0 0 1-.785.625c-.333.178-.765.267-1.295.267Zm.375-1.448c.489 0 .901-.129 1.239-.387.341-.261.598-.623.772-1.085.178-.462.267-1 .267-1.614 0-.606-.087-1.136-.261-1.591-.174-.454-.43-.808-.767-1.062s-.754-.381-1.25-.381c-.511 0-.938.133-1.278.398-.341.265-.599.627-.773 1.085a4.418 4.418 0 0 0-.256 1.551c0 .584.087 1.108.262 1.574.174.466.431.835.772 1.108.345.269.769.404 1.273.404Zm11.902-2.341v-5.108h1.705V298h-1.671v-1.511h-.091a2.721 2.721 0 0 1-.966 1.164c-.439.307-.987.461-1.642.461-.56 0-1.057-.123-1.488-.37-.428-.25-.766-.619-1.012-1.108-.242-.488-.363-1.092-.363-1.812v-5.551h1.698v5.346c0 .595.165 1.068.495 1.421.329.352.757.528 1.284.528.318 0 .634-.079.949-.238.318-.16.581-.4.789-.722.213-.322.317-.731.313-1.227Zm5.686-1.563V298h-1.699v-8.727h1.631v1.42h.108c.201-.462.515-.833.943-1.113.432-.281.975-.421 1.631-.421.594 0 1.115.125 1.562.375.447.246.794.614 1.04 1.102.246.489.369 1.093.369 1.813V298h-1.699v-5.347c0-.632-.164-1.126-.494-1.483-.329-.359-.782-.539-1.358-.539-.394 0-.744.085-1.051.255a1.846 1.846 0 0 0-.722.75c-.174.326-.261.72-.261 1.182Zm11.523 8.637c-.693 0-1.29-.091-1.79-.273-.496-.182-.902-.423-1.216-.722a3.028 3.028 0 0 1-.704-.983l1.46-.602c.102.167.238.343.409.528.174.19.409.351.704.483.3.133.684.199 1.154.199.644 0 1.176-.157 1.596-.471.421-.311.631-.807.631-1.489v-1.716h-.108c-.102.186-.25.392-.443.619a2.377 2.377 0 0 1-.784.591c-.333.167-.767.25-1.301.25-.69 0-1.311-.161-1.864-.483-.549-.325-.985-.805-1.307-1.437-.318-.637-.477-1.419-.477-2.347 0-.928.157-1.723.472-2.386.318-.663.753-1.171 1.306-1.523a3.4 3.4 0 0 1 1.881-.534c.542 0 .979.091 1.313.273.333.178.592.386.778.625.189.238.335.449.437.631h.125v-1.415h1.665v8.92c0 .75-.174 1.366-.522 1.847a3.082 3.082 0 0 1-1.415 1.068c-.591.231-1.258.347-2 .347Zm-.017-4.995c.488 0 .901-.113 1.238-.341.341-.231.599-.56.773-.988.178-.432.267-.949.267-1.551 0-.588-.087-1.105-.261-1.552-.174-.447-.43-.795-.767-1.045-.337-.254-.754-.381-1.25-.381-.512 0-.938.133-1.279.398-.341.261-.598.617-.772 1.068a4.237 4.237 0 0 0-.256 1.512c0 .572.087 1.073.261 1.505.175.432.432.769.773 1.012.345.242.769.363 1.273.363Z"/>
  <path fill="#0FF" stroke="#000" stroke-width="3" d="M264.721 184.698c-5.287-5.344 41.016-52.034 64.829-74.711 9.793-3.457 13.31 23.469 19.919 30.149s16.343-3.515 19.587-6.914c3.245-3.399 23.072 16.642 26.437 26.721 3.365 10.079 13.249 16.73 16.583 23.439 3.335 6.71 42.87 33.314 49.479 39.994 6.609 6.681 82.104 26.224 85.379 26.195 3.274-.029 49.088-3.808 58.911-3.895 9.824-.088 23.012 9.903 26.317 13.243 3.304 3.34-3.034 26.984-3.004 30.354.03 3.369-15.982 43.948-19.196 50.715-3.214 6.768-32.415 37.356-35.629 44.124-3.214 6.768-22.801 13.682-26.046 17.08-3.244 3.399-35.93 10.43-42.449 13.858-6.519 3.427-16.342 3.515-16.372.146-.03-3.37-23.072-16.642-26.377-19.983-3.305-3.34-19.587 6.915-26.166 3.604-6.579-3.311-52.453-6.271-59.002-6.213-6.549.059-39.264 3.72-45.813 3.779-6.549.058-42.539 3.749-49.118.438-6.58-3.311-39.415-13.127-42.72-16.467-3.304-3.34-23.1-20.011-29.739-30.061-5.312-8.04-2.354-19.073-.211-23.585 4.346-2.286 13.687-7.536 16.283-10.255 3.244-3.398 32.414-37.355 35.629-44.123 3.214-6.768-6.76-23.527-13.339-26.838-6.579-3.311 22.621-33.898 25.805-44.035 3.184-10.137-3.368-10.079-9.977-16.759Z"/>
  <path fill="#000" d="M317.026 310v-23.273h3.511v11.114h.284l9.761-11.114h4.421l-9.387 10.478L335.037 310h-4.227l-7.523-10.398-2.75 3.159V310h-3.511Zm27.048.352c-1.636 0-3.065-.375-4.284-1.125-1.22-.75-2.167-1.799-2.841-3.147-.674-1.349-1.011-2.925-1.011-4.728 0-1.81.337-3.394 1.011-4.75.674-1.356 1.621-2.409 2.841-3.159 1.219-.75 2.648-1.125 4.284-1.125 1.636 0 3.064.375 4.284 1.125 1.22.75 2.167 1.803 2.841 3.159.674 1.356 1.011 2.94 1.011 4.75 0 1.803-.337 3.379-1.011 4.728-.674 1.348-1.621 2.397-2.841 3.147-1.22.75-2.648 1.125-4.284 1.125Zm.011-2.852c1.061 0 1.94-.28 2.637-.841.697-.561 1.212-1.307 1.545-2.239.341-.931.511-1.958.511-3.079 0-1.114-.17-2.136-.511-3.068-.333-.94-.848-1.693-1.545-2.262-.697-.568-1.576-.852-2.637-.852-1.068 0-1.954.284-2.659.852-.697.569-1.216 1.322-1.557 2.262-.333.932-.5 1.954-.5 3.068 0 1.121.167 2.148.5 3.079.341.932.86 1.678 1.557 2.239.705.561 1.591.841 2.659.841Zm20.066-14.955v2.728h-9.535v-2.728h9.535Zm-6.978-4.181h3.398v16.511c0 .659.099 1.155.295 1.489.197.325.451.549.762.67.318.114.663.171 1.034.171.273 0 .511-.019.716-.057.204-.038.363-.068.477-.091l.614 2.807a5.875 5.875 0 0 1-.841.227 6.643 6.643 0 0 1-1.364.136 5.99 5.99 0 0 1-2.5-.477 4.282 4.282 0 0 1-1.875-1.545c-.477-.697-.716-1.572-.716-2.625v-17.216Zm15.816 22.022c-1.106 0-2.106-.204-3-.613a5.05 5.05 0 0 1-2.125-1.807c-.516-.788-.773-1.754-.773-2.898 0-.985.189-1.795.568-2.432.379-.636.89-1.14 1.534-1.511a8.012 8.012 0 0 1 2.159-.841 21.685 21.685 0 0 1 2.432-.432l2.546-.295c.651-.084 1.125-.216 1.42-.398.295-.182.443-.477.443-.886v-.08c0-.992-.28-1.761-.841-2.307-.553-.545-1.379-.818-2.477-.818-1.144 0-2.045.254-2.705.762-.651.5-1.102 1.056-1.352 1.67l-3.193-.727c.379-1.061.932-1.917 1.659-2.568a6.716 6.716 0 0 1 2.534-1.432 9.9 9.9 0 0 1 3.012-.455c.697 0 1.435.084 2.215.25a6.485 6.485 0 0 1 2.205.887c.689.431 1.254 1.049 1.693 1.852.44.795.659 1.829.659 3.102V310h-3.318v-2.386h-.136c-.22.439-.55.871-.989 1.295-.439.424-1.004.777-1.693 1.057-.689.28-1.515.42-2.477.42Zm.738-2.727c.94 0 1.743-.186 2.409-.557.675-.371 1.186-.856 1.534-1.454a3.765 3.765 0 0 0 .535-1.943v-2.25c-.122.121-.357.234-.705.34-.341.099-.731.186-1.17.262-.44.068-.868.132-1.285.193-.416.053-.765.098-1.045.136a8.472 8.472 0 0 0-1.807.421c-.538.197-.97.481-1.295.852-.318.364-.478.849-.478 1.455 0 .841.311 1.477.932 1.909.621.424 1.413.636 2.375.636ZM394.869 310v-23.273h8.523c1.652 0 3.019.273 4.102.818 1.084.538 1.894 1.269 2.432 2.194.538.916.807 1.95.807 3.102 0 .97-.178 1.788-.534 2.454a4.382 4.382 0 0 1-1.432 1.591 6.306 6.306 0 0 1-1.955.864v.227c.773.038 1.527.288 2.262.75.742.455 1.356 1.103 1.841 1.943.485.841.727 1.864.727 3.069 0 1.189-.28 2.257-.841 3.204-.553.94-1.409 1.686-2.568 2.239-1.159.545-2.64.818-4.443.818h-8.921Zm3.512-3.011h5.068c1.682 0 2.886-.326 3.613-.978.728-.651 1.091-1.466 1.091-2.443 0-.735-.185-1.409-.556-2.023-.372-.613-.902-1.102-1.591-1.465-.682-.364-1.493-.546-2.432-.546h-5.193v7.455Zm0-10.194h4.704c.788 0 1.496-.151 2.125-.454a3.718 3.718 0 0 0 1.512-1.273c.378-.553.568-1.204.568-1.954 0-.962-.337-1.769-1.012-2.421-.674-.651-1.708-.977-3.102-.977h-4.795v7.079Zm22.233 13.591c-1.106 0-2.106-.204-3-.613a5.05 5.05 0 0 1-2.125-1.807c-.516-.788-.773-1.754-.773-2.898 0-.985.189-1.795.568-2.432.379-.636.89-1.14 1.534-1.511a8.012 8.012 0 0 1 2.159-.841 21.685 21.685 0 0 1 2.432-.432l2.546-.295c.651-.084 1.125-.216 1.42-.398.295-.182.443-.477.443-.886v-.08c0-.992-.28-1.761-.841-2.307-.553-.545-1.379-.818-2.477-.818-1.144 0-2.045.254-2.705.762-.651.5-1.102 1.056-1.352 1.67l-3.193-.727c.379-1.061.932-1.917 1.659-2.568a6.716 6.716 0 0 1 2.534-1.432 9.9 9.9 0 0 1 3.012-.455c.697 0 1.435.084 2.215.25a6.485 6.485 0 0 1 2.205.887c.689.431 1.254 1.049 1.693 1.852.44.795.659 1.829.659 3.102V310h-3.318v-2.386h-.136c-.22.439-.55.871-.989 1.295-.439.424-1.004.777-1.693 1.057-.689.28-1.515.42-2.477.42Zm.738-2.727c.94 0 1.743-.186 2.409-.557.675-.371 1.186-.856 1.534-1.454a3.765 3.765 0 0 0 .535-1.943v-2.25c-.122.121-.357.234-.705.34-.341.099-.731.186-1.17.262-.44.068-.868.132-1.285.193-.416.053-.765.098-1.045.136a8.472 8.472 0 0 0-1.807.421c-.538.197-.97.481-1.295.852-.318.364-.478.849-.478 1.455 0 .841.311 1.477.932 1.909.621.424 1.413.636 2.375.636Zm15.799-8.023V310h-3.398v-17.455h3.261v2.841h.216a4.995 4.995 0 0 1 1.886-2.227c.864-.561 1.951-.841 3.262-.841 1.189 0 2.231.25 3.125.75.894.493 1.587 1.227 2.079 2.205.493.977.739 2.185.739 3.625V310h-3.398v-10.693c0-1.265-.329-2.254-.988-2.966-.659-.72-1.565-1.08-2.716-1.08-.788 0-1.489.171-2.103.512-.606.341-1.087.841-1.443 1.5-.348.651-.522 1.439-.522 2.363Zm22.261 10.705c-1.409 0-2.667-.36-3.773-1.08-1.098-.727-1.962-1.761-2.591-3.102-.621-1.348-.932-2.966-.932-4.852 0-1.887.315-3.5.944-4.841.636-1.341 1.507-2.368 2.613-3.08 1.106-.712 2.36-1.068 3.762-1.068 1.083 0 1.954.182 2.613.546.667.356 1.182.772 1.546 1.25.371.477.659.897.863 1.261h.205v-8.648h3.398V310h-3.319v-2.716h-.284c-.204.371-.5.796-.886 1.273-.379.477-.901.894-1.568 1.25s-1.53.534-2.591.534Zm.75-2.898c.977 0 1.803-.257 2.477-.773.682-.522 1.197-1.246 1.546-2.17.356-.924.534-2 .534-3.227 0-1.212-.174-2.273-.523-3.182-.348-.909-.86-1.618-1.534-2.125-.674-.508-1.508-.761-2.5-.761-1.023 0-1.875.265-2.557.795-.682.53-1.197 1.254-1.545 2.17-.341.917-.512 1.951-.512 3.103 0 1.166.175 2.216.523 3.147.349.932.864 1.671 1.545 2.216.69.538 1.538.807 2.546.807Zm23.804-4.682v-10.216h3.409V310h-3.341v-3.023h-.182c-.401.932-1.045 1.709-1.932 2.33-.878.613-1.973.92-3.284.92-1.121 0-2.113-.246-2.977-.738-.856-.5-1.53-1.239-2.023-2.216-.484-.978-.727-2.186-.727-3.625v-11.103h3.398v10.694c0 1.189.329 2.136.988 2.841.66.704 1.516 1.056 2.569 1.056.636 0 1.269-.159 1.897-.477.637-.318 1.163-.799 1.58-1.443.424-.644.632-1.462.625-2.455Zm11.372-3.125V310h-3.398v-17.455h3.262v2.841h.216a4.988 4.988 0 0 1 1.886-2.227c.864-.561 1.951-.841 3.261-.841 1.19 0 2.231.25 3.125.75.894.493 1.587 1.227 2.08 2.205.492.977.739 2.185.739 3.625V310h-3.398v-10.693c0-1.265-.33-2.254-.989-2.966-.659-.72-1.564-1.08-2.716-1.08-.788 0-1.488.171-2.102.512-.606.341-1.087.841-1.443 1.5-.349.651-.523 1.439-.523 2.363Zm23.046 17.273c-1.387 0-2.58-.182-3.58-.545-.992-.364-1.803-.845-2.432-1.444-.629-.598-1.098-1.253-1.409-1.965l2.921-1.205c.204.333.477.686.818 1.057.348.379.818.701 1.409.966.598.265 1.367.397 2.307.397 1.287 0 2.352-.314 3.193-.943.841-.621 1.261-1.613 1.261-2.977v-3.432h-.216c-.204.371-.5.784-.886 1.239-.379.454-.902.848-1.568 1.182-.667.333-1.534.5-2.603.5-1.378 0-2.621-.322-3.727-.966-1.098-.652-1.97-1.61-2.613-2.875-.637-1.273-.955-2.837-.955-4.693 0-1.857.314-3.447.943-4.773.637-1.326 1.508-2.341 2.614-3.046 1.106-.712 2.36-1.068 3.761-1.068 1.083 0 1.958.182 2.625.546.667.356 1.186.772 1.557 1.25.379.477.67.897.875 1.261h.25v-2.83h3.33v17.841c0 1.5-.349 2.731-1.046 3.694-.697.962-1.64 1.674-2.829 2.136-1.182.462-2.516.693-4 .693Zm-.035-9.989c.978 0 1.803-.227 2.478-.681.682-.462 1.197-1.122 1.545-1.978.356-.863.534-1.897.534-3.102 0-1.174-.174-2.208-.522-3.102-.349-.894-.86-1.591-1.535-2.091-.674-.508-1.507-.761-2.5-.761-1.022 0-1.875.265-2.556.795-.682.523-1.197 1.235-1.546 2.136-.341.902-.511 1.909-.511 3.023 0 1.144.174 2.148.523 3.011.348.864.863 1.538 1.545 2.023.689.485 1.538.727 2.545.727Z"/>
</svg>
