<svg xmlns="http://www.w3.org/2000/svg" width="834" height="534" fill="none" viewBox="0 0 834 534">
  <path fill="#C8B7B7" stroke="#000" d="M121.35 191.901h13.077v7.4c0 1.542 3.923 4.933 5.231 7.092 1.307 2.158 3.051 6.475 4.794 6.167 1.744-.308 4.359-.308 5.231-.925.872-.617 3.487-1.85 5.667 0 2.179 1.85 5.23 3.083 6.974 2.467 1.743-.617 6.102-5.242 8.282-5.242 2.179 0 3.923 5.55 5.666 5.242 1.395-.247 11.624-7.504 16.564-11.101 2.76-.925 8.456-2.96 9.153-3.7.872-.925 2.18-3.7 2.616-7.4.436-3.701 2.179-4.317 3.051-5.243.872-.925.436-3.083.872-5.55.436-2.467 4.359 0 5.666 1.234 1.308 1.233-.872 4.933-1.307 7.092-.436 2.158-1.308 4.317-.872 4.933.348.494 4.213 1.645 6.102 2.159.291.822 1.133 2.528 2.18 2.775 1.307.308 21.794 7.092 29.204 10.484 5.928 2.713 16.709 9.353 21.358 12.334.872 1.747 2.616 5.365 2.616 5.858 0 .617 2.179 6.784 3.051 8.018.872 1.233 12.641 6.475 14.82 6.783 2.179.309.872 2.775-.872 5.859-1.743 3.083-9.153 6.475-10.461 6.475-1.308 0-6.538.925-7.846 1.542-1.308.617-8.282 2.775-14.82 3.7-6.538.925-14.82-3.392-17.436-3.7-2.615-.308-5.666.925-6.974 1.542-1.307.616-6.538.925-8.282 1.233-1.394.247-9.88 14.082-13.948 20.968-1.743.72-5.579 2.282-6.974 2.775-1.744.617-7.41 3.392-17 3.084-9.589-.309-11.769-2.775-12.64-2.159-.872.617-11.333-2.158-13.077-2.467-1.743-.308-7.41-1.541-11.333-3.391-3.923-1.851-5.666-3.392-6.102-4.626-.436-1.233-2.616-1.85-3.487-2.466-.872-.617-2.18 0-2.616.616-.348.494-3.632.617-5.23.617l-3.052 1.233c-2.034.411-6.625 1.234-8.717 1.234-2.616 0-4.795.925-6.103 2.467-1.307 1.541-10.461 1.541-10.897.925-.348-.494-2.76-.823-3.923-.925-2.18-.103-6.712-.432-7.41-.926-.872-.616-1.743-5.858-2.615-6.167-.872-.308-4.795 3.392-5.23 4.626-.437 1.233-4.796 3.083-6.539 3.392-1.744.308-2.615 1.233-2.615 2.466 0 .987-3.197 1.645-4.795 1.85-.29.206-1.57-.123-4.359-3.083-3.487-3.7-16.127-11.101-18.743-11.409-2.615-.308-2.18-6.167-3.487-10.176-1.308-4.008-1.744-12.334 0-15.725 1.743-3.392-3.487-5.551-5.667-7.401-2.18-1.85-.435-15.417-2.179-18.501-1.743-3.083 1.744-3.083 4.359-3.392 2.615-.308 8.282-.925 9.59-1.541 1.307-.617 4.794-4.934 3.05-5.859-1.743-.925-6.102-10.176-7.845-12.334-1.744-2.159 4.794-5.859 7.845-7.092 3.052-1.234 3.488-2.159 6.103-3.7 2.615-1.542 3.487 1.541 4.794 4.933 1.308 3.392 4.795 3.084 7.41 4.626 2.616 1.541.436-3.701 3.052-4.626 2.615-.925 6.102-.308 10.897 0 4.795.309 5.666 4.626 8.718 5.859 3.05 1.233 18.743.308 20.486 0 1.744-.308 3.051-1.233 6.974-1.233Z"/>
  <path fill="#2AD4FF" stroke="#000" d="M184.555 193.44c1.744.987 5.086-.411 6.539-1.233-1.744 5.55 1.308 8.942 1.744 10.175.435 1.234-5.667 4.934-8.283 6.476-2.615 1.541-8.717 7.092-9.589 5.55-.872-1.542-2.615-4.625-4.359-5.55-1.743-.925-6.538 4.008-8.281 5.55-1.744 1.542-4.36-.925-7.411-3.084-3.05-2.158-3.922.309-4.794 0-.872-.308-3.923.617-6.103 1.542-2.179.925-2.615-3.083-3.923-5.55-1.307-2.467-6.102-6.784-6.102-8.634 0-1.85.436-5.242 0-6.475-.436-1.234 6.974 0 9.153-1.234 2.18-1.233 3.923-2.158 4.359-3.083.436-.925 5.667-4.009 8.718-4.626 3.051-.616 4.359 2.467 4.359 3.392 0 .925-1.308 3.392-2.616 4.317-1.307.925 1.744 1.234 5.231 1.234s5.667-1.851 9.154-2.159c3.487-.308 10.025 2.159 12.204 3.392Z"/>
  <path fill="#FCA" stroke="#000" d="M209.394 160.449c.698-.74 1.744-6.681 2.18-9.559 0 .309 1.743 0 2.615-.308.872-.309 3.923-1.85 5.231-2.159 1.307-.308 2.615.925 3.923 1.85 1.307.925 8.717 7.709 9.153 8.943.436 1.233-.436 2.775-.436 3.083 0 .308-.871 5.242-.436 6.167.436.925-2.179.925-2.615 1.542-.436.617-.436 1.542.436 2.158.872.617 2.179 2.467 3.051 4.934.872 2.467-2.615 8.942-3.051 10.175-.436 1.234-9.589 6.167-10.461 6.476-.698.246-1.163 2.158-1.308 3.083-1.598-.514-4.969-1.665-5.666-2.158-.872-.617.871-3.7.871-5.242 0-1.542 1.744-4.009 1.744-6.167 0-2.159-3.487-2.775-5.231-2.467-1.743.308-.871 4.009-1.307 5.242-.436 1.233-1.744 1.85-2.616 3.392-.871 1.542-1.743 7.092-2.179 8.634-.436 1.541-6.539 4.008-9.154 4.625s-3.487-7.709-3.051-9.867c.436-2.159 3.923-11.101 3.051-13.259-.871-2.159-2.615-2.467-1.307-3.701 1.307-1.233.436-1.85 1.307-3.391.872-1.542 5.231-1.542 6.974-1.542 1.744 0 .872-2.467.872-4.317s6.539-5.242 7.41-6.167Z"/>
  <path fill="#FFE680" stroke="#000" d="M281.329 254.806c2.092-.247 7.265-4.214 9.59-6.167 1.598 0 5.23.246 6.974 1.233 2.179 1.233 10.025 7.4 10.897 7.4.872 0-2.616 3.392-3.923 4.626-1.308 1.233-1.308 2.775-1.308 3.7 0 .74 12.496 5.242 18.743 7.4.872.206 2.79.864 3.487 1.85.872 1.234.872 1.851 0 3.392-.871 1.542-5.23 1.542-6.102 1.234-.872-.309-1.744-3.084-1.744-3.701 0-.616-3.923 1.542-3.923 2.467s-.871 4.317-.871 5.551c0 1.233 4.794 3.083 5.666 3.7.872.617.872 2.158 0 2.775s0 2.467.872 3.7c.872 1.234 0 2.159.872 5.242.871 3.084 3.487 3.392 5.23 3.7 1.744.309 1.744 1.234 0 4.009-1.743 2.775-22.23 9.867-23.102 11.1-.871 1.234-6.974.926-8.717 1.234-1.744.308-4.359 1.233-4.359 2.158 0 .925-5.231 2.775-5.667 3.392-.436.617-3.051 4.317-4.359 6.784-1.307 2.467 3.488 5.242 3.488 6.167 0 .925-3.052 4.625-5.231 6.475-1.744 1.48 2.76 2.262 5.231 2.467 3.632-.617 11.507-1.727 13.948-1.233 3.051.616 6.538 4.317 7.846 5.55 1.046.987 7.119.822 10.025.617 1.598 1.336 4.795 4.07 4.795 4.317 0 .308-2.615 6.783-3.051 7.4-.436.617-2.18.617-3.487.617-1.308 0-8.718 9.867-10.462 10.792-1.743.925-1.307 2.775-1.307 3.7 0 .925 17.435.925 18.307 1.234.872.308 2.615-1.542 4.359-1.234 1.743.308 5.666 2.775 6.538 4.317.872 1.542 4.359 3.7 5.231 4.009.871.308 10.025 2.466 10.897 2.466.872 0 1.743.309 4.359.925 2.092.494 11.333.617 15.692.617-.872 2.467-2.616 8.017-2.616 10.484 0 3.084 5.231 7.709 5.667 8.634.436.925-2.18 8.942-2.616 10.484-.348 1.233-2.179 2.364-3.051 2.775-1.743.411-5.928 1.48-8.717 2.467-3.488 1.233-2.616 4.625-4.359 7.4-1.395 2.22-1.163 8.942-.872 12.026-6.103-1.234-19.266-3.885-23.102-4.625-4.795-.925-29.204-.617-37.05-.925-7.846-.309-19.179-3.084-23.102-4.317-3.923-1.234-16.128-3.084-23.974-3.084s-26.589-1.542-34.871-2.467c-6.626-.74-36.179-1.13-50.127-1.233-.145-.308-.348-1.234 0-2.467.349-1.233-2.179-1.336-3.487-1.233-1.598-.823-4.359-2.837-2.615-4.317 2.179-1.85 9.589-3.7 13.948-6.784 4.359-3.083 8.282-2.158 10.025-1.85 1.744.308 2.18-1.233 6.975-1.85 4.794-.617 3.051-2.467 6.538-3.7 3.487-1.234 15.692-2.159 18.743-4.317 3.051-2.159 0-4.625 3.051-6.784 3.051-2.158-4.795-2.158-6.102-3.083-1.308-.925 6.538-4.934 8.718-7.092 2.179-2.159-4.795-14.493-5.667-18.193-.872-3.7-4.359-2.775-6.538-4.934-2.18-2.158-.436-3.083 0-7.4.349-3.454 1.598-6.167 2.179-7.092 1.599-3.084 5.841-9.374 10.026-9.867 5.23-.617 13.076 4.316 16.127 4.933 3.052.617 5.667-.925 7.846-2.775 2.18-1.85-3.923-5.242-6.102-7.092-2.179-1.85-2.179-4.625 0-6.784 2.179-2.158 6.974 1.542 8.282 2.159 1.308.616 1.743-1.542 0-3.701-1.744-2.158-4.359-4.008-4.359-6.167 0-2.158-1.744-4.625-3.923-6.167-2.179-1.541-1.308-4.316 0-6.475 1.308-2.158-5.666-2.467-9.589-5.242s-10.462-17.576-11.333-19.426c-.872-1.85 10.897-19.118 12.64-20.968 1.744-1.85 6.974 0 11.333-2.467 4.359-2.466 16.564 2.159 20.923 2.467 4.359.309 10.897-.308 14.384-2.467 3.487-2.158 8.718-2.158 11.333-2.466Z"/>
  <path fill="#87DECD" stroke="#000" d="M549.402 256.655c-1.744-.494-2.47-2.673-2.616-3.701.727-.719 2.354-2.281 3.051-2.775.872-.616 4.795-2.467 5.667-2.775.872-.308.436-2.467 0-5.242s1.308-2.775 2.179-3.083c.872-.309 7.846-.309 8.282-.617.436-.308 5.231-.617 6.103-.617.871 0 2.179-.616 2.615-.616.436 0 1.308 1.233 1.743 1.541.436.309.872 4.009 1.308 4.934.436.925 2.615 1.542 3.051 1.542.436 0 2.616.308 3.487.616.872.309 3.488.617 4.795.309 1.046-.247 1.598-.925 1.744-1.234l1.743-2.775c1.163-1.028 3.575-3.207 3.923-3.7.436-.617 2.18-.617 4.359 0 2.18.617 6.538.617 10.461.925 3.923.308 4.359 1.542 5.667 2.775 1.308 1.234.436 3.7.436 5.242 0 1.542.872 1.233 1.307 1.233.436 0 3.487-.925 4.359-.925.872 0 5.231.617 6.103.617.871 0 1.743.925 2.179 1.542.436.617 1.308 2.158 1.744 2.467.348.246 1.017 2.158 1.307 3.083.291.925 1.046 3.084 1.744 4.317.872 1.542 3.923 2.159 5.23 2.467 1.308.308 3.923 1.85 4.359 2.158.436.309-.436 4.009-.436 4.934 0 .925 3.052 3.083 3.488 3.392.435.308-.436 1.542-1.308 2.775-.872 1.233 0 3.392.436 3.7.348.247 4.213 2.364 6.102 3.392 1.162.617 3.574 1.912 3.923 2.158.436.309-.436 1.542-.872 1.851-.348.246.436.719.872.925l-.872.616c-.436.309-.871.309-1.743 1.234-.872.925-1.308 3.7 0 5.242 1.307 1.541 2.615 5.55 2.615 5.858 0 .309.872 12.643.872 13.259 0 .617-2.615 6.784-3.487 8.326-.872 1.542-2.616 9.559-3.051 11.409-.436 1.85 0 3.392 0 4.008 0 .617 2.179 5.551 2.179 5.859 0 .308-.436 1.85-.872 2.158-.348.247-1.307 1.953-1.743 2.776h-1.744c-.436 0-6.538-2.776-7.846-3.084-1.307-.308-3.487 3.084-3.923 3.392-.436.308-2.179 0-4.359-.617-2.179-.616-6.974-1.85-7.846-1.85-.871 0-4.794.925-5.666 1.234-.872.308-10.025.616-10.461.308-.436-.308-5.667-1.85-7.41-2.159-1.744-.308-8.282 0-10.898.309-2.092.246-3.196.719-3.487.925-1.598.411-5.056 1.357-6.102 1.85-1.308.617-3.051.308-3.923 0-.697-.247-4.359-3.392-6.102-4.934 2.179-1.336 6.974-4.317 8.717-5.55 2.18-1.542 2.616-7.092 3.052-8.942.435-1.85 13.076-8.326 14.82-9.867 1.743-1.542.436-5.859.436-6.784 0-.925-3.923-.617-5.231-1.85-1.308-1.234.872-1.542.872-3.7 0-2.159-12.205-10.484-13.513-11.409-1.307-.925 1.308-5.859 2.18-7.092.871-1.234-2.18-4.009-2.616-4.934-.436-.925-.436-2.467.436-3.392.872-.925 1.744-3.083.872-4.317-.872-1.233-1.744-3.083-3.051-4.933-1.308-1.85-5.231-1.85-6.974-2.467-1.744-.617-5.231-2.467-5.231-3.7 0-1.234-3.051-4.317-3.923-4.626-.872-.308-5.231.309-6.974-.616-1.744-.925-4.359-2.159-6.538-2.775Z"/>
  <path fill="#5FBCD3" stroke="#000" d="M571.194 343.609c1.395.493 3.487 2.261 4.359 3.084-1.308-.309-2.179 3.391-2.615 3.7-.436.308-2.18 6.783-2.615 7.708-.436.926-3.923.617-6.103.617-2.179 0-7.41 1.85-8.718 2.775-1.307.925 1.308 5.551 2.18 5.859.697.247 1.162 1.747 1.308 2.467-2.035 1.85-6.19 5.612-6.539 5.858-.436.309-1.307 3.084-.871 3.392.348.247-2.471 3.392-3.923 4.934-2.906.617-8.98 1.912-10.026 2.158-1.307.309-10.025 3.701-10.897 4.009-.697.247-7.846 3.186-11.333 4.625-2.615.514-8.02 1.604-8.718 1.85-.871.309 4.359 4.625 4.795 4.934.436.308 1.308 1.85 1.308 2.467 0 .616-3.052 4.008-3.487 4.317-.436.308-10.026 5.858-10.462 6.167-.348.246 4.795 1.747 7.41 2.466 1.308.514 4.098 1.665 4.795 2.159.872.617 1.744 4.625 2.18 5.55.435.925 2.615 12.026 2.615 12.334 0 .308-1.744 7.092-2.18 7.401-.435.308-3.487 11.408-3.487 11.717 0 .308.872 1.85.872 2.158 0 .309-1.743 2.159-2.615 2.467-.872.308-2.18 1.85-3.051 4.009-.872 2.158.871 9.25 1.307 9.867.436.617.872 3.083 0 4.008-.871.925-.436 3.084-.436 3.392 0 .309 3.052 4.317 3.052 4.934s-3.487 3.7-4.359 4.317c-.698.493-.581 2.467-.436 3.392h-10.025c-1.308 0-7.411 2.158-10.026 1.85-2.615-.309-6.974-4.934-7.41-7.092-.436-2.159-6.102-7.092-7.846-8.017-1.743-.925-21.358 0-22.666 0-1.308 0-3.487-.925-5.231-.925-1.743 0-7.845 1.233-9.589.925-1.744-.309-.872-7.401-.872-8.943 0-1.541-5.666-5.242-8.718-6.783-3.051-1.542-15.691-6.167-17.435-7.401-1.743-1.233-7.846-1.541-13.077-1.85-5.23-.308-16.127-5.242-17.435-5.55-1.308-.308-9.154-4.009-11.333-5.242-2.179-1.233-5.666-.617-6.974-.617-1.308 0-5.666.309-6.538-.616-.872-.926 1.743-13.876 3.487-16.651 1.744-2.776 6.538-3.701 9.154-4.009 2.615-.308 4.794-2.467 4.794-3.7 0-1.234 2.18-7.709 2.616-9.559.436-1.85-3.488-4.317-5.231-7.4-1.744-3.084 1.743-11.409 2.615-12.334.872-.925 6.538-.925 7.846-.925 1.308 0 3.923 0 5.666-1.234 1.744-1.233 3.487.925 5.231 1.234 1.744.308 5.231.308 7.41.925 2.18.616 7.41 2.775 8.282 3.391.872.617 4.359 2.776 6.102 3.392 1.744.617 3.923 5.551 4.795 5.551.872 0 13.513-6.476 14.82-7.092 1.308-.617 3.487 1.541 4.359 1.541.872 0 5.231.617 7.41 1.234 2.18.616 5.231.308 6.102-.617.872-.925 5.667-5.242 6.103-6.475.349-.987-2.47-1.234-3.923-1.234-1.163-1.028-3.749-3.392-4.795-4.625-1.308-1.542 3.487-3.392 3.923-4.009.436-.616 4.794-7.092 5.666-9.25.872-2.159 17.872-5.242 19.615-6.475 1.744-1.234 3.051-8.943 3.487-10.793.436-1.85 4.795-1.85 5.667-3.083.871-1.234 2.179-2.775 4.359-4.934 2.179-2.158 25.717-2.467 26.589-3.083.871-.617-1.744-2.159-3.487-3.084-1.744-.925-2.18-1.85-2.18-3.083 0-1.234-1.743-4.009-3.051-4.934-1.308-.925 0-3.392 1.308-4.625 1.307-1.233 2.179-4.625 3.051-5.242.872-.617 10.897.617 13.948 1.233 3.051.617 4.795 2.775 4.795 4.009 0 1.233 4.795 2.467 6.102 3.392 1.308.925 4.795-1.542 6.539-1.542 1.743 0 8.717 1.542 10.897 1.85 2.179.308 4.795-1.85 6.102-1.85 1.308 0 .436.925 1.308 1.542.872.616 4.359 4.317 5.666 4.933 1.308.617 6.975 6.167 8.718 6.784Z"/>
  <path fill="#F0F" stroke="#000" d="M708.065 273.614c.697.741 3.196 2.159 4.359 2.776.435.235-2.616.616-3.487.616-.872 0-1.744 1.542-2.18 2.159-.436.616-2.179 2.158-3.051 2.467-.872.308-1.744 3.7-2.615 4.625-.872.925-4.795.925-5.667.616-.872-.308-1.308-2.775-1.308-5.241 0-2.467.872-4.317 1.308-5.242.436-.925 7.41-4.317 8.282-4.626.872-.308 1.308-1.233 1.743-1.85.436-.616 1.744 2.775 2.616 3.7Z"/>
  <path fill="#FFD5D5" stroke="#000" d="M138.791 428.408h18.998c.34 0 .616-.276.616-.617v-.967a1.806 1.806 0 0 0-1.807-1.808h-.808c-.872 0-1.308-.308-1.743-.616-.542-.384-.766-1.159-1.308-1.542-.436-.309 0-1.542 0-2.159 0-.551.689-.753 1.182-1.001.627-.314 1.395-.681 1.869-.849a49.304 49.304 0 0 1 2.074-.643c.649-.19 1.28-.439 1.88-.75l5.636-2.924 1.743-.925 1.308-.925c1.062-.751 2.418-.925 3.719-.925h6.715a2.26 2.26 0 0 0 1.553-.617c.42-.396.975-.616 1.552-.616h.845c.872 0 2.615-.309 3.051-.617.436-.308 1.744-1.233 2.18-1.85.131-.186.349-.378.594-.556.716-.522 1.592-.752 2.462-.925 1.125-.224 2.367-.506 2.61-.678.436-.308 3.487-.308 4.359-.308.697 0 2.325-.205 3.051-.308l4.87-1.231a4.353 4.353 0 0 0 2.104-1.236l.411-.387c.572-.54.897-1.293.897-2.08v-2.282c0-.503.244-.974.654-1.264.41-.29.654-.761.654-1.263v-1.111a1.48 1.48 0 0 0-1.48-1.48h-2.705a.61.61 0 0 1-.353-1.107l.615-.435 1.743-1.233c.727-.412 2.18-1.357 2.18-1.85 0-.263.412-.479.907-.64.793-.256 1.545-.671 2.025-1.351.361-.511.555-1.12.555-1.745v-2.247c0-.503-.244-.974-.654-1.264a1.547 1.547 0 0 1-.654-1.263v-.124a6.887 6.887 0 0 0-.657-2.937l-.215-.455-1.307-2.775-1.021-2.408a3.595 3.595 0 0 1-.287-1.41c0-.532-.118-1.057-.344-1.538l-.528-1.12-.464-.985c-.553-1.173-1.364-2.282-2.587-2.715a5.878 5.878 0 0 0-1.743-.308h-1.382a1.233 1.233 0 0 1-1.234-1.234v-.2c0-.465.178-.913.498-1.252.244-.26.407-.585.469-.935l.242-1.37a4.79 4.79 0 0 0 .08-1.127c-.04-.666-.154-1.528-.417-1.899a3.809 3.809 0 0 1-.204-.319c-.215-.376-.306-.815-.45-1.223a3.82 3.82 0 0 1-.218-1.271v-.128a3.262 3.262 0 0 1 1.376-2.658l.234-.165c.377-.267.706-.596.972-.973l.905-1.28 1.442-2.04c.2-.283.35-.598.444-.931a3.054 3.054 0 0 1 1.174-1.661l.187-.132a3.716 3.716 0 0 0 1.084-1.199l.158-.28c.203-.359.449-.693.733-.994l1.054-1.118a3.841 3.841 0 0 1 2.789-1.204h.493c.879 0 1.746.215 2.523.628l.56.297 2.179 1.233 1.308.617 2.615.925 2.18.925.125.044a9.998 9.998 0 0 0 3.335.573h6.246c.473 0 .918-.23 1.191-.617l.694-.736c.118-.126.249-.239.389-.339l.41-.29a1.625 1.625 0 0 0 .176-2.508l-.797-.752-1.744-1.85-2.179-2.467-1.968-2.505a3.048 3.048 0 0 1-.358-.581l-.027-.057a2.754 2.754 0 0 1-.263-1.174v-.063a2.468 2.468 0 0 1 .777-1.8l.967-.912.037-.026a3.211 3.211 0 0 1 3.23-.284l.288.136c.245.116.479.252.7.409l.139.098c.266.189.513.403.737.641l.415.439c.08.085.146.182.196.288.213.452.702.705 1.194.618l.383-.068a1.61 1.61 0 0 0 .894-.482l.27-.287a.86.86 0 0 0 .076-1.089l-.713-1.01-2.18-2.467-.641-.907a2.294 2.294 0 0 0-.556-.556 2.326 2.326 0 0 1-.982-1.898v-2.27a3.857 3.857 0 0 0-1.212-2.809l-.184-.174a4.784 4.784 0 0 1-.623-.718l-.056-.079a5.478 5.478 0 0 0-1.304-1.305l-.722-.51a2.68 2.68 0 0 1-.977-1.292l-.022-.062a2.292 2.292 0 0 1 .413-2.245l.22-.26c.351-.413.544-.944.544-1.486 0-.255.043-.511.128-.751l.1-.283a1.516 1.516 0 0 0-.554-1.743l-.465-.329a3.682 3.682 0 0 0-1.125-.538l-1.137-.321a3.232 3.232 0 0 0-.885-.123 3.258 3.258 0 0 1-1.602-.422l-.813-.46c-.413-.234-.8-.51-1.156-.824l-1.209-1.069-1.386-1.471a10.011 10.011 0 0 1-1.929-2.954l-.608-1.434-.871-2.158-1.744-3.084-2.179-3.392-.872-1.233-1.129-2.129a2.319 2.319 0 0 0-2.82-1.1l-.41.145-2.615.925-2.616 1.234-1.946.688a8.2 8.2 0 0 0-1.287.586 8.094 8.094 0 0 1-3.35 1.025l-6.057.476h-6.278a8.185 8.185 0 0 1-2.222-.308 8.147 8.147 0 0 0-2.222-.309h-1.477a8.528 8.528 0 0 1-1.739-.167c-.603-.126-1.309-.292-1.754-.45-.872-.308-1.744-.616-2.615-.616h-1.308c-.577 0-1.15-.099-1.694-.291l-.706-.25a6.729 6.729 0 0 0-2.241-.384 5.58 5.58 0 0 1-1.168-.114c-.606-.13-1.346-.322-1.601-.503-.436-.308-1.308-.617-2.18-.617-.061 0-.12-.004-.177-.013-.909-.14-1.717-.912-2.636-.912a2.33 2.33 0 0 1-.471-.047l-2.818-.569-4.041-1.04a4.227 4.227 0 0 1-1.39-.644c-.443-.313-.947-.53-1.458-.714-.456-.164-.984-.397-1.393-.686l-1.743-1.233c-.436-.309-1.308-.925-1.308-1.542s-.872-.617-2.179-2.159c-.481-.566-.918-.807-1.279-.873-.55-.1-1.241.016-1.697-.307a1.126 1.126 0 0 0-1.088-.117l-1.02.433a3.1 3.1 0 0 1-1.216.248h-.076c-.396 0-.789.067-1.163.199l-.356.126a5.078 5.078 0 0 1-1.696.291c-.857 0-1.7.217-2.451.63l-1.043.574a9.709 9.709 0 0 1-3.707 1.154l-6.309.638a9.91 9.91 0 0 0-1.717.327l-1.336.378-3.051 1.233-.339.12c-.931.329-1.906.519-2.893.563l-5.097.225a4.268 4.268 0 0 1-.774-.037l-1.454-.206a.796.796 0 0 1-.538-.329.795.795 0 0 0-.65-.336h-7.493a2.559 2.559 0 0 1-1.476-.469l-.498-.352a1.38 1.38 0 0 1-.582-1.126c0-.14-.022-.279-.064-.413l-.718-2.287c-.06-.19-.09-.388-.09-.587v-.173c0-.652-.376-1.246-.966-1.524l-.067-.031a1.356 1.356 0 0 0-1.545.275l-4.787 4.869a10.006 10.006 0 0 1-4.229 2.558l-.61.185-2.465.581a1.894 1.894 0 0 0-1.459 1.843 1.893 1.893 0 0 1-1.893 1.893H69.68c-.625 0-1.168.43-1.312 1.039a1.347 1.347 0 0 1-1.002 1.002l-.497.117-12.742 4.789c-.8.301-1.56.703-2.258 1.197l-1.351.956a10.002 10.002 0 0 0-2.551 2.626l-1.29 1.939a6.966 6.966 0 0 0-1.166 3.857 6.96 6.96 0 0 1-1.277 4.019l-.257.364a8.363 8.363 0 0 1-2.711 2.452l-1.497.847a10.02 10.02 0 0 0-2.222 1.709l-.08.082a9.998 9.998 0 0 0-2.853 6.994v1.056a7.132 7.132 0 0 1-1.308 4.116l-.535.756A4.216 4.216 0 0 0 32 324.6v.066a4.022 4.022 0 0 0 5.361 3.79l6.843-2.42 6.724-2.141a10.009 10.009 0 0 1 4.075-.416l9.688 1.015 9.347 1.322a4.726 4.726 0 0 1 3.99 3.857l.984 5.563a10 10 0 0 1-.575 5.485l-.318.787a9.976 9.976 0 0 1-.86 1.66l-2.642 4.113a10 10 0 0 1-3.103 3.068l-13.361 8.372-4.204 2.181a4.327 4.327 0 0 0-2.24 4.738l1.134 5.348c.052.249.14.489.259.714l.026.049a2.676 2.676 0 0 1-2.364 3.929H36.337a8.098 8.098 0 0 0-8.046 7.187l-1.298 11.48a9.999 9.999 0 0 0 .335 3.918l.972 3.338a9.999 9.999 0 0 0 6.727 6.783l9.176 2.754 18.353 5.801a9.99 9.99 0 0 1 3.776 2.194l1.15 1.063a10 10 0 0 0 6.79 2.66h.534c.52 0 1.04.04 1.553.121l2.24.352a9.948 9.948 0 0 1 1.781.451l2.435.862c.7.247 1.426.416 2.164.503l8.313.98c.69.082 1.387.091 2.08.028l10.938-.999a10.018 10.018 0 0 1 3.036.187l3.112.678a10.01 10.01 0 0 0 2.127.229h11.101c.886 0 1.769.118 2.625.35l3.58.974c.53.145 1.072.245 1.62.3l5.28.534Z"/>
  <path fill="#71C837" stroke="#000" d="M185.844 316.103c.198-.341.408-.712.575-1.029.231-.439.641-.867 1.109-1.032.061-.022.123-.038.187-.05l1.648-.291 4.795-.308h3.487l1.137.161c.69.097 1.357.314 1.972.64l.098.052c.475.252.914.567 1.305.936l.718.677.872.925c.284.402.436.881.436 1.372v1.861a1.497 1.497 0 0 0 1.156 1.46l.351.082c.444.105.904.118 1.353.039l.387-.069a4.314 4.314 0 0 1 1.356-.023l1.072.152a1.233 1.233 0 0 1 .942 1.744l-.213.452a1.964 1.964 0 0 1-.94.94l-.669.316-.43.202a1.532 1.532 0 0 0-.878 1.385c0 .174-.029.347-.087.511l-.202.569c-.097.275-.25.526-.449.738l-.386.409a.672.672 0 0 0-.183.462.631.631 0 0 1-.292.541c-.325.2-.758.425-1.016.425h-1.843a4.868 4.868 0 0 1-2.276-.566 4.862 4.862 0 0 0-1.43-.493l-.471-.083a5.997 5.997 0 0 0-1.045-.092h-6.448l-4.337-.279a6.198 6.198 0 0 0-.914.011l-2.601.23c-.286.026-.57.071-.849.137l-1.583.374a5.96 5.96 0 0 0-1.182.413l-.013.006a5.983 5.983 0 0 1-1.515.481l-.583.104a4.36 4.36 0 0 1-.748.065h-.429c-.61 0-1.2-.308-1.809-.308-.349 0-.436-.617-.436-.925v-.048c0-.575.149-1.14.432-1.641a3.5 3.5 0 0 1 1.203-1.242c.905-.566 2.023-1.32 2.288-1.694.255-.361 1.148-.634 1.893-.795a8.502 8.502 0 0 0 1.403-.406l2.067-.835c.202-.082.393-.186.571-.312.396-.28.723-.655.892-1.11.084-.223.148-.435.148-.551v-3.216c0-.518.144-1.026.404-1.474Z"/>
  <path fill="#93AC9D" stroke="#000" d="M779.112 336.21c.349-1.48-5.957-4.933-9.153-6.475-.436-.213-7.41 3.7-8.718 4.008-1.308.309-2.615 0-3.923-.925-1.308-.925.872-2.775 1.308-3.083.436-.308.872-2.159.872-3.084 0-.925-12.641-8.017-13.949-8.633-1.307-.617-1.307 1.233-2.179 1.85-.872.616-6.538 0-7.41-.309-.872-.308.872-2.158 1.307-3.392.436-1.233-1.743-2.775-2.615-3.391-.872-.617-7.846-.617-8.718-.617-.871 0-7.846 0-7.846-.308 0-.309-5.666-.309-6.538-.617-.872-.308-3.051-6.167-3.923-7.709-.872-1.542-3.923-1.85-5.666-2.158-1.744-.309-10.026-2.467-10.462-3.084-.435-.617-.871-4.625-.871-6.784 0-2.158-10.897-4.933-11.769-4.933-.872 0-6.103-.617-8.718-1.234-2.615-.616-6.102.309-7.846 1.234-1.743.925-3.923.925-5.666 1.233-1.744.309-2.18 2.775-2.616 4.009-.436 1.233 3.051 4.933 3.487 8.017.436 3.083.872 11.717.872 13.567 0 1.85-3.923 9.868-4.358 11.101-.436 1.233-2.616 10.792-2.18 12.334.436 1.542 1.744 4.934 2.18 6.475.435 1.542-2.18 4.009-2.18 4.626 0 .616 4.359 3.083 5.667 3.391 1.307.309 6.974 5.242 7.846 6.784.871 1.542 7.41 2.159 10.461 2.467 3.051.308 10.897 2.775 12.205 3.392 1.307.617 4.358 4.008 4.358 5.858 0 1.851 4.359 3.701 5.667 4.009 1.308.308 8.717 1.85 9.589 1.85.872 0-.436-3.7 0-4.625.436-.925 9.154-4.009 9.59-4.934.436-.925 11.769-1.85 15.692-.925s13.948 3.084 15.256 2.775c1.307-.308 6.102-6.783 6.974-8.017.872-1.233 5.23-1.541 6.974-1.233 1.743.308 9.589-1.542 10.461-2.775.872-1.234.872-4.626 1.308-7.709.436-3.084 4.795-10.176 5.23-12.026Z"/>
  <path fill="#59F" stroke="#000" d="M698.032 231.369c-.697-.987-.871-2.878-.871-3.7-.872-.309-5.668 0-6.54.308-.872.308-6.102 7.4-6.538 8.017-.436.617-4.359 1.85-5.231 1.542-.872-.308-4.359 1.542-5.231 1.85-.871.308-2.179-2.158-3.051-3.083-.872-.926-1.743-5.242-1.743-6.476 0-1.233-3.923-1.85-5.667-1.85-1.743 0-7.41 2.775-7.846 3.084-.436.308-4.359 1.85-5.666 1.85-1.308 0-3.487 2.158-3.923 2.466-.349.247-5.667 5.654-8.282 8.326-1.744 1.747-5.405 5.365-6.102 5.859-.872.616 1.308 2.466 1.743 3.391.349.74 1.308 3.392 1.744 4.626 0 1.028.872 3.33 4.359 4.317 3.487.986 5.521 2.055 6.102 2.466 0 1.337-.087 4.194-.435 4.934-.436.925 3.051 2.775 3.487 3.392.435.617-.872 2.158-1.308 3.083-.436.925-.436 2.159 0 3.084.436.925 9.154 4.933 10.025 5.55.872.617.001 1.542-.435 1.85-.436.309 1.307 1.234 1.743 1.542.436.308 3.923-.617 4.795-1.542.872-.925 4.795-.925 5.667-.925.871 0 6.102.925 10.025 1.234 3.923.308 10.897 4.008 11.333 4.317.436.308.436 6.783.872 7.4s9.589 3.392 10.897 3.392c1.308 0 3.487.925 4.359 1.233.872.309 4.359 7.709 4.795 8.326.348.493 2.179.616 3.051.616 1.017 0 3.138.062 3.487.309.436.308 15.692.616 16.563.616.872 0 2.18 1.851 2.616 2.467.436.617-.436 1.542-.436 2.159 0 .616-.872 1.85-.872 2.158 0 .308 3.487.308 5.231.617 1.743.308 3.051-.309 3.051-.617s.872-1.233 1.308-1.542c.436-.308 13.948 8.326 14.384 8.634.436.309-.872 2.467-.872 2.775 0 .309-1.743 2.159-2.179 2.775-.436.617 2.615 1.542 3.487 1.851.697.246 2.906-.72 3.923-1.234l3.923-2.467a16.295 16.295 0 0 0-2.18-1.85c-1.307-.925.872-3.083 1.308-3.7.436-.617.872-4.625.872-7.092 0-2.467 1.307-4.009 2.179-5.55.872-1.542 11.333-8.942 13.077-10.176 1.743-1.233 5.666-8.942 6.102-9.867.436-.925-2.179-5.859-2.179-7.092 0-1.234 1.307-5.242 0-7.092-1.308-1.85-6.539 1.85-7.846 2.775-1.308.925-1.308 5.242-1.744 6.167-.436.925-10.025 4.934-13.076 5.242-3.052.308-6.539-.925-7.846-.925-1.308 0-6.975-.308-8.282 0-1.308.308-4.359-2.467-5.231-3.084-.872-.616-.436-6.475-.872-7.4-.435-.925-10.897-.925-12.204-.925-1.308 0-4.795 2.158-6.103 3.392-1.307 1.233-9.589-5.859-10.461-6.476-.872-.616-3.051 0-4.359 0-1.308 0-2.179 2.467-3.051 3.084-.872.617-3.051 1.85-3.923 4.625-.871 2.775-4.359 2.467-6.102 2.467-1.744 0-1.744-4.934-1.308-8.325.436-3.392 8.282-6.476 9.59-7.093 1.307-.616.872-1.85.872-3.391 0-1.542-1.744-7.092-2.18-8.943-.436-1.85-1.308-8.942-.872-10.175.436-1.233-.436-2.775-1.307-4.009-.872-1.233.436-4.317 0-5.858-.436-1.542-1.308-2.775-1.308-4.009 0-1.233-.436-2.467-1.308-3.7Z"/>
  <path fill="#F5D" stroke="#000" d="M712.418 379.993c0-.74-2.906-2.569-4.359-3.392-.145-.308-.523-.986-.872-1.233-.436-.308-5.231-1.234-6.538-1.234-1.308 0-3.923-1.233-5.667-2.158-1.743-.925-2.179-2.158-2.179-3.083 0-.926-3.487-4.009-4.359-4.934-.872-.925-11.769-3.7-12.641-3.7-.872 0-7.846-.925-9.153-1.542-1.308-.617-3.488-2.775-3.923-3.392-.436-.617-4.795-4.008-6.103-4.625-1.307-.617-3.923-2.467-5.23-2.467-1.308 0-6.103-2.158-8.282-3.083-2.18-.925-3.487 2.158-4.795 3.083-1.308.925-6.974-1.542-9.154-2.158-2.179-.617-5.23 0-6.974.616-1.743.617-11.333 1.234-12.64.617-1.308-.617-7.411-2.158-9.589-2.158-2.179 0-10.026.308-11.769.925-1.744.616 3.051 4.008 5.231 4.317 2.179.308 3.486 2.466 4.358 4.008.872 1.542-.436 9.559-.872 10.176-.436.616-3.486 4.317-4.359 5.858-.872 1.542 2.18 6.167.873 9.559-1.308 3.392-2.616 9.251-2.18 10.484.436 1.234 6.103 4.934 8.718 6.475 2.615 1.542 14.82 8.634 17.435 9.251 2.616.617 19.179 3.083 25.282 4.009 6.102.925 16.127 4.008 16.563 4.625.436.616-.872 4.317-1.744 4.625-.871.308-2.179 2.159-1.307 4.317.872 2.158 3.923 3.392 5.666 4.009 1.744.616 3.923 9.867 5.667 12.334 1.743 2.466 9.589 3.7 11.333 4.316 1.744.617 2.615 4.317 3.487 3.084.872-1.233 4.359-1.542 6.538-1.233 2.18.308 1.744 3.7 0 5.55-1.743 1.85 1.744 4.317 3.487 4.625 1.744.308 33.128-7.709 34.871-8.942 1.744-1.233-5.23-5.55-5.23-6.784 0-1.233 6.538-4.317 7.41-4.933.871-.617-2.18-1.542-3.923-1.234-1.744.309-2.616 0-3.487-.925-.872-.925-5.667-1.233-7.41-1.233-1.744 0-6.539-2.775-9.154-3.392-2.616-.617-2.615.617-4.795.617-2.179 0-12.205-4.934-13.948-5.859-1.744-.925-7.846-.617-9.59-2.158-1.743-1.542-1.307-3.701-1.743-4.934-.436-1.234 1.744-3.392 3.487-4.625 1.744-1.234 5.231-.925 6.974-1.85 1.744-.926 6.539.925 7.846-.926 1.308-1.85 7.41-3.391 9.154-4.625 1.743-1.233 1.307-1.233.872-3.7-.436-2.467 3.051-7.709 4.358-9.867 1.308-2.159 2.18-3.7 2.18-5.55 0-1.851 2.179-4.626 2.179-5.551Z"/>
  <path fill="#37C871" stroke="#000" d="M708.933 406.822c-1.395-.494-3.778-2.467-4.795-3.392-.436.205-1.395.74-1.743 1.233-.436.617-2.616 1.542-3.923 1.85-1.308.309-4.359 1.85-5.231 2.775-.872.925-2.179.925-2.615.925-.436 0-3.923-.925-4.795-.308-.872.617-3.487.925-5.231 1.233-1.743.309-4.358 3.392-4.794 3.392-.436 0-.872 2.159-.436 2.775.436.617.872 4.009 1.308 4.626.435.616 6.538 1.233 9.153 1.85 2.092.493 5.521 2.261 6.974 3.083 1.599-1.233 5.144-3.7 6.539-3.7 1.743 0 6.974 2.159 8.717 2.159 1.744 0 4.795-1.851 5.667-3.084.872-1.233.872-3.7 1.743-4.317.872-.617 6.975-.925 8.718-.925 1.744 0 6.538-3.083 7.846-3.7 1.308-.617 2.615-2.775 3.051-3.392.436-.617-1.743-.617-2.179-1.233-.436-.617-6.103-.925-7.846-.309-1.744.617-7.41.309-8.282 0-.872-.308-6.102-.925-7.846-1.541Z"/>
  <path fill="#FF80B2" stroke="#000" d="M749.032 425.63c-2.79-3.453-10.461-11.717-13.949-15.417-.435 0-1.743 1.85-2.179 2.467-.436.616-8.282 4.008-8.718 4.008-.436 0-6.974.309-8.718.925-1.743.617-.871 3.084-2.615 5.242-1.744 2.159-5.231 2.159-5.666 2.159-.436 0-6.975-2.159-8.282-2.159-1.046 0-4.504 2.673-6.103 4.009 1.453.719 4.795 2.282 6.539 2.775 2.179.617 3.051-.308 4.358-.617 1.047-.246 3.633.72 4.795 1.234 1.744.719 5.405 2.158 6.103 2.158.871 0 5.666.617 6.974 1.542 1.307.925 3.487.925 4.359.617.871-.309 3.051.925 3.051 1.233 0 .308-7.41 4.317-7.41 4.934 0 .616 5.666 5.242 5.666 6.475 0 1.233-33.127 8.634-34.871 8.942-1.743.308-2.179-1.542-3.051-2.775-.872-1.233.872-2.775 1.308-3.392.436-.617-.436-2.467-.436-3.392 0-.925-2.615-.616-3.923-.616-1.308 0-3.923.925-4.359 1.233-.436.308-2.179-2.467-2.615-2.775-.436-.309-6.103-2.159-8.282-2.467-1.744-.247-3.342-1.747-3.923-2.467-.872.411-2.964 1.48-4.359 2.467-1.743 1.233-2.615-.308-3.487-1.233-.872-.925-7.41-1.851-8.718-1.851-1.307 0-6.974 1.851-8.717 1.851-1.744 0-4.359 1.541-6.103 3.391-1.743 1.851-.872 8.634.872 9.559 1.744.925 6.102 12.334 6.974 14.493.872 2.158-1.307 13.259-1.743 14.184-.437.925-10.461 3.392-11.769 4.008-1.308.617-.872 7.401.436 9.251 1.308 1.85 3.487 6.784 4.359 8.942.872 2.159-1.744 6.475-.872 6.475s6.974.617 8.282.925c1.308.309 9.589 1.542 11.333.926 1.744-.617 22.23-3.392 24.41-3.392 2.179 0 7.846-.309 8.717-.617.872-.308.436-2.467-.871-3.084-1.308-.616-2.18-4.625-2.18-5.55 0-.925-.436-7.709 1.743-10.175 2.18-2.467 14.821-4.934 17-5.859 2.179-.925 23.102.308 24.846 0 1.743-.308 6.102 1.542 6.974 2.467.871.925-1.744 2.158-1.744 4.625s7.41 1.542 8.282 1.233c.872-.308.436-3.083-.872-4.316-1.307-1.234-1.307-2.159-.436-3.084.872-.925 13.513-2.467 15.692-2.467 2.18 0 8.718 2.467 13.513 2.467 4.794 0 10.025-.925 10.461-2.467.436-1.542-.436-3.392-2.18-4.008-1.743-.617-12.204-6.784-13.948-8.017-1.743-1.234-1.308-2.776-.872-4.626.436-1.85 1.744-5.242 2.616-6.475.871-1.233-.872-3.084-1.744-4.625-.872-1.542-3.487-8.326-5.23-10.176-1.744-1.85-5.231-5.859-4.359-9.559.871-3.7-.872-5.242-4.359-9.559Z"/>
  <path fill="#FF7F2A" stroke="#000" d="M577.291 398.495c-.349-1.234 10.316-4.831 15.692-6.475l2.179 1.541c4.795 2.981 15.082 9.312 17.872 10.793 2.789 1.48 6.102 2.261 7.41 2.466-1.017 1.234-3.313 3.886-4.359 4.626-1.308.925-1.308 8.942-.872 11.409.436 2.466-1.744 4.933-3.051 6.167-1.308 1.233-4.795-.925-8.718-1.234-3.923-.308-10.461 2.775-11.769 3.392-1.307.617-6.974-9.25-7.846-12.334-.872-3.083-2.615-11.409-2.179-13.259.436-1.85-3.923-5.55-4.359-7.092Z"/>
  <path fill="#DDAFE9" stroke="#000" d="M578.599 348.851c1.046.74 6.538-1.13 9.154-2.158.871-.334 3.051 2.158 3.923 2.467.871.308 3.051 1.233 3.923 1.541.871.309 2.615 3.7 3.051 4.317.436.617-1.308 8.326-1.308 9.251 0 .925-2.179 2.775-3.487 4.933-1.308 2.159-.872 3.392-.872 3.7 0 .309 1.744 5.242.872 6.784-.872 1.542-2.179 9.559-2.179 10.484 0 .74.871 1.747 1.307 2.159-5.085 1.85-15.256 5.673-15.256 6.167 0 .616 3.487 5.242 3.923 5.55.436.308.436 2.467.436 3.083 0 .617 1.308 10.793 1.744 12.026.436 1.233 6.974 11.101 6.974 11.717 0 .617 2.615 0 3.487-.925.872-.925 7.846-2.467 8.718-2.158.871.308 7.41 1.542 8.717 1.233 1.308-.308 2.18-3.083 3.052-4.317.871-1.233 0-8.633 0-9.25 0-.617.435-3.392.871-4.317.349-.74 3.342-3.392 4.795-4.625l3.487.616 24.41 4.009c3.487 1.028 10.635 3.268 11.333 4.008.872.926-.872 4.009-2.18 4.626-1.307.616-1.743 2.467-1.307 4.008.436 1.542 4.359 3.084 5.666 3.7 1.308.617 1.744 2.467 2.616 4.009.697 1.233 2.034 6.064 2.615 8.325-1.453.823-4.62 2.529-5.667 2.776-1.307.308-2.179-1.85-2.615-1.85-.436 0-6.102-1.542-7.41-1.542-1.308 0-5.667.925-7.41 1.542-1.744.616-4.795.925-7.41 2.775-2.615 1.85-.436 8.017-.872 8.633-.436.617 2.18 2.159 2.615 2.467.436.309 5.667 13.259 6.103 14.184.436.925-1.744 13.259-2.18 13.876-.435.617-5.666 2.467-6.974 2.467-1.307 0-4.795 1.542-5.666 2.467-.872.925 1.307 7.709 1.743 8.325.436.617 4.359 8.634 4.359 9.559 0 .74-1.162 4.214-1.743 5.859-4.359.411-13.774 1.233-16.564 1.233-3.487 0-6.102-1.85-7.41-2.467-1.308-.616-12.641-1.233-17.436-2.158-4.794-.925-10.897-.617-16.999-1.85-6.102-1.234-16.128-3.084-20.923-4.625-4.794-1.542-19.614-2.159-27.896-4.934-6.626-2.22-17.581-2.159-22.23-1.85v-2.159c0-1.233 3.051-3.7 4.358-5.242 1.308-1.541-4.358-4.933-2.615-8.017 1.744-3.083-2.179-9.25-1.743-12.95.435-3.701 3.051-4.934 4.358-5.859 1.308-.925 2.18-2.467 1.308-3.7-.872-1.234 3.051-12.951 4.795-17.268 1.743-4.317-2.615-17.267-3.487-19.426-.872-2.158-11.769-4.934-13.076-5.242-1.308-.308 7.845-4.933 10.025-6.167 2.179-1.233 3.487-3.7 3.923-4.933.436-1.234-6.103-6.168-6.103-7.093 0-.925 8.282-1.233 10.026-2.466 1.743-1.234 14.82-5.551 17.435-7.092 2.616-1.542 12.641-3.084 13.513-3.084.871 0 3.923-4.625 4.359-7.092.435-2.467 6.538-6.167 6.974-7.4.436-1.234-3.052-2.467-3.488-6.167-.436-3.701 8.282-5.242 9.59-4.934 1.307.308 5.23.308 5.666-.925.436-1.233 2.616-8.634 3.923-10.176 1.308-1.541 3.051.617 4.359 1.542Z"/>
  <path fill="#80FF80" stroke="#000" d="M698.474 221.191c1.046 1.48-.436 4.728-1.307 6.167-1.163.206-3.749.617-4.795.617-1.307 0-2.179.925-2.615 1.234-.436.308-5.666 7.092-6.102 7.4-.436.308-4.359 1.233-4.795 1.233-.436 0-4.359 1.234-5.231 1.542-.871.308-.871 0-1.307 0-.436 0-3.487-6.475-3.923-8.325-.436-1.85-2.18-2.159-4.795-2.467-2.615-.308-8.282 3.083-9.59 3.7-1.307.617-4.794 1.233-5.666 1.542-.872.308-10.025 9.559-11.333 10.484-1.308.925-5.231 5.242-6.538 4.625-1.308-.617-4.359-.617-6.539-.925-2.179-.308-3.487.617-5.23.925-1.744.308-1.308-1.542-1.308-2.467s.436-2.775-.872-4.625c-1.307-1.85-6.538-2.467-8.282-2.467-1.743 0-5.666 0-8.717-.925s-3.487.925-6.103 3.392c-2.615 2.467-2.615 4.625-4.359 4.625-1.743 0-4.358 0-5.23-.617-.872-.616-4.795-.308-5.667-1.233-.871-.925-1.307-5.242-2.179-6.167-.872-.925-1.744-1.233-2.615-.617-.872.617-5.231 0-6.975.617-1.743.617-7.41 0-9.589.925-2.18.925-.872 5.859-.872 7.092 0 1.234-3.051 2.467-4.795 3.084-1.743.616-5.23 4.008-6.538 5.55-1.308 1.542-4.795 4.009-7.41 4.009s-16.999-6.167-18.307-7.401c-1.308-1.233-5.231-2.775-6.103-3.7-.871-.925-6.974-4.317-9.153-4.009-2.18.309-7.41-2.466-8.718-2.466-1.307 0-4.794-.617-6.974-.617-2.179 0 3.051-1.85 5.667-2.467 2.615-.617 5.666-2.775 6.538-3.7.871-.925.872-3.084 2.615-3.7 1.744-.617 1.744-2.467 4.359-7.092 2.615-4.626-6.974-6.784-7.846-7.709-.871-.925 1.308-2.467.872-8.326-.436-5.858 4.359-12.025 5.666-13.259 1.308-1.233 2.616-5.55 2.616-6.167 0-.616 1.743-9.25 0-12.025-1.744-2.775-.436-4.626.872-6.167 1.046-1.234 1.017-2.981.871-3.701 2.034.72 6.451 2.344 7.846 3.084 1.744.925 10.026 3.083 12.205 4.009 2.18.925 8.718 5.55 10.025 6.167 1.308.616 6.103 3.083 9.154 3.083s8.718 3.392 10.897 4.009c2.18.616 19.615-.309 20.923-.617 1.307-.308 5.23-3.084 6.538-3.392 1.308-.308 2.615-2.159 3.051-3.083.436-.925-2.615-2.467-4.359-4.009-1.743-1.542 1.744-1.233 3.051-2.467 1.308-1.233.436-2.775 0-3.7-.436-.925 3.051-.925 5.231-1.85 2.179-.925 3.051 0 4.795 0 1.743 0 3.487-1.234 5.23-1.85 1.395-.494 6.684 1.028 9.154 1.85 2.47-.617 8.194-1.85 11.333-1.85 3.923 0 3.051 3.083 4.359 4.625 1.307 1.542 1.307.925 5.666 0s6.538-.617 7.41 0c.872.617 8.282 4.317 8.282 5.242 0 .925-4.359 3.392-5.667 4.933-1.307 1.542.872 4.317 2.615 7.093 1.744 2.775 8.718 9.25 12.205 11.1 3.487 1.85 3.923 4.317 6.103 6.476 2.179 2.158 6.974 6.167 9.153 7.4 2.18 1.233 6.539 2.158 6.974 3.083.349.74 3.342 1.953 4.795 2.467 3.342.309 10.287 1.295 11.333 2.775Z"/>
  <path fill="#C6E9AF" stroke="#000" d="M495.339 323.259c1.744-.987 8.573-.411 11.769 0-.145.308-.436 1.048-.436 1.542 0 .616-.872 2.158-2.615 4.008-1.744 1.85-1.308 3.7-1.308 4.009 0 .308 2.615 3.083 3.051 3.7.436.617.872 2.467.872 3.083 0 .617 3.487 2.467 3.923 2.776.436.308 1.744 1.233 1.308 1.85-.349.493-4.214.822-6.103.925-6.393.514-19.353 1.603-20.051 1.85-.871.308-4.358 4.933-5.23 5.55-.872.617-3.487 1.542-4.359 1.85-.872.309-1.308 1.85-1.744 3.7-.435 1.851-2.179 7.709-2.615 8.018-.436.308-14.384 4.317-15.256 4.317-.872 0-3.487 1.541-4.359 1.85-.697.246-4.068 6.475-5.666 9.558-.291.309-1.046.987-1.744 1.234-.872.308-2.179 1.542-2.615 2.158-.349.494 3.051 3.495 4.795 4.934.726.103 2.353.308 3.051.308.872 0 1.307.925 1.307 1.234 0 .308-5.666 6.167-6.102 6.475-.436.308-1.743.617-3.487.925-1.744.308-4.359-.308-5.231-.617-.871-.308-5.666-.616-6.102-.616-.436 0-2.179-1.542-3.051-1.542-.872 0-14.384 6.784-15.256 7.092-.872.308-2.18-3.084-2.616-3.392-.435-.308-1.743-2.467-3.051-2.775-1.307-.308-5.23-2.775-5.666-3.392-.436-.617-6.974-2.775-7.846-2.775-.872 0-6.103-.925-6.974-.925-.872 0-2.616-.925-3.923-1.542-1.308-.617-2.18 1.542-6.974 1.542-3.836 0-6.829.411-7.846.617h-14.821c-1.743 0-3.923-1.542-5.666-1.234-1.744.309-7.41-1.542-9.154-2.158-1.743-.617-6.974-2.467-6.974-4.009 0-1.542-4.795-4.008-5.666-4.625-.872-.617-3.052-.308-4.359.617-1.308.925-13.077 0-16.128 0s-3.487-.925-3.487-2.467 3.487-3.7 5.231-5.242c1.743-1.542 4.794-5.859 5.666-7.092.872-1.234 3.051-.617 4.359-1.234 1.308-.616 1.744-3.083 3.051-5.858 1.308-2.775-4.359-4.934-5.23-6.167-.872-1.234 14.82-.617 16.563-.617 1.744 0 15.257 0 17.436-.925 2.179-.925-.872-4.317 0-6.475.872-2.159 6.538-1.542 7.846-1.542 1.308 0 10.461.617 12.205 0 1.743-.617 1.743-3.084 1.743-4.009 0-.925 4.795-4.317 5.667-5.242.872-.925 3.051-.616 3.487 0 .436.617 2.615-.308 3.923-1.85 1.308-1.541-2.179-4.008-3.923-5.55-1.743-1.542-.872-5.859-.436-6.475.436-.617 3.051-2.775 4.359-2.159 1.308.617 7.41.925 8.718 2.159 1.307 1.233.872 2.467.872 3.392 0 .924 3.051 1.85 4.358 2.775 1.308.925 6.103 1.85 8.282 1.85 2.18 0 8.282-.617 9.59-.617 1.307 0 8.281 1.234 10.461.617 2.18-.617 3.923 2.158 5.666 1.85 1.744-.308 4.359-1.233 6.975-1.85 2.615-.617 6.974-4.009 7.846-5.55.871-1.542 3.051-5.242 2.615-6.476-.436-1.233-5.667-1.233-9.154-.925-3.487.308-9.153-1.233-12.64-2.158-3.488-.925-7.847-4.934-8.718-5.859-.872-.925 3.922-.925 5.23-1.233 1.308-.309 7.846-3.084 8.282-4.009.436-.925 2.179.308 3.923.925 1.743.617 5.231-1.85 6.538-2.158 1.308-.309 2.616.925 3.487.925h6.974c.872 0 0 5.242.436 6.475.436 1.233 3.052 1.233 4.359 2.775 1.308 1.542 0 3.7 1.744 5.242 1.743 1.542.436 5.551.872 6.476.435.925 13.076 4.933 14.82 4.933 1.743 0 7.846 1.234 10.461 1.234s8.282-2.776 10.461-4.009Z"/>
  <path fill="#BCD35F" stroke="#000" d="M497.088 161.993c.697 1.727 8.427 3.598 12.205 4.317l1.308.617c-.146.616-.436 1.973-.436 2.466 0 .617-1.308 2.159-1.744 3.392-.436 1.234-.436 2.775.436 4.009.872 1.233.872 3.7.872 4.625 0 .925-.872 6.476-.872 7.092 0 .617-1.308 4.009-1.308 4.317 0 .308-3.487 5.242-5.23 7.709-1.744 2.467-1.744 7.4-1.744 8.017 0 .617 0 4.317-.436 4.934-.436.616-.436 1.85-.436 2.466 0 .617 3.487 1.542 3.923 1.85l3.487 2.467c.436.309.872 2.467.872 2.775 0 .309-3.051 6.784-3.487 7.092-.436.309-1.308 1.234-2.179 1.234-.872 0-1.308 2.775-1.744 3.392-.436.616-4.359 3.083-5.23 3.392-.698.246-5.812 1.952-8.282 2.775.145 2.98.348 9.374 0 11.1-.436 2.159-7.846 10.793-8.718 12.026-.872 1.233 2.615 2.467 3.487 4.009.872 1.541 1.744 8.942 1.308 9.558-.436.617-1.308 2.467-3.923 5.859-2.616 3.392-13.513 6.167-16.564 7.092-3.051.925-9.154 1.234-10.461.925-1.308-.308-15.692-5.242-18.307-6.475-2.093-.987-14.53-3.7-20.487-4.934-1.598-.514-4.882-1.973-5.231-3.7-.436-2.158 0-19.118 0-20.659 0-1.542-3.487-4.009-4.358-5.859-.872-1.85 3.051-4.934 2.615-6.784-.436-1.85-4.795-2.467-7.846-4.008-3.051-1.542-2.615-4.934-2.615-6.784 0-1.85 1.743-10.792-3.488-16.343-5.23-5.55-7.41-10.792-6.974-13.875.436-3.084 14.384-14.801 15.256-16.343.872-1.542-.872-8.942-.872-12.026 0-3.083 8.718-6.167 9.59-7.4.872-1.233 6.974-2.467 9.153-2.467 2.18 0 4.359 1.234 6.103 2.159 1.743.925 8.717-.925 8.717-2.159 0-1.233 5.231-1.85 7.411 0 2.179 1.85 6.974 1.234 8.281 1.234 1.308 0 2.18-1.542 3.051-3.083l.001-.001c.871-1.541 5.666-2.467 7.846-2.775 2.179-.308 10.025-2.467 11.768-3.084 1.744-.616 8.282-1.85 10.462-1.85 2.179 0 .436 1.85 2.179 3.084 1.744 1.233 3.487-.308 4.359-1.85.872-1.542 3.487-2.467 5.666-1.85 2.18.616 1.744 6.167 2.616 8.325Z"/>
  <path fill="#D4FF2A" stroke="#000" d="M452.627 300.132v-8.325l6.103-.617c3.051-.308 16.563-4.934 18.743-6.167 2.179-1.234 5.23-7.092 5.666-7.709.436-.617-1.307-8.942-2.179-9.867-.872-.925-3.051-2.467-3.051-2.775 0-.309 8.281-11.718 8.717-12.643.436-.925-.436-10.484 0-11.1.436-.617 7.846.308 8.282.308.436 0 2.18.617 3.051 1.234.872.616 5.231 1.233 5.667 1.233.436 0 3.051.617 3.487.925.436.308 3.923 2.158 4.795 2.467.871.308 2.615 1.85 3.051 2.158.436.309 3.487 1.85 3.923 2.467.436.617 14.82 6.475 16.999 7.092 2.18.617 4.359-.617 5.667-1.233 1.046-.494 3.923-3.289 5.23-4.626.291.72.959 2.282 1.308 2.776.436.616 2.615.925 3.051 1.233.436.308 3.487 1.542 4.795 2.158 1.308.617 1.744.309 3.487.309 1.744 0 3.051.308 3.923.617.872.308 1.308 1.85 2.18 2.466.871.617 1.307 1.85 1.307 2.467s3.051 2.467 3.923 2.775c.872.309 3.923.925 4.795 1.234l2.615.925c.872.308 1.744 1.85 2.18 2.775.436.925 1.743 2.775 2.179 4.317.436 1.542-1.308 2.467-1.743 4.933-.436 2.467 3.051 5.242 3.051 5.859s-2.18 4.317-2.616 5.859c-.435 1.541.872 2.158 5.667 5.55s7.41 6.784 7.846 7.092c.436.308.436 1.233 0 1.85s-.872 1.234-.872 2.159c0 .925 3.051 1.233 3.487 1.233.436 0 1.744.308 1.744.617 0 .308 0 1.541.436 2.467.436.925 0 4.008 0 4.316 0 .247-6.103 4.009-9.154 5.859-1.889 1.028-5.754 3.269-6.102 4.009-.436.925-.872 3.083-.872 4.008 0 .925-1.744 4.317-1.744 4.934 0 .616-6.974 4.317-7.41 4.625-.436.308-1.743 1.233-3.051 1.233s-5.666-4.008-6.102-4.625c-.436-.617-2.18-1.542-3.052-1.85-.871-.308-5.23-5.242-5.666-5.55-.436-.309 0-.617-.872-.925-.872-.309-3.487 1.233-4.359 1.541-.871.309-2.179.309-3.051 0-.872-.308-8.718-1.541-9.589-1.541-.872 0-4.359 1.233-4.795 1.541-.436.309-1.308 0-3.923-1.233s-3.923-1.85-3.923-2.467c0-.616-1.744-2.158-3.487-3.083-1.395-.74-12.496-1.748-17.871-2.159-2.18-.102-6.8-.246-7.846 0-1.308.309-5.667 2.159-7.41 3.084-1.395.74-4.359 1.13-5.667 1.233-2.761-.411-8.543-1.233-9.589-1.233-1.308 0-13.077-4.317-13.949-4.625-.872-.309-.872-1.234-.436-3.701.436-2.466-1.307-3.391-1.743-4.008-.436-.617-.436-2.159-.436-3.7 0-1.542-3.923-2.467-4.795-3.701-.697-.986-.29-4.728 0-6.475Z"/>
  <path fill="#DDAFE9" stroke="#000" d="M383.324 310.617c-1.046.987-1.017 4.112-.871 5.551.061.925 7.846 1.85 8.718 2.158.872.309.872 1.85 1.307 1.85.436 0 1.744-.308 2.616-.925.871-.616 4.359-4.008 4.794-4.317.436-.308-1.743-2.158-2.179-2.158-.436 0 2.615-3.084 3.487-3.7.872-.617 0-1.234-.872-1.85-.697-.494 0-.823.436-.925-.872.205-2.964.678-4.359.925-1.743.308.436-.925-.436-1.85-.871-.926.872-2.159.872-3.392 0-1.234-1.307-2.775-3.051-3.701-1.743-.925-.872-2.466-2.179-3.391-1.308-.925-2.616 1.85-2.18 3.391.436 1.542-1.743 4.317-1.743 5.859 0 1.542-3.052 5.242-4.36 6.475Z"/>
  <path fill="#B3FF80" stroke="#000" d="M398.142 274.54c.348-1.234 6.828-4.009 10.025-5.242v6.622c0 1.997 3.487 3.245 4.359 3.862.871.617 14.82 3.392 15.691 3.392.872 0 7.846 2.158 8.718 2.775.698.493 10.752 4.111 15.692 5.858v8.326c-2.47.103-7.497.308-7.846.308-.436 0-1.308-.925-2.615-.925-1.308 0-3.923 1.542-5.667 1.85-1.743.309-3.487-.925-4.359-1.233-.871-.308-.871.617-.871.925 0 .308-3.923 1.542-5.667 2.775-1.743 1.234-7.846 1.234-8.282 1.234-.436 0-3.051-1.851-3.051-2.159 0-.308-2.615.925-3.051.617-.436-.309-1.308-2.159-2.18-2.775-.697-.494-6.102 3.7-8.717 5.858-1.163.309-3.662.925-4.359.925-.872 0 0-1.541 0-1.85 0-.308-.872-.616 0-2.158.872-1.542.436-2.775 0-3.392-.349-.493-2.47-1.85-3.487-2.467-.146-.822-.698-2.467-1.744-2.467-1.307 0-.872 3.701-.872 4.009 0 .308-1.743 3.7-1.743 4.933 0 1.234-3.923 5.859-4.795 6.784-.697.74-.872 4.009-.872 5.55-.726.412-2.441 1.419-3.487 2.159-1.307.925-.436 6.167 1.308 7.4 1.744 1.234 2.615 2.775 3.051 3.701.349.74-1.598 2.158-2.615 2.775-.436.205-1.569.431-2.615-.309-1.047-.74-2.47.514-3.052 1.234-1.743 1.13-5.23 3.762-5.23 5.242 0 1.85-.872 2.775-2.616 3.392-1.743.616-13.512 0-14.82-.309-1.307-.308-3.487.617-4.359 1.234-.871.616 1.308 4.317.872 5.858-.436 1.542-2.615 1.542-3.487 1.85-.872.309-18.307.309-20.051 0-1.394-.246-8.427.514-11.769.925-2.615.206-8.194.309-9.589-.925-1.744-1.541-4.795-4.317-6.538-4.933-1.744-.617-7.846 0-11.333.616-3.487.617-6.103.617-7.846-.616-1.744-1.234 3.051-5.859 4.359-7.092 1.308-1.234 0-1.542-1.308-2.775-1.308-1.234-1.744-1.234-2.179-3.084-.436-1.85 3.051-5.55 3.487-6.784.436-1.233 1.307-1.85 3.487-2.775 2.179-.925 2.615-1.542 3.487-2.775.872-1.233 6.538-1.542 9.589-1.85 3.052-.308 18.743-7.092 19.179-7.4.436-.309 4.795-2.776 5.667-3.392.872-.617 2.615-2.159 3.051-3.392.436-1.234-2.179-1.542-3.923-1.85-1.743-.309-3.051-3.392-3.051-4.317 0-.925.436-3.084-.872-4.625-1.307-1.542 0-3.084 0-4.934s-3.923-2.158-5.666-3.7c-1.744-1.542 0-4.009 0-5.859 0-1.85 2.179-2.775 3.487-3.7 1.308-.925.872 2.158 2.179 3.7 1.308 1.542 5.667-.308 6.974-1.542 1.308-1.233-1.307-3.083-1.307-4.008 0-.925 3.923-5.859 5.666-7.709 1.744-1.85 2.18 1.233 3.487 1.85 1.308.617 4.359-.617 6.103-1.85 1.743-1.233 7.41-2.158 10.897-1.542 3.487.617 27.897 12.026 29.204 13.259 1.308 1.234 10.462 4.626 14.82 3.392 4.359-1.233 2.616-4.933 3.052-6.475Z"/>
  <path fill="#AFA" stroke="#000" d="M377.221 203.617c2.441-.247 6.829 1.131 8.718 1.85 0 .411.261 1.665 1.308 3.392 1.309 2.159 5.231 5.859 7.41 10.176 2.18 4.317.872 13.567 1.744 17.267.872 3.7 8.718 4.934 10.025 5.859 1.308.925-.872 4.008-2.179 6.475-1.046 1.974 2.47 5.139 4.359 6.476v14.184c-2.906 1.13-8.98 3.7-10.026 4.933-1.307 1.542 0 4.626-2.615 6.784-2.615 2.158-13.077-1.542-13.513-2.158-.435-.617-26.153-12.643-32.255-13.876-6.102-1.234-11.769 1.85-13.948 2.775-2.18.925-3.923-.617-4.359-2.158-.436-1.542-6.539 7.092-6.974 8.017-.436.925-16.129-5.242-17.436-5.859-1.307-.617-3.487-.925-4.359-2.775-.872-1.85 2.615-4.009 4.359-5.859 1.743-1.85 1.307-2.158 1.307-5.242 0-3.083-.436-12.334 0-17.576.436-5.242 6.103-7.4 6.974-7.4.872 0 3.923 1.233 5.667 0 1.743-1.234-2.616-3.392-3.052-5.242-.435-1.85 4.795-1.542 11.334 0 6.538 1.542 10.025 3.392 12.204 3.392 2.18 0 0-2.467 0-4.934s-5.23-6.475-5.23-8.634c0-2.158 2.179-5.858 3.051-8.017.872-2.158 4.795-.925 6.102 0 1.308.925 4.359 3.7 13.513 3.392 9.153-.308 14.82-4.934 17.871-5.242Z"/>
  <path fill="#FFB380" stroke="#000" d="M412.091 155.208c1.743.74 10.316 7.297 14.384 10.483 1.583 1.234-3.487 0-5.667-1.233-2.179-1.233-7.41.308-8.717.617-1.308.308-9.154 5.242-10.898 7.092-1.743 1.85.872 11.717 0 13.259-.871 1.542-12.64 12.951-14.384 14.184-1.395.987-1.162 4.522-.871 6.167-1.599-.411-5.231-1.357-6.975-1.85-2.179-.617-4.794.617-9.589 3.083-4.795 2.467-17 2.467-18.743 1.85-1.744-.616-7.41-4.316-9.59-4.316-2.179 0-2.179 6.475-3.487 7.708-1.307 1.234 3.923 8.017 4.359 8.942.436.926 1.308 4.626 1.308 5.551 0 .925-.872 1.542-6.974-.925-6.103-2.467-16.564-3.392-17.436-2.467-.872.925 3.051 3.7 3.487 4.934.436 1.233-3.051 1.541-5.666.925-2.616-.617-6.539 4.008-7.846 5.55-1.046 1.233-.436 15.931 0 23.126-2.616-1.747-8.195-5.55-9.59-6.784-1.743-1.541-7.846-2.466-8.717-2.466-.872 0 .871-1.234.871-3.701 0-2.466-7.41-3.391-13.076-7.4-5.667-4.008-3.487-9.25-6.103-12.642-2.615-3.392 1.744-3.084 4.359-5.551 2.616-2.466 7.41-.308 10.461-1.85 3.052-1.541-1.743-4.625 0-8.634 1.744-4.008 4.359-5.55 4.359-9.25s-2.615-5.242 0-7.092c2.616-1.85 1.308-7.4 3.923-10.176 2.616-2.775 4.359-3.083 6.103-5.858 1.743-2.775 7.41-4.317 4.794-7.092-2.615-2.775 6.103-4.934 7.846-6.784 1.744-1.85 0-3.7-1.743-7.4-1.744-3.701-4.359-13.876-6.103-15.11-1.743-1.233-23.973-8.325-27.46-10.175-3.486-1.85-17.426-6.781-20.919-8.016l-.004-.001c-3.487-1.234-6.538-8.634-6.538-11.718 0-3.083 2.179-6.783 4.359-5.242 2.179 1.542 11.769 4.009 16.127 5.242 4.359 1.234 12.641-2.158 17-4.008s19.179-3.084 25.281-2.775c6.103.308 18.743 5.242 22.231 7.708 3.487 2.467 7.845 7.709 9.589 10.793 1.744 3.083 18.743 21.893 20.923 23.743 2.179 1.85 6.538.308 9.153 2.466 2.615 2.159 8.718 4.009 13.513 4.009 4.794 0 6.974 1.233 8.717 3.084 1.744 1.85 11.769-.925 13.949 0Z"/>
  <path fill="#FAA" stroke="#000" d="M252.561 97.852c.697 1.233 5.521 6.27 7.846 8.634h-2.616c-.436 0-2.615-1.542-3.487-1.85-.872-.309-3.051 3.392-2.615 7.092.436 3.7 4.359 8.634 4.794 9.559.349.74 11.188 4.214 16.564 5.858 8.718 3.495 26.851 10.669 29.64 11.409 3.487.925 4.359 2.159 4.795 2.775.436.617 5.667 15.726 6.538 16.96.872 1.233 1.308 3.7 0 4.625-1.307.925-6.974 4.317-8.281 4.625-1.308.308.871 1.85 1.307 3.084.436 1.233-1.743 2.775-3.051 4.008-1.308 1.234-2.615 2.775-3.051 3.392-.436.617-4.359 2.775-5.231 4.009-.872 1.233-2.615 8.017-2.615 8.942 0 .925-2.18 2.158-2.615 3.083-.436.925 1.307 5.859 1.307 6.167 0 .309-1.307 4.934-3.487 6.784-2.179 1.85-.872 5.55-.872 6.167s1.308 3.083 0 4.317c-1.307 1.233-6.102.925-7.846.925-1.743 0-3.051 1.233-3.487 1.85-.348.493-3.051 1.85-4.359 2.467-1.162-.72-3.748-2.344-4.794-3.084-1.308-.925-15.256-8.942-20.487-11.409-5.231-2.466-24.845-8.325-27.025-8.942-2.179-.617-1.308-3.392-1.308-4.317 0-.925 6.975-4.933 9.59-6.167 2.615-1.233 4.795-8.325 4.795-10.175 0-1.85 0-4.009-3.051-6.476-3.052-2.466 1.307-2.466 1.743-3.7.436-1.233 0-6.167 1.308-8.017 1.307-1.85-6.974-8.017-10.026-10.792-3.051-2.775-9.153 1.85-10.461 1.85-1.307 0 .436-17.576 1.308-18.809.697-.987 3.778-1.439 5.231-1.542 1.162-.925 4.01-2.899 6.102-3.392 2.615-.617 2.615-4.625 3.051-6.475.436-1.851-6.102-3.084-9.153-5.859s.871-3.084 2.179-4.009c1.307-.925 3.051-4.317 3.923-6.783.872-2.467-3.923-5.55-6.102-6.784-2.18-1.234 10.025-3.7 14.384-3.392 4.359.308 3.923.925 5.666 1.85 1.744.925 13.077 0 13.949 1.542Z"/>
  <path fill="#B3FF80" stroke="#000" d="M148.816 232.296v-5.55c1.308-2.159 2.18 0 6.539 2.158 4.359 2.159 8.717 1.233 12.64 3.392 3.923 2.158 0 4.625 0 6.475 0 1.85-3.487 3.084-3.923 4.626-.435 1.541 1.744 5.55 3.923 6.783 2.18 1.234 3.052 2.775 4.359 5.242 1.308 2.467-.872 3.084-1.307 6.167-.436 3.084-6.975-.308-10.898-1.233s-4.794-4.009-6.538-7.401c-1.743-3.391-2.179-4.933-4.795-7.092-2.615-2.158-4.794-3.392-6.974-7.092-2.179-3.7 6.974-5.242 6.974-6.475Z"/>
  <path fill="#fff" fill-opacity=".2" d="M0 0h834v534H0z"/>
  <path fill="#FF80B2" stroke="#000" d="M531.908 155.669c-7.124-10.678-26.715-36.229-35.621-47.669-1.112 0-4.453 5.72-5.566 7.627-1.113 1.907-21.15 12.394-22.263 12.394-1.113 0-17.811.953-22.263 2.86-4.453 1.907-2.227 9.534-6.679 16.207-4.453 6.674-13.358 6.674-14.472 6.674-1.113 0-17.81-6.674-21.15-6.674-2.671 0-11.502 8.263-15.584 12.394 3.711 2.225 12.245 7.055 16.698 8.581 5.565 1.906 7.792-.954 11.131-1.907 2.672-.763 9.277 2.224 12.245 3.813 4.453 2.225 13.803 6.674 15.584 6.674 2.227 0 14.471 1.907 17.811 4.767 3.339 2.86 8.905 2.86 11.131 1.907 2.227-.954 7.792 2.86 7.792 3.813 0 .953-18.923 13.347-18.923 15.254s14.471 16.207 14.471 20.021c0 3.813-84.6 26.694-89.053 27.648-4.453.953-5.566-4.767-7.792-8.581-2.226-3.813 2.226-8.58 3.339-10.487 1.114-1.907-1.113-7.627-1.113-10.487 0-2.86-6.679-1.907-10.018-1.907-3.34 0-10.019 2.86-11.132 3.814-1.113.953-5.566-7.627-6.679-8.581-1.113-.953-15.584-6.673-21.15-7.626-4.452-.763-8.534-5.403-10.018-7.627-2.226 1.271-7.57 4.576-11.132 7.627-4.452 3.813-6.679-.954-8.905-3.814-2.226-2.86-18.924-5.72-22.263-5.72-3.34 0-17.811 5.72-22.263 5.72-4.453 0-11.132 4.767-15.585 10.487-4.452 5.72-2.226 26.695 2.227 29.555 4.452 2.86 15.584 38.135 17.81 44.808 2.227 6.674-3.338 40.995-4.452 43.855-1.115 2.861-26.715 10.488-30.055 12.394-3.339 1.907-2.226 22.881 1.114 28.602 3.339 5.72 8.905 20.974 11.131 27.647 2.227 6.674-4.452 20.021-2.226 20.021s17.81 1.907 21.15 2.86c3.339.954 24.489 4.767 28.942 2.86 4.453-1.906 56.771-10.487 62.337-10.487 5.566 0 20.037-.953 22.263-1.906 2.226-.954 1.113-7.627-2.226-9.534-3.34-1.907-5.566-14.301-5.566-17.161 0-2.86-1.114-23.834 4.452-31.461 5.566-7.627 37.848-15.254 43.413-18.114 5.566-2.86 58.998.953 63.45 0 4.453-.954 15.585 4.767 17.811 7.627 2.226 2.86-4.453 6.673-4.453 14.3 0 7.627 18.924 4.767 21.15 3.814 2.227-.954 1.114-9.534-2.226-13.347-3.339-3.814-3.339-6.674-1.113-9.534 2.226-2.86 34.508-7.627 40.074-7.627 5.565 0 22.263 7.627 34.508 7.627 12.244 0 25.602-2.86 26.715-7.627 1.113-4.767-1.113-10.487-5.565-12.394-4.453-1.907-31.169-20.974-35.622-24.788-4.452-3.813-3.339-8.58-2.226-14.3 1.113-5.721 4.453-16.208 6.679-20.021 2.226-3.814-2.226-9.534-4.453-14.301-2.226-4.767-8.905-25.741-13.357-31.461-4.453-5.72-13.358-18.114-11.132-29.555 2.226-11.44-2.226-16.207-11.132-29.554Z"/>
  <path fill="#000" d="M272.019 297v-17.455h2.634v8.336h.213l7.321-8.336h3.315l-7.04 7.858 7.066 9.597h-3.171l-5.642-7.798-2.062 2.369V297h-2.634Zm19.543.29c-.83 0-1.58-.154-2.25-.46a3.792 3.792 0 0 1-1.594-1.356c-.386-.59-.58-1.315-.58-2.173 0-.739.143-1.346.427-1.824a3.14 3.14 0 0 1 1.15-1.133 5.989 5.989 0 0 1 1.62-.631c.596-.142 1.204-.25 1.823-.324l1.909-.221c.489-.063.844-.162 1.066-.299.221-.136.332-.358.332-.664v-.06c0-.744-.21-1.321-.63-1.73-.415-.409-1.035-.614-1.858-.614-.858 0-1.535.19-2.029.571-.488.375-.827.793-1.014 1.253l-2.395-.545c.284-.796.699-1.438 1.244-1.927a5.049 5.049 0 0 1 1.901-1.073 7.398 7.398 0 0 1 2.258-.341c.523 0 1.077.062 1.662.187a4.863 4.863 0 0 1 1.654.665c.517.324.94.787 1.27 1.389.329.597.494 1.372.494 2.327V297h-2.489v-1.79h-.102c-.165.33-.412.654-.741.972-.33.318-.753.582-1.27.792-.517.211-1.137.316-1.858.316Zm.554-2.046c.704 0 1.307-.139 1.807-.417.505-.279.889-.642 1.15-1.091.267-.455.401-.941.401-1.458v-1.687c-.091.091-.267.176-.529.256a8.42 8.42 0 0 1-.878.196c-.329.051-.65.099-.963.145-.312.039-.573.073-.784.102a6.274 6.274 0 0 0-1.355.315 2.331 2.331 0 0 0-.971.639c-.239.273-.358.637-.358 1.091 0 .631.233 1.108.699 1.432.465.318 1.059.477 1.781.477Zm9.505 1.756v-17.455h2.548v6.486h.153c.148-.272.361-.588.64-.946.278-.358.664-.67 1.159-.937.494-.273 1.147-.409 1.96-.409 1.057 0 2 .267 2.83.801.829.534 1.48 1.304 1.951 2.309.477 1.006.716 2.216.716 3.631 0 1.415-.236 2.628-.707 3.639-.472 1.006-1.12 1.782-1.943 2.327-.824.54-1.765.81-2.821.81-.796 0-1.446-.134-1.952-.401-.5-.267-.892-.579-1.176-.937a7.205 7.205 0 0 1-.657-.955h-.213V297h-2.488Zm2.497-6.545c0 .92.133 1.727.4 2.42.268.693.654 1.236 1.16 1.628.505.386 1.125.579 1.858.579.761 0 1.397-.201 1.909-.605.511-.409.897-.963 1.159-1.662.267-.699.4-1.485.4-2.36 0-.864-.13-1.64-.392-2.327-.255-.688-.642-1.23-1.159-1.628-.511-.398-1.15-.597-1.917-.597-.739 0-1.364.191-1.875.571-.506.381-.89.912-1.151 1.594s-.392 1.477-.392 2.387Zm20.614 1.116v-7.662h2.557V297h-2.506v-2.267h-.136c-.301.699-.784 1.281-1.449 1.747-.659.46-1.48.69-2.463.69-.841 0-1.585-.184-2.233-.554-.642-.375-1.148-.928-1.517-1.661-.364-.733-.545-1.64-.545-2.719v-8.327h2.548v8.02c0 .892.247 1.602.741 2.131.495.528 1.137.792 1.927.792.477 0 .951-.119 1.423-.358a2.989 2.989 0 0 0 1.184-1.082c.319-.483.475-1.097.469-1.841Zm5.981 10.338v-18h2.489v2.122h.213c.148-.272.361-.588.639-.946s.665-.67 1.159-.937c.494-.273 1.148-.409 1.96-.409 1.057 0 2 .267 2.83.801.829.534 1.48 1.304 1.952 2.309.477 1.006.715 2.216.715 3.631 0 1.415-.235 2.628-.707 3.639-.472 1.006-1.119 1.782-1.943 2.327-.824.54-1.764.81-2.821.81-.796 0-1.446-.134-1.952-.401-.5-.267-.892-.579-1.176-.937a7.092 7.092 0 0 1-.656-.955h-.154v6.946h-2.548Zm2.497-11.454c0 .92.134 1.727.401 2.42.267.693.653 1.236 1.159 1.628.506.386 1.125.579 1.858.579.761 0 1.398-.201 1.909-.605.511-.409.898-.963 1.159-1.662.267-.699.401-1.485.401-2.36 0-.864-.131-1.64-.392-2.327-.256-.688-.642-1.23-1.16-1.628-.511-.398-1.15-.597-1.917-.597-.739 0-1.364.191-1.875.571-.506.381-.889.912-1.151 1.594-.261.682-.392 1.477-.392 2.387Zm16.125 6.835c-.829 0-1.579-.154-2.25-.46a3.804 3.804 0 0 1-1.594-1.356c-.386-.59-.579-1.315-.579-2.173 0-.739.142-1.346.426-1.824a3.142 3.142 0 0 1 1.151-1.133 5.982 5.982 0 0 1 1.619-.631c.597-.142 1.205-.25 1.824-.324l1.909-.221c.489-.063.844-.162 1.065-.299.222-.136.333-.358.333-.664v-.06c0-.744-.211-1.321-.631-1.73-.415-.409-1.034-.614-1.858-.614-.858 0-1.534.19-2.028.571-.489.375-.827.793-1.015 1.253l-2.395-.545c.285-.796.699-1.438 1.245-1.927a5.037 5.037 0 0 1 1.9-1.073 7.4 7.4 0 0 1 2.259-.341c.523 0 1.077.062 1.662.187a4.85 4.85 0 0 1 1.653.665c.517.324.941.787 1.27 1.389.33.597.494 1.372.494 2.327V297h-2.488v-1.79h-.102c-.165.33-.412.654-.742.972-.329.318-.753.582-1.27.792-.517.211-1.136.316-1.858.316Zm.554-2.046c.705 0 1.307-.139 1.807-.417.506-.279.889-.642 1.151-1.091.267-.455.4-.941.4-1.458v-1.687c-.091.091-.267.176-.528.256a8.537 8.537 0 0 1-.878.196c-.33.051-.651.099-.963.145-.313.039-.574.073-.784.102a6.26 6.26 0 0 0-1.355.315 2.328 2.328 0 0 0-.972.639c-.239.273-.358.637-.358 1.091 0 .631.233 1.108.699 1.432.466.318 1.06.477 1.781.477Zm15.411-11.335v2.046h-7.15v-2.046h7.15Zm-5.233-3.136h2.549v12.383c0 .495.074.867.221 1.117.148.244.338.412.571.503.239.085.498.127.776.127.204 0 .383-.014.537-.042l.358-.068.46 2.105a4.3 4.3 0 0 1-.631.17 4.9 4.9 0 0 1-1.022.102 4.473 4.473 0 0 1-1.875-.358 3.214 3.214 0 0 1-1.407-1.159c-.358-.522-.537-1.179-.537-1.968v-12.912Zm13.554 16.491c-1.29 0-2.401-.275-3.333-.826-.926-.557-1.642-1.339-2.147-2.344-.5-1.012-.75-2.196-.75-3.554 0-1.341.25-2.523.75-3.546.505-1.022 1.21-1.821 2.113-2.395.909-.573 1.972-.86 3.188-.86a6.42 6.42 0 0 1 2.147.366 5.189 5.189 0 0 1 1.867 1.151c.551.522.986 1.201 1.304 2.037.318.829.477 1.838.477 3.025v.904h-10.406v-1.91h7.909c0-.67-.136-1.264-.409-1.781a3.102 3.102 0 0 0-1.151-1.236c-.488-.301-1.062-.451-1.721-.451-.716 0-1.341.176-1.875.528a3.535 3.535 0 0 0-1.227 1.364 3.926 3.926 0 0 0-.427 1.815v1.492c0 .875.154 1.619.461 2.233a3.328 3.328 0 0 0 1.304 1.406c.556.318 1.207.477 1.951.477a4.06 4.06 0 0 0 1.321-.204 2.875 2.875 0 0 0 1.032-.631c.289-.279.511-.622.664-1.031l2.412.434a4.367 4.367 0 0 1-1.039 1.867c-.495.528-1.117.94-1.867 1.236-.744.289-1.594.434-2.548.434Zm10.992-8.037V297h-2.548v-13.091h2.446v2.131h.162a3.745 3.745 0 0 1 1.414-1.671c.648-.42 1.463-.63 2.446-.63.892 0 1.674.187 2.344.562.671.369 1.19.921 1.56 1.654.369.732.554 1.639.554 2.718V297h-2.549v-8.02c0-.949-.247-1.69-.741-2.224-.494-.54-1.173-.81-2.037-.81-.591 0-1.116.128-1.577.384-.454.255-.815.63-1.082 1.125-.261.488-.392 1.079-.392 1.772ZM402.964 297v-17.455h6.222c1.358 0 2.483.248 3.375.742.892.494 1.56 1.17 2.003 2.028.443.853.665 1.813.665 2.881 0 1.074-.225 2.04-.674 2.898-.443.852-1.113 1.528-2.011 2.028-.892.494-2.014.742-3.366.742h-4.279v-2.233h4.04c.858 0 1.554-.148 2.088-.443a2.79 2.79 0 0 0 1.176-1.228c.25-.517.375-1.105.375-1.764s-.125-1.244-.375-1.756c-.25-.511-.645-.912-1.185-1.201-.534-.29-1.238-.435-2.113-.435h-3.307V297h-2.634Zm18.84.29c-.83 0-1.58-.154-2.25-.46a3.798 3.798 0 0 1-1.594-1.356c-.386-.59-.579-1.315-.579-2.173 0-.739.142-1.346.426-1.824a3.14 3.14 0 0 1 1.15-1.133 5.989 5.989 0 0 1 1.62-.631c.596-.142 1.204-.25 1.824-.324l1.909-.221c.488-.063.843-.162 1.065-.299.222-.136.332-.358.332-.664v-.06c0-.744-.21-1.321-.63-1.73-.415-.409-1.034-.614-1.858-.614-.858 0-1.534.19-2.029.571-.488.375-.826.793-1.014 1.253l-2.395-.545c.284-.796.699-1.438 1.245-1.927a5.037 5.037 0 0 1 1.9-1.073 7.4 7.4 0 0 1 2.259-.341c.522 0 1.076.062 1.662.187a4.85 4.85 0 0 1 1.653.665c.517.324.94.787 1.27 1.389.329.597.494 1.372.494 2.327V297h-2.488v-1.79h-.103a3.61 3.61 0 0 1-.741.972c-.33.318-.753.582-1.27.792-.517.211-1.136.316-1.858.316Zm.554-2.046c.705 0 1.307-.139 1.807-.417.505-.279.889-.642 1.15-1.091.267-.455.401-.941.401-1.458v-1.687c-.091.091-.267.176-.528.256a8.537 8.537 0 0 1-.878.196c-.33.051-.651.099-.963.145a64.13 64.13 0 0 0-.785.102 6.274 6.274 0 0 0-1.355.315 2.331 2.331 0 0 0-.971.639c-.239.273-.358.637-.358 1.091 0 .631.233 1.108.699 1.432.466.318 1.059.477 1.781.477Zm11.849-6.017V297h-2.549v-13.091h2.446v2.131h.162a3.747 3.747 0 0 1 1.415-1.671c.648-.42 1.463-.63 2.446-.63.892 0 1.673.187 2.344.562.67.369 1.19.921 1.56 1.654.369.732.554 1.639.554 2.718V297h-2.549v-8.02c0-.949-.247-1.69-.741-2.224-.495-.54-1.174-.81-2.037-.81-.591 0-1.117.128-1.577.384-.454.255-.815.63-1.082 1.125-.262.488-.392 1.079-.392 1.772Zm17.284 12.955c-1.04 0-1.935-.137-2.685-.409-.744-.273-1.352-.634-1.824-1.083a4.556 4.556 0 0 1-1.057-1.474l2.191-.904c.153.25.358.515.613.793.262.284.614.526 1.057.725.449.198 1.026.298 1.73.298.966 0 1.765-.236 2.395-.708.631-.465.946-1.21.946-2.232v-2.574h-.162a5.844 5.844 0 0 1-.664.929c-.285.341-.677.636-1.177.886s-1.15.375-1.951.375c-1.034 0-1.966-.242-2.796-.724-.824-.489-1.477-1.208-1.96-2.157-.477-.954-.716-2.128-.716-3.52s.236-2.585.707-3.579c.478-.994 1.131-1.756 1.961-2.284.829-.534 1.77-.801 2.821-.801.812 0 1.468.136 1.968.409.5.267.89.579 1.168.937.284.358.503.674.656.946h.188v-2.122h2.497v13.381c0 1.125-.261 2.048-.784 2.77-.523.721-1.23 1.255-2.122 1.602-.887.347-1.887.52-3 .52Zm-.026-7.492c.733 0 1.352-.17 1.858-.511.512-.347.898-.841 1.159-1.483.267-.648.401-1.423.401-2.327 0-.88-.131-1.656-.392-2.326-.262-.671-.645-1.194-1.151-1.569-.505-.38-1.13-.571-1.875-.571-.767 0-1.406.199-1.917.597-.512.392-.898.926-1.16 1.602-.255.676-.383 1.432-.383 2.267 0 .858.131 1.611.392 2.259.261.648.648 1.153 1.159 1.517.517.364 1.154.545 1.909.545Zm13.159 2.6c-.829 0-1.579-.154-2.25-.46a3.796 3.796 0 0 1-1.593-1.356c-.387-.59-.58-1.315-.58-2.173 0-.739.142-1.346.426-1.824a3.142 3.142 0 0 1 1.151-1.133 5.982 5.982 0 0 1 1.619-.631c.597-.142 1.205-.25 1.824-.324l1.909-.221c.489-.063.844-.162 1.065-.299.222-.136.333-.358.333-.664v-.06c0-.744-.211-1.321-.631-1.73-.415-.409-1.034-.614-1.858-.614-.858 0-1.534.19-2.028.571-.489.375-.827.793-1.015 1.253l-2.394-.545c.284-.796.698-1.438 1.244-1.927a5.045 5.045 0 0 1 1.9-1.073 7.4 7.4 0 0 1 2.259-.341c.523 0 1.077.062 1.662.187a4.85 4.85 0 0 1 1.653.665c.517.324.941.787 1.27 1.389.33.597.495 1.372.495 2.327V297h-2.489v-1.79h-.102c-.165.33-.412.654-.742.972-.329.318-.753.582-1.27.792-.517.211-1.136.316-1.858.316Zm.554-2.046c.705 0 1.307-.139 1.807-.417.506-.279.889-.642 1.151-1.091.267-.455.4-.941.4-1.458v-1.687c-.091.091-.267.176-.528.256a8.478 8.478 0 0 1-.878.196c-.33.051-.651.099-.963.145-.313.039-.574.073-.784.102a6.26 6.26 0 0 0-1.355.315 2.328 2.328 0 0 0-.972.639c-.239.273-.358.637-.358 1.091 0 .631.233 1.108.699 1.432.466.318 1.06.477 1.781.477Zm11.849-6.017V297h-2.548v-13.091h2.446v2.131h.162a3.745 3.745 0 0 1 1.414-1.671c.648-.42 1.463-.63 2.446-.63.892 0 1.674.187 2.344.562.671.369 1.191.921 1.56 1.654.369.732.554 1.639.554 2.718V297h-2.548v-8.02c0-.949-.248-1.69-.742-2.224-.494-.54-1.173-.81-2.037-.81-.591 0-1.116.128-1.577.384-.454.255-.815.63-1.082 1.125-.261.488-.392 1.079-.392 1.772Zm16.696 8.029c-1.057 0-2-.27-2.83-.81-.823-.545-1.471-1.321-1.943-2.327-.466-1.011-.699-2.224-.699-3.639 0-1.415.236-2.625.708-3.631.477-1.005 1.13-1.775 1.96-2.309.83-.534 1.77-.801 2.821-.801.813 0 1.466.136 1.96.409.5.267.887.579 1.159.937.279.358.495.674.648.946h.154v-6.486h2.548V297h-2.489v-2.037h-.213a6.721 6.721 0 0 1-.665.955c-.284.358-.676.67-1.176.937-.5.267-1.148.401-1.943.401Zm.563-2.174c.732 0 1.352-.193 1.857-.579.512-.392.898-.935 1.16-1.628.267-.693.4-1.5.4-2.42 0-.91-.131-1.705-.392-2.387-.261-.682-.645-1.213-1.15-1.594-.506-.38-1.131-.571-1.875-.571-.768 0-1.407.199-1.918.597-.511.398-.898.94-1.159 1.628-.256.687-.384 1.463-.384 2.327 0 .875.131 1.661.392 2.36.262.699.648 1.253 1.159 1.662.517.404 1.154.605 1.91.605Zm13.37 2.208c-.83 0-1.58-.154-2.25-.46a3.792 3.792 0 0 1-1.594-1.356c-.387-.59-.58-1.315-.58-2.173 0-.739.142-1.346.426-1.824a3.142 3.142 0 0 1 1.151-1.133 5.995 5.995 0 0 1 1.619-.631c.597-.142 1.205-.25 1.824-.324l1.909-.221c.489-.063.844-.162 1.066-.299.221-.136.332-.358.332-.664v-.06c0-.744-.21-1.321-.631-1.73-.415-.409-1.034-.614-1.858-.614-.858 0-1.534.19-2.028.571-.489.375-.827.793-1.014 1.253l-2.395-.545c.284-.796.699-1.438 1.244-1.927a5.041 5.041 0 0 1 1.901-1.073 7.393 7.393 0 0 1 2.258-.341c.523 0 1.077.062 1.662.187a4.863 4.863 0 0 1 1.654.665c.517.324.94.787 1.269 1.389.33.597.495 1.372.495 2.327V297h-2.489v-1.79h-.102c-.165.33-.412.654-.742.972-.329.318-.752.582-1.27.792-.517.211-1.136.316-1.857.316Zm.554-2.046c.704 0 1.306-.139 1.806-.417.506-.279.89-.642 1.151-1.091.267-.455.4-.941.4-1.458v-1.687c-.09.091-.267.176-.528.256a8.478 8.478 0 0 1-.878.196c-.329.051-.65.099-.963.145a63.64 63.64 0 0 0-.784.102 6.274 6.274 0 0 0-1.355.315 2.341 2.341 0 0 0-.972.639c-.238.273-.358.637-.358 1.091 0 .631.233 1.108.699 1.432.466.318 1.06.477 1.782.477Zm9.3 1.756v-13.091h2.463v2.08h.136a3.16 3.16 0 0 1 1.262-1.662 3.61 3.61 0 0 1 2.062-.614 11.338 11.338 0 0 1 1.083.06v2.437a4.867 4.867 0 0 0-.546-.094 5.305 5.305 0 0 0-.784-.059c-.602 0-1.139.128-1.611.383a2.851 2.851 0 0 0-1.517 2.566V297h-2.548Zm12.903.29c-.829 0-1.579-.154-2.25-.46a3.796 3.796 0 0 1-1.593-1.356c-.387-.59-.58-1.315-.58-2.173 0-.739.142-1.346.426-1.824a3.142 3.142 0 0 1 1.151-1.133 5.982 5.982 0 0 1 1.619-.631c.597-.142 1.205-.25 1.824-.324l1.909-.221c.489-.063.844-.162 1.065-.299.222-.136.333-.358.333-.664v-.06c0-.744-.21-1.321-.631-1.73-.415-.409-1.034-.614-1.858-.614-.858 0-1.534.19-2.028.571-.489.375-.827.793-1.014 1.253l-2.395-.545c.284-.796.698-1.438 1.244-1.927a5.041 5.041 0 0 1 1.901-1.073 7.389 7.389 0 0 1 2.258-.341c.523 0 1.077.062 1.662.187a4.85 4.85 0 0 1 1.653.665c.517.324.941.787 1.27 1.389.33.597.495 1.372.495 2.327V297h-2.489v-1.79h-.102c-.165.33-.412.654-.742.972-.329.318-.753.582-1.27.792-.517.211-1.136.316-1.858.316Zm.554-2.046c.705 0 1.307-.139 1.807-.417.506-.279.889-.642 1.151-1.091.267-.455.4-.941.4-1.458v-1.687c-.091.091-.267.176-.528.256a8.478 8.478 0 0 1-.878.196c-.33.051-.651.099-.963.145-.313.039-.574.073-.784.102a6.274 6.274 0 0 0-1.355.315 2.328 2.328 0 0 0-.972.639c-.238.273-.358.637-.358 1.091 0 .631.233 1.108.699 1.432.466.318 1.06.477 1.781.477Zm11.849-6.017V297h-2.548v-13.091h2.446v2.131h.162a3.745 3.745 0 0 1 1.414-1.671c.648-.42 1.464-.63 2.447-.63.892 0 1.673.187 2.343.562.671.369 1.191.921 1.56 1.654.369.732.554 1.639.554 2.718V297h-2.548v-8.02c0-.949-.248-1.69-.742-2.224-.494-.54-1.173-.81-2.037-.81-.591 0-1.116.128-1.577.384-.454.255-.815.63-1.082 1.125-.261.488-.392 1.079-.392 1.772Z"/>
</svg>
